<svg xmlns="http://www.w3.org/2000/svg" width="1280" height="210" viewBox="0 0 1280 210">
  <path fill="#004B8C" d="M1239.41137,88.3503609 L1239.41137,133.805981 C1239.41137,134.873015 1240.265,135.513235 1241.11862,135.513235 L1250.50852,135.513235 C1251.57555,135.513235 1252.21577,134.659608 1252.21577,133.805981 L1252.21577,96.4598144 C1252.21577,88.3503609 1257.97775,77.0398075 1270.99556,77.0398075 C1273.12963,77.0398075 1274.62347,77.2532142 1275.69051,77.6800275 C1276.11732,77.8934342 1276.75754,77.8934342 1277.18435,77.4666208 C1277.61117,77.2532142 1278.03798,76.8264008 1278.03798,76.1861808 L1279.95864,67.009694 C1280.17205,66.1560674 1279.53183,65.3024407 1278.6782,65.089034 C1276.54413,64.448814 1274.19666,64.2354074 1271.20897,64.2354074 C1261.81907,64.2354074 1255.20347,68.5035407 1251.36215,73.8387075 L1251.36215,67.6499141 C1251.36215,66.5828807 1250.50852,65.9426607 1249.65489,65.9426607 L1240.4784,65.9426607 C1240.05159,65.9426607 1239.62478,66.1560674 1239.19796,66.369474 C1238.77115,66.7962874 1238.77115,67.2231007 1238.77115,67.6499141 L1238.98456,75.9727741 L1239.41137,88.3503609 Z M1174.53574,76.1861808 C1186.0597,76.1861808 1193.52894,83.0151942 1194.16916,93.8989343 L1153.19508,93.8989343 C1154.47552,84.7224476 1164.07882,76.1861808 1174.53574,76.1861808 Z M1197.79707,114.172568 C1197.37026,113.959161 1196.94344,113.745755 1196.30322,113.745755 C1195.87641,113.745755 1195.4496,114.172568 1195.02278,114.599381 C1191.82168,119.721141 1184.99267,125.269715 1175.17596,125.269715 C1163.86541,125.269715 1154.68892,116.946855 1152.76826,104.996081 L1206.11993,104.996081 C1207.18696,104.996081 1207.82718,104.142454 1207.82718,103.288828 L1207.82718,99.0206944 C1207.82718,78.7470608 1193.95575,64.448814 1174.32234,64.2354074 C1154.26211,64.2354074 1139.11024,79.8140942 1139.11024,100.727948 C1139.11024,121.428395 1154.68892,137.220488 1175.17596,137.220488 C1187.34014,137.220488 1197.37026,132.312135 1205.0529,122.495428 C1205.69312,121.641801 1205.47971,120.574768 1204.83949,120.147955 L1197.79707,114.172568 Z M1081.91725,125.269715 C1067.83241,125.269715 1057.16208,114.812788 1057.16208,100.727948 C1057.16208,86.8565143 1067.83241,76.1861808 1081.91725,76.1861808 C1095.57528,76.1861808 1105.17858,86.2162943 1105.17858,100.727948 C1105.39198,115.239601 1095.78868,125.269715 1081.91725,125.269715 Z M1119.05001,100.727948 C1119.05001,79.6006875 1103.47132,64.2354074 1081.91725,64.2354074 C1074.66142,64.2354074 1064.63131,67.009694 1057.58889,74.2655208 L1057.58889,27.102647 C1057.58889,26.0356136 1056.73526,25.3953936 1055.88164,25.3953936 L1046.49174,25.3953936 C1045.42471,25.3953936 1044.78449,26.2490203 1044.78449,27.102647 L1044.78449,133.805981 C1044.78449,134.873015 1045.63812,135.513235 1046.49174,135.513235 L1055.88164,135.513235 C1056.94867,135.513235 1057.58889,134.659608 1057.58889,133.805981 L1057.58889,127.403781 C1064.63131,134.659608 1074.66142,137.433895 1081.91725,137.433895 C1103.47132,137.220488 1119.05001,121.855208 1119.05001,100.727948 Z M1011.70646,133.805981 L1011.70646,91.7648676 C1011.70646,74.0521141 1002.31656,64.2354074 985.030622,64.2354074 C976.280949,64.2354074 967.958089,68.7169474 963.263142,75.9727741 C958.141382,66.5828807 948.964895,64.2354074 942.135882,64.2354074 C934.666648,64.2354074 927.197415,67.6499141 922.289062,72.9850808 L922.289062,67.6499141 C922.289062,66.5828807 921.435435,65.9426607 920.581808,65.9426607 L910.551695,65.9426607 C910.124881,65.9426607 909.698068,66.1560674 909.271255,66.5828807 C908.844441,67.009694 908.844441,67.4365074 908.844441,67.8633207 L909.057848,71.7046408 C909.271255,75.3325541 909.484661,78.9604675 909.484661,82.3749742 L909.484661,133.805981 C909.484661,134.873015 910.338288,135.513235 911.191915,135.513235 L920.581808,135.513235 C921.648842,135.513235 922.289062,134.659608 922.289062,133.805981 L922.289062,99.8743211 C922.289062,76.8264008 937.440935,76.1861808 939.361595,76.1861808 C950.245335,76.1861808 954.300062,81.3079409 954.300062,95.1793743 L954.300062,133.805981 C954.300062,134.873015 955.153689,135.513235 956.007315,135.513235 L965.397209,135.513235 C966.464242,135.513235 967.104462,134.659608 967.104462,133.805981 L967.104462,98.5938811 C967.104462,91.7648676 968.811715,76.1861808 984.176996,76.1861808 C995.060736,76.1861808 999.115462,81.3079409 999.115462,95.1793743 L999.115462,133.805981 C999.115462,134.873015 999.969089,135.513235 1000.82272,135.513235 L1010.21261,135.513235 C1010.85283,135.513235 1011.70646,134.873015 1011.70646,133.805981 Z M864.242448,134.019388 C864.455854,134.873015 865.096074,135.513235 865.949701,135.513235 L875.553001,135.513235 C875.979814,135.513235 876.406628,135.299828 876.833441,134.873015 C877.260254,134.446201 877.260254,134.019388 877.260254,133.592575 L877.046848,131.031695 C876.833441,126.763561 876.406628,122.068615 876.406628,119.294328 L876.406628,67.6499141 C876.406628,66.5828807 875.553001,65.9426607 874.699374,65.9426607 L865.309481,65.9426607 C864.242448,65.9426607 863.602228,66.7962874 863.602228,67.6499141 L863.602228,101.581574 C863.602228,125.056308 845.889474,125.269715 845.249254,125.269715 C833.511887,125.269715 829.030347,119.294328 829.030347,104.355861 L829.030347,67.8633207 C829.030347,66.7962874 828.176721,66.1560674 827.323094,66.1560674 L817.9332,66.1560674 C816.866167,66.1560674 816.225947,67.009694 816.225947,67.8633207 L816.225947,109.904435 C816.225947,127.617188 825.61584,137.433895 842.901781,137.433895 C850.584421,137.433895 858.693874,133.592575 863.815634,128.044001 C864.029041,129.964661 864.029041,132.098728 864.242448,134.019388 Z M757.1123,64.2354074 C749.42966,64.2354074 741.320206,68.0767274 736.198446,73.6253008 C736.198446,71.7046408 735.98504,69.5705741 735.771633,67.6499141 C735.558226,66.7962874 734.918006,66.1560674 734.06438,66.1560674 L724.461079,66.1560674 C724.034266,66.1560674 723.607453,66.369474 723.180639,66.7962874 C722.753826,67.2231007 722.753826,67.6499141 722.753826,68.0767274 L722.967233,70.6376074 C723.180639,74.9057408 723.607453,79.6006875 723.607453,82.3749742 L723.607453,134.019388 C723.607453,135.086421 724.461079,135.726641 725.314706,135.726641 L734.7046,135.726641 C735.771633,135.726641 736.411853,134.873015 736.411853,134.019388 L736.411853,100.087728 C736.411853,76.6129941 754.124606,76.3995875 754.764826,76.3995875 C766.502193,76.3995875 770.983733,82.3749742 770.983733,97.313441 L770.983733,133.805981 C770.983733,134.873015 771.83736,135.513235 772.690987,135.513235 L782.08088,135.513235 C783.147913,135.513235 783.788133,134.659608 783.788133,133.805981 L783.788133,91.7648676 C783.788133,74.0521141 774.39824,64.2354074 757.1123,64.2354074 Z M598.977958,117.160261 C598.337738,115.453008 597.270705,114.812788 595.136638,114.812788 C593.002571,114.812788 538.370464,114.812788 538.370464,114.812788 C538.370464,114.812788 536.022991,115.026195 534.955957,116.946855 C534.102331,118.654108 534.102331,120.361361 534.529144,121.428395 C534.955957,122.282021 563.765858,177.767755 563.765858,177.767755 C563.765858,177.767755 564.406078,179.901822 566.540144,179.901822 C568.460804,179.901822 569.527838,177.767755 569.527838,177.767755 L598.551145,121.214988 C598.551145,121.428395 599.831585,119.080921 598.977958,117.160261 Z M598.551145,88.3503609 L569.527838,31.7975937 C569.527838,31.7975937 568.460804,29.663527 566.540144,29.663527 C564.406078,29.663527 563.765858,31.7975937 563.765858,31.7975937 C563.765858,31.7975937 534.955957,87.2833276 534.529144,88.1369543 C534.102331,88.9905809 533.888924,90.911241 534.955957,92.6184943 C536.022991,94.5391543 538.370464,94.752561 538.370464,94.752561 C538.370464,94.752561 593.002571,94.752561 595.136638,94.752561 C597.270705,94.752561 598.337738,94.112341 598.977958,92.4050877 C599.831585,90.4844276 598.551145,88.3503609 598.551145,88.3503609 Z M670.896006,104.782674 C670.896006,162.615882 624.373352,209.565349 566.753551,209.565349 C509.347157,209.565349 462.611097,162.615882 462.611097,104.782674 C462.611097,46.9494672 509.13375,0 566.753551,0 C624.373352,0 670.896006,46.9494672 670.896006,104.782674 Z M362.950182,125.269715 C348.865342,125.269715 338.195009,114.812788 338.195009,100.727948 C338.195009,86.8565143 348.865342,76.1861808 362.950182,76.1861808 C376.608209,76.1861808 386.211509,86.2162943 386.211509,100.727948 C386.211509,115.239601 376.608209,125.269715 362.950182,125.269715 Z M362.950182,64.2354074 C355.694355,64.2354074 345.664242,67.009694 338.621822,74.2655208 L338.621822,67.8633207 C338.621822,66.7962874 337.768195,66.1560674 336.914569,66.1560674 L327.524675,66.1560674 C326.457642,66.1560674 325.817422,67.009694 325.817422,67.8633207 L325.817422,174.566655 C325.817422,175.633689 326.671049,176.273909 327.524675,176.273909 L336.914569,176.273909 C337.981602,176.273909 338.621822,175.420282 338.621822,174.566655 L338.621822,127.403781 C345.664242,134.659608 355.694355,137.433895 362.950182,137.433895 C384.504256,137.433895 400.082943,122.068615 400.082943,100.941354 C399.869536,79.6006875 384.290849,64.2354074 362.950182,64.2354074 Z M240.454754,93.8989343 C241.521788,84.5090409 251.338494,76.1861808 261.795421,76.1861808 C273.319381,76.1861808 280.788615,83.0151942 281.428835,93.8989343 L240.454754,93.8989343 Z M261.582014,64.2354074 C241.521788,64.2354074 226.369914,79.8140942 226.369914,100.727948 C226.369914,121.428395 241.948601,137.220488 262.435641,137.220488 C274.599821,137.220488 284.629935,132.312135 292.312575,122.495428 C292.952795,121.641801 292.739388,120.574768 292.099168,120.147955 L284.843341,114.172568 C284.416528,113.959161 283.989715,113.745755 283.349495,113.745755 C282.922681,113.745755 282.495868,114.172568 282.069055,114.599381 C278.867955,119.721141 272.038941,125.269715 262.222234,125.269715 C250.911681,125.269715 241.735194,116.946855 239.814534,104.996081 L293.166201,104.996081 C294.233235,104.996081 294.873455,104.142454 294.873455,103.288828 L294.873455,99.0206944 C295.086861,78.7470608 281.428835,64.448814 261.582014,64.2354074 Z M141.647467,93.8989343 C142.714501,84.5090409 152.531207,76.1861808 162.988134,76.1861808 C174.512094,76.1861808 181.981327,83.0151942 182.621547,93.8989343 L141.647467,93.8989343 Z M162.988134,64.2354074 C142.927907,64.2354074 127.776034,79.8140942 127.776034,100.727948 C127.776034,121.428395 143.354721,137.220488 163.841761,137.220488 C176.00594,137.220488 186.036054,132.312135 193.718694,122.495428 C194.358914,121.641801 194.145507,120.574768 193.505287,120.147955 L186.24946,114.172568 C185.822647,113.959161 185.395834,113.745755 184.755614,113.745755 C184.3288,113.745755 183.901987,114.172568 183.475174,114.599381 C180.274074,119.721141 173.44506,125.269715 163.628354,125.269715 C152.317801,125.269715 143.141314,116.946855 141.220654,104.996081 L194.57232,104.996081 C195.639354,104.996081 196.279574,104.142454 196.279574,103.288828 L196.279574,99.0206944 C196.49298,78.7470608 182.621547,64.448814 162.988134,64.2354074 Z M97.0454734,25.3953936 L87.6555799,25.3953936 C86.5885466,25.3953936 85.9483266,26.2490203 85.9483266,27.102647 L85.9483266,133.805981 C85.9483266,134.873015 86.8019533,135.513235 87.6555799,135.513235 L97.0454734,135.513235 C98.1125067,135.513235 98.7527267,134.659608 98.7527267,133.805981 L98.7527267,27.102647 C98.7527267,26.0356136 97.8991,25.3953936 97.0454734,25.3953936 Z M37.0781994,95.392781 C37.0781994,95.392781 27.688306,93.0453077 27.688306,93.0453077 C18.7252259,90.911241 15.9509392,88.9905809 15.9509392,84.2956342 C15.9509392,77.8934342 23.4201726,76.1861808 27.9017126,76.1861808 C33.6636927,76.1861808 37.9318261,78.9604675 40.7061128,84.0822276 C40.9195194,84.5090409 41.3463328,84.9358542 41.7731461,84.9358542 C42.1999594,85.1492609 42.8401794,84.9358542 43.2669928,84.7224476 L51.5898529,79.1738742 C52.2300729,78.7470608 52.6568862,77.6800275 52.2300729,77.0398075 C48.1753462,68.7169474 39.6390794,64.2354074 28.5419326,64.2354074 C15.5241258,64.2354074 2.29291235,70.8510141 2.29291235,85.7894809 C2.29291235,92.4050877 5.49401238,101.154761 20.6458859,104.782674 C20.6458859,104.782674 29.8223726,106.916741 29.8223726,106.916741 C36.8647927,108.623994 41.1329261,110.758061 41.1329261,115.879821 C41.1329261,122.282021 34.090506,125.056308 27.2614926,125.056308 C18.9386325,125.056308 14.0302791,120.147955 11.2559924,115.879821 C11.0425858,115.453008 10.6157724,115.239601 10.1889591,115.026195 C9.76214576,115.026195 9.33533243,115.026195 8.90851909,115.239601 L0.799065668,120.788175 C-0.0545610082,121.428395 -0.267967677,122.495428 0.37225233,123.135648 C6.34763906,132.098728 15.5241258,136.793675 27.2614926,136.793675 C40.0658928,136.793675 54.7909529,131.031695 54.7909529,114.812788 C54.5775462,105.636301 47.7485328,97.953661 37.0781994,95.392781 Z"/>
</svg>
