<svg xmlns="http://www.w3.org/2000/svg" viewBox="0 0 219.99 79.17"><defs><style>.cls-1{fill:#4d4d4d;}</style></defs><title>logo__greyduck</title><g id="Layer_2" data-name="Layer 2"><g id="Layer_1-2" data-name="Layer 1"><g id="Layer_2-2" data-name="Layer 2"><g id="Assets"><g id="Logo_Type" data-name="Logo Type"><path class="cls-1" d="M90.7,43.52A8.19,8.19,0,0,0,84.51,41c-5.58,0-8.93,4.39-8.93,9.39s3.34,9.38,8.93,9.38a12.45,12.45,0,0,0,6-1.53V51H85.34V49h7.39V59.59a17.06,17.06,0,0,1-8.22,2.21A11,11,0,0,1,73.19,51c0-.21,0-.43,0-.64A11.05,11.05,0,0,1,83.89,39h.62a10.39,10.39,0,0,1,7.85,2.91Z"/><path class="cls-1" d="M99.54,51.37c0-1.29-.06-2.39-.12-4.48h2v2.67h.06a4.71,4.71,0,0,1,4.6-3,5.41,5.41,0,0,1,1.5.18l-.4,2a3.31,3.31,0,0,0-1.17-.15,4.49,4.49,0,0,0-4.45,4.53v8.17h-2Z"/><path class="cls-1" d="M111.9,54.62a5.36,5.36,0,0,0,9.88,2.67l1.56,1.29a7.48,7.48,0,0,1-6.16,3,7.28,7.28,0,0,1-7.42-7.15,2.54,2.54,0,0,1,0-.39,7.24,7.24,0,0,1,7-7.51H117c4.35,0,6.87,3.25,6.87,7.18v.92ZM121.66,53a4.32,4.32,0,0,0-4-4.6,3.21,3.21,0,0,0-.62,0,5,5,0,0,0-5,4.6Z"/><path class="cls-1" d="M134.42,58.76l4.39-11.87h2.45L134.08,65c-.86,2.21-2,3.62-4.51,3.62a6.55,6.55,0,0,1-1.87-.21l.21-2a3.23,3.23,0,0,0,1.53.34c1.41,0,2.15-1,2.76-2.58l1-2.76-5.89-14.54h2.55Z"/><path class="cls-1" d="M145.62,39.53h8.56c5.71,0,11,3.5,11,10.86s-6.29,10.86-11.5,10.86h-8.1Zm6.75,18.22c4.85,0,8.8-2.08,8.8-7.36S157.73,43,153,43h-3.53V57.75Z"/><path class="cls-1" d="M183.53,61.24H180V58.88h0a4.62,4.62,0,0,1-4.51,2.73c-4,0-5.37-2.79-5.37-5.8V46.52h3.68V54c0,1.63.12,4.32,2.7,4.32,2.42,0,3.37-1.78,3.37-3.74v-8h3.68Z"/><path class="cls-1" d="M199.29,50.94a4.08,4.08,0,0,0-2.79-1.47,4.42,4.42,0,0,0,0,8.83,3.54,3.54,0,0,0,2.85-1.38l2.45,2.64a8.3,8.3,0,0,1-5.31,2c-4.45,0-8-3.1-8-7.73s3.56-7.73,8-7.73a7.23,7.23,0,0,1,5.34,2.24Z"/><path class="cls-1" d="M205.52,38.06h3.68V52.63l5.67-6.1h4.72l-6.32,6.69,6.72,8h-4.88l-5.86-7.51h-.06v7.51h-3.68Z"/><path class="cls-1" d="M22.55,48c-3.24,3.42-13.34,3-14.33,5.16s7.22,3.28,16.28,3.35a8.87,8.87,0,0,0,11.12.94c6.44,5.62,2.5,19.11-7.76,21.25C7.11,83-10.22,57.08,7.07,39.63,27.81,18.69,33.24,8.7,32.79,0,61.51,23.58,64.68,49.23,57.2,60.14a2.55,2.55,0,0,1-4.6-.9C49.26,43.77,35.05,34.82,22.55,48"/></g></g></g></g></g></svg>