<svg xmlns="http://www.w3.org/2000/svg" width="250" height="125" viewBox="0 0 250 125">
  <g fill="none" fill-rule="evenodd">
    <path fill="#232323" fill-rule="nonzero" d="M44.4557271,85.2635619 L62.997563,85.2635619 L81.7181154,34.8623337 L81.8968318,34.8623337 L81.8968318,85.2635619 L107.229894,85.2635619 L107.229894,1.73643808 L72.0674249,1.73643808 L54.2404549,52.3157625 L35.5199025,1.73643808 L0,1.73643808 L0,85.2635619 L25.1990252,85.2635619 L25.1990252,34.8623337 L25.3777417,34.8623337 L44.4557271,85.2635619 Z M113.216897,33.6601842 L139.130788,33.6601842 L139.130788,85.308086 L113.216897,85.308086 L113.216897,33.6601842 Z M193.415922,53.8741044 C193.415922,62.778915 186.222583,67.4984647 179.073924,67.4984647 C173.980504,67.4984647 169.959383,65.4058342 169.959383,60.1519959 C169.959383,55.6105425 172.952884,52.4938588 179.073924,51.4252815 L193.415922,48.9764585 L193.415922,53.8741044 Z M220,85.2635619 L220,31.5675537 C220,8.37052201 203.558083,0 183.407799,0 C160.308692,0 146.458164,12.1995906 145.251828,28.0946776 L171.701868,28.0946776 C172.238018,23.7313204 176.259139,19.9022518 183.095045,19.9022518 C189.93095,19.9022518 193.415922,23.3751279 193.415922,29.1632549 L193.415922,31.3894575 L173.265638,33.9718526 C155.215272,36.2425793 143.151909,43.5445241 143.151909,62.0665302 C143.151909,78.2732856 153.830219,87 170.450853,87 C182.156783,87 189.350122,82.2804504 193.907392,74.6223132 L194.264825,85.2635619 L220,85.2635619 Z M113.216897,1.73643808 L139.130788,1.73643808 L139.130788,28.0946776 L113.216897,28.0946776 L113.216897,1.73643808 Z" transform="translate(15 9)"/>
    <path fill="#232323" fill-rule="nonzero" d="M5.67424858,12.5217391 C5.22745735,11.0869565 3.70836718,6.04347826 3.12753859,4.04347826 L3.08285946,4.04347826 L3.08285946,12.5217391 L0,12.5217391 L0,0.260869565 L4.82534525,0.260869565 C4.82534525,0.260869565 6.96994314,7.69565217 7.23801787,8.82608696 C7.50609261,7.69565217 9.60601137,0.260869565 9.60601137,0.260869565 L14.3866775,0.260869565 L14.3866775,12.5217391 L11.2591389,12.5217391 L11.2591389,4.04347826 L11.2144598,4.04347826 C10.6336312,6 9.11454102,11.0869565 8.6677498,12.5217391 L5.67424858,12.5217391 Z M15.7270512,3.2173913 L15.7270512,0.260869565 L18.8992689,0.260869565 L18.8992689,3.2173913 L15.7270512,3.2173913 Z M18.943948,12.5217391 L15.7717303,12.5217391 L15.7717303,4.17391304 L18.943948,4.17391304 L18.943948,12.5217391 Z M23.4565394,4.17391304 L23.4565394,5.47826087 C23.7246141,4.82608696 24.5735175,3.91304348 26.1819659,3.91304348 C27.8350934,3.91304348 29.1754671,4.91304348 29.1754671,6.86956522 L29.1754671,12.5652174 L26.0032494,12.5652174 L26.0032494,7.82608696 C26.0032494,6.73913043 25.5564582,6.39130435 24.8862713,6.39130435 C24.2607636,6.39130435 23.5905768,6.86956522 23.5905768,8.30434783 L23.5905768,12.4782609 L20.4183591,12.4782609 L20.4183591,4.17391304 L23.4565394,4.17391304 Z M33.5987002,4.17391304 L33.5987002,5.47826087 C33.866775,4.82608696 34.7156783,3.91304348 36.3241267,3.91304348 C37.9772543,3.91304348 39.3176279,4.91304348 39.3176279,6.86956522 L39.3176279,12.5652174 L36.1007311,12.5652174 L36.1007311,7.82608696 C36.1007311,6.73913043 35.6539399,6.39130435 34.983753,6.39130435 C34.3582453,6.39130435 33.6880585,6.86956522 33.6880585,8.30434783 L33.6880585,12.4782609 L30.5158408,12.4782609 L30.5158408,4.17391304 L33.5987002,4.17391304 Z M48.8789602,10.826087 C48.1640942,12.0434783 46.6896832,12.7826087 44.81316,12.7826087 C42.0877335,12.7826087 40.1665313,11.2173913 40.1665313,8.34782609 C40.1665313,5.43478261 42.1324127,3.86956522 44.7238018,3.86956522 C47.717303,3.86956522 49.1470349,5.91304348 49.1470349,8.47826087 L49.1470349,9.13043478 L43.338749,9.13043478 C43.338749,9.73913043 43.6068237,10.5217391 44.7238018,10.5217391 C45.3939886,10.5217391 45.8407799,10.2173913 46.0641755,9.82608696 L48.8789602,10.826087 Z M43.338749,7.47826087 L46.0194963,7.47826087 C45.9748172,6.56521739 45.5727051,6 44.7238018,6 C43.8302193,6 43.4281072,6.56521739 43.338749,7.47826087 Z M55.1787165,11.4782609 C54.6872461,12.3478261 53.8383428,12.7826087 52.5426483,12.7826087 C50.7554833,12.7826087 49.8172218,11.7826087 49.8172218,10.3478261 C49.8172218,8.43478261 51.2916328,7.7826087 52.9894395,7.52173913 L55.0893582,7.2173913 L55.0893582,6.82608696 C55.0893582,6.34782609 54.8659626,6 54.1510967,6 C53.525589,6 53.2128351,6.39130435 53.168156,6.73913043 L50.1299756,6.73913043 C50.264013,5.08695652 51.9171405,3.91304348 54.1064175,3.91304348 C56.3403737,3.91304348 58.1722177,4.73913043 58.1722177,7.2173913 L58.1722177,12.5652174 L55.2233956,12.5652174 L55.1787165,11.4782609 Z M55.0893582,9.52173913 L55.0893582,8.91304348 L53.6596263,9.13043478 C52.9894395,9.2173913 52.810723,9.56521739 52.810723,9.95652174 C52.810723,10.4782609 53.2575142,10.6521739 53.7489846,10.6521739 C54.4191714,10.6521739 55.0893582,10.3043478 55.0893582,9.52173913 Z M62.5507717,11.5217391 L62.5507717,16 L59.378554,16 L59.378554,4.17391304 L62.4614135,4.17391304 L62.4614135,5.39130435 C62.7741673,4.7826087 63.5783916,3.91304348 65.18684,3.91304348 C67.2420796,3.91304348 68.9398863,5.60869565 68.9398863,8.34782609 C68.9398863,11.0869565 67.2420796,12.7826087 65.18684,12.7826087 C64.0251828,12.7826087 62.997563,12.3043478 62.5507717,11.5217391 Z M64.1592201,6.26086957 C63.2209586,6.26086957 62.5060926,7 62.5060926,8.26086957 L62.5060926,8.43478261 C62.5060926,9.69565217 63.1762794,10.4347826 64.1592201,10.4347826 C65.1421608,10.4347826 65.7229894,9.56521739 65.7229894,8.34782609 C65.7229894,7.13043478 65.1421608,6.26086957 64.1592201,6.26086957 Z M69.7441105,8.34782609 C69.7441105,5.47826087 71.6653128,3.91304348 74.3907392,3.91304348 C77.1161657,3.91304348 79.037368,5.52173913 79.037368,8.34782609 C79.037368,11.2173913 77.1161657,12.7826087 74.3907392,12.7826087 C71.6653128,12.7826087 69.7441105,11.2173913 69.7441105,8.34782609 Z M75.8204712,8.34782609 C75.8204712,7.08695652 75.4183591,6.13043478 74.3460601,6.13043478 C73.2737612,6.13043478 72.8716491,7.08695652 72.8716491,8.34782609 C72.8716491,9.60869565 73.2737612,10.5652174 74.3460601,10.5652174 C75.4183591,10.5652174 75.8204712,9.60869565 75.8204712,8.34782609 Z M80.0649878,0.260869565 L83.2372055,0.260869565 L83.2372055,12.5217391 L80.0649878,12.5217391 L80.0649878,0.260869565 Z M84.5775792,3.2173913 L84.5775792,0.260869565 L87.7497969,0.260869565 L87.7497969,3.2173913 L84.5775792,3.2173913 Z M87.7497969,12.5217391 L84.5775792,12.5217391 L84.5775792,4.17391304 L87.7497969,4.17391304 L87.7497969,12.5217391 Z M93.4240455,7.2173913 C95.2112104,7.47826087 96.9983753,8 96.9983753,9.91304348 C96.9983753,11.7826087 95.2558895,12.7826087 92.887896,12.7826087 C90.8773355,12.7826087 89.0008123,12.0869565 88.6880585,10.5217391 L91.6815597,10.0434783 C91.770918,10.5652174 92.3070674,10.7391304 92.887896,10.7391304 C93.4240455,10.7391304 93.8261576,10.5652174 93.8261576,10.2173913 C93.8261576,9.86956522 93.5580829,9.69565217 92.6198213,9.52173913 C91.1454102,9.30434783 89.0008123,8.91304348 89.0008123,6.7826087 C89.0008123,4.73913043 91.0113729,3.95652174 92.9772543,3.95652174 C94.9431357,3.95652174 96.5962632,4.73913043 96.9536962,6.08695652 L94.0048741,6.65217391 C93.9155158,6.2173913 93.4240455,6 92.9772543,6 C92.530463,6 92.1283509,6.17391304 92.1283509,6.52173913 C92.1283509,6.95652174 92.6198213,7.08695652 93.4240455,7.2173913 Z M101.600325,0.260869565 L104.90658,0.260869565 L104.90658,12.5217391 L101.600325,12.5217391 L101.600325,0.260869565 Z M109.374492,4.17391304 L109.374492,5.47826087 C109.642567,4.82608696 110.49147,3.91304348 112.099919,3.91304348 C113.753046,3.91304348 115.09342,4.91304348 115.09342,6.86956522 L115.09342,12.5652174 L111.921202,12.5652174 L111.921202,7.82608696 C111.921202,6.73913043 111.474411,6.39130435 110.804224,6.39130435 C110.178716,6.39130435 109.50853,6.86956522 109.50853,8.30434783 L109.50853,12.4782609 L106.336312,12.4782609 L106.336312,4.17391304 L109.374492,4.17391304 Z M120.454915,7.2173913 C122.24208,7.47826087 124.029245,8 124.029245,9.91304348 C124.029245,11.7826087 122.286759,12.7826087 119.918765,12.7826087 C117.908205,12.7826087 116.031682,12.0869565 115.718928,10.5217391 L118.712429,10.0434783 C118.801787,10.5652174 119.337937,10.7391304 119.918765,10.7391304 C120.454915,10.7391304 120.857027,10.5652174 120.857027,10.2173913 C120.857027,9.86956522 120.588952,9.69565217 119.65069,9.52173913 C118.176279,9.30434783 116.031682,8.91304348 116.031682,6.7826087 C116.031682,4.73913043 118.042242,3.95652174 120.008123,3.95652174 C121.974005,3.95652174 123.627132,4.73913043 123.984565,6.08695652 L121.035743,6.65217391 C120.946385,6.2173913 120.454915,6 120.008123,6 C119.561332,6 119.15922,6.17391304 119.15922,6.52173913 C119.203899,6.95652174 119.65069,7.08695652 120.454915,7.2173913 Z M130.999188,12.6086957 C130.552396,12.6956522 129.926889,12.7826087 129.301381,12.7826087 C127.380179,12.7826087 126.039805,11.9565217 126.039805,9.65217391 L126.039805,6.39130435 L124.654752,6.39130435 L124.654752,4.17391304 L126.039805,4.17391304 L126.039805,1.7826087 L129.167344,0.391304348 L129.167344,4.17391304 L130.954509,4.17391304 L130.954509,6.39130435 L129.167344,6.39130435 L129.167344,9.47826087 C129.167344,10.173913 129.569456,10.3043478 130.105605,10.3043478 C130.463038,10.3043478 130.731113,10.3043478 130.954509,10.2608696 L130.954509,12.6086957 L130.999188,12.6086957 Z M132.339561,3.2173913 L132.339561,0.260869565 L135.511779,0.260869565 L135.511779,3.2173913 L132.339561,3.2173913 Z M135.511779,12.5217391 L132.339561,12.5217391 L132.339561,4.17391304 L135.511779,4.17391304 L135.511779,12.5217391 Z M142.839155,12.6086957 C142.392364,12.6956522 141.766856,12.7826087 141.141348,12.7826087 C139.220146,12.7826087 137.879773,11.9565217 137.879773,9.65217391 L137.879773,6.39130435 L136.49472,6.39130435 L136.49472,4.17391304 L137.879773,4.17391304 L137.879773,1.7826087 L141.007311,0.391304348 L141.007311,4.17391304 L142.794476,4.17391304 L142.794476,6.39130435 L141.007311,6.39130435 L141.007311,9.47826087 C141.007311,10.173913 141.409423,10.3043478 141.945573,10.3043478 C142.303006,10.3043478 142.57108,10.3043478 142.794476,10.2608696 L142.794476,12.6086957 L142.839155,12.6086957 Z M149.630382,12.5217391 L149.630382,11.2608696 C149.362307,11.9130435 148.513404,12.7826087 146.949634,12.7826087 C145.296507,12.7826087 144.045491,11.7826087 144.045491,9.82608696 L144.045491,4.17391304 L147.217709,4.17391304 L147.217709,8.86956522 C147.217709,9.95652174 147.619821,10.3043478 148.245329,10.3043478 C148.870837,10.3043478 149.496344,9.82608696 149.496344,8.39130435 L149.496344,4.2173913 L152.668562,4.2173913 L152.668562,12.5652174 L149.630382,12.5652174 L149.630382,12.5217391 Z M160.040617,12.6086957 C159.593826,12.6956522 158.968318,12.7826087 158.342811,12.7826087 C156.421608,12.7826087 155.081235,11.9565217 155.081235,9.65217391 L155.081235,6.39130435 L153.696182,6.39130435 L153.696182,4.17391304 L155.081235,4.17391304 L155.081235,1.7826087 L158.208773,0.391304348 L158.208773,4.17391304 L159.995938,4.17391304 L159.995938,6.39130435 L158.208773,6.39130435 L158.208773,9.47826087 C158.208773,10.173913 158.610885,10.3043478 159.147035,10.3043478 C159.504468,10.3043478 159.772543,10.3043478 159.995938,10.2608696 L159.995938,12.6086957 L160.040617,12.6086957 Z M169.467912,10.826087 C168.753046,12.0434783 167.278635,12.7826087 165.402112,12.7826087 C162.676686,12.7826087 160.755483,11.2173913 160.755483,8.34782609 C160.755483,5.43478261 162.721365,3.86956522 165.312754,3.86956522 C168.306255,3.86956522 169.735987,5.91304348 169.735987,8.47826087 L169.735987,9.13043478 L163.927701,9.13043478 C163.927701,9.73913043 164.195776,10.5217391 165.312754,10.5217391 C165.982941,10.5217391 166.429732,10.2173913 166.653128,9.82608696 L169.467912,10.826087 Z M163.97238,7.47826087 L166.653128,7.47826087 C166.608448,6.56521739 166.206336,6 165.357433,6 C164.463851,6 164.017059,6.56521739 163.97238,7.47826087 Z M173.935825,8.34782609 C173.935825,5.47826087 175.857027,3.91304348 178.582453,3.91304348 C181.263201,3.91304348 183.229082,5.52173913 183.229082,8.34782609 C183.229082,11.2173913 181.30788,12.7826087 178.582453,12.7826087 C175.901706,12.7826087 173.935825,11.2173913 173.935825,8.34782609 Z M180.012185,8.34782609 C180.012185,7.08695652 179.610073,6.13043478 178.537774,6.13043478 C177.465475,6.13043478 177.063363,7.08695652 177.063363,8.34782609 C177.063363,9.60869565 177.465475,10.5652174 178.537774,10.5652174 C179.654752,10.5652174 180.012185,9.60869565 180.012185,8.34782609 Z M188.367181,0 C188.992689,0 189.528838,0.0869565217 190.020309,0.217391304 L190.020309,2.56521739 C189.752234,2.47826087 189.484159,2.39130435 189.082047,2.39130435 C188.501219,2.39130435 188.054427,2.73913043 188.054427,3.39130435 L188.054427,4.08695652 L189.841592,4.08695652 L189.841592,6.39130435 L188.054427,6.39130435 L188.054427,12.5217391 L184.88221,12.5217391 L184.88221,6.39130435 L183.541836,6.39130435 L183.541836,4.17391304 L184.926889,4.17391304 L184.926889,3.43478261 C184.88221,1.2173913 186.356621,7.72329061e-16 188.367181,7.72329061e-16 Z M206.149472,12.5217391 L202.753859,12.5217391 L201.815597,9.91304348 L197.61576,9.91304348 L196.677498,12.5217391 L193.415922,12.5217391 L197.928513,0.260869565 L201.592201,0.260869565 L206.149472,12.5217391 Z M199.715678,3.39130435 C199.492283,4.30434783 198.464663,7.47826087 198.464663,7.47826087 L201.011373,7.47826087 C201.011373,7.52173913 199.939074,4.30434783 199.715678,3.39130435 Z M212.896019,4.08695652 L212.896019,6.82608696 C212.672624,6.73913043 212.315191,6.73913043 212.091795,6.73913043 C211.108855,6.73913043 209.857839,7.2173913 209.857839,9.26086957 L209.857839,12.5652174 L206.685621,12.5652174 L206.685621,4.17391304 L209.679123,4.17391304 L209.679123,5.60869565 C210.170593,4.47826087 211.064175,4 212.315191,4 C212.493907,4 212.761982,4.04347826 212.896019,4.08695652 Z M220,12.6086957 C219.553209,12.6956522 218.927701,12.7826087 218.302193,12.7826087 C216.380991,12.7826087 215.040617,11.9565217 215.040617,9.65217391 L215.040617,6.39130435 L213.655565,6.39130435 L213.655565,4.17391304 L215.040617,4.17391304 L215.040617,1.7826087 L218.168156,0.391304348 L218.168156,4.17391304 L219.955321,4.17391304 L219.955321,6.39130435 L218.168156,6.39130435 L218.168156,9.47826087 C218.168156,10.173913 218.570268,10.3043478 219.106418,10.3043478 C219.463851,10.3043478 219.731925,10.3043478 219.955321,10.2608696 L219.955321,12.6086957 L220,12.6086957 Z" transform="translate(15 100)"/>
  </g>
</svg>
