<svg xmlns="http://www.w3.org/2000/svg" width="933" height="336" viewBox="0 0 933 336">
  <g fill="none" fill-rule="evenodd">
    <path fill="#FFF" fill-rule="nonzero" d="M699.52,148.48 C708.18366,146.401815 715.445297,140.521947 719.28,132.48 C722.217576,124.82544 723.657004,116.677736 723.52,108.48 C723.588191,107.494512 723.588191,106.505488 723.52,105.52 C723.52,104.56 723.52,103.573333 723.52,102.56 C723.894341,92.9358235 720.831643,83.4925059 714.88,75.92 C709.04,68.88 698.08,65.92 682.08,67.12 L658.08,69.28 L658.08,234.48 L687.52,232 C698.372993,232.178958 708.788629,227.727582 716.16,219.76 C722.35906,209.603772 725.549261,197.897121 725.36,186 C725.513049,177.389112 723.991521,168.83052 720.88,160.8 C716.913249,152.745399 708.478354,147.880329 699.52,148.48 Z M678.8,86.72 L679.6,86.72 L680.4,86.72 L682.08,86.72 C688.142127,85.6563103 694.29631,88.025671 698.08,92.88 C701.867491,98.0967457 703.784185,104.438748 703.52,110.88 C703.570311,118.323548 701.69641,125.653809 698.08,132.16 C694.711847,137.846967 688.684925,141.432986 682.08,141.68 L680.64,141.68 C680.11408,141.805755 679.56592,141.805755 679.04,141.68 L678.8,86.72 Z M698.48,206.72 C694.875794,211.271606 689.405575,213.947896 683.6,214 L681.28,214 C680.458359,214.128912 679.621641,214.128912 678.8,214 L678.8,158.8 L680.64,158.8 L682.24,158.8 C688.026573,157.855202 693.885231,160.010459 697.68,164.48 C701.852647,171.04755 703.737084,178.810306 703.04,186.56 C703.35631,193.490158 701.631706,200.360761 698.08,206.32 L698.48,206.72 Z"/>
    <path fill="#FFF" d="M594.88,152 L590.16,148.08 L585.68,144.4 C581.666408,140.845835 578.069973,136.846814 574.96,132.48 C571.958555,128.079205 570.419089,122.845018 570.56,117.52 C570.52095,116.827217 570.52095,116.132783 570.56,115.44 C570.56,114.8 570.56,114.08 570.56,113.36 C571.535278,108.813247 573.624474,104.579877 576.64,101.04 C579.966447,97.074866 584.826729,94.717484 590,94.56 C593.041594,94.3239741 596.101031,94.6217954 599.04,95.44 C602.707255,96.4546588 606.249333,97.8768566 609.6,99.68 L609.6,77.52 C605.100064,76.2020658 600.497133,75.265423 595.84,74.72 C591.903929,74.3110092 587.936071,74.3110092 584,74.72 C575.767076,75.3342395 568.010284,78.8163031 562.08,84.56 C557.209587,89.482098 553.42191,95.3679854 550.96,101.84 C549.992836,104.679806 549.270206,107.597094 548.8,110.56 C548.39691,113.046888 548.182964,115.560761 548.16,118.08 C547.458883,128.134568 550.011309,138.147932 555.44,146.64 C560.048961,152.864026 565.42474,158.481715 571.44,163.36 L573.84,165.28 L576.24,167.2 C580.987513,171.013769 585.306231,175.332487 589.12,180.08 C593.024244,185.573196 594.942758,192.231566 594.56,198.96 L594.56,200.8 C594.62546,201.491788 594.62546,202.188212 594.56,202.88 C594.205587,208.327665 592.004514,213.491722 588.32,217.52 C584.917811,221.140085 580.30732,223.38841 575.36,223.84 C573.611249,224.08745 571.840526,224.141108 570.08,224 C568.213673,223.748926 566.386126,223.265164 564.64,222.56 C562.66438,221.836255 560.762409,220.925452 558.96,219.84 C556.981143,218.652925 555.154342,217.229094 553.52,215.6 L553.52,239.6 C557.802603,241.753708 562.347505,243.34039 567.04,244.32 C571.141265,245.177646 575.347315,245.420303 579.52,245.04 C590.842402,243.953662 601.18231,238.144725 608,229.04 C615.22445,219.946022 619.120172,208.654072 619.04,197.04 C619.104821,187.384091 616.32222,177.92325 611.04,169.84 C606.355302,163.293292 600.932987,157.307271 594.88,152 Z"/>
    <polygon fill="#FFF" points="805.92 109.36 802.64 135.36 781.92 59.36 757.92 61.04 790.72 155.12 790.72 224 813.04 222.64 813.04 153.84 843.92 56 819.92 57.28"/>
    <path fill="#FFF" fill-rule="nonzero" d="M460.48 89.28L432.96 92.16C432.96 147.2 432.96 202.266667 432.96 257.36L456.96 254.8C472.545193 254.070298 487.259326 247.400272 498.08 236.16 507.306667 225.493333 511.92 201.733333 511.92 164.88 511.92 132.88 507.653333 111.92 499.12 102 490.586667 92.08 477.706667 87.84 460.48 89.28zM490.08 172.72C490.08 174.64 490.08 176.453333 490.08 178.16 489.774374 190.984278 487.756518 203.710219 484.08 216 480.583312 227.767482 469.715464 235.795983 457.44 235.68L455.84 235.68C455.663239 235.766 455.456761 235.766 455.28 235.68L455.28 109.04 456.56 109.04 457.84 109.04C458.209037 108.959897 458.590963 108.959897 458.96 109.04L460.24 109.04C470.427136 107.468045 480.228968 113.59419 483.28 123.44 488.184812 137.845809 490.381792 153.034807 489.76 168.24 490.08 168.96 490.08 170.8 490.08 172.72zM219.92 112.88C204.191462 113.71304 190.850128 124.717206 187.04 140 180.875869 160.755467 178.04069 182.356832 178.64 204 178.64 234.026667 182.693333 254.666667 190.8 265.92 198.808112 277.169365 212.534486 282.861362 226.153383 280.580197 239.77228 278.299032 250.894672 268.444866 254.8 255.2 260.656838 235.783647 263.357887 215.552791 262.8 195.28 262.8 166 259.306667 144.666667 252.32 131.28 246.689112 118.736497 233.577195 111.290223 219.92 112.88zM235.92 244.64C232.986667 256.053333 228.106667 262.026667 221.28 262.56 215.306667 263.04 210.4 258.48 206.56 248.88 201.771087 232.067796 199.824295 214.573707 200.8 197.12 200.593552 182.345552 201.799028 167.585167 204.4 153.04 206.8 140.826667 211.866667 134.346667 219.6 133.6 226.426667 133.013333 231.6 137.28 235.12 146.4 239.430562 161.76973 241.213821 177.738004 240.4 193.68 241.027906 210.767564 239.658636 227.870009 236.32 244.64L235.92 244.64zM345.36 101.28C329.58094 102.458801 316.331459 113.612865 312.48 128.96 306.343429 149.72132 303.508826 171.318289 304.08 192.96 304.08 222.986667 308.133333 243.546667 316.24 254.64 323.448087 265.326699 336.112553 270.976044 348.88 269.2 363.938037 268.055272 376.588078 257.433101 380.32 242.8 386.176216 223.328677 388.877066 203.045289 388.32 182.72 388.32 153.44 384.826667 132.106667 377.84 118.72 372.031712 106.391715 358.845052 99.3111931 345.36 101.28zM361.36 232.8C358.426667 244.266667 353.546667 250.32 346.72 250.96 340.746667 251.546667 335.84 247.093333 332 237.6 327.2007 220.817202 325.253628 203.347641 326.24 185.92 326.113477 171.111407 327.399297 156.324487 330.08 141.76 332.48 129.493333 337.546667 122.906667 345.28 122 352.106667 121.306667 357.28 125.493333 360.8 134.56 365.115938 149.901344 366.899376 165.844197 366.08 181.76 366.72406 198.84424 365.381734 215.945477 362.08 232.72L361.36 232.8z"/>
    <path fill="#FFF" d="M85.76,287.12 L109.76,285.84 L109.76,210.24 L142.56,208.24 L142.56,189.2 L109.76,191.2 L109.76,141.44 L147.76,139.04 L147.76,118.32 C127.066667,119.706667 106.373333,120.933333 85.68,122 L85.76,287.12 Z"/>
    <path fill="#FFF" fill-rule="nonzero" d="M880.88,60.32 C880.997827,59.0991013 880.407415,57.9182774 879.36,57.28 C878.307358,56.6975621 877.123021,56.3945921 875.92,56.4 L869.12,56.3999289 L869.12,71.04 L871.44,71.04 L871.44,64.48 L874.08,64.48 L878.24,71.04 L880.56,71.04 L876.08,64.56 C877.394111,64.5754812 878.670632,64.1216071 879.68,63.28 C880.482054,62.5084175 880.918327,61.4322777 880.88,60.32 Z M878.8,60.32 C878.772661,60.9726952 878.517964,61.5952879 878.08,62.08 C877.602093,62.6346966 876.890382,62.931243 876.16,62.88 L871.44,62.88 L871.44,57.92 L876.16,57.92 C876.898104,57.8691498 877.623674,58.1303553 878.16,58.64 C878.558879,59.0468349 878.787739,59.5903784 878.8,60.16 L878.8,60.32 Z"/>
    <path fill="#FFF" fill-rule="nonzero" d="M887.04,6.08 L847.04,5.2 C719.04,10.4 591.04,23.68 466.64,36.56 C346.08,49.12 221.52,62.08 96.32,67.68 C90.08,67.68 83.36,67.68 76.88,67.68 L76.88,65.04 L76.88,67.68 L65.28,67.68 C57.4980963,67.4065009 49.7110716,68.0509443 42.08,69.6 C21.834669,75.7320234 7.35809546,93.5664018 5.52,114.64 L5.52,283.76 C5.95347784,308.612236 25.2876263,329.022432 50.08,330.8 L68.56,330.8 C201.2,325.44 331.52,311.76 457.6,298.8 C581.04,285.92 708.72,272.56 839.52,266.8 C844.72,266.8 850.08,266.8 855.92,266.8 C868.676132,267.651177 881.485567,266.408067 893.84,263.12 C912.234013,257.085626 924.975119,240.299218 925.84,220.96 L926.8,50.88 C926.839726,39.297982 922.561267,28.1169443 914.8,19.52 C907.887942,11.2846505 897.787034,6.39429776 887.04,6.08 Z M919.04,219.6 C918.518134,236.36854 907.445394,250.971718 891.44,256 C877.6,260.8 857.84,258.64 839.2,259.44 C574.4,271.12 330.24,312.96 68.32,323.44 L50.08,323.44 C29.0566549,321.902966 12.7149259,304.518148 12.48,283.44 L12.48,114.72 C14.3188922,96.9076656 26.5881779,81.9013854 43.68,76.56 C58.48,72.88 78.56,75.68 96.88,74.8 C351.68,63.36 595.92,22.56 847.6,12.4 L887.04,13.28 C906.260912,14.8510754 920.829791,31.2895678 920.08,50.56 L919.04,219.6 Z"/>
    <path fill="#FFF" fill-rule="nonzero" d="M874.08,50.88 C871.073794,50.8973391 868.197032,52.1055791 866.08,54.24 C864.136061,56.1384886 862.775871,58.553519 862.16,61.2 C862.16,61.6 862.16,62 862.16,62.48 C862.137254,62.8796766 862.137254,63.2803234 862.16,63.68 C862.12306,67.2390538 863.607506,70.6445457 866.24,73.04 C868.602753,75.2549431 871.721397,76.485234 874.96,76.48 C878.125834,76.4578264 881.183494,75.3253598 883.6,73.28 C886.114041,70.8766314 887.407693,67.4660952 887.12,64 C887.236277,60.4082752 885.70394,56.9605171 882.96,54.64 C880.550465,52.3565339 877.396648,51.0211339 874.08,50.88 Z M882.08,72 C880.021941,73.805238 877.377607,74.8004176 874.64,74.8 C871.586094,75.0445261 868.603444,73.7918131 866.64,71.44 C864.847282,69.1565568 863.862539,66.3430058 863.84,63.44 C863.7199,60.4550951 864.850757,57.555461 866.96,55.44 C868.883735,53.6642616 871.383261,52.6417285 874,52.56 L874.96,52.56 L875.92,52.56 C878.327542,52.9558668 880.558782,54.0714866 882.32,55.76 C884.403321,57.8774334 885.45564,60.8005408 885.2,63.76 C885.570102,66.8516191 884.404943,69.928835 882.08,72 Z"/>
    <path fill="#EE3C24" d="M345.36 122.24C337.626667 123.146667 332.56 129.733333 330.16 142 327.559753 156.572198 326.354303 171.359057 326.56 186.16 325.573628 203.587641 327.5207 221.057202 332.32 237.84 336.16 247.386667 341.066667 251.84 347.04 251.2 353.866667 250.506667 358.746667 244.453333 361.68 233.04 365.103546 216.333407 366.580056 199.286432 366.08 182.24 366.899376 166.324197 365.115938 150.381344 360.8 135.04 357.333333 125.813333 352.186667 121.546667 345.36 122.24zM682.08 141.68C688.684925 141.432986 694.711847 137.846967 698.08 132.16 701.596763 125.435012 703.279904 117.902265 702.96 110.32 703.224185 103.878748 701.307491 97.5367457 697.52 92.32 693.73631 87.465671 687.582127 85.0963103 681.52 86.16L680 86.16 679.2 86.16 678.4 86.16 678.4 141.04C678.92592 141.165755 679.47408 141.165755 680 141.04L682.08 141.68zM460.24 108.08L458.96 108.08C458.590963 107.999897 458.209037 107.999897 457.84 108.08L456.56 108.08 455.28 108.08 455.28 236C455.456761 236.086 455.663239 236.086 455.84 236L457.44 236C469.804694 236.075137 480.701441 227.894396 484.08 216 487.756518 203.710219 489.774374 190.984278 490.08 178.16 490.08 176.4 490.08 174.586667 490.08 172.72 490.08 170.8 490.08 169.04 490.08 167.28 490.701792 152.074807 488.504812 136.885809 483.6 122.48 480.533212 112.495735 470.5377 106.334118 460.24 108.08zM876.16 58L871.44 58 871.44 62.96 876.16 62.96C876.890382 63.011243 877.602093 62.7146966 878.08 62.16 878.517964 61.6752879 878.772661 61.0526952 878.8 60.4 878.787739 59.8303784 878.558879 59.2868349 878.16 58.88 877.651706 58.3115964 876.92247 57.9907325 876.16 58zM682.08 158.24L680.48 158.24 678.64 158.24 678.64 213.6C679.461641 213.728912 680.298359 213.728912 681.12 213.6L683.44 213.6C689.161034 213.476238 694.528699 210.807071 698.08 206.32 701.616449 200.13312 703.205589 193.023806 702.64 185.92 703.337084 178.170306 701.452647 170.40755 697.28 163.84 693.516176 159.479742 687.773029 157.363845 682.08 158.24zM219.92 133.84C212.186667 134.64 207.12 141.12 204.72 153.28 202.119028 167.825167 200.913552 182.585552 201.12 197.36 200.144295 214.813707 202.091087 232.307796 206.88 249.12 210.72 258.72 215.626667 263.28 221.6 262.8 228.426667 262.213333 233.306667 256.24 236.24 244.88 239.667377 228.200991 241.143957 211.180055 240.64 194.16 241.453821 178.218004 239.670562 162.24973 235.36 146.88 231.946667 137.6 226.8 133.253333 219.92 133.84z"/>
    <path fill="#EE3C24" fill-rule="nonzero" d="M875.68,53.2 L874.72,53.2 L874.08,53.2 C871.463261,53.2817285 868.963735,54.3042616 867.04,56.08 C864.930757,58.195461 863.7999,61.0950951 863.92,64.08 C863.942539,66.9830058 864.927282,69.7965568 866.72,72.08 C868.683444,74.4318131 871.666094,75.6845261 874.72,75.44 C877.515443,75.2472882 880.139091,74.0210181 882.08,72 C884.391083,70.0122566 885.610527,67.0380034 885.36,64 C885.512514,60.9779504 884.310081,58.0451857 882.08,56 C880.268979,54.4567348 878.042534,53.4826649 875.68,53.2 Z M880.56,71.04 L878.24,71.04 L874.08,64.48 L871.44,64.48 L871.44,71.04 L869.12,71.04 L869.12,55.9999289 L875.92,56 C877.123021,55.9945921 878.307358,56.2975621 879.36,56.88 C880.407415,57.5182774 880.997827,58.6991013 880.88,59.92 C880.938117,60.9812946 880.562778,62.0206952 879.84,62.8 C878.830632,63.6416071 877.554111,64.0954812 876.24,64.08 L880.56,71.04 Z"/>
    <path fill="#EE3C24" fill-rule="nonzero" d="M887.12,0.88 L847.12,0 C718.72,5.2 590.32,18.48 466.08,31.44 C345.6,43.92 221.12,56.8 96.08,62.4 C90,62.4 83.36,62.4 77.04,62.4 C64.9438661,61.5768423 52.7921254,62.3027206 40.88,64.56 C18.248804,71.3033113 2.03832557,91.1936635 0,114.72 L0,283.76 C0.415948586,311.609847 22.2725176,334.409112 50.08,336 L68.72,336 C201.52,330.56 332,316.96 458.08,304 C581.44,291.12 709.04,277.76 839.68,272 C844.8,272 850,272 855.68,272 C869.143182,272.911626 882.663935,271.559551 895.68,268 C916.124101,261.44631 930.348059,242.885002 931.36,221.44 L932.4,50.88 C932.399337,37.9744061 927.577478,25.534581 918.88,16 C910.949286,6.64150728 899.384265,1.1357417 887.12,0.88 Z M926,220.64 C925.135119,239.979218 912.394013,256.765626 894,262.8 C881.645567,266.088067 868.836132,267.331177 856.08,266.48 C850.24,266.48 844.88,266.48 839.68,266.48 C708.96,272.24 581.28,285.6 457.76,298.48 C331.76,311.68 201.76,325.28 68.72,330.48 L50.08,330.48 C25.2246335,328.78148 5.80029911,308.349443 5.36,283.44 L5.36,114.72 C7.19093981,93.573679 21.7465142,75.688398 42.08,69.6 C49.7015186,67.9703979 57.488641,67.24539 65.28,67.44 L76.88,67.44 L76.88,65.04 L76.88,67.68 C83.36,67.68 90.08,67.68 96.32,67.68 C221.52,62.08 346.08,49.12 466.72,36.56 C590.8,24 719.12,10.4 847.12,5.28 L887.12,6.16 C897.872511,6.34865463 908.032039,11.1227594 915.04,19.28 C922.801267,27.8769443 927.079726,39.057982 927.04,50.64 L926,220.64 Z"/>
    <path fill="#EE3C24" fill-rule="nonzero" d="M886.8,13.28 L847.36,12.4 C595.68,22.56 351.36,63.36 96.64,74.8 C78.4,75.6 58.24,72.88 43.44,76.56 C26.3481779,81.9013854 14.0788922,96.9076656 12.24,114.72 L12.24,283.76 C12.4749259,304.838148 28.8166549,322.222966 49.84,323.76 L68.24,323.76 C330.24,313.12 574.32,271.28 839.12,259.76 C857.76,258.96 877.52,261.12 891.36,256.32 C907.333826,251.263917 918.369633,236.667137 918.88,219.92 L919.84,50.88 C920.76677,31.4880657 906.150145,14.8541345 886.8,13.28 Z M147.84,139.04 L109.84,141.44 L109.84,191.28 L142.64,189.28 L142.64,208 L109.84,210 L109.84,285.6 L85.84,286.88 L85.84,122 C106.533333,120.933333 127.226667,119.706667 147.92,118.32 L147.84,139.04 Z M254.88,255.36 C250.974672,268.604866 239.85228,278.459032 226.233383,280.740197 C212.614486,283.021362 198.888112,277.329365 190.88,266.08 C182.773333,254.826667 178.72,234.186667 178.72,204.16 C178.12069,182.516832 180.955869,160.915467 187.12,140.16 C190.930128,124.877206 204.271462,113.87304 220,113.04 C233.732394,111.388975 246.936813,118.883375 252.56,131.52 C259.546667,144.96 263.04,166.293333 263.04,195.52 C263.537474,215.774687 260.782473,235.978033 254.88,255.36 Z M380.32,243.2 C376.588078,257.833101 363.938037,268.455272 348.88,269.6 C336.112553,271.376044 323.448087,265.726699 316.24,255.04 C308.133333,243.946667 304.08,223.386667 304.08,193.36 C303.508826,171.718289 306.343429,150.12132 312.48,129.36 C316.331459,114.012865 329.58094,102.858801 345.36,101.68 C358.965985,99.6233648 372.296547,106.793838 378.08,119.28 C385.066667,132.613333 388.56,153.946667 388.56,183.28 C389.022211,203.564718 386.240484,223.793009 380.32,243.2 Z M498.08,236.16 C487.239535,247.418852 472.493263,254.090466 456.88,254.8 L432.88,257.36 C432.88,202.32 432.88,147.253333 432.88,92.16 L460.4,89.28 C477.733333,87.5733333 490.666667,91.8133333 499.2,102 C507.733333,112.186667 512,133.146667 512,164.88 C512.053333,201.893333 507.413333,225.653333 498.08,236.16 Z M607.76,228.72 C600.94231,237.824725 590.602402,243.633662 579.28,244.72 C575.107315,245.100303 570.901265,244.857646 566.8,244 C562.168173,243.243435 557.65174,241.899259 553.36,240 L553.36,216 C554.994342,217.629094 556.821143,219.052925 558.8,220.24 C560.602409,221.325452 562.50438,222.236255 564.48,222.96 C566.295233,223.541861 568.176892,223.891312 570.08,224 C571.887473,224.206175 573.712527,224.206175 575.52,224 C580.46732,223.54841 585.077811,221.300085 588.48,217.68 C592.164514,213.651722 594.365587,208.487665 594.72,203.04 C594.78546,202.348212 594.78546,201.651788 594.72,200.96 L594.72,199.12 C595.102758,192.391566 593.184244,185.733196 589.28,180.24 C585.500196,175.440823 581.208142,171.068293 576.48,167.2 L574.08,165.28 L571.68,163.36 C565.66474,158.481715 560.288961,152.864026 555.68,146.64 C550.251309,138.147932 547.698883,128.134568 548.4,118.08 C548.422964,115.560761 548.63691,113.046888 549.04,110.56 C549.510206,107.597094 550.232836,104.679806 551.2,101.84 C553.591008,95.3887665 557.295925,89.5044876 562.08,84.56 C568.10152,78.7012156 576.016172,75.1835926 584.4,74.64 C588.336071,74.2310092 592.303929,74.2310092 596.24,74.64 C600.926433,75.2071502 605.556347,76.1706004 610.08,77.52 L610.08,99.6 C606.729333,97.7968566 603.187255,96.3746588 599.52,95.36 C596.581031,94.5417954 593.521594,94.2439741 590.48,94.48 C585.306729,94.637484 580.446447,96.994866 577.12,100.96 C574.104474,104.499877 572.015278,108.733247 571.04,113.28 C571.04,114 571.04,114.72 571.04,115.36 C571.00095,116.052783 571.00095,116.747217 571.04,117.44 C570.899089,122.765018 572.438555,127.999205 575.44,132.4 C578.549973,136.766814 582.146408,140.765835 586.16,144.32 L590.64,148 L595.36,151.92 C601.356923,157.236331 606.725236,163.222001 611.36,169.76 C616.64222,177.84325 619.424821,187.304091 619.36,196.96 C619.249495,208.549762 615.185324,219.754454 607.84,228.72 L607.76,228.72 Z M716,219.6 C708.694578,227.58494 698.342197,232.092297 687.52,232 L658.08,234.48 L658.08,69.28 L682.08,67.12 C698.08,65.84 708.88,68.8 714.72,75.92 C720.793954,83.5016318 723.944984,93.0114963 723.6,102.72 C723.6,103.733333 723.6,104.72 723.6,105.68 C723.668191,106.665488 723.668191,107.654512 723.6,108.64 C723.737004,116.837736 722.297576,124.98544 719.36,132.64 C715.525297,140.681947 708.26366,146.561815 699.6,148.64 C708.511697,148.059285 716.901088,152.884762 720.88,160.88 C723.991521,168.91052 725.513049,177.469112 725.36,186.08 C725.479816,197.903617 722.263428,209.521434 716.08,219.6 L716,219.6 Z M812.8,153.76 L812.8,222.56 L790.64,224 L790.64,155.2 L757.84,61.04 L781.84,59.36 L802.56,135.36 L805.84,109.36 L819.6,56.96 L843.6,55.68 L812.8,153.76 Z M887.12,64 C887.173458,67.4877364 885.643768,70.8118719 882.96,73.04 C880.543494,75.0853598 877.485834,76.2178264 874.32,76.24 C871.081397,76.245234 867.962753,75.0149431 865.6,72.8 C863.109067,70.5367974 861.637799,67.363474 861.52,64 C861.497254,63.6003234 861.497254,63.1996766 861.52,62.8 C861.52,62.4 861.52,62 861.52,61.52 C862.135871,58.873519 863.496061,56.4584886 865.44,54.56 C867.557032,52.4255791 870.433794,51.2173391 873.44,51.2 C876.84657,51.2197835 880.124699,52.5025294 882.64,54.8 C885.459203,57.0221841 887.109072,60.4103078 887.12,64 Z"/>
  </g>
</svg>
