<svg xmlns="http://www.w3.org/2000/svg" viewBox="0 0 800 695.05"><title>logo__victory</title><g id="Layer_13" data-name="Layer 13"><path d="M96.6,659.16H83.24V652.3h34.21v6.86H104.07v35.29H96.6Z" fill="#898b8d"/><path d="M126.31,652.3h31.24v6.62H133.72v11h21.13v6.62H133.72v11.32h24.14v6.63H126.31Z" fill="#898b8d"/><path d="M168.57,652.3h6.87L198,681.44V652.3h7.29v42.15h-6.2l-23.25-30v30h-7.29Z" fill="#898b8d"/><path d="M232.39,652h6.87l18.53,42.46H250l-4.28-10.18H225.79l-4.34,10.18h-7.59ZM243,677.7l-7.29-16.86-7.23,16.86Z" fill="#898b8d"/><path d="M266.35,652.3h6.87l22.58,29.14V652.3h7.29v42.15h-6.21l-23.24-30v30h-7.3Z" fill="#898b8d"/><path d="M325.32,659.16H312V652.3h34.21v6.86H332.79v35.29h-7.47Z" fill="#898b8d"/><path d="M378.05,652.3h16.63c9.81,0,16,5.6,16,14.08v.13c0,9.45-7.6,14.39-16.86,14.39h-8.39v13.55h-7.4Zm16,21.91c5.59,0,9.09-3.13,9.09-7.53v-.12c0-4.93-3.55-7.52-9.09-7.52h-8.62v15.17Z" fill="#898b8d"/><path d="M431.43,652h6.88l18.54,42.46H449l-4.27-10.18H424.81l-4.34,10.18h-7.59ZM442,677.7l-7.29-16.86-7.22,16.86Z" fill="#898b8d"/><path d="M465.42,652.3H484.2c5.31,0,9.46,1.56,12.17,4.21a12.76,12.76,0,0,1,3.5,9.1v.12c0,6.93-4.16,11.08-10.06,12.78l11.39,16h-8.74l-10.36-14.7h-9.27v14.7h-7.4Zm18.24,20.88c5.31,0,8.68-2.76,8.68-7V666c0-4.52-3.26-7-8.75-7H472.82v14.14Z" fill="#898b8d"/><path d="M520.58,659.16H507.21V652.3h34.2v6.86H528v35.29h-7.46Z" fill="#898b8d"/><path d="M550.28,652.3h6.86l22.57,29.14V652.3H587v42.15h-6.22l-23.26-30v30h-7.27Z" fill="#898b8d"/><path d="M599.83,652.3h31.25v6.62H607.24v11h21.13v6.62H607.24v11.32h24.14v6.63H599.83Z" fill="#898b8d"/><path d="M642.09,652.3h18.79c5.3,0,9.45,1.56,12.16,4.21a12.72,12.72,0,0,1,3.49,9.1v.12c0,6.93-4.15,11.08-10,12.78l11.36,16h-8.72l-10.36-14.7H649.5v14.7h-7.4Zm18.24,20.88c5.31,0,8.68-2.76,8.68-7V666c0-4.52-3.24-7-8.72-7H649.5v14.14Z" fill="#898b8d"/><path d="M684.12,688.3l4.45-5.3c4,3.49,8.07,5.48,13.31,5.48,4.58,0,7.47-2.11,7.47-5.3v-.12c0-3-1.68-4.63-9.52-6.44-9-2.17-14-4.82-14-12.58v-.13c0-7.22,6-12.21,14.38-12.21a23.31,23.31,0,0,1,15.3,5.29l-4,5.59c-3.79-2.82-7.57-4.32-11.44-4.32-4.33,0-6.85,2.22-6.85,5v.12c0,3.25,1.91,4.7,10,6.63,8.91,2.17,13.56,5.36,13.56,12.35v.12c0,7.89-6.21,12.58-15.06,12.58A26,26,0,0,1,684.12,688.3Z" fill="#898b8d"/><path d="M417.75,544.32V544c0-35.75,27.59-65.69,66.58-65.69s66.23,29.57,66.23,65.32V544c0,35.74-27.57,65.67-66.58,65.67S417.75,580.06,417.75,544.32Zm109.42,0V544c0-24.68-18-45.18-43.19-45.18s-42.82,20.13-42.82,44.81V544c0,24.67,18,45.18,43.17,45.18S527.17,569,527.17,544.32Z" fill="#404041"/><path d="M119.16,480.45H105.08a7.64,7.64,0,0,0-7.44,4.75L61.38,578.06,25,485.23a7.64,7.64,0,0,0-7.45-4.78H2.85s-3.57.61-2.72,4.16l49.14,119a7.66,7.66,0,0,0,7.43,4.72h8.65a7.62,7.62,0,0,0,7.35-4.58l49.15-119.06C122.83,481.07,119.16,480.45,119.16,480.45Z" fill="#404041"/><path d="M407.6,480.45H316.21a5.84,5.84,0,0,0-5.84,5.83v9a5.82,5.82,0,0,0,5.75,5.81h34.53V601.88a5.79,5.79,0,0,0,5.78,5.58h10.91a5.83,5.83,0,0,0,5.82-5.72V501.13h34.52a5.82,5.82,0,0,0,5.75-5.81v-9A5.83,5.83,0,0,0,407.6,480.45Z" fill="#404041"/><path d="M796.85,480.45H780.57c-4.15,0-5.88,2.29-7.7,5.29h0l-32.55,51-32.74-51.79c-1.66-2.57-3.42-4.47-7.16-4.47h-17c-1.25,0-4.7.42-2.25,4.11l47.75,72.83v44.39a5.81,5.81,0,0,0,5.8,5.69H745.6a5.8,5.8,0,0,0,5.78-5.61v-45l47.54-72C801.8,480.85,798.14,480.47,796.85,480.45Z" fill="#404041"/><path d="M157.4,480.45H146.74a5.83,5.83,0,0,0-5.82,5.83V601.63a5.83,5.83,0,0,0,5.83,5.83H157.4a5.83,5.83,0,0,0,5.83-5.83V486.28A5.84,5.84,0,0,0,157.4,480.45Z" fill="#404041"/><path d="M297.54,579.81l-7-6.18a5.79,5.79,0,0,0-8,.66l.19-.22c-8.82,8.63-17.79,14.1-31.39,15-24.25,1.68-43.23-17.37-44.95-42.17l0-.36c-1.73-24.8,14.46-45.93,38.71-47.61,12.51-.87,22.64,3.19,32.11,9.91l-.13-.14a5.82,5.82,0,0,0,8.09-1.12l6.33-8.4a5.77,5.77,0,0,0-1-7.76c-11.94-8.84-25.85-14.4-46.68-12.95-38.37,2.66-63.29,34-60.79,70.05l0,.36c2.52,36.38,32,63.25,69,60.7,21.46-1.49,34.86-9.62,46.31-22A5.79,5.79,0,0,0,297.54,579.81Z" fill="#404041"/><path d="M673.87,602.49h0l-30.76-43.12c17.79-5.08,30.31-17.6,30.31-38.47v-.36c0-11.07-3.81-20.5-10.53-27.4-8.16-8-20.69-12.71-36.64-12.71H575.46a5.82,5.82,0,0,0-5.82,5.83V602.07a5.79,5.79,0,0,0,5.75,5.39h10.78A5.81,5.81,0,0,0,592,601.8V563.18h27.93l27.27,38.69c1.58,2.23,4,5.59,8.18,5.59h15.24C676.33,606.53,673.87,602.49,673.87,602.49ZM592,543.41V500.78h32.47c16.52,0,26.31,7.44,26.31,21v.37c0,12.87-10.15,21.22-26.12,21.22Z" fill="#404041"/><path d="M529.29,254.34a14.05,14.05,0,0,1-6.65,11.18l-15.35,8.34c-3.66,2-6.65.21-6.65-4V240.34a14,14,0,0,1,6.65-11.18l15.35-8.34c3.66-2,6.65-.21,6.65,4Z" fill="#650360"/><path d="M407.24,320.77a13.3,13.3,0,0,1-6.29,10.58l-25.27,13.73c-3.46,1.88-6.29.2-6.29-3.75V299.78a13.3,13.3,0,0,1,6.29-10.59l25.27-13.72c3.46-1.88,6.29-.2,6.29,3.74Z" fill="#650360"/><path d="M538.73,101.17c0-4.35-3.13-6.2-6.94-4.13l-33.63,18.27A14.67,14.67,0,0,0,491.21,127v22.76c0,4.34,3.12,6.2,6.95,4.13l33.62-18.26A14.67,14.67,0,0,0,538.73,124Z" fill="#650360"/><path d="M538.73,160.09c0-4.35-3.13-6.21-6.94-4.13l-33.62,18.26a14.67,14.67,0,0,0-6.95,11.68v22.78c0,4.35,3.12,6.2,6.95,4.13l33.62-18.27a14.67,14.67,0,0,0,6.94-11.67Z" fill="#650360"/><path d="M415.85,69.27c0-3.95-2.83-5.63-6.3-3.75L367.07,88.59a13.31,13.31,0,0,0-6.3,10.59v32.4c0,3.94,2.84,5.63,6.3,3.75l42.48-23.07a13.29,13.29,0,0,0,6.3-10.58Z" fill="#650360"/><path d="M415.85,137.57c0-3.94-2.83-5.62-6.3-3.74L367.07,156.9a13.3,13.3,0,0,0-6.3,10.58V199.9c0,3.94,2.84,5.63,6.3,3.74l42.48-23.08a13.3,13.3,0,0,0,6.3-10.58Z" fill="#650360"/><path d="M415.85,205.87c0-3.94-2.83-5.63-6.3-3.74L367.07,225.2a13.3,13.3,0,0,0-6.3,10.59V268.2c0,3.94,2.84,5.62,6.3,3.75l42.48-23.07a13.31,13.31,0,0,0,6.3-10.59Z" fill="#650360"/><path d="M591.53,0H208.46a7.34,7.34,0,0,0-7.32,7.32V390.4a7.34,7.34,0,0,0,7.32,7.31H591.53a7.34,7.34,0,0,0,7.31-7.31V7.32A7.34,7.34,0,0,0,591.53,0ZM243.32,348.22V49.49a7.34,7.34,0,0,1,7.31-7.31h17.61V317.82a13.3,13.3,0,0,0,6.3,10.58l50,27.13H250.64A7.34,7.34,0,0,1,243.32,348.22Zm313.33,0a7.34,7.34,0,0,1-7.31,7.31H342.86V80.25a13.3,13.3,0,0,0-6.29-10.59L285.94,42.18H549.34a7.34,7.34,0,0,1,7.31,7.31Z" fill="#650360"/><path d="M440,89.68c-3.46-1.88-6.3-.2-6.3,3.75V264.21a13.3,13.3,0,0,0,6.3,10.58l26.53,14.4c3.46,1.88,6.3.2,6.3-3.75V114.67a13.3,13.3,0,0,0-6.3-10.58Z" fill="#650360"/></g></svg>