<svg xmlns="http://www.w3.org/2000/svg" viewBox="0 0 800 156.06"><title>logo__welsh</title><g id="Welsh"><polyline points="289 34.81 334.75 34.81 342.96 7.5 255.02 7.5 255.02 54.45 289 54.45 289 34.81" fill="#646569"/><polyline points="255.02 65.68 255.02 153.84 342.52 153.84 342.52 126.53 289 126.53 289 92.99 334.97 92.99 334.97 65.68 255.02 65.68" fill="#3e3935"/><polyline points="395.31 153.84 479.47 153.84 479.47 126.52 429.28 126.52 429.28 65.68 395.31 65.68 395.31 153.84" fill="#3e3935"/><rect x="395.31" y="7.49" width="33.98" height="46.95" fill="#646569"/><path d="M555.27,45.91c0-8.88,7.11-11.77,15.33-11.77,12,0,24,3.55,37.53,10.21V13.93c-8.89-4.44-22.43-8-38.64-8-32.42,0-50.41,20.43-50.41,42.86a44.39,44.39,0,0,0,.39,5.65h39.48a12.15,12.15,0,0,1-3.68-8.53" fill="#646569"/><path d="M581.25,115c0,9.55-10.88,12.88-20.88,12.88-12.88,0-24-4.44-33.75-11.1l-12.88,25.54c12.66,9.11,30.65,13.77,48,13.77,31.31,0,55.74-16.88,55.74-44,0-28-22-38.08-39.77-46.42h-55c13.24,27.85,58.56,28.63,58.56,49.3" fill="#3e3935"/><polyline points="667.42 65.68 667.42 153.84 701.4 153.84 701.4 94.55 766.01 94.55 766.01 153.84 800 153.84 800 65.68 667.42 65.68" fill="#3e3935"/><rect x="667.42" y="7.49" width="33.98" height="46.95" fill="#646569"/><rect x="766.02" y="7.49" width="33.98" height="46.95" fill="#646569"/><polyline points="34.42 7.49 0 7.49 15.1 54.45 49.52 54.45 34.42 7.49" fill="#646569"/><polyline points="150.15 96.46 136.25 65.68 76.94 65.68 63.04 96.46 53.13 65.68 18.71 65.68 47.43 154.95 81.85 154.95 106.6 91.72 131.34 154.95 165.76 154.95 194.47 65.68 160.05 65.68 150.15 96.46" fill="#3e3935"/><polyline points="178.77 7.49 163.67 54.45 198.09 54.45 213.19 7.49 178.77 7.49" fill="#646569"/><polyline points="131.17 54.45 106.59 0 82.02 54.45 131.17 54.45" fill="#f8991d"/></g></svg>