<svg xmlns="http://www.w3.org/2000/svg" viewBox="0 0 800 203.38"><title>logo__mindset-v</title><g id="Mindset_-_horizontal" data-name="Mindset - horizontal"><path d="M221.48,51h18.9l30.75,47.79L301.87,51h18.91v101H303V79.61l-31.89,47.65h-.58L238.94,79.9v72.16H221.48Z" fill="#0f004e"/><path d="M337.72,51h17.76v101H337.72Z" fill="#0f004e"/><path d="M535.81,137.12l10.83-12.88c9.8,8.47,19.63,13.31,32.35,13.31,11.14,0,18.15-5.1,18.15-12.87v-.29c0-7.32-4.09-11.25-23.11-15.65C552.2,103.47,539.94,97,539.94,78.15v-.29c0-17.57,14.61-29.72,35-29.72,14.93,0,26.78,4.55,37.17,12.88l-9.66,13.62c-9.23-6.89-18.43-10.54-27.8-10.54-10.55,0-16.66,5.41-16.66,12.13v.31c0,7.9,4.63,11.41,24.27,16.1,21.67,5.27,32.92,13,32.92,30v.27c0,19.18-15.07,30.61-36.59,30.61A63.2,63.2,0,0,1,535.81,137.12Z" fill="#0f004e"/><path d="M750.06,66.9H718V51h82V66.9H768v85.16h-17.9Z" fill="#0f004e"/><path d="M474.82,51H443.36v69.89L389.22,51H372.77v101h17.48V80.19L446,152.06h14.87V67.21h14c21.2,0,35.06,14.57,35.06,34.35v.29c0,19.78-13.86,34-35.06,34h-1.56v16.16h1.56c31.76,0,53.68-22.08,53.68-50.5v-.29C528.5,72.84,506.58,51,474.82,51Z" fill="#0f004e"/><rect x="658.41" y="93.19" width="38.01" height="15.85" fill="#0f004e"/><polygon points="645.73 136.21 645.73 66.92 702.9 66.92 702.9 51.03 627.99 51.03 627.99 152.06 703.63 152.06 703.63 136.21 645.73 136.21" fill="#0f004e"/><polygon points="88.07 152.54 88.07 203.38 132.09 177.95 132.09 127.11 88.07 152.54" fill="#005cab"/><polygon points="88.07 101.7 88.07 152.53 132.09 127.11 132.09 127.11 132.09 177.95 176.11 152.54 176.11 50.85 88.07 101.7" fill="#0f004e"/><polygon points="88.07 152.54 88.07 203.38 44.02 177.95 44.02 127.11 88.07 152.54" fill="#5a87c6"/><polygon points="88.07 0 0 50.85 88.07 101.69 176.11 50.85 88.07 0" fill="#5a87c6"/><polygon points="88.07 152.53 88.07 101.7 0 50.85 0 152.54 44.02 177.95 44.02 127.11 44.02 127.11 88.07 152.53" fill="#005cab"/></g></svg>