<svg xmlns="http://www.w3.org/2000/svg" width="990" height="989" viewBox="0 0 990 989">
  <g fill="#0A3256" transform="translate(-7)">
    <path d="M407.744361 604.210526C441.12782 604.210526 458.270677 576.165414 458.270677 545.263158 458.270677 514.360902 441.12782 486.390977 407.744361 486.390977 374.360902 486.390977 357.293233 514.43609 357.293233 545.263158 357.293233 576.090226 374.43609 604.210526 407.744361 604.210526M331.203008 232.180451C329.849624 210.827068 303.834586 248.796992 301.12782 256.090226 292.602253 280.034618 289.021308 305.459329 290.601504 330.827068 290.897511 340.644976 291.77625 350.436644 293.233083 360.150376 298.796992 348.421053 303.609023 336.842105 307.669173 326.466165 318.87218 298.195489 333.082707 263.082707 331.052632 232.180451M743.609023 514.210526C743.717218 506.718911 740.662896 499.528642 735.196021 494.405237 729.729147 489.281831 722.356079 486.699833 714.887218 487.293233L680.676692 487.293233 680.676692 542.105263 713.458647 542.105263C730.75188 542.105263 743.533835 533.383459 743.533835 514.210526M417.067669 677.969925C412.6065 679.271849 408.997929 682.56329 407.29228 686.886228 405.586631 691.209166 405.97556 696.077853 408.345865 700.075188 413.842054 694.01102 416.942405 686.153233 417.067669 677.969925M605.488722 366.240602C592.932331 367.443609 580.451128 378.345865 572.406015 391.278195 590.300752 391.278195 605.789474 383.759398 605.488722 366.240602"/>
    <path d="M816.390977,700.451128 C799.699248,723.007519 779.924812,734.736842 756.240602,713.759398 C744.360902,703.233083 734.360902,690.827068 721.804511,680.75188 C695.714286,659.473684 683.308271,706.616541 679.097744,724.360902 C678.045113,729.022556 670.150376,729.323308 669.323308,724.360902 C667.669173,715.037594 664.511278,683.834586 650.300752,683.684211 C640.225564,683.684211 630.902256,690.225564 622.180451,694.511278 C617.800777,696.679919 613.308131,698.61251 608.721805,700.300752 C612.809288,709.146431 612.012225,719.47979 606.616541,727.593985 C594.43609,745.338346 564.43609,740.601504 555.037594,722.631579 C552.988158,718.423417 552.00687,713.77521 552.180451,709.097744 C538.87218,722.781955 522.932331,734.43609 508.796992,718.270677 C499.333974,707.26149 492.540967,694.215828 488.947368,680.150376 C481.467596,693.550851 471.547707,705.434317 459.699248,715.18797 C444.858937,727.984833 422.885424,727.984833 408.045113,715.18797 C399.867373,723.956292 387.555075,727.560595 375.93985,724.586466 C366.466165,721.052632 364.135338,707.593985 361.654135,699.24812 C359.849624,692.932331 356.842105,679.548872 347.969925,680.150376 C340.451128,680.601504 328.721805,703.984962 323.684211,710.225564 C320.676692,714.06015 315.263158,710.225564 314.962406,706.616541 C314.43609,699.097744 311.203008,673.233083 299.172932,677.142857 C290.709501,680.747365 284.232742,687.855333 281.428571,696.616541 C275.338346,710.37594 270.526316,725.037594 264.135338,738.646617 C262.916222,740.547006 260.608004,741.440727 258.426996,740.856835 C256.245988,740.272943 254.693037,738.345524 254.586466,736.090226 C254.586466,719.022556 260.075188,699.924812 254.586466,683.458647 C244.06015,648.87218 216.992481,693.533835 212.180451,708.120301 C210.9155,709.802424 208.748988,710.537527 206.721577,709.972511 C204.694166,709.407494 203.220134,707.657814 203.007519,705.56391 C208.721805,686.917293 230.075188,646.917293 255.639098,664.511278 C266.390977,672.030075 268.345865,687.067669 267.819549,702.105263 C276.090226,681.353383 287.593985,662.481203 312.932331,667.894737 C314.692712,668.368316 316.067774,669.743378 316.541353,671.503759 C318.496241,679.022556 321.278195,686.541353 323.308271,694.06015 C330.451128,682.857143 339.398496,669.097744 351.278195,670.300752 C359.263415,671.867634 365.785643,677.614091 368.345865,685.338346 C371.879699,693.984962 373.909774,718.87218 387.593985,714.81203 C392.669557,713.220292 397.39183,710.667712 401.503759,707.293233 C388.646617,689.097744 399.022556,670.300752 420.37594,666.541353 C423.072029,665.818235 425.849788,667.391183 426.616541,670.075188 C430.225564,681.654135 424.81203,696.766917 415.413534,708.421053 C420.031658,712.570118 425.974596,714.941963 432.180451,715.112782 C451.729323,715.112782 466.616541,697.067669 476.240602,682.105263 C479.699248,676.766917 483.157895,670.977444 486.541353,664.887218 C485.223764,656.824386 484.395183,648.689224 484.06015,640.526316 C483.157895,617.969925 481.428571,584.586466 495.338346,565.338346 C498.092015,560.123823 503.766736,557.137128 509.62406,557.819549 L509.62406,489.473684 L494.661654,489.473684 L494.661654,476.390977 L537.819549,476.390977 L537.819549,489.473684 L523.533835,489.473684 L523.533835,568.045113 C523.533835,592.330827 542.330827,604.210526 564.06015,604.210526 C587.518797,604.210526 605.18797,591.954887 605.18797,568.195489 L605.18797,489.473684 L590.827068,489.473684 L590.827068,476.390977 L633.533835,476.390977 L633.533835,489.473684 L619.24812,489.473684 L619.24812,567.819549 C619.24812,598.87218 595.56391,616.917293 564.06015,616.917293 C547.227895,617.617658 530.95213,610.815434 519.62406,598.345865 C516.980394,614.750524 512.307986,630.762991 505.714286,646.015038 C502.932331,652.857143 499.849624,659.774436 496.466165,666.616541 C498.353972,680.306927 503.427236,693.3635 511.278195,704.736842 C523.157895,720.75188 532.180451,715.037594 543.609023,702.781955 C549.849624,696.165414 556.090226,689.62406 562.631579,683.383459 C564.007348,681.73163 565.543704,680.220461 567.218045,678.87218 L567.819549,678.345865 L568.796992,677.518797 C569.556431,676.955435 570.483394,676.664103 571.428571,676.691729 C581.654135,673.007519 594.887218,679.62406 603.383459,690.451128 C616.240602,685.112782 628.421053,676.616541 643.458647,673.984962 C662.406015,670.676692 670.75188,686.015038 675.263158,702.255639 C683.308271,679.699248 698.270677,653.308271 720.977444,667.368421 C735.413534,676.315789 745.864662,689.924812 758.045113,701.278195 C763.684211,706.616541 769.022556,713.609023 777.067669,715.037594 C790.902256,717.368421 800.451128,704.962406 807.669173,695.18797 C811.503759,689.924812 820.37594,695.18797 816.466165,700.300752 L816.390977,700.451128 Z M407.744361,473.684211 C451.12782,473.684211 473.233083,507.669173 473.233083,545.112782 C473.233083,582.556391 451.12782,616.917293 407.744361,616.917293 C364.360902,616.917293 342.330827,582.556391 342.330827,545.112782 C342.330827,507.669173 364.43609,473.684211 407.744361,473.684211 Z M307.142857,601.503759 L307.142857,614.586466 L263.984962,614.586466 L263.984962,601.503759 L278.195489,601.503759 L278.195489,549.774436 L233.984962,489.62406 L224.962406,489.62406 L224.962406,476.390977 L266.766917,476.390977 L266.766917,489.473684 L253.233083,489.473684 L286.015038,535.714286 L318.496241,489.473684 L305.488722,489.473684 L305.488722,476.390977 L345.864662,476.390977 L345.864662,489.473684 L335.93985,489.473684 L292.781955,549.62406 L292.781955,601.503759 L307.142857,601.503759 Z M206.315789,448.947368 C242.406015,441.428571 268.120301,408.571429 286.466165,373.759398 C283.754044,363.644855 281.992015,353.299224 281.203008,342.857143 C278.571429,312.105263 280.150376,277.443609 293.082707,248.87218 C298.646617,236.766917 314.360902,209.323308 331.353383,215.112782 C346.390977,220.075188 340.601504,248.796992 338.87218,259.022556 C334.962947,279.339797 329.328505,299.286728 322.030075,318.646617 C314.75236,338.193577 306.393598,357.320833 296.992481,375.93985 C299.443884,386.583494 306.268213,395.700797 315.789474,401.052632 C341.729323,413.533835 374.962406,373.383459 395.18797,360.902256 C399.323308,358.345865 405.263158,363.684211 402.180451,367.894737 C394.251174,377.673095 388.208684,388.84023 384.360902,400.827068 C381.353383,412.481203 384.360902,439.398496 404.135338,428.496241 C427.142857,415.639098 418.496241,388.947368 409.097744,369.774436 C408.258636,368.201569 408.299372,366.305201 409.205248,364.769818 C410.111124,363.234435 411.751328,362.281753 413.533835,362.255639 C430.075188,363.082707 451.12782,352.932331 466.992481,361.353383 C479.172932,367.819549 478.87218,378.496241 477.443609,390.977444 C475.501403,400.170681 474.593504,409.552304 474.736842,418.947368 C476.390977,434.661654 489.774436,414.736842 492.706767,409.548872 C500.827068,394.962406 505.714286,378.270677 515.263158,364.43609 C516.342588,362.734792 518.309429,361.812335 520.307705,362.070177 C522.30598,362.328019 523.974246,363.719521 524.586466,365.639098 C529.022556,378.120301 543.909774,386.842105 559.774436,390.150376 C569.849624,370.225564 590.451128,353.984962 610.37594,356.315789 C612.406015,356.315789 614.962406,357.669173 615.263158,360.075188 C619.62406,390.601504 594.135338,403.233083 567.443609,401.428571 C560.451128,418.270677 562.180451,434.887218 581.804511,435.18797 C608.646617,435.56391 640.977444,418.045113 658.87218,398.345865 C663.233083,393.458647 670.451128,400.75188 666.390977,405.864662 C651.643419,420.886447 633.634024,432.309549 613.759398,439.24812 C598.721805,444.736842 573.308271,452.105263 561.12782,436.992481 C553.340113,426.313168 551.499974,412.413038 556.240602,400.075188 C541.92457,397.377838 529.073926,389.576616 520.075188,378.120301 C509.699248,400.676692 488.421053,452.330827 469.473684,432.857143 C459.172932,422.330827 466.917293,400.225564 468.045113,387.744361 C468.045113,384.210526 469.699248,377.067669 467.368421,373.984962 C462.706767,367.593985 451.729323,368.496241 444.81203,369.24812 C437.894737,370 429.398496,371.804511 421.578947,372.406015 C427.736812,384.166191 430.348747,397.460943 429.097744,410.676692 C426.842105,424.43609 414.06015,441.428571 399.022556,441.428571 C384.006816,440.939234 372.125192,428.55698 372.255639,413.533835 C372.628267,404.013273 374.957332,394.671421 379.097744,386.090226 C359.172932,402.556391 334.962406,421.353383 313.909774,411.654135 C303.611224,406.345837 295.594309,397.473784 291.353383,386.691729 C271.729323,421.052632 245.488722,451.578947 209.022556,458.646617 C202.556391,459.924812 199.849624,450.075188 206.315789,448.87218 L206.315789,448.947368 Z M695.037594,599.24812 L695.037594,612.255639 L651.954887,612.255639 L651.954887,599.172932 L666.165414,599.172932 L666.165414,487.894737 L651.954887,487.894737 L651.954887,474.887218 L715.488722,474.887218 C738.87218,474.887218 758.045113,489.097744 758.045113,513.984962 C759.063843,533.267348 745.022156,550.06488 725.864662,552.481203 L758.646617,599.172932 L772.105263,599.172932 L772.105263,612.180451 L749.548872,612.180451 L710.225564,554.511278 L680.676692,554.511278 L680.676692,599.172932 L695.037594,599.24812 Z M700.37594,371.654135 C714.43609,344.285714 736.992481,375.112782 741.278195,395.037594 C752.180451,381.428571 787.744361,346.766917 784.210526,392.556391 C782.406015,413.909774 749.924812,442.556391 731.578947,452.706767 C731.578947,452.706767 686.466165,398.646617 700.451128,371.353383 L700.37594,371.654135 Z M501.879699,5.34242653e-14 C301.892127,2.31232791e-06 121.598031,120.473625 45.0731265,305.24096 C-31.4517784,490.008296 10.8638573,702.679971 152.287179,844.081786 C293.7105,985.483602 506.388608,1027.76689 691.144304,951.213891 C875.899999,874.660887 996.346201,694.348473 996.315789,494.360902 C996.315791,363.235211 944.221167,237.481185 851.494252,144.76837 C758.767336,52.0555554 633.005389,-0.0199430709 501.879699,5.34242653e-14 Z"/>
    <path d="M563.909774 701.052632C562.428522 705.303088 562.1169 709.873539 563.007519 714.285714 566.691729 728.571429 591.578947 735.714286 599.323308 720.601504 601.875204 715.172126 601.875204 708.888025 599.323308 703.458647 587.549081 706.280051 575.194189 705.440653 563.909774 701.052632M569.699248 692.481203C577.185902 695.235831 585.316405 695.73255 593.082707 693.909774 585.56391 685.338346 574.661654 681.654135 569.699248 692.481203M510.451128 579.924812C509.796836 577.131798 509.369379 574.290465 509.172932 571.428571 508.345865 568.646617 507.067669 566.616541 504.962406 568.947368 500.870096 574.681263 498.284625 581.351779 497.443609 588.345865 493.526202 608.144899 492.56337 628.415033 494.586466 648.496241L494.586466 648.947368C505.565008 627.668801 511.142308 604.016918 510.827068 580.075188"/>
  </g>
</svg>
