<svg xmlns="http://www.w3.org/2000/svg" xmlns:xlink="http://www.w3.org/1999/xlink" width="902" height="319" viewBox="0 0 902 319">
  <defs>
    <path id="logo__coco-a" d="M52.09,106.65 C52.09,76.3240444 76.6740444,51.74 107,51.74 C137.325956,51.74 161.91,76.3240444 161.91,106.65 C161.91,136.975956 137.325956,161.56 107,161.56 C92.4328946,161.573283 78.4586024,155.792404 68.1580992,145.491901 C57.8575959,135.191398 52.0767173,121.217105 52.09,106.65 M0.92,106.65 C0.92,165.236366 48.4136337,212.73 107,212.73 C165.586366,212.73 213.08,165.236366 213.08,106.65 C213.08,48.0636337 165.586366,0.57 107,0.57 C78.8610589,0.551409658 51.8694205,11.7220129 31.973118,31.6201912 C12.0768155,51.5183694 0.908756918,78.5110608 0.93,106.65"/>
    <path id="logo__coco-c" d="M52.09,106.65 C52.09,76.3240444 76.6740444,51.74 107,51.74 C137.325956,51.74 161.91,76.3240444 161.91,106.65 C161.91,136.975956 137.325956,161.56 107,161.56 C92.4328946,161.573283 78.4586024,155.792404 68.1580992,145.491901 C57.8575959,135.191398 52.0767173,121.217105 52.09,106.65 M0.92,106.65 C0.92,165.236366 48.4136337,212.73 107,212.73 C165.586366,212.73 213.08,165.236366 213.08,106.65 C213.08,48.0636337 165.586366,0.57 107,0.57 C78.8610589,0.551409658 51.8694205,11.7220129 31.973118,31.6201912 C12.0768155,51.5183694 0.908756918,78.5110608 0.93,106.65"/>
    <path id="logo__coco-e" d="M52.09,106.65 C52.09,76.3240444 76.6740444,51.74 107,51.74 C137.325956,51.74 161.91,76.3240444 161.91,106.65 C161.91,136.975956 137.325956,161.56 107,161.56 C92.4328946,161.573283 78.4586024,155.792404 68.1580992,145.491901 C57.8575959,135.191398 52.0767173,121.217105 52.09,106.65 M0.92,106.65 C0.92,165.236366 48.4136337,212.73 107,212.73 C165.586366,212.73 213.08,165.236366 213.08,106.65 C213.08,48.0636337 165.586366,0.57 107,0.57 C78.8610589,0.551409658 51.8694205,11.7220129 31.973118,31.6201912 C12.0768155,51.5183694 0.908756918,78.5110608 0.93,106.65"/>
    <path id="logo__coco-g" d="M52.09,106.65 C52.09,76.3240444 76.6740444,51.74 107,51.74 C137.325956,51.74 161.91,76.3240444 161.91,106.65 C161.91,136.975956 137.325956,161.56 107,161.56 C92.4328946,161.573283 78.4586024,155.792404 68.1580992,145.491901 C57.8575959,135.191398 52.0767173,121.217105 52.09,106.65 M0.92,106.65 C0.92,165.236366 48.4136337,212.73 107,212.73 C165.586366,212.73 213.08,165.236366 213.08,106.65 C213.08,48.0636337 165.586366,0.57 107,0.57 C78.8610589,0.551409658 51.8694205,11.7220129 31.973118,31.6201912 C12.0768155,51.5183694 0.908756918,78.5110608 0.93,106.65"/>
    <path id="logo__coco-i" d="M52.09,106.65 C52.09,76.3240444 76.6740444,51.74 107,51.74 C137.325956,51.74 161.91,76.3240444 161.91,106.65 C161.91,136.975956 137.325956,161.56 107,161.56 C92.4328946,161.573283 78.4586024,155.792404 68.1580992,145.491901 C57.8575959,135.191398 52.0767173,121.217105 52.09,106.65 M0.92,106.65 C0.92,165.236366 48.4136337,212.73 107,212.73 C165.586366,212.73 213.08,165.236366 213.08,106.65 C213.08,48.0636337 165.586366,0.57 107,0.57 C78.8610589,0.551409658 51.8694205,11.7220129 31.973118,31.6201912 C12.0768155,51.5183694 0.908756918,78.5110608 0.93,106.65"/>
    <path id="logo__coco-k" d="M52.09,106.65 C52.09,76.3240444 76.6740444,51.74 107,51.74 C137.325956,51.74 161.91,76.3240444 161.91,106.65 C161.91,136.975956 137.325956,161.56 107,161.56 C92.4328946,161.573283 78.4586024,155.792404 68.1580992,145.491901 C57.8575959,135.191398 52.0767173,121.217105 52.09,106.65 M0.92,106.65 C0.92,165.236366 48.4136337,212.73 107,212.73 C165.586366,212.73 213.08,165.236366 213.08,106.65 C213.08,48.0636337 165.586366,0.57 107,0.57 C78.8610589,0.551409658 51.8694205,11.7220129 31.973118,31.6201912 C12.0768155,51.5183694 0.908756918,78.5110608 0.93,106.65"/>
    <path id="logo__coco-m" d="M52.09,106.65 C52.09,76.3240444 76.6740444,51.74 107,51.74 C137.325956,51.74 161.91,76.3240444 161.91,106.65 C161.91,136.975956 137.325956,161.56 107,161.56 C92.4328946,161.573283 78.4586024,155.792404 68.1580992,145.491901 C57.8575959,135.191398 52.0767173,121.217105 52.09,106.65 M0.92,106.65 C0.92,165.236366 48.4136337,212.73 107,212.73 C165.586366,212.73 213.08,165.236366 213.08,106.65 C213.08,48.0636337 165.586366,0.57 107,0.57 C78.8610589,0.551409658 51.8694205,11.7220129 31.973118,31.6201912 C12.0768155,51.5183694 0.908756918,78.5110608 0.93,106.65"/>
    <path id="logo__coco-o" d="M52.09,106.65 C52.09,76.3240444 76.6740444,51.74 107,51.74 C137.325956,51.74 161.91,76.3240444 161.91,106.65 C161.91,136.975956 137.325956,161.56 107,161.56 C92.4328946,161.573283 78.4586024,155.792404 68.1580992,145.491901 C57.8575959,135.191398 52.0767173,121.217105 52.09,106.65 M0.92,106.65 C0.92,165.236366 48.4136337,212.73 107,212.73 C165.586366,212.73 213.08,165.236366 213.08,106.65 C213.08,48.0636337 165.586366,0.57 107,0.57 C78.8610589,0.551409658 51.8694205,11.7220129 31.973118,31.6201912 C12.0768155,51.5183694 0.908756918,78.5110608 0.93,106.65"/>
    <path id="logo__coco-q" d="M52.09,106.65 C52.09,76.3240444 76.6740444,51.74 107,51.74 C137.325956,51.74 161.91,76.3240444 161.91,106.65 C161.91,136.975956 137.325956,161.56 107,161.56 C92.4328946,161.573283 78.4586024,155.792404 68.1580992,145.491901 C57.8575959,135.191398 52.0767173,121.217105 52.09,106.65 M0.92,106.65 C0.92,165.236366 48.4136337,212.73 107,212.73 C165.586366,212.73 213.08,165.236366 213.08,106.65 C213.08,48.0636337 165.586366,0.57 107,0.57 C78.8610589,0.551409658 51.8694205,11.7220129 31.973118,31.6201912 C12.0768155,51.5183694 0.908756918,78.5110608 0.93,106.65"/>
  </defs>
  <g fill="none" fill-rule="evenodd">
    <rect width="902" height="319" fill="#FFF" fill-rule="nonzero"/>
    <path fill="#566070" fill-rule="nonzero" d="M833.28 244.89C837.870447 244.900995 841.589005 248.619553 841.6 253.21 841.544752 257.723269 837.860646 261.347732 833.347076 261.329316 828.833507 261.310899 825.179101 257.656493 825.160684 253.142924 825.142268 248.629354 828.766731 244.945248 833.28 244.89zM833.28 259.24C835.823402 259.337895 838.171342 257.881201 839.213245 255.558936 840.255147 253.236671 839.782156 250.514344 838.017997 248.679619 836.253837 246.844893 833.552145 246.265549 831.190821 247.215616 828.829498 248.165683 827.281883 250.454715 827.28 253 827.237055 254.626271 827.84764 256.201921 828.975216 257.3746 830.102792 258.547279 831.653295 259.219161 833.28 259.24zM834.94 257.37L832.65 254.25 832.23 254.25 832.23 257.37 830.36 257.37 830.36 248.84 832.44 248.84C835.35 248.84 836.44 249.67 836.44 251.34 836.44337 252.432417 835.788132 253.41922 834.78 253.84L837.28 257.38 834.94 257.37zM832.24 250.3L832.24 252.59C833.7 252.59 834.53 252.38 834.53 251.59 834.53 250.59 833.91 250.34 832.24 250.34L832.24 250.3zM740.93 54.57C698.023735 54.5659553 659.340049 80.408953 642.91773 120.048012 626.49541 159.687071 635.568696 205.31561 665.906577 235.656351 696.244458 265.997092 741.872142 275.07468 781.512748 258.656097 821.153355 242.237515 847 203.556265 847 160.65 847.021243 132.511061 835.853184 105.518369 815.956882 85.6201912 796.060579 65.7220129 769.068941 54.5514097 740.93 54.57M740.93 215.35C718.720978 215.35 698.6988 201.971608 690.199775 181.453147 681.70075 160.934687 686.398617 137.316917 702.102767 121.612767 717.806917 105.908617 741.424687 101.21075 761.943147 109.709775 782.461608 118.2088 795.84 138.230978 795.84 160.44 795.853283 175.007105 790.072404 188.981398 779.771901 199.281901 769.471398 209.582404 755.497105 215.363283 740.93 215.35"/>
    <path fill="#F05B64" fill-rule="nonzero" d="M728.24 86.81C727.519985 84.653615 725.218024 83.4583661 723.04 84.11 721.968815 84.4065123 721.0693 85.1353516 720.557119 86.1217733 720.044939 87.1081951 719.966279 88.2632482 720.34 89.31 721.060015 91.466385 723.361976 92.6616339 725.54 92.01 726.611185 91.7134877 727.5107 90.9846484 728.022881 89.9982267 728.535061 89.0118049 728.613721 87.8567518 728.24 86.81M772.76 57.9C772.313418 56.4888007 771.147894 55.4230474 769.702468 55.1041991 768.257043 54.7853508 766.751311 55.2618481 765.752468 56.3541992 764.753625 57.4465502 764.413418 58.9888008 764.86 60.4 765.306582 61.8111993 766.472106 62.8769526 767.917532 63.1958009 769.362957 63.5146492 770.868689 63.0381519 771.867532 61.9458008 772.866375 60.8534498 773.206582 59.3111992 772.76 57.9"/>
    <polygon fill="#F05B64" fill-rule="nonzero" points="725.54 88.48 723.25 87.65 735.52 53.74 769.01 57.9 768.8 60.19 737.19 56.45"/>
    <rect width="2.5" height="23.5" x="701.443" y="94.71" fill="#F05B64" fill-rule="nonzero" transform="rotate(-39.74 702.693 106.46)"/>
    <rect width="2.5" height="27.87" x="684.981" y="72.777" fill="#F05B64" fill-rule="nonzero" transform="rotate(-40.31 686.231 86.712)"/>
    <path fill="#F05B64" fill-rule="nonzero" d="M760.69 74.54C761.780318 72.5313359 761.036661 70.0191238 759.028642 68.9276188 757.020623 67.8361137 754.507972 68.5782847 753.41528 70.5856582 752.322588 72.5930317 753.063273 75.1061213 755.07 76.2 757.15 77.45 759.44 76.62 760.69 74.54M682.28 182.08C683.370318 180.071336 682.626661 177.559124 680.618642 176.467619 678.610623 175.376114 676.097972 176.118285 675.00528 178.125658 673.912588 180.133032 674.653273 182.646121 676.66 183.74 678.67477 184.789585 681.158863 184.055849 682.28 182.08M781.91 99.5C783.000318 97.4913359 782.256661 94.9791238 780.248642 93.8876188 778.240623 92.7961137 775.727972 93.5382847 774.63528 95.5456582 773.542588 97.5530317 774.283273 100.066121 776.29 101.16 777.252888 101.69721 778.39157 101.823948 779.449015 101.511607 780.506461 101.199265 781.393534 100.474172 781.91 99.5"/>
    <path fill="#F05B64" fill-rule="nonzero" d="M781.91 99.5C783.000318 97.4913359 782.256661 94.9791238 780.248642 93.8876188 778.240623 92.7961137 775.727972 93.5382847 774.63528 95.5456582 773.542588 97.5530317 774.283273 100.066121 776.29 101.16 777.241308 101.748704 778.398426 101.904073 779.471333 101.587165 780.54424 101.270256 781.431235 100.51111 781.91 99.5M751.75 108C752.840318 105.991336 752.096661 103.479124 750.088642 102.387619 748.080623 101.296114 745.567972 102.038285 744.47528 104.045658 743.382588 106.053032 744.123273 108.566121 746.13 109.66 747.081308 110.248704 748.238426 110.404073 749.311333 110.087165 750.38424 109.770256 751.271235 109.01111 751.75 108M698.92 99.5C700.010318 97.4913359 699.266661 94.9791238 697.258642 93.8876188 695.250623 92.7961137 692.737972 93.5382847 691.64528 95.5456582 690.552588 97.5530317 691.293273 100.066121 693.3 101.16 694.262888 101.69721 695.40157 101.823948 696.459015 101.511607 697.516461 101.199265 698.403534 100.474172 698.92 99.5M713.89 117.39C714.980318 115.381336 714.236661 112.869124 712.228642 111.777619 710.220623 110.686114 707.707972 111.428285 706.61528 113.435658 705.522588 115.443032 706.263273 117.956121 708.27 119.05 710.56 120.05 712.85 119.47 713.89 117.39M690.6 150.67C691.690318 148.661336 690.946661 146.149124 688.938642 145.057619 686.930623 143.966114 684.417972 144.708285 683.32528 146.715658 682.232588 148.723032 682.973273 151.236121 684.98 152.33 686.997821 153.346938 689.458563 152.620099 690.6 150.67M663.76 146.51C664.850318 144.501336 664.106661 141.989124 662.098642 140.897619 660.090623 139.806114 657.577972 140.548285 656.48528 142.555658 655.392588 144.563032 656.133273 147.076121 658.14 148.17 659.091308 148.758704 660.248426 148.914073 661.321333 148.597165 662.39424 148.280256 663.281235 147.52111 663.76 146.51M682.28 131.53C683.370318 129.521336 682.626661 127.009124 680.618642 125.917619 678.610623 124.826114 676.097972 125.568285 675.00528 127.575658 673.912588 129.583032 674.653273 132.096121 676.66 133.19 677.608076 133.791996 678.770064 133.954872 679.847115 133.636739 680.924166 133.318607 681.81117 132.550512 682.28 131.53M676.87 95.55C677.960318 93.5413359 677.216661 91.0291238 675.208642 89.9376188 673.200623 88.8461137 670.687972 89.5882847 669.59528 91.5956582 668.502588 93.6030317 669.243273 96.1161213 671.25 97.21 673.267821 98.2269375 675.728563 97.500099 676.87 95.55M655.65 105.12C656.668653 103.104718 655.946421 100.644752 654 99.5 651.979477 98.5141911 649.540618 99.2345657 648.38 101.16 647.35615 103.167679 648.064588 105.625347 650 106.78 650.951308 107.368704 652.108426 107.524073 653.181333 107.207165 654.25424 106.890256 655.141235 106.13111 655.62 105.12M644 129C645.090318 126.991336 644.346661 124.479124 642.338642 123.387619 640.330623 122.296114 637.817972 123.038285 636.72528 125.045658 635.632588 127.053032 636.373273 129.566121 638.38 130.66 639.331308 131.248704 640.488426 131.404073 641.561333 131.087165 642.63424 130.770256 643.521235 130.01111 644 129M638.6 160C639.690318 157.991336 638.946661 155.479124 636.938642 154.387619 634.930623 153.296114 632.417972 154.038285 631.32528 156.045658 630.232588 158.053032 630.973273 160.566121 632.98 161.66 633.931308 162.248704 635.088426 162.404073 636.161333 162.087165 637.23424 161.770256 638.121235 161.01111 638.6 160M642.76 192.68C643.776938 190.662179 643.050099 188.201437 641.1 187.06 639.079477 186.074191 636.640618 186.794566 635.48 188.72 634.765469 190.020447 634.798995 191.603307 635.567949 192.872332 636.336904 194.141358 637.724464 194.903754 639.207949 194.872332 640.691435 194.840911 642.045469 194.020447 642.76 192.72M707.44 203.08C708.530318 201.071336 707.786661 198.559124 705.778642 197.467619 703.770623 196.376114 701.257972 197.118285 700.16528 199.125658 699.072588 201.133032 699.813273 203.646121 701.82 204.74 702.771308 205.328704 703.928426 205.484073 705.001333 205.167165 706.07424 204.850256 706.961235 204.09111 707.44 203.08M690 212.86C691.090318 210.851336 690.346661 208.339124 688.338642 207.247619 686.330623 206.156114 683.817972 206.898285 682.72528 208.905658 681.632588 210.913032 682.373273 213.426121 684.38 214.52 685.331308 215.108704 686.488426 215.264073 687.561333 214.947165 688.63424 214.630256 689.521235 213.87111 690 212.86M659 224.92C660.090318 222.911336 659.346661 220.399124 657.338642 219.307619 655.330623 218.216114 652.817972 218.958285 651.72528 220.965658 650.632588 222.973032 651.373273 225.486121 653.38 226.58 654.331308 227.168704 655.488426 227.324073 656.561333 227.007165 657.63424 226.690256 658.521235 225.93111 659 224.92M692.68 255.5C693.770318 253.491336 693.026661 250.979124 691.018642 249.887619 689.010623 248.796114 686.497972 249.538285 685.40528 251.545658 684.312588 253.553032 685.053273 256.066121 687.06 257.16 688.022888 257.69721 689.16157 257.823948 690.219015 257.511607 691.276461 257.199265 692.163534 256.474172 692.68 255.5M711.6 223.68C712.690318 221.671336 711.946661 219.159124 709.938642 218.067619 707.930623 216.976114 705.417972 217.718285 704.32528 219.725658 703.232588 221.733032 703.973273 224.246121 705.98 225.34 706.942888 225.87721 708.08157 226.003948 709.139015 225.691607 710.196461 225.379265 711.083534 224.654172 711.6 223.68M735.94 226C737.030318 223.991336 736.286661 221.479124 734.278642 220.387619 732.270623 219.296114 729.757972 220.038285 728.66528 222.045658 727.572588 224.053032 728.313273 226.566121 730.32 227.66 731.282888 228.19721 732.42157 228.323948 733.479015 228.011607 734.536461 227.699265 735.423534 226.974172 735.94 226M766.52 212.86C767.610318 210.851336 766.866661 208.339124 764.858642 207.247619 762.850623 206.156114 760.337972 206.898285 759.24528 208.905658 758.152588 210.913032 758.893273 213.426121 760.9 214.52 761.851308 215.108704 763.008426 215.264073 764.081333 214.947165 765.15424 214.630256 766.041235 213.87111 766.52 212.86M755.7 254C756.790318 251.991336 756.046661 249.479124 754.038642 248.387619 752.030623 247.296114 749.517972 248.038285 748.42528 250.045658 747.332588 252.053032 748.073273 254.566121 750.08 255.66 751.031308 256.248704 752.188426 256.404073 753.261333 256.087165 754.33424 255.770256 755.221235 255.01111 755.7 254M733.86 241.77C734.950318 239.761336 734.206661 237.249124 732.198642 236.157619 730.190623 235.066114 727.677972 235.808285 726.58528 237.815658 725.492588 239.823032 726.233273 242.336121 728.24 243.43 729.191308 244.018704 730.348426 244.174073 731.421333 243.857165 732.49424 243.540256 733.381235 242.78111 733.86 241.77M711.6 255.5C712.690318 253.491336 711.946661 250.979124 709.938642 249.887619 707.930623 248.796114 705.417972 249.538285 704.32528 251.545658 703.232588 253.553032 703.973273 256.066121 705.98 257.16 706.942888 257.69721 708.08157 257.823948 709.139015 257.511607 710.196461 257.199265 711.083534 256.474172 711.6 255.5M694.13 235.74C695.220318 233.731336 694.476661 231.219124 692.468642 230.127619 690.460623 229.036114 687.947972 229.778285 686.85528 231.785658 685.762588 233.793032 686.503273 236.306121 688.51 237.4 689.461308 237.988704 690.618426 238.144073 691.691333 237.827165 692.76424 237.510256 693.651235 236.75111 694.13 235.74M783.78 245.93C784.870318 243.921336 784.126661 241.409124 782.118642 240.317619 780.110623 239.226114 777.597972 239.968285 776.50528 241.975658 775.412588 243.983032 776.153273 246.496121 778.16 247.59 780.177821 248.606938 782.638563 247.880099 783.78 245.93M799.38 210.78C800.470318 208.771336 799.726661 206.259124 797.718642 205.167619 795.710623 204.076114 793.197972 204.818285 792.10528 206.825658 791.012588 208.833032 791.753273 211.346121 793.76 212.44 794.711308 213.028704 795.868426 213.184073 796.941333 212.867165 798.01424 212.550256 798.901235 211.79111 799.38 210.78M823.09 192.68C824.180318 190.671336 823.436661 188.159124 821.428642 187.067619 819.420623 185.976114 816.907972 186.718285 815.81528 188.725658 814.722588 190.733032 815.463273 193.246121 817.47 194.34 819.487821 195.356938 821.948563 194.630099 823.09 192.68M816.23 165.44C817.246938 163.422179 816.520099 160.961437 814.57 159.82 812.549477 158.834191 810.110618 159.554566 808.95 161.48 807.933062 163.497821 808.659901 165.958563 810.61 167.1 812.630523 168.085809 815.069382 167.365434 816.23 165.44M798.13 148.59C799.220318 146.581336 798.476661 144.069124 796.468642 142.977619 794.460623 141.886114 791.947972 142.628285 790.85528 144.635658 789.762588 146.643032 790.503273 149.156121 792.51 150.25 793.461308 150.838704 794.618426 150.994073 795.691333 150.677165 796.76424 150.360256 797.651235 149.60111 798.13 148.59M843.89 125.29C844.960815 123.271871 844.194424 120.767791 842.177515 119.694681 840.160606 118.621571 837.655655 119.385112 836.580251 121.400799 835.504847 123.416486 836.265538 125.922303 838.28 127 840.36 128.25 842.65 127.42 843.9 125.34M850.55 166.27C851.566938 164.252179 850.840099 161.791437 848.89 160.65 846.869477 159.664191 844.430618 160.384566 843.27 162.31 842.555469 163.610447 842.588994 165.193307 843.357949 166.462333 844.126903 167.731358 845.514463 168.493754 846.997949 168.462333 848.481435 168.430912 849.835469 167.610447 850.55 166.31M845.56 192.27C846.650318 190.261336 845.906661 187.749124 843.898642 186.657619 841.890623 185.566114 839.377972 186.308285 838.28528 188.315658 837.192588 190.323032 837.933273 192.836121 839.94 193.93 841.957821 194.946938 844.418563 194.220099 845.56 192.27M805 250.09C806.090318 248.081336 805.346661 245.569124 803.338642 244.477619 801.330623 243.386114 798.817972 244.128285 797.72528 246.135658 796.632588 248.143032 797.373273 250.656121 799.38 251.75 801.39477 252.799585 803.878863 252.065849 805 250.09M832.87 221.8C833.960318 219.791336 833.216661 217.279124 831.208642 216.187619 829.200623 215.096114 826.687972 215.838285 825.59528 217.845658 824.502588 219.853032 825.243273 222.366121 827.25 223.46 828.201308 224.048704 829.358426 224.204073 830.431333 223.887165 831.50424 223.570256 832.391235 222.81111 832.87 221.8M792.52 189.36C793.32508 187.891702 793.16637 186.083007 792.11788 184.777357 791.06939 183.471706 789.337618 182.926244 787.730133 183.395332 786.122647 183.86442 784.956038 185.255674 784.774324 186.920316 784.59261 188.584958 785.43158 190.195143 786.9 191 787.862888 191.53721 789.00157 191.663948 790.059015 191.351607 791.116461 191.039265 792.003534 190.314172 792.52 189.34M681 77.66C682.090318 75.6513359 681.346661 73.1391238 679.338642 72.0476188 677.330623 70.9561137 674.817972 71.6982847 673.72528 73.7056582 672.632588 75.7130317 673.373273 78.2261213 675.38 79.32 677.400523 80.3058089 679.839382 79.5854343 681 77.66M739.89 57.07C740.906938 55.052179 740.180099 52.5914365 738.23 51.45 736.212179 50.4330625 733.751437 51.159901 732.61 53.11 731.593062 55.127821 732.319901 57.5885635 734.27 58.73 736.28477 59.7795852 738.768863 59.0458495 739.89 57.07M719.09 78.7C720.180318 76.6913359 719.436661 74.1791238 717.428642 73.0876188 715.420623 71.9961137 712.907972 72.7382847 711.81528 74.7456582 710.722588 76.7530317 711.463273 79.2661213 713.47 80.36 714.432888 80.8972101 715.57157 81.0239483 716.629015 80.7116067 717.686461 80.399265 718.573534 79.6741725 719.09 78.7M711.6 62.27C712.616938 60.252179 711.890099 57.7914365 709.94 56.65 707.919477 55.6641911 705.480618 56.3845657 704.32 58.31 703.30647 60.3329078 704.042534 62.7952191 706 63.93 706.962888 64.4672101 708.10157 64.5939483 709.159015 64.2816067 710.216461 63.969265 711.103534 63.2441725 711.62 62.27M832.87 107.61C833.960318 105.601336 833.216661 103.089124 831.208642 101.997619 829.200623 100.906114 826.687972 101.648285 825.59528 103.655658 824.502588 105.663032 825.243273 108.176121 827.25 109.27 828.201308 109.858704 829.358426 110.014073 830.431333 109.697165 831.50424 109.380256 832.391235 108.62111 832.87 107.61"/>
    <polygon fill="#F05B64" fill-rule="nonzero" points="785.86 131.74 776.5 96.17 829.54 104.49 829.12 106.99 779.83 99.29 788.15 131.12"/>
    <path fill="#F05B64" fill-rule="nonzero" d="M827.46 109.28C828.975289 109.954375 830.74762 109.649383 831.950321 108.507283 833.153021 107.365182 833.549155 105.610971 832.953952 104.062871 832.358749 102.51477 830.889466 101.477762 829.231425 101.43554 827.573384 101.393318 826.053225 102.3542 825.38 103.87 824.624528 105.93973 825.512561 108.249467 827.46 109.28M802.08 120.92C803.595718 121.59636 805.369692 121.292155 806.573473 120.149449 807.777253 119.006744 808.173331 117.250996 807.576737 115.702146 806.980143 114.153295 805.508585 113.116933 803.849287 113.077043 802.189988 113.037153 800.670331 114.001606 800 115.52 799.530161 116.509584 799.486732 117.648558 799.879851 118.671046 800.272971 119.693534 801.068234 120.510054 802.08 120.93M810 86.4C811.345869 87.0433234 812.934948 86.904903 814.149314 86.0385646 815.363681 85.1722261 816.011691 83.7146883 815.841363 82.2327248 815.671035 80.7507613 814.709248 79.478244 813.33 78.91 812.33811 78.4374145 811.195499 78.3936359 810.170357 78.7889399 809.145215 79.1842439 808.327809 79.9838221 807.91 81 807.161917 83.0693401 808.053706 85.3734838 810 86.4M789.19 71.21C790.179584 71.6798392 791.318558 71.723268 792.341046 71.3301487 793.363534 70.9370293 794.180054 70.1417659 794.6 69.13 795.445818 67.0770205 794.503666 64.7237943 792.47476 63.8217571 790.445853 62.9197199 788.067572 63.7967056 787.11 65.8 786.209045 67.8687482 787.135206 70.2776579 789.19 71.21M785.24 135.07C786.755289 135.744375 788.52762 135.439383 789.730321 134.297283 790.933021 133.155182 791.329155 131.400971 790.733952 129.852871 790.138749 128.30477 788.669466 127.267762 787.011425 127.22554 785.353384 127.183318 783.833225 128.1442 783.16 129.66 782.298553 131.729451 783.214068 134.110669 785.24 135.07M762.56 114.68C763.552673 115.159779 764.699359 115.20855 765.729185 114.814793 766.759012 114.421036 767.580646 113.619671 768 112.6 768.900955 110.531252 767.974794 108.122342 765.92 107.19 764.930416 106.720161 763.791442 106.676732 762.768954 107.069851 761.746466 107.462971 760.929946 108.258234 760.51 109.27 759.754528 111.33973 760.642561 113.649467 762.59 114.68M821.84 160.65C823.355289 161.324375 825.12762 161.019383 826.330321 159.877283 827.533021 158.735182 827.929155 156.980971 827.333952 155.432871 826.738749 153.88477 825.269466 152.847762 823.611425 152.80554 821.953384 152.763318 820.433225 153.7242 819.76 155.24 818.898553 157.309451 819.814068 159.690669 821.84 160.65M778 75.16C776.654943 74.5711529 775.087612 74.850596 774.028939 75.8680096 772.970267 76.8854231 772.628772 78.4404144 773.163713 79.8078046 773.698655 81.1751948 775.004668 82.0856587 776.472688 82.1145966 777.940707 82.1435344 779.281587 81.2852464 779.87 79.94 780.661396 78.1034293 779.827553 75.972003 778 75.16"/>
    <rect width="2.5" height="20.8" x="771.312" y="58.453" fill="#F05B64" fill-rule="nonzero" transform="rotate(-21.24 772.562 68.853)"/>
    <polygon fill="#F05B64" fill-rule="nonzero" points="717.22 78.08 677.28 77.45 677.28 74.96 713.48 75.58 706.82 60.81 709.11 59.77"/>
    <rect width="2.5" height="25.79" x="740.284" y="233.062" fill="#F05B64" fill-rule="nonzero" transform="rotate(-61.91 741.534 245.957)"/>
    <polygon fill="#F05B64" fill-rule="nonzero" points="707.03 254.46 688.93 234.08 701.83 202.25 636.31 191.85 684.57 149.63 658.98 145.47 650.45 101.79 710.57 114.27 710.15 116.77 653.57 104.91 661.06 143.39 690.18 147.96 641.92 190.19 705.37 200.38 691.85 233.66 708.9 252.8"/>
    <polygon fill="#F05B64" fill-rule="nonzero" points="777.96 98.88 720.34 88.69 756.53 71.63 757.57 73.92 728.25 87.65 778.37 96.59"/>
    <path fill="#F05B64" fill-rule="nonzero" d="M678.12,133.61 L672.12,93.88 L674.62,93.46 L679.62,125.91 L694.76,96.8 L737.4,52.7 L749.88,107.82 L696.22,99.08 L678.12,133.61 Z M697.88,96.8 L746.55,104.7 L735.73,57.49 L697.88,96.8 Z"/>
    <rect width="2.5" height="38.48" x="658.318" y="109.183" fill="#F05B64" fill-rule="nonzero" transform="rotate(-86.34 659.568 128.423)"/>
    <path fill="#F05B64" fill-rule="nonzero" d="M681.65,182.91 L632.35,157.91 L660.43,142.91 L681.65,182.91 Z M637.76,157.74 L676,177.29 L659.57,146.09 L637.76,157.74 Z"/>
    <polygon fill="#F05B64" fill-rule="nonzero" points="725.96 268.6 707.24 223.26 652.95 224.51 679.16 176.88 687.48 210.99 685.19 211.61 678.33 183.53 657.11 222.01 708.69 220.76 726.37 263.4 762.36 209.53 800.63 245.93 817.89 191.85 788.77 188.73 789.19 186.24 821.01 189.56 801.88 250.51 762.77 213.28"/>
    <polygon fill="#F05B64" fill-rule="nonzero" points="841.81 191.64 791.68 146.3 839.52 122.38 840.56 124.46 795.84 146.72 843.48 189.77"/>
    <polygon fill="#F05B64" fill-rule="nonzero" points="828.92 220.76 794.18 209.74 811.44 162.94 813.73 163.77 797.3 208.28 829.54 218.48"/>
    <polygon fill="#F05B64" fill-rule="nonzero" points="772.34 263.2 750.09 253.21 794.8 208.08 796.68 209.74 754.25 252.38 773.38 261.12"/>
    <polygon fill="#F05B64" fill-rule="nonzero" points="688.93 255.08 654.2 224.09 655.86 222.22 689.14 251.96 731.37 222.64 731.99 223.05 780.66 243.64 779.62 245.93 731.78 225.55"/>
    <rect width="60.506" height="2.499" x="760.647" y="201.366" fill="#F05B64" fill-rule="nonzero" transform="rotate(-19.885 790.9 202.615)"/>
    <polygon fill="#F05B64" fill-rule="nonzero" points="822.26 157.53 802.5 116.97 811.03 82.24 813.52 82.86 805 116.77 824.34 156.49"/>
    <polygon fill="#F05B64" fill-rule="nonzero" points="846.6 165.44 822.05 157.95 828.08 105.95 811.86 84.11 779 98.67 765.68 112.6 764.02 110.94 777.75 96.59 812.69 81.2 830.58 105.33 824.76 156.08 847.22 163.15"/>
    <rect width="2.5" height="50.96" x="796.047" y="66.702" fill="#F05B64" fill-rule="nonzero" transform="rotate(-14.53 797.297 92.182)"/>
    <path fill="#F05B64" fill-rule="nonzero" d="M728.24 86.81C727.519985 84.653615 725.218024 83.4583661 723.04 84.11 721.968815 84.4065123 721.0693 85.1353516 720.557119 86.1217733 720.044939 87.1081951 719.966279 88.2632482 720.34 89.31 721.060015 91.466385 723.361976 92.6616339 725.54 92.01 726.611185 91.7134877 727.5107 90.9846484 728.022881 89.9982267 728.535061 89.0118049 728.613721 87.8567518 728.24 86.81M772.76 57.9C772.313418 56.4888007 771.147894 55.4230474 769.702468 55.1041991 768.257043 54.7853508 766.751311 55.2618481 765.752468 56.3541992 764.753625 57.4465502 764.413418 58.9888008 764.86 60.4 765.306582 61.8111993 766.472106 62.8769526 767.917532 63.1958009 769.362957 63.5146492 770.868689 63.0381519 771.867532 61.9458008 772.866375 60.8534498 773.206582 59.3111992 772.76 57.9"/>
    <polygon fill="#F05B64" fill-rule="nonzero" points="725.54 88.48 723.25 87.65 735.52 53.74 769.01 57.9 768.8 60.19 737.19 56.45"/>
    <rect width="2.5" height="23.5" x="701.443" y="94.71" fill="#F05B64" fill-rule="nonzero" transform="rotate(-39.74 702.693 106.46)"/>
    <rect width="2.5" height="27.87" x="684.981" y="72.777" fill="#F05B64" fill-rule="nonzero" transform="rotate(-40.31 686.231 86.712)"/>
    <path fill="#F05B64" fill-rule="nonzero" d="M760.69 74.54C761.780318 72.5313359 761.036661 70.0191238 759.028642 68.9276188 757.020623 67.8361137 754.507972 68.5782847 753.41528 70.5856582 752.322588 72.5930317 753.063273 75.1061213 755.07 76.2 757.15 77.45 759.44 76.62 760.69 74.54M682.28 182.08C683.370318 180.071336 682.626661 177.559124 680.618642 176.467619 678.610623 175.376114 676.097972 176.118285 675.00528 178.125658 673.912588 180.133032 674.653273 182.646121 676.66 183.74 678.67477 184.789585 681.158863 184.055849 682.28 182.08M781.91 99.5C783.000318 97.4913359 782.256661 94.9791238 780.248642 93.8876188 778.240623 92.7961137 775.727972 93.5382847 774.63528 95.5456582 773.542588 97.5530317 774.283273 100.066121 776.29 101.16 777.252888 101.69721 778.39157 101.823948 779.449015 101.511607 780.506461 101.199265 781.393534 100.474172 781.91 99.5"/>
    <path fill="#F05B64" fill-rule="nonzero" d="M781.91 99.5C783.000318 97.4913359 782.256661 94.9791238 780.248642 93.8876188 778.240623 92.7961137 775.727972 93.5382847 774.63528 95.5456582 773.542588 97.5530317 774.283273 100.066121 776.29 101.16 777.241308 101.748704 778.398426 101.904073 779.471333 101.587165 780.54424 101.270256 781.431235 100.51111 781.91 99.5M751.75 108C752.840318 105.991336 752.096661 103.479124 750.088642 102.387619 748.080623 101.296114 745.567972 102.038285 744.47528 104.045658 743.382588 106.053032 744.123273 108.566121 746.13 109.66 747.081308 110.248704 748.238426 110.404073 749.311333 110.087165 750.38424 109.770256 751.271235 109.01111 751.75 108M698.92 99.5C700.010318 97.4913359 699.266661 94.9791238 697.258642 93.8876188 695.250623 92.7961137 692.737972 93.5382847 691.64528 95.5456582 690.552588 97.5530317 691.293273 100.066121 693.3 101.16 694.262888 101.69721 695.40157 101.823948 696.459015 101.511607 697.516461 101.199265 698.403534 100.474172 698.92 99.5M713.89 117.39C714.980318 115.381336 714.236661 112.869124 712.228642 111.777619 710.220623 110.686114 707.707972 111.428285 706.61528 113.435658 705.522588 115.443032 706.263273 117.956121 708.27 119.05 710.56 120.05 712.85 119.47 713.89 117.39M690.6 150.67C691.690318 148.661336 690.946661 146.149124 688.938642 145.057619 686.930623 143.966114 684.417972 144.708285 683.32528 146.715658 682.232588 148.723032 682.973273 151.236121 684.98 152.33 686.997821 153.346938 689.458563 152.620099 690.6 150.67M663.76 146.51C664.850318 144.501336 664.106661 141.989124 662.098642 140.897619 660.090623 139.806114 657.577972 140.548285 656.48528 142.555658 655.392588 144.563032 656.133273 147.076121 658.14 148.17 659.091308 148.758704 660.248426 148.914073 661.321333 148.597165 662.39424 148.280256 663.281235 147.52111 663.76 146.51M682.28 131.53C683.370318 129.521336 682.626661 127.009124 680.618642 125.917619 678.610623 124.826114 676.097972 125.568285 675.00528 127.575658 673.912588 129.583032 674.653273 132.096121 676.66 133.19 677.608076 133.791996 678.770064 133.954872 679.847115 133.636739 680.924166 133.318607 681.81117 132.550512 682.28 131.53M676.87 95.55C677.960318 93.5413359 677.216661 91.0291238 675.208642 89.9376188 673.200623 88.8461137 670.687972 89.5882847 669.59528 91.5956582 668.502588 93.6030317 669.243273 96.1161213 671.25 97.21 673.267821 98.2269375 675.728563 97.500099 676.87 95.55M655.65 105.12C656.668653 103.104718 655.946421 100.644752 654 99.5 651.979477 98.5141911 649.540618 99.2345657 648.38 101.16 647.35615 103.167679 648.064588 105.625347 650 106.78 650.951308 107.368704 652.108426 107.524073 653.181333 107.207165 654.25424 106.890256 655.141235 106.13111 655.62 105.12M644 129C645.090318 126.991336 644.346661 124.479124 642.338642 123.387619 640.330623 122.296114 637.817972 123.038285 636.72528 125.045658 635.632588 127.053032 636.373273 129.566121 638.38 130.66 639.331308 131.248704 640.488426 131.404073 641.561333 131.087165 642.63424 130.770256 643.521235 130.01111 644 129M638.6 160C639.690318 157.991336 638.946661 155.479124 636.938642 154.387619 634.930623 153.296114 632.417972 154.038285 631.32528 156.045658 630.232588 158.053032 630.973273 160.566121 632.98 161.66 633.931308 162.248704 635.088426 162.404073 636.161333 162.087165 637.23424 161.770256 638.121235 161.01111 638.6 160M642.76 192.68C643.776938 190.662179 643.050099 188.201437 641.1 187.06 639.079477 186.074191 636.640618 186.794566 635.48 188.72 634.765469 190.020447 634.798995 191.603307 635.567949 192.872332 636.336904 194.141358 637.724464 194.903754 639.207949 194.872332 640.691435 194.840911 642.045469 194.020447 642.76 192.72M707.44 203.08C708.530318 201.071336 707.786661 198.559124 705.778642 197.467619 703.770623 196.376114 701.257972 197.118285 700.16528 199.125658 699.072588 201.133032 699.813273 203.646121 701.82 204.74 702.771308 205.328704 703.928426 205.484073 705.001333 205.167165 706.07424 204.850256 706.961235 204.09111 707.44 203.08M690 212.86C691.090318 210.851336 690.346661 208.339124 688.338642 207.247619 686.330623 206.156114 683.817972 206.898285 682.72528 208.905658 681.632588 210.913032 682.373273 213.426121 684.38 214.52 685.331308 215.108704 686.488426 215.264073 687.561333 214.947165 688.63424 214.630256 689.521235 213.87111 690 212.86M659 224.92C660.090318 222.911336 659.346661 220.399124 657.338642 219.307619 655.330623 218.216114 652.817972 218.958285 651.72528 220.965658 650.632588 222.973032 651.373273 225.486121 653.38 226.58 654.331308 227.168704 655.488426 227.324073 656.561333 227.007165 657.63424 226.690256 658.521235 225.93111 659 224.92M692.68 255.5C693.770318 253.491336 693.026661 250.979124 691.018642 249.887619 689.010623 248.796114 686.497972 249.538285 685.40528 251.545658 684.312588 253.553032 685.053273 256.066121 687.06 257.16 688.022888 257.69721 689.16157 257.823948 690.219015 257.511607 691.276461 257.199265 692.163534 256.474172 692.68 255.5M711.6 223.68C712.690318 221.671336 711.946661 219.159124 709.938642 218.067619 707.930623 216.976114 705.417972 217.718285 704.32528 219.725658 703.232588 221.733032 703.973273 224.246121 705.98 225.34 706.942888 225.87721 708.08157 226.003948 709.139015 225.691607 710.196461 225.379265 711.083534 224.654172 711.6 223.68M735.94 226C737.030318 223.991336 736.286661 221.479124 734.278642 220.387619 732.270623 219.296114 729.757972 220.038285 728.66528 222.045658 727.572588 224.053032 728.313273 226.566121 730.32 227.66 731.282888 228.19721 732.42157 228.323948 733.479015 228.011607 734.536461 227.699265 735.423534 226.974172 735.94 226M766.52 212.86C767.610318 210.851336 766.866661 208.339124 764.858642 207.247619 762.850623 206.156114 760.337972 206.898285 759.24528 208.905658 758.152588 210.913032 758.893273 213.426121 760.9 214.52 761.851308 215.108704 763.008426 215.264073 764.081333 214.947165 765.15424 214.630256 766.041235 213.87111 766.52 212.86M755.7 254C756.790318 251.991336 756.046661 249.479124 754.038642 248.387619 752.030623 247.296114 749.517972 248.038285 748.42528 250.045658 747.332588 252.053032 748.073273 254.566121 750.08 255.66 751.031308 256.248704 752.188426 256.404073 753.261333 256.087165 754.33424 255.770256 755.221235 255.01111 755.7 254M733.86 241.77C734.950318 239.761336 734.206661 237.249124 732.198642 236.157619 730.190623 235.066114 727.677972 235.808285 726.58528 237.815658 725.492588 239.823032 726.233273 242.336121 728.24 243.43 729.191308 244.018704 730.348426 244.174073 731.421333 243.857165 732.49424 243.540256 733.381235 242.78111 733.86 241.77M711.6 255.5C712.690318 253.491336 711.946661 250.979124 709.938642 249.887619 707.930623 248.796114 705.417972 249.538285 704.32528 251.545658 703.232588 253.553032 703.973273 256.066121 705.98 257.16 706.942888 257.69721 708.08157 257.823948 709.139015 257.511607 710.196461 257.199265 711.083534 256.474172 711.6 255.5M694.13 235.74C695.220318 233.731336 694.476661 231.219124 692.468642 230.127619 690.460623 229.036114 687.947972 229.778285 686.85528 231.785658 685.762588 233.793032 686.503273 236.306121 688.51 237.4 689.461308 237.988704 690.618426 238.144073 691.691333 237.827165 692.76424 237.510256 693.651235 236.75111 694.13 235.74M783.78 245.93C784.870318 243.921336 784.126661 241.409124 782.118642 240.317619 780.110623 239.226114 777.597972 239.968285 776.50528 241.975658 775.412588 243.983032 776.153273 246.496121 778.16 247.59 780.177821 248.606938 782.638563 247.880099 783.78 245.93M799.38 210.78C800.470318 208.771336 799.726661 206.259124 797.718642 205.167619 795.710623 204.076114 793.197972 204.818285 792.10528 206.825658 791.012588 208.833032 791.753273 211.346121 793.76 212.44 794.711308 213.028704 795.868426 213.184073 796.941333 212.867165 798.01424 212.550256 798.901235 211.79111 799.38 210.78M823.09 192.68C824.180318 190.671336 823.436661 188.159124 821.428642 187.067619 819.420623 185.976114 816.907972 186.718285 815.81528 188.725658 814.722588 190.733032 815.463273 193.246121 817.47 194.34 819.487821 195.356938 821.948563 194.630099 823.09 192.68M816.23 165.44C817.246938 163.422179 816.520099 160.961437 814.57 159.82 812.549477 158.834191 810.110618 159.554566 808.95 161.48 807.933062 163.497821 808.659901 165.958563 810.61 167.1 812.630523 168.085809 815.069382 167.365434 816.23 165.44M798.13 148.59C799.220318 146.581336 798.476661 144.069124 796.468642 142.977619 794.460623 141.886114 791.947972 142.628285 790.85528 144.635658 789.762588 146.643032 790.503273 149.156121 792.51 150.25 793.461308 150.838704 794.618426 150.994073 795.691333 150.677165 796.76424 150.360256 797.651235 149.60111 798.13 148.59M843.89 125.29C844.960815 123.271871 844.194424 120.767791 842.177515 119.694681 840.160606 118.621571 837.655655 119.385112 836.580251 121.400799 835.504847 123.416486 836.265538 125.922303 838.28 127 840.36 128.25 842.65 127.42 843.9 125.34M850.55 166.27C851.566938 164.252179 850.840099 161.791437 848.89 160.65 846.869477 159.664191 844.430618 160.384566 843.27 162.31 842.555469 163.610447 842.588994 165.193307 843.357949 166.462333 844.126903 167.731358 845.514463 168.493754 846.997949 168.462333 848.481435 168.430912 849.835469 167.610447 850.55 166.31M845.56 192.27C846.650318 190.261336 845.906661 187.749124 843.898642 186.657619 841.890623 185.566114 839.377972 186.308285 838.28528 188.315658 837.192588 190.323032 837.933273 192.836121 839.94 193.93 841.957821 194.946938 844.418563 194.220099 845.56 192.27M805 250.09C806.090318 248.081336 805.346661 245.569124 803.338642 244.477619 801.330623 243.386114 798.817972 244.128285 797.72528 246.135658 796.632588 248.143032 797.373273 250.656121 799.38 251.75 801.39477 252.799585 803.878863 252.065849 805 250.09M832.87 221.8C833.960318 219.791336 833.216661 217.279124 831.208642 216.187619 829.200623 215.096114 826.687972 215.838285 825.59528 217.845658 824.502588 219.853032 825.243273 222.366121 827.25 223.46 828.201308 224.048704 829.358426 224.204073 830.431333 223.887165 831.50424 223.570256 832.391235 222.81111 832.87 221.8M792.52 189.36C793.32508 187.891702 793.16637 186.083007 792.11788 184.777357 791.06939 183.471706 789.337618 182.926244 787.730133 183.395332 786.122647 183.86442 784.956038 185.255674 784.774324 186.920316 784.59261 188.584958 785.43158 190.195143 786.9 191 787.862888 191.53721 789.00157 191.663948 790.059015 191.351607 791.116461 191.039265 792.003534 190.314172 792.52 189.34M681 77.66C682.090318 75.6513359 681.346661 73.1391238 679.338642 72.0476188 677.330623 70.9561137 674.817972 71.6982847 673.72528 73.7056582 672.632588 75.7130317 673.373273 78.2261213 675.38 79.32 677.400523 80.3058089 679.839382 79.5854343 681 77.66M739.89 57.07C740.906938 55.052179 740.180099 52.5914365 738.23 51.45 736.212179 50.4330625 733.751437 51.159901 732.61 53.11 731.593062 55.127821 732.319901 57.5885635 734.27 58.73 736.28477 59.7795852 738.768863 59.0458495 739.89 57.07M719.09 78.7C720.180318 76.6913359 719.436661 74.1791238 717.428642 73.0876188 715.420623 71.9961137 712.907972 72.7382847 711.81528 74.7456582 710.722588 76.7530317 711.463273 79.2661213 713.47 80.36 714.432888 80.8972101 715.57157 81.0239483 716.629015 80.7116067 717.686461 80.399265 718.573534 79.6741725 719.09 78.7M711.6 62.27C712.616938 60.252179 711.890099 57.7914365 709.94 56.65 707.919477 55.6641911 705.480618 56.3845657 704.32 58.31 703.30647 60.3329078 704.042534 62.7952191 706 63.93 706.962888 64.4672101 708.10157 64.5939483 709.159015 64.2816067 710.216461 63.969265 711.103534 63.2441725 711.62 62.27M832.87 107.61C833.960318 105.601336 833.216661 103.089124 831.208642 101.997619 829.200623 100.906114 826.687972 101.648285 825.59528 103.655658 824.502588 105.663032 825.243273 108.176121 827.25 109.27 828.201308 109.858704 829.358426 110.014073 830.431333 109.697165 831.50424 109.380256 832.391235 108.62111 832.87 107.61"/>
    <polygon fill="#F05B64" fill-rule="nonzero" points="785.86 131.74 776.5 96.17 829.54 104.49 829.12 106.99 779.83 99.29 788.15 131.12"/>
    <path fill="#F05B64" fill-rule="nonzero" d="M827.46 109.28C828.975289 109.954375 830.74762 109.649383 831.950321 108.507283 833.153021 107.365182 833.549155 105.610971 832.953952 104.062871 832.358749 102.51477 830.889466 101.477762 829.231425 101.43554 827.573384 101.393318 826.053225 102.3542 825.38 103.87 824.624528 105.93973 825.512561 108.249467 827.46 109.28M802.08 120.92C803.595718 121.59636 805.369692 121.292155 806.573473 120.149449 807.777253 119.006744 808.173331 117.250996 807.576737 115.702146 806.980143 114.153295 805.508585 113.116933 803.849287 113.077043 802.189988 113.037153 800.670331 114.001606 800 115.52 799.530161 116.509584 799.486732 117.648558 799.879851 118.671046 800.272971 119.693534 801.068234 120.510054 802.08 120.93M810 86.4C811.345869 87.0433234 812.934948 86.904903 814.149314 86.0385646 815.363681 85.1722261 816.011691 83.7146883 815.841363 82.2327248 815.671035 80.7507613 814.709248 79.478244 813.33 78.91 812.33811 78.4374145 811.195499 78.3936359 810.170357 78.7889399 809.145215 79.1842439 808.327809 79.9838221 807.91 81 807.161917 83.0693401 808.053706 85.3734838 810 86.4M789.19 71.21C790.179584 71.6798392 791.318558 71.723268 792.341046 71.3301487 793.363534 70.9370293 794.180054 70.1417659 794.6 69.13 795.445818 67.0770205 794.503666 64.7237943 792.47476 63.8217571 790.445853 62.9197199 788.067572 63.7967056 787.11 65.8 786.209045 67.8687482 787.135206 70.2776579 789.19 71.21M785.24 135.07C786.755289 135.744375 788.52762 135.439383 789.730321 134.297283 790.933021 133.155182 791.329155 131.400971 790.733952 129.852871 790.138749 128.30477 788.669466 127.267762 787.011425 127.22554 785.353384 127.183318 783.833225 128.1442 783.16 129.66 782.298553 131.729451 783.214068 134.110669 785.24 135.07M762.56 114.68C763.552673 115.159779 764.699359 115.20855 765.729185 114.814793 766.759012 114.421036 767.580646 113.619671 768 112.6 768.900955 110.531252 767.974794 108.122342 765.92 107.19 764.930416 106.720161 763.791442 106.676732 762.768954 107.069851 761.746466 107.462971 760.929946 108.258234 760.51 109.27 759.754528 111.33973 760.642561 113.649467 762.59 114.68M821.84 160.65C823.355289 161.324375 825.12762 161.019383 826.330321 159.877283 827.533021 158.735182 827.929155 156.980971 827.333952 155.432871 826.738749 153.88477 825.269466 152.847762 823.611425 152.80554 821.953384 152.763318 820.433225 153.7242 819.76 155.24 818.898553 157.309451 819.814068 159.690669 821.84 160.65M778 75.16C776.654943 74.5711529 775.087612 74.850596 774.028939 75.8680096 772.970267 76.8854231 772.628772 78.4404144 773.163713 79.8078046 773.698655 81.1751948 775.004668 82.0856587 776.472688 82.1145966 777.940707 82.1435344 779.281587 81.2852464 779.87 79.94 780.661396 78.1034293 779.827553 75.972003 778 75.16"/>
    <rect width="2.5" height="20.8" x="771.312" y="58.453" fill="#F05B64" fill-rule="nonzero" transform="rotate(-21.24 772.562 68.853)"/>
    <polygon fill="#F05B64" fill-rule="nonzero" points="717.22 78.08 677.28 77.45 677.28 74.96 713.48 75.58 706.82 60.81 709.11 59.77"/>
    <rect width="2.5" height="25.79" x="740.284" y="233.062" fill="#F05B64" fill-rule="nonzero" transform="rotate(-61.91 741.534 245.957)"/>
    <polygon fill="#F05B64" fill-rule="nonzero" points="707.03 254.46 688.93 234.08 701.83 202.25 636.31 191.85 684.57 149.63 658.98 145.47 650.45 101.79 710.57 114.27 710.15 116.77 653.57 104.91 661.06 143.39 690.18 147.96 641.92 190.19 705.37 200.38 691.85 233.66 708.9 252.8"/>
    <polygon fill="#F05B64" fill-rule="nonzero" points="777.96 98.88 720.34 88.69 756.53 71.63 757.57 73.92 728.25 87.65 778.37 96.59"/>
    <path fill="#F05B64" fill-rule="nonzero" d="M678.12,133.61 L672.12,93.88 L674.62,93.46 L679.62,125.91 L694.76,96.8 L737.4,52.7 L749.88,107.82 L696.22,99.08 L678.12,133.61 Z M697.88,96.8 L746.55,104.7 L735.73,57.49 L697.88,96.8 Z"/>
    <rect width="2.5" height="38.48" x="658.318" y="109.183" fill="#F05B64" fill-rule="nonzero" transform="rotate(-86.34 659.568 128.423)"/>
    <path fill="#F05B64" fill-rule="nonzero" d="M681.65,182.91 L632.35,157.91 L660.43,142.91 L681.65,182.91 Z M637.76,157.74 L676,177.29 L659.57,146.09 L637.76,157.74 Z"/>
    <polygon fill="#F05B64" fill-rule="nonzero" points="725.96 268.6 707.24 223.26 652.95 224.51 679.16 176.88 687.48 210.99 685.19 211.61 678.33 183.53 657.11 222.01 708.69 220.76 726.37 263.4 762.36 209.53 800.63 245.93 817.89 191.85 788.77 188.73 789.19 186.24 821.01 189.56 801.88 250.51 762.77 213.28"/>
    <polygon fill="#F05B64" fill-rule="nonzero" points="841.81 191.64 791.68 146.3 839.52 122.38 840.56 124.46 795.84 146.72 843.48 189.77"/>
    <polygon fill="#F05B64" fill-rule="nonzero" points="828.92 220.76 794.18 209.74 811.44 162.94 813.73 163.77 797.3 208.28 829.54 218.48"/>
    <polygon fill="#F05B64" fill-rule="nonzero" points="772.34 263.2 750.09 253.21 794.8 208.08 796.68 209.74 754.25 252.38 773.38 261.12"/>
    <polygon fill="#F05B64" fill-rule="nonzero" points="688.93 255.08 654.2 224.09 655.86 222.22 689.14 251.96 731.37 222.64 731.99 223.05 780.66 243.64 779.62 245.93 731.78 225.55"/>
    <rect width="60.506" height="2.499" x="760.647" y="201.366" fill="#F05B64" fill-rule="nonzero" transform="rotate(-19.885 790.9 202.615)"/>
    <polygon fill="#F05B64" fill-rule="nonzero" points="822.26 157.53 802.5 116.97 811.03 82.24 813.52 82.86 805 116.77 824.34 156.49"/>
    <polygon fill="#F05B64" fill-rule="nonzero" points="846.6 165.44 822.05 157.95 828.08 105.95 811.86 84.11 779 98.67 765.68 112.6 764.02 110.94 777.75 96.59 812.69 81.2 830.58 105.33 824.76 156.08 847.22 163.15"/>
    <rect width="2.5" height="50.96" x="796.047" y="66.702" fill="#F05B64" fill-rule="nonzero" transform="rotate(-14.53 797.297 92.182)"/>
    <path fill="#EBEDEF" fill-rule="nonzero" d="M62.23 113.23C60.6848095 116.182935 59.3482098 119.240407 58.23 122.38L91.51 132.16 62.23 113.23zM79.5 88.27C76.7105126 91.1998225 74.1371008 94.3280218 71.8 97.63L107.8 120.72 79.5 88.27zM58.07 198.92C59.32 202.04 60.57 204.92 62.07 208.07L91.19 189.35 58.07 198.92zM52.66 141.72C52.25 144 52 146.09 51.62 148.38L75.54 148.38 52.66 141.72zM51.62 172.72C51.8356452 174.956082 52.1694451 177.179189 52.62 179.38L75.5 172.72 51.62 172.72zM103.21 69.13C99.0970216 71.5921343 95.1364799 74.3003968 91.35 77.24L124.42 115.31 103.21 69.13zM187.86 115.31L221.35 76.41C215.037268 71.585938 208.212865 67.4711752 201 64.14L180 110.73C182.745853 112.053771 185.386833 113.584871 187.9 115.31M193.69 119.88L210.33 98.46 192.65 119.05C193.0303 119.26462 193.369 119.545742 193.65 119.88M172.26 108L193.48 61C186.749626 58.5374149 179.777429 56.7943655 172.68 55.8L165.61 106.55C167.869149 106.812315 170.096716 107.298025 172.26 108M139.19 108.86L131.7 57.69C126.304178 59.014391 121.01851 60.7528774 115.89 62.89L137.32 109.48 139.19 108.86M71.59 223.47C73.88 226.59 76.59 229.71 79.29 232.83L107.58 200.38 71.59 223.47zM155.62 105.74L162.69 54.74C156.305037 54.3226037 149.894564 54.5302575 143.55 55.36L150.83 106.11C152.413662 105.875907 154.009781 105.735662 155.61 105.69M193.69 201.42C193.27 201.63 193.07 202.04 192.69 202.25L210.37 222.84 193.69 201.42zM91.35 243.85C95.0841582 246.872586 99.0496535 249.59761 103.21 252L124.43 205.82 91.35 243.85zM155.62 215.36C154.085603 215.323536 152.555437 215.183215 151.04 214.94L143.76 265.69C150.104282 266.523202 156.515095 266.730866 162.9 266.31L155.62 215.36zM193.48 260.08L172.26 213.28C170.159349 213.963531 168.000241 214.452259 165.81 214.74L172.88 265.49C179.910784 264.397943 186.81048 262.585056 193.47 260.08M137.32 211.82L115.9 258.41C121.02851 260.547123 126.314178 262.285609 131.71 263.61L139.2 212.44 137.33 211.82M221.35 244.89L187.86 205.79C185.346833 207.515129 182.705853 209.046229 179.96 210.37L201 257C208.217867 253.744978 215.052894 249.700305 221.38 244.94"/>
    <path fill="#566070" fill-rule="nonzero" d="M225.1 241.77L210.33 222.84 192.65 202.25C191.19 203.5 189.53 204.75 187.87 205.99L221.36 244.89 225.1 241.77M201 257L180 210.41C177.5 211.41 175 212.49 172.3 213.32L193.52 260.32C196.02 259.32 198.52 258.24 201.01 256.99M172.89 265.48L165.82 214.73C162.461957 215.356578 159.039237 215.56483 155.63 215.35L162.7 266.35C166.109917 266.271723 169.512363 265.994585 172.89 265.52M139.19 212.44L131.7 263.61C135.612037 264.573527 139.570464 265.337844 143.56 265.9L151 215.15C146.966481 214.647975 142.993343 213.743466 139.14 212.45M125 205.16L124.38 205.78 103.21 252C107.287599 254.437529 111.527544 256.592584 115.9 258.45L137.32 211.86C132.959938 210.127889 128.823659 207.878451 125 205.16"/>
    <path fill="#566070" fill-rule="nonzero" d="M124.84,205 C122.477391,203.302504 120.250651,201.423483 118.18,199.38 C116.93,198.13 115.89,197.09 114.85,195.84 L107.57,200.62 L79.5,232.83 C80.33,233.66 81.16,234.7 82,235.53 C84.9744538,238.46287 88.098628,241.239913 91.36,243.85 L124.43,205.79 L124.84,205 Z"/>
    <path fill="#566070" fill-rule="nonzero" d="M125 205.16C124.943464 205.162905 124.888345 205.141715 124.848315 205.101685 124.808285 205.061655 124.787095 205.006536 124.79 204.95L124.37 205.78 125 205.16zM113.4 193.72C111.146867 190.805953 109.196779 187.669729 107.58 184.36L91.36 189.14 62.23 207.87C64.9428669 213.348048 68.1459304 218.569343 71.8 223.47L107.8 200.38 113.4 193.72z"/>
    <path fill="#566070" fill-rule="nonzero" d="M114.86 195.8C114.309785 195.228998 113.820484 194.60229 113.4 193.93L107.58 200.59 114.86 195.8zM105.7 180C104.788285 177.641112 104.092108 175.20449 103.62 172.72L75.54 172.72 52.66 179.37C53.950909 186.01774 55.7597576 192.554337 58.07 198.92L91.35 189.14 105.7 180z"/>
    <polygon fill="#566070" fill-rule="nonzero" points="107.58 184.36 105.7 180 91.35 189.15"/>
    <path fill="#566070" fill-rule="nonzero" d="M192.65 119.05L210.33 98.46 225.1 79.53 221.36 76.41 187.87 115.31C189.598493 116.373543 191.201901 117.628092 192.65 119.05M180 110.73L201 64.14 193.48 61 172.26 108C174.898439 108.680509 177.474353 109.583752 179.96 110.7M165.82 106.36L172.89 55.82C169.56 55.4 166.23 54.99 162.89 54.82L155.61 105.82C159.016112 105.819335 162.419095 106.026386 165.8 106.44M151 106.16L143.77 55.41C139.764534 55.867915 135.799743 56.6301177 131.91 57.69L139.4 108.86C143.130511 107.451831 147.031091 106.543938 151 106.16M125 116.14C128.809994 113.438987 132.92922 111.203123 137.27 109.48L115.9 62.89C111.527531 64.7473877 107.287584 66.9024434 103.21 69.34L124.43 115.34 125 116.14zM114.86 125.5C115.859159 124.235864 116.970329 123.06445 118.18 122 120.250651 119.956517 122.477391 118.077496 124.84 116.38L124.42 115.38 91.35 77.24C88.0808388 79.837064 84.9593091 82.6147247 82 85.56 81.17 86.39 80.34 87.43 79.5 88.26L107.78 120.72 114.86 125.5z"/>
    <path fill="#566070" fill-rule="nonzero" d="M124.84 116.14C124.896536 116.142905 124.951655 116.121715 124.991685 116.081685 125.031715 116.041655 125.052905 115.986536 125.05 115.93L124.43 115.31 124.84 116.14zM107.58 136.73C109.196779 133.420271 111.146867 130.284047 113.4 127.37L107.58 120.71 71.58 97.62C67.9219568 102.523447 64.7155265 107.748121 62 113.23L91.14 131.95 107.58 136.73z"/>
    <path fill="#566070" fill-rule="nonzero" d="M113.4 127.37C113.82 126.75 114.4 126.12 114.86 125.5L107.58 120.72 113.4 127.37zM103.62 148.38C104.24 145.88 104.87 143.6 105.7 141.1L91.35 131.95 58.07 122.17C55.5427667 128.464362 53.7281327 135.021866 52.66 141.72L75.54 148.38 103.62 148.38z"/>
    <polygon fill="#566070" fill-rule="nonzero" points="105.7 141.1 107.57 136.73 91.35 131.95"/>
    <path fill="#566070" fill-rule="nonzero" d="M102.38 164.81C102.171821 161.970477 102.171821 159.119523 102.38 156.28L75.55 148.38 51.62 148.38C50.7880773 156.472007 50.7880773 164.627993 51.62 172.72L75.54 172.72 102.38 164.81zM103.62 172.72C102.985279 170.125827 102.567175 167.483406 102.37 164.82L75.54 172.72 103.62 172.72z"/>
    <path fill="#566070" fill-rule="nonzero" d="M102.38,156.28 C102.593228,153.61848 103.01113,150.977336 103.63,148.38 L75.54,148.38 L102.38,156.28 Z"/>
    <path fill="#EBEDEF" fill-rule="nonzero" d="M331.8,54.57 C273.213634,54.57 225.72,102.063634 225.72,160.65 C225.72,219.236366 273.213634,266.73 331.8,266.73 C390.386366,266.73 437.88,219.236366 437.88,160.65 C437.901246,132.509327 426.731816,105.515117 406.833349,85.616651 C386.934883,65.7181845 359.940673,54.5487537 331.8,54.57 M331.8,215.35 C301.474044,215.35 276.89,190.765956 276.89,160.44 C276.89,130.114044 301.474044,105.53 331.8,105.53 C362.125956,105.53 386.71,130.114044 386.71,160.44 C386.723283,175.007105 380.942404,188.981398 370.641901,199.281901 C360.341398,209.582404 346.367105,215.363283 331.8,215.35"/>
    <g transform="translate(225 54)">
      <mask id="logo__coco-b" fill="#fff">
        <use xlink:href="#logo__coco-a"/>
      </mask>
      <polygon fill="#8F98A2" fill-rule="nonzero" points="42.74 -26.88 110.33 271.39 134.67 266.81 67.07 -31.25" mask="url(#logo__coco-b)"/>
    </g>
    <g transform="translate(225 54)">
      <mask id="logo__coco-d" fill="#fff">
        <use xlink:href="#logo__coco-c"/>
      </mask>
      <polygon fill="#B23E44" fill-rule="nonzero" points="209.55 226.88 -34.64 43.01 -50.24 62.14 193.95 246.01" mask="url(#logo__coco-d)"/>
    </g>
    <g transform="translate(225 54)">
      <mask id="logo__coco-f" fill="#fff">
        <use xlink:href="#logo__coco-e"/>
      </mask>
      <polygon fill="#F3B449" fill-rule="nonzero" points="25.68 180.28 191.66 -76.39 171.49 -90.74 5.5 165.93" mask="url(#logo__coco-f)"/>
    </g>
    <g transform="translate(225 54)">
      <mask id="logo__coco-h" fill="#fff">
        <use xlink:href="#logo__coco-g"/>
      </mask>
      <polygon fill="#566070" fill-rule="nonzero" points="-13.22 198.17 263.42 68.17 253.85 45.29 -22.78 175.5" mask="url(#logo__coco-h)"/>
    </g>
    <g transform="translate(225 54)">
      <mask id="logo__coco-j" fill="#fff">
        <use xlink:href="#logo__coco-i"/>
      </mask>
      <polygon fill="#F3B449" fill-rule="nonzero" points="25.68 180.28 191.66 -76.39 171.49 -90.74 5.5 165.93" mask="url(#logo__coco-j)"/>
    </g>
    <g transform="translate(225 54)">
      <mask id="logo__coco-l" fill="#fff">
        <use xlink:href="#logo__coco-k"/>
      </mask>
      <polygon fill="#64C4B0" fill-rule="nonzero" points="229.52 199.84 41.9 -41.44 21.73 -27.09 209.34 214.19" mask="url(#logo__coco-l)"/>
    </g>
    <g transform="translate(225 54)">
      <mask id="logo__coco-n" fill="#fff">
        <use xlink:href="#logo__coco-m"/>
      </mask>
      <polygon fill="#22AD8F" fill-rule="nonzero" points="163.17 270.35 192.49 -33.95 168.16 -37.28 138.62 266.81" mask="url(#logo__coco-n)"/>
    </g>
    <g transform="translate(225 54)">
      <mask id="logo__coco-p" fill="#fff">
        <use xlink:href="#logo__coco-o"/>
      </mask>
      <polygon fill="#F1D28E" fill-rule="nonzero" points="83.09 -56.42 229.73 211.69 251.98 200.67 105.13 -67.23" mask="url(#logo__coco-p)"/>
    </g>
    <g transform="translate(225 54)">
      <mask id="logo__coco-r" fill="#fff">
        <use xlink:href="#logo__coco-q"/>
      </mask>
      <polygon fill="#F05B64" fill-rule="nonzero" points="235.55 18.67 -61.68 89.6 -56.9 113.93 240.33 43.01" mask="url(#logo__coco-r)"/>
    </g>
    <path fill="#22AD8F" fill-rule="nonzero" d="M601.37,120.92 C601.142232,120.94715 600.914386,120.869976 600.75,120.71 L586.6,112 C586.197564,111.713009 585.964964,111.244057 585.98,110.75 C586.154048,110.323872 586.529103,110.012576 586.98,109.92 L607.78,107.84 L600.08,98.48 C599.87,98.06 599.66,97.65 599.87,97.48 C600.033183,97.1093052 600.329305,96.8131832 600.7,96.65 L621.5,90.83 L610.68,83.34 C610.246192,83.0877375 610.06653,82.5530277 610.26,82.09 C610.434048,81.6638715 610.809103,81.352576 611.26,81.26 L633.72,78.97 C634.214057,78.9549645 634.683009,79.1875643 634.97,79.59 C635.18,80.01 635.18,80.59 634.76,80.84 L611.26,109.54 C611.26,109.75 611.05,109.75 611.05,109.96 L602.31,120.78 C602.002626,120.941479 601.656365,121.014194 601.31,120.99 L601.37,120.92 Z M591,112 L601.19,118.24 L607.64,110.34 L591,112 Z M603.27,98.48 L610.31,107 L621.31,93.48 L603.27,98.48 Z M614.92,83.3 L624.49,89.96 L631.35,81.64 L614.92,83.3 Z"/>
    <path fill="#22AD8F" fill-rule="nonzero" d="M587.22,112.4 L587,112.4 L572.23,108.4 C571.803872,108.225952 571.492576,107.850897 571.4,107.4 C571.380968,106.848735 571.714542,106.346364 572.23,106.15 L598.02,96.15 L588.24,79.51 C588.031999,79.1192919 588.031999,78.6507081 588.24,78.26 C588.34957,78.0380763 588.543081,77.8689819 588.777691,77.790153 C589.012301,77.711324 589.268656,77.7292636 589.49,77.84 L609.69,81 L600.12,62.07 C599.874368,61.5878664 599.958441,61.0033596 600.33,60.61 C600.716054,60.2235882 601.31069,60.1380583 601.79,60.4 L619.26,68.3 C619.316536,68.2970949 619.371655,68.3182853 619.411685,68.3583151 C619.451715,68.3983449 619.472905,68.4534639 619.47,68.51 L635.07,79.33 C635.443795,79.5766101 635.647494,80.0121892 635.59712,80.4571629 C635.546745,80.9021367 635.250827,81.2811552 634.831362,81.4379621 C634.411897,81.5947689 633.939916,81.5028112 633.61,81.2 L619,71 L612.76,83.06 L612.76,83.27 L605.48,92.21 L588.47,112 C588.065315,112.173411 587.647291,112.313868 587.22,112.42 L587.22,112.4 Z M576.2,107 L586.6,109.7 L595.34,99.51 L576.2,107 Z M591.38,80.58 L599.7,94.93 L603.24,90.77 L609.06,83.49 L591.38,80.58 Z M603.44,63.73 L611.55,79.73 L616.75,69.73 L603.44,63.73 Z"/>
    <path fill="#22AD8F" fill-rule="nonzero" d="M572.45,108.44 C572.02753,108.43461 571.642687,108.196008 571.45,107.82 L561.22,85.56 C561.027987,85.2543185 561.027987,84.8656815 561.22,84.56 C561.43,84.14 561.64,83.94 562.05,83.94 L585.14,78.53 L572.24,72.91 C571.82,72.7 571.41,72.29 571.62,71.91 C571.78276,71.4965737 572.073629,71.1461292 572.45,70.91 L600.53,60.19 C601.057865,60.0186457 601.63702,60.1801788 602,60.6 C602.20195,60.7890717 602.316553,61.0533557 602.316553,61.33 C602.316553,61.6066443 602.20195,61.8709283 602,62.06 L590.34,79.53 C590.34,79.74 590.13,79.74 590.13,79.95 L573.49,107.82 C573.297313,108.196008 572.91247,108.43461 572.49,108.44 L572.45,108.44 Z M564.13,86 L572.66,104.72 L586.6,80.78 L564.13,86 Z M576,71.84 L588.69,77.46 L597.84,63.73 L576,71.84 Z"/>
    <path fill="#22AD8F" fill-rule="nonzero" d="M572.45,108.44 L559.77,108.44 C559.444128,108.432426 559.139109,108.278079 558.94,108.02 C558.671799,107.761136 558.588586,107.364883 558.73,107.02 L561.23,85.02 C561.23,84.81 561.44,84.6 561.44,84.4 L571.83,71 L580.57,55.82 C580.856991,55.4175643 581.325943,55.1849645 581.82,55.2 L600.96,59.78 C601.400199,59.862246 601.756954,60.1846565 601.883187,60.6143125 C602.00942,61.0439686 601.883757,61.5081143 601.558002,61.8153981 C601.232248,62.1226819 600.761565,62.2210699 600.34,62.07 L582,57.69 L573.7,72.46 L563.51,85.56 L561,106.16 L572.23,106.16 C572.901393,106.203764 573.436236,106.738607 573.48,107.41 C573.48,107.962285 573.032285,108.41 572.48,108.41"/>
    <path fill="#22AD8F" fill-rule="nonzero" d="M544.37,112.6 C543.847718,112.530674 543.386553,112.22446 543.12,111.77 L537.12,93.05 L537.12,92.84 L537.12,91.84 L546,75.58 L546.62,74.96 C547.04,74.96 547.24,74.96 547.45,75.17 L562.63,83.7 C563.069568,83.9537604 563.313961,84.4464894 563.25,84.95 C563.157424,85.4008969 562.846128,85.7759517 562.42,85.95 L540.58,92.81 L560.13,105.91 C560.563808,106.162262 560.74347,106.696972 560.55,107.16 C560.457424,107.610897 560.146128,107.985952 559.72,108.16 L544.37,112.4 C544.58,112.61 544.37,112.61 544.37,112.61 L544.37,112.6 Z M540.37,95.76 L545,110.11 L556.85,107 L540.37,95.76 Z M547.65,78.08 L540.58,90.56 L559.3,84.56 L547.65,78.08 Z"/>
    <path fill="#22AD8F" fill-rule="nonzero" d="M547.29,77.66 C546.917743,77.6415331 546.563804,77.4928786 546.29,77.24 C546.081999,76.8492919 546.081999,76.3807081 546.29,75.99 L557.89,55 L558.1,54.79 L558.31,54.58 C558.52,54.37 558.73,54.37 559.14,54.37 L581.81,55.62 C582.423486,55.7030636 582.86363,56.2532435 582.81,56.87 C582.820044,57.1848263 582.681167,57.4859839 582.435204,57.6827544 C582.18924,57.8795249 581.864943,57.9489068 581.56,57.87 L561.56,56.87 L573.7,71.21 C573.96853,71.5679729 574.046811,72.0339299 573.91,72.46 C573.746817,72.8306948 573.450695,73.1268168 573.08,73.29 L547.7,78.08 C547.49,77.66 547.28,77.66 547.28,77.66 L547.29,77.66 Z M559.14,57.49 L549.57,74.75 L570.57,70.75 L559.14,57.49 Z"/>
    <path fill="#22AD8F" fill-rule="nonzero" d="M526.07,81.82 C525.744128,81.8124264 525.439109,81.6580795 525.24,81.4 C525.03,81.19 524.82,80.57 525.03,80.4 L530.23,61 C530.23,60.79 530.44,60.38 530.65,60.38 C530.706536,60.3829051 530.761655,60.3617147 530.801685,60.3216849 C530.841715,60.2816551 530.862905,60.2265361 530.86,60.17 L531.07,60.17 L558.73,54.35 C559.339927,54.2360423 559.935049,54.6098523 560.097202,55.2087708 C560.259354,55.8076892 559.934108,56.4306819 559.35,56.64 L534,62.06 L548.35,75.79 C548.77,76 548.77,76.62 548.77,77.04 C548.56,77.46 548.35,77.87 547.94,77.87 L526.9,82 C526.28,81.79 526.28,81.79 526.07,81.79 L526.07,81.82 Z M531.89,63.49 L527.73,79.09 L544.58,75.76 L531.89,63.49 Z"/>
    <path fill="#22AD8F" fill-rule="nonzero" d="M513.38,92.64 L513,92.64 C512.623992,92.4473129 512.38539,92.0624704 512.38,91.64 L511.38,70.22 C511.38539,69.7975296 511.623992,69.4126871 512,69.22 C512.413489,68.9832757 512.936567,69.0711528 513.25,69.43 L527.19,80.04 C527.410116,80.2682526 527.55646,80.5574558 527.61,80.87 C527.61,81.29 527.4,81.49 527.19,81.87 L514.29,92.48 C513.87,92.48 513.67,92.69 513.46,92.69 L513.38,92.64 Z M513.67,72.51 L514.5,88.94 L524.28,80.83 L513.67,72.51 Z"/>
    <path fill="#22AD8F" fill-rule="nonzero" d="M496.53 107.4L496.11 107.4C495.733629 107.163871 495.44276 106.813426 495.28 106.4L493.41 83.1C493.380116 82.8072392 493.454481 82.5133214 493.62 82.27L493.83 82.06 494.04 81.85 511.51 68.95C511.566536 68.9529051 511.621655 68.9317147 511.661685 68.8916849 511.701715 68.8516551 511.722905 68.7965361 511.72 68.74L530.65 60C531.280422 59.7814662 531.977189 60.0417047 532.31 60.62 532.528534 61.2504215 532.268295 61.9471893 531.69 62.28L512.76 71 496.95 82.65 513.59 90.35C514.01 90.56 514.21 90.77 514.21 91.18 514.21 91.59 514.21 92.01 513.79 92.18L497.15 107.18C497.15 107.39 496.94 107.39 496.53 107.39L496.53 107.4zM496.11 84.72L497.57 103.65 511.09 91.6 496.11 84.72zM530 121.76C529.79 121.76 529.38 121.55 529.17 121.55 528.96 121.34 528.96 121.13 528.75 120.93L525 80.78C524.984964 80.2859428 525.217564 79.8169915 525.62 79.53 526.102134 79.2843682 526.68664 79.3684411 527.08 79.74L539.17 91.8C539.59 92.01 539.59 92.63 539.38 93.05L532.1 117.8 543.75 110.52C544.324376 110.174822 545.069822 110.360624 545.415 110.935 545.760178 111.509376 545.574376 112.254822 545 112.6L530.65 121.75C530.576222 121.653352 530.461589 121.596643 530.34 121.596643 530.218411 121.596643 530.103778 121.653352 530.03 121.75L530 121.76zM527.73 83.9L530.64 114.27 536.88 93.05 527.73 83.9z"/>
    <path fill="#22AD8F" fill-rule="nonzero" d="M511.93,171.68 C511.258607,171.636236 510.723764,171.101393 510.68,170.43 L511.1,151.09 L511.1,150.67 L519.42,130.67 C519.42,130.46 519.63,130.46 519.63,130.25 L528.37,120.25 L512.13,92 C511.906709,91.6284438 511.898602,91.1659874 512.108734,90.7868336 C512.318866,90.4076798 512.715312,90.1694311 513.148734,90.1618336 C513.582157,90.154236 513.986709,90.3784438 514.21,90.75 L530.85,119.87 C531.095632,120.352134 531.011559,120.93664 530.64,121.33 L521.49,131.73 L513.38,151.28 L513,170.43 C513.078907,170.734943 513.009525,171.05924 512.812754,171.305204 C512.615984,171.551167 512.314826,171.690044 512,171.68"/>
    <path fill="#22AD8F" fill-rule="nonzero" d="M530,121.76 L529.58,121.76 L479.27,101.16 C478.85,100.95 478.65,100.74 478.65,100.33 C478.605751,99.9825436 478.679721,99.6303056 478.86,99.33 L494,82.24 C494.284282,81.8904738 494.742784,81.7333306 495.181703,81.834993 C495.620622,81.9366555 495.963345,82.2793784 496.065007,82.7182971 C496.166669,83.1572159 496.009526,83.6157179 495.66,83.9 L481.56,99.71 L527.11,118.22 L512.11,92.22 C511.773106,91.640101 511.970101,90.8968937 512.55,90.56 C513.129899,90.2231063 513.873106,90.420101 514.21,91 L530.85,120.12 C531.095632,120.602134 531.011559,121.18664 530.64,121.58 C530.445581,121.681978 530.236373,121.752839 530.02,121.79"/>
    <path fill="#22AD8F" fill-rule="nonzero" d="M512.34,152.33 L511.92,152.33 L482.18,140.89 C481.803629,140.653871 481.51276,140.303426 481.35,139.89 C481.35539,139.46753 481.593992,139.082687 481.97,138.89 L495.28,130.15 C495.444386,129.990024 495.672232,129.91285 495.9,129.94 L517.9,130.15 L496.33,107.82 L473.45,111.82 C473.000521,111.809213 472.5648,111.66281 472.2,111.4 C471.991999,111.009292 471.991999,110.540708 472.2,110.15 L478.65,99.75 C478.873291,99.3784438 479.277843,99.154236 479.711266,99.1618336 C480.144688,99.1694311 480.541134,99.4076798 480.751266,99.7868336 C480.961398,100.165987 480.953291,100.628444 480.73,101 L475.53,109.11 L496.33,105.37 C496.75,105.37 497.16,105.37 497.33,105.79 L521.25,130.79 C521.608847,131.103433 521.696724,131.626511 521.46,132.04 C521.285952,132.466128 520.910897,132.777424 520.46,132.87 L498.2,132.66 L513.2,150.96 C513.40195,151.149072 513.516553,151.413356 513.516553,151.69 C513.516553,151.966644 513.40195,152.230928 513.2,152.42 C512.99,152.21 512.58,152.42 512.37,152.42 L512.34,152.33 Z M485.12,139.52 L508.62,148.46 L495.52,132.65 L485.12,139.52 Z"/>
    <path fill="#22AD8F" fill-rule="nonzero" d="M495.7,132.16 L465.54,128.42 C465.12,128.42 464.92,128.21 464.71,127.8 C464.515541,127.495027 464.515541,127.104973 464.71,126.8 L472.2,109.9 C472.41,109.48 472.62,109.28 473.03,109.28 C473.377456,109.235751 473.729694,109.309721 474.03,109.49 L494.83,128.21 L495.66,106.21 C495.66,105.519644 496.219644,104.96 496.91,104.96 C497.600356,104.96 498.16,105.519644 498.16,106.21 L497.33,130.75 L497.33,130.96 C497.33,131.17 497.12,131.38 496.91,131.58 L496.7,131.79 C496.08,132 495.87,132.21 495.7,132.21 L495.7,132.16 Z M467.41,126.21 L492.17,129 L473.65,112.19 L467.41,126.21 Z"/>
    <path fill="#22AD8F" fill-rule="nonzero" d="M462.21,141.1 C461.79,141.1 461.59,140.89 461.21,140.68 C461.029721,140.379694 460.955751,140.027456 461,139.68 L464.5,127 C464.663183,126.629305 464.959305,126.333183 465.33,126.17 C465.674883,126.028586 466.071136,126.111799 466.33,126.38 L483.18,138.86 C483.613808,139.112262 483.79347,139.646972 483.6,140.11 C483.425952,140.536128 483.050897,140.847424 482.6,140.94 L462.22,141.15 L462.21,141.1 Z M466.37,129.24 L463.87,138.6 L478.87,138.6 L466.37,129.24 Z"/>
    <path fill="#22AD8F" fill-rule="nonzero" d="M459.93,162.73 C459.604128,162.722426 459.299109,162.568079 459.1,162.31 C458.89,162.1 458.68,161.69 458.89,161.48 L461.18,139.85 C461.272576,139.399103 461.583872,139.024048 462.01,138.85 C462.473028,138.65653 463.007738,138.836192 463.26,139.27 L480.32,160.9 C480.58853,161.257973 480.666811,161.72393 480.53,162.15 C480.337313,162.526008 479.95247,162.76461 479.53,162.77 L459.93,162.73 Z M463,143 L461.13,160.26 L476.52,160.26 L463,143 Z"/>
    <path fill="#22AD8F" fill-rule="nonzero" d="M479.27,162.73 C478.977239,162.759884 478.683321,162.685519 478.44,162.52 C478.02,162.31 478.02,161.9 478.02,161.52 L481.14,139.68 C481.14,139.06 481.76,138.68 482.6,138.68 C483.22,138.68 483.6,139.3 483.6,140.14 L480.69,159.9 L511.93,150 C512.539927,149.886042 513.135049,150.259852 513.297202,150.858771 C513.459354,151.457689 513.134108,152.080682 512.55,152.29 L479.48,162.69 L479.27,162.69"/>
    <path fill="#22AD8F" fill-rule="nonzero" d="M512.34 173.55L511.92 173.55 478.85 162.73C478.265892 162.520682 477.940646 161.897689 478.102798 161.298771 478.264951 160.699852 478.860073 160.326042 479.47 160.44L512.54 171.26C512.844803 171.341756 513.104158 171.542197 513.260121 171.816541 513.416083 172.090885 513.455657 172.41627 513.37 172.72 513.195952 173.146128 512.820897 173.457424 512.37 173.55M634 244.06L611.33 241.77C610.879103 241.677424 610.504048 241.366128 610.33 240.94 610.13653 240.476972 610.316192 239.942262 610.75 239.69L621.57 232.2 600.77 227C600.35 227 600.15 226.58 599.94 226.17 599.798586 225.825117 599.881799 225.428864 600.15 225.17L607.85 215.81 587 213.69C586.58 213.69 586 213.27 586 212.86 586 212.45 586 211.86 586.62 211.61L600.76 202.87C601.18 202.66 602.01 202.66 602.22 203.08L634.67 242.18C634.922879 242.453804 635.071533 242.807743 635.09 243.18 635.3 243.39 634.67 244.01 634.09 244.01L634 244.06zM614.86 239.69L631.08 241.35 624.25 233 614.86 239.69zM603.21 224.92L621.31 229.5 610.49 216.4 603.21 224.92zM591 211.4L607.64 213.06 601.19 205.16 591 211.4z"/>
    <path fill="#22AD8F" fill-rule="nonzero" d="M600.74,262.78 C600.414128,262.772426 600.109109,262.618079 599.91,262.36 C599.523588,261.973946 599.438058,261.37931 599.7,260.9 L609.27,242 L589.09,245.12 C588.586489,245.183961 588.09376,244.939568 587.84,244.5 C587.675414,243.973133 587.840612,243.398874 588.26,243.04 L602,231.79 L571.84,217.23 C571.400432,216.97624 571.156039,216.483511 571.22,215.98 C571.312576,215.529103 571.623872,215.154048 572.05,214.98 L586.82,210.98 C587.24,210.77 587.65,210.98 588.07,211.4 L605.13,230.54 L612.41,239.48 L612.41,239.69 L618.65,251.75 L633.21,241.56 C633.539916,241.257189 634.011897,241.165231 634.431362,241.322038 C634.850827,241.478845 635.146745,241.857863 635.19712,242.302837 C635.247494,242.747811 635.043795,243.18339 634.67,243.43 L619,254.25 C618.943464,254.247095 618.888345,254.268285 618.848315,254.308315 C618.808285,254.348345 618.787095,254.403464 618.79,254.46 L601.32,262.36 C601.11,262.78 600.9,262.78 600.7,262.78 L600.74,262.78 Z M611.56,243 L603.45,259 L616.76,253 L611.56,243 Z M604.07,233.22 L593.25,242.16 L609.25,239.66 L604.07,233.22 Z M575.78,216.4 L599.28,227.63 L586.8,213.49 L575.78,216.4 Z"/>
    <path fill="#22AD8F" fill-rule="nonzero" d="M600.74,262.78 L600.32,262.78 L572.24,252.17 C571.813872,251.995952 571.502576,251.620897 571.41,251.17 C571.41,250.75 571.62,250.17 572.03,250.17 L584.93,244.55 L562.05,238.93 C561.63,238.93 561.43,238.51 561.22,238.31 C561.027987,238.004319 561.027987,237.615681 561.22,237.31 L571.22,215.68 C571.425466,215.296705 571.825107,215.057494 572.26,215.057494 C572.694893,215.057494 573.094534,215.296705 573.3,215.68 L589.73,243.34 C589.94,243.55 589.94,243.55 589.94,243.76 L601.38,261.02 C601.600116,261.248253 601.74646,261.537456 601.8,261.85 C602.01,262.27 601.59,262.85 600.8,262.85 L600.74,262.78 Z M576,250.92 L597.83,259 L588.68,245.27 L576,250.92 Z M564.13,237 L586.59,242.2 L572.65,218.7 L564.13,237 Z"/>
    <path fill="#22AD8F" fill-rule="nonzero" d="M581.61,267.36 C581.18753,267.35461 580.802687,267.116008 580.61,266.74 L571.67,251.56 L561.48,238.46 C561.320024,238.295614 561.24285,238.067768 561.27,237.84 L558.57,216.21 C558.546334,215.863671 558.619019,215.517553 558.78,215.21 C559.008253,214.989884 559.297456,214.84354 559.61,214.79 L572.3,214.79 C572.990356,214.79 573.55,215.349644 573.55,216.04 C573.55,216.730356 572.990356,217.29 572.3,217.29 L561,217.29 L563.5,237.29 L573.69,250.19 L582.22,264.75 L600.52,260.38 C600.941565,260.22893 601.412248,260.327318 601.738002,260.634602 C602.063757,260.941886 602.18942,261.406031 602.063187,261.835687 C601.936954,262.265344 601.580199,262.587754 601.14,262.67 L582,267.15 C581.79,267.36 581.79,267.36 581.58,267.36"/>
    <path fill="#22AD8F" fill-rule="nonzero" d="M549.37,249.68 L548.95,249.68 C548.579305,249.516817 548.283183,249.220695 548.12,248.85 L543.12,233.04 L543.12,212.24 C543.12,211.82 543.33,211.62 543.54,211.24 C543.840306,211.059721 544.192544,210.985751 544.54,211.03 L560,215.15 C560.42,215.36 560.83,215.57 560.83,215.98 C560.966811,216.40607 560.88853,216.872027 560.62,217.23 L546.48,232.23 L562.68,237 C563.1,237.21 563.51,237.42 563.51,237.83 C563.565956,238.288713 563.411588,238.748142 563.09,239.08 L550,249.68 C549.79,249.47 549.58,249.68 549.38,249.68 L549.37,249.68 Z M546,234.28 L549.74,246.34 L559.74,238.23 L546,234.28 Z M545.38,213.48 L545.38,229.29 L557.44,216.6 L545.38,213.48 Z"/>
    <path fill="#22AD8F" fill-rule="nonzero" d="M558.93,268.6 L558.51,268.6 C558.3,268.39 558.09,268.39 557.89,267.98 L548.32,249.05 C548.111999,248.659292 548.111999,248.190708 548.32,247.8 C548.395395,247.610463 548.543816,247.459189 548.731884,247.3802 C548.919952,247.301212 549.131878,247.30114 549.32,247.38 L572.82,250.08 C573.281765,250.138538 573.675357,250.44313 573.847867,250.875443 C574.020376,251.307755 573.944609,251.79964 573.65,252.16 L561.59,266.51 L581.59,265.51 C582.206757,265.45637 582.756936,265.896514 582.84,266.51 C582.89363,267.126757 582.453486,267.676936 581.84,267.76 L558.96,268.59 L558.93,268.6 Z M551.47,249.87 L559.17,265.26 L570.37,252 L551.47,249.87 Z"/>
    <path fill="#22AD8F" fill-rule="nonzero" d="M558.93,268.6 L558.72,268.6 L531.06,262.78 C530.85,262.78 530.64,262.57 530.44,262.36 C530.280024,262.195614 530.20285,261.967768 530.23,261.74 L530.23,261.53 L531.06,234.53 C531.06539,234.10753 531.303992,233.722687 531.68,233.53 C532.093489,233.293276 532.616567,233.381153 532.93,233.74 L550.2,247.6 C550.452879,247.873804 550.601533,248.227743 550.62,248.6 C550.62,249.02 550.41,249.22 550.2,249.6 L534.39,261.25 L559.39,266.45 C559.694803,266.531756 559.954158,266.732197 560.110121,267.006541 C560.266083,267.280885 560.305657,267.60627 560.22,267.91 C559.874988,268.237417 559.439441,268.453449 558.97,268.53 L558.93,268.6 Z M533.14,237 L532.52,259.26 L547.29,248.44 L533.14,237 Z"/>
    <path fill="#22AD8F" fill-rule="nonzero" d="M512.34,254 C512.112232,254.02715 511.884386,253.949976 511.72,253.79 C511.317564,253.503009 511.084964,253.034057 511.1,252.54 L515.1,224.88 C515.1,224.46 515.31,224.05 515.72,224.05 C516.024973,223.855541 516.415027,223.855541 516.72,224.05 L532.53,233.62 C532.861022,233.77734 533.093037,234.087941 533.15,234.45 C533.15,234.87 533.15,235.28 532.73,235.45 L513,253.84 C512.79,253.84 512.58,254.05 512.38,254.05 L512.34,254 Z M517.16,227.05 L513.83,249.72 L530.05,234.72 L517.16,227.05 Z"/>
    <path fill="#22AD8F" fill-rule="nonzero" d="M531.27 262.78C531.06 262.78 530.85 262.78 530.85 262.57L511.92 253.83C511.863464 253.832905 511.808345 253.811715 511.768315 253.771685 511.728285 253.731655 511.707095 253.676536 511.71 253.62L494.24 240.72 494.03 240.51 494.03 240.3C493.82 240.09 493.82 239.88 493.82 239.47L499.02 209.93C499.049162 209.484241 499.404241 209.129162 499.85 209.1 500.27607 208.963189 500.742027 209.04147 501.1 209.31L517.53 224.08C517.782879 224.353804 517.931533 224.707743 517.95 225.08 517.942426 225.405872 517.788079 225.710891 517.53 225.91L497.37 239.9 513.37 251.76 532.3 260.5C532.906325 260.808425 533.175686 261.529619 532.92 262.16 532.417757 262.483768 531.851517 262.695255 531.26 262.78L531.27 262.78zM500.68 212.65L496.31 237.19 514.2 224.92 500.68 212.65zM532.1 235.74C531.807239 235.769884 531.513321 235.695519 531.27 235.53 531.049884 235.301747 530.90354 235.012544 530.85 234.7L528.77 203.08C528.74285 202.852232 528.820024 202.624386 528.98 202.46L529.19 202.25C529.389109 201.991921 529.694128 201.837574 530.02 201.83 530.247768 201.80285 530.475614 201.880024 530.64 202.04L545 211.2C545.296809 211.344416 545.514801 211.612403 545.595764 211.932397 545.676726 212.252392 545.612414 212.591805 545.42 212.86 545.05003 213.396106 544.340414 213.575648 543.76 213.28L532.94 206.42 545.42 232.21C545.614459 232.514973 545.614459 232.905027 545.42 233.21 545.21 233.63 545 233.83 544.59 233.83L532.11 235.7 532.1 235.74zM531.49 208.87L533.14 233 542.5 231.34 531.49 208.87z"/>
    <path fill="#22AD8F" fill-rule="nonzero" d="M516.29,226.17 C516.062232,226.19715 515.834386,226.119976 515.67,225.96 C515.373191,225.815584 515.155199,225.547597 515.074236,225.227603 C514.993274,224.907608 515.057586,224.568195 515.25,224.3 L528.35,202.88 L519.61,193.1 C519.495654,192.986949 519.421833,192.839307 519.4,192.68 L511.08,172.68 L511.08,172.26 L510.68,153 C510.68,152.309644 511.239644,151.75 511.93,151.75 C512.620356,151.75 513.18,152.309644 513.18,153 L513.6,172.14 L521.71,191.69 L530.86,202.09 C531.231559,202.48336 531.315632,203.067866 531.07,203.55 L517.34,225.55 C517.13,226.17 516.72,226.17 516.34,226.17"/>
    <path fill="#22AD8F" fill-rule="nonzero" d="M494.87,241.15 C494.544128,241.142426 494.239109,240.988079 494.04,240.73 L478.86,223.67 C478.591799,223.411136 478.508586,223.014883 478.65,222.67 C478.65,222.25 478.86,222.05 479.27,221.84 L499.65,209.36 C499.86,209.36 499.86,209.15 500.07,209.15 L530.07,201.66 C530.533028,201.46653 531.067738,201.646192 531.32,202.08 C531.528001,202.470708 531.528001,202.939292 531.32,203.33 L517.59,225.33 C517.244822,225.904376 516.499376,226.090178 515.925,225.745 C515.350624,225.399822 515.164822,224.654376 515.51,224.08 L527.57,204.53 L500.57,211.19 L481.64,222.84 L495.78,238.84 C496.191668,239.316765 496.191668,240.023235 495.78,240.5 C495.36,240.92 495.16,241.12 494.95,241.12"/>
    <path fill="#22AD8F" fill-rule="nonzero" d="M479.69,224.09 C479.26753,224.08461 478.882687,223.846008 478.69,223.47 L472.24,213.07 C472.031999,212.679292 472.031999,212.210708 472.24,211.82 C472.432687,211.443992 472.81753,211.20539 473.24,211.2 L499.66,209.12 L517.55,193.31 L495.71,193.1 C495.482232,193.12715 495.254386,193.049976 495.09,192.89 L481.78,184.15 C481.340432,183.89624 481.096039,183.403511 481.16,182.9 C481.252576,182.449103 481.563872,182.074048 481.99,181.9 L511.73,171.08 C512.256867,170.915414 512.831126,171.080612 513.19,171.5 C513.61,171.92 513.4,172.5 513.19,172.96 L498.19,190.64 L520.45,191.06 C520.87,191.06 521.45,191.48 521.45,191.89 C521.64347,192.353028 521.463808,192.887738 521.03,193.14 L500.44,211.24 C500.275614,211.399976 500.047768,211.47715 499.82,211.45 L474.82,213.32 L480.23,222.06 C480.422414,222.328195 480.486726,222.667608 480.405764,222.987603 C480.324801,223.307597 480.106809,223.575584 479.81,223.72 C480.02,224.14 479.81,224.14 479.6,224.14 L479.69,224.09 Z M485.01,183.37 L495.41,190.23 L508.31,174.84 L485.01,183.37 Z"/>
    <path fill="#22AD8F" fill-rule="nonzero" d="M473,213.69 L472.79,213.69 C472.37,213.69 472.17,213.27 471.96,213.07 L464.47,196.22 C464.275541,195.915027 464.275541,195.524973 464.47,195.22 C464.62734,194.888978 464.937941,194.656963 465.3,194.6 L495.46,190.86 C495.752761,190.830116 496.046679,190.904481 496.29,191.07 C496.5,191.28 496.71,191.49 496.71,191.69 L500.87,210.2 C501.02107,210.621565 500.922682,211.092248 500.615398,211.418002 C500.308114,211.743757 499.843969,211.86942 499.414313,211.743187 C498.984656,211.616954 498.662246,211.260199 498.58,210.82 L494.84,194.39 L473.84,213.32 C473.640891,213.578079 473.335872,213.732426 473.01,213.74 L473,213.69 Z M467.39,196.68 L473.39,210.62 L492,193.72 L467.39,196.68 Z"/>
    <path fill="#22AD8F" fill-rule="nonzero" d="M465.54,196.84 L465.12,196.84 C464.749305,196.676817 464.453183,196.380695 464.29,196.01 L460.75,183.32 C460.705751,182.972544 460.779721,182.620306 460.96,182.32 C461.233804,182.067121 461.587743,181.918467 461.96,181.9 L482.14,182.11 C482.56,182.11 483.14,182.53 483.14,182.94 C483.14,183.35 483.14,183.94 482.72,184.19 L466,196.64 C466.21,196.64 466,196.85 465.58,196.85 L465.54,196.84 Z M463.71,184.16 L466.21,193.52 L478.69,184.16 L463.71,184.16 Z"/>
    <path fill="#22AD8F" fill-rule="nonzero" d="M462.21,184.16 L461.79,184.16 C461.363872,183.985952 461.052576,183.610897 460.96,183.16 L458.67,161.53 C458.67,161.11 458.67,160.91 458.88,160.7 C459.108253,160.479884 459.397456,160.33354 459.71,160.28 L479.05,160.28 C479.47247,160.28539 479.857313,160.523992 480.05,160.9 C480.286724,161.313489 480.198847,161.836567 479.84,162.15 L462.78,183.78 C462.78,183.99 462.57,184.2 462.16,184.2 L462.21,184.16 Z M461.33,162.57 L463.2,179.83 L477,162.52 L461.33,162.57 Z"/>
    <path fill="#22AD8F" fill-rule="nonzero" d="M482.39,184.36 C481.795691,184.346168 481.283953,183.936777 481.14,183.36 L478,161.48 C478,161.06 478,160.65 478.42,160.48 C478.777973,160.21147 479.24393,160.133189 479.67,160.27 L512.74,171.27 C513.324108,171.479318 513.649354,172.102311 513.487202,172.701229 C513.325049,173.300148 512.729927,173.673958 512.12,173.56 L480.92,163.16 L483.83,182.92 C483.641833,183.634116 483.084116,184.191833 482.37,184.38"/>
  </g>
</svg>
