<svg xmlns="http://www.w3.org/2000/svg" viewBox="0 0 800 328.26"><title>logo__baird</title><g id="Layer_13" data-name="Layer 13"><rect width="800" height="328.26" fill="#233e98"/><path d="M112.94,256.1V237.88c0-.9.09-4.81.09-7.69h-.09l-8.68,25.91h-4.13l-8.68-25.87h-.09c0,2.84.09,6.75.09,7.65V256.1h-4V225.24h6l8.81,26.08h.09L111,225.24H117V256.1Z" fill="#fff"/><path d="M148.38,256.91c-11.52,0-15-9.58-15-16.24s3.52-16.24,15-16.24,15,9.58,15,16.24S159.9,256.91,148.38,256.91Zm0-28.79c-6.7,0-10.74,5.29-10.74,12.55s4,12.55,10.74,12.55,10.74-5.29,10.74-12.55S155.09,228.12,148.38,228.12Z" fill="#fff"/><path d="M204.37,225.24v20c0,6.32-4,11.65-12.42,11.65-8.29,0-11.86-5.33-11.86-11.09V225.24h4.17v19.42c0,6.7,4.08,8.55,7.82,8.55s8.12-1.76,8.12-8.47V225.24Z" fill="#fff"/><path d="M243,225.24h4V256.1h-4.68l-15.68-24.92h-.09V256.1h-4V225.24h4.94L243,250.17H243Z" fill="#fff"/><path d="M262.54,225.24H287.6v3.7H277.15V256.1H273V228.94H262.54Z" fill="#fff"/><path d="M307.87,256.1H303.7V225.24h4.17Z" fill="#fff"/><path d="M347.06,225.24h4V256.1h-4.68l-15.68-24.92h-.09V256.1h-4V225.24h4.94L347,250.17h.09Z" fill="#fff"/><path d="M382.68,239.6h13.53v16.5h-2.71l-1-4a12.59,12.59,0,0,1-10.18,4.81c-5.29,0-7.86-1.93-9.45-3.48-4.73-4.47-4.86-9.76-4.86-13,0-7.52,4.56-16,14.61-16,5.76,0,12.16,3.27,13.06,10.18h-4c-1.33-5.37-5.84-6.49-9.24-6.49-5.54,0-10.1,4.42-10.1,12.5,0,6.27,2.06,12.72,10.27,12.72a9.81,9.81,0,0,0,6.32-2c2.71-2.15,3.39-4.9,3.39-8.21h-9.63Z" fill="#fff"/><path d="M465.86,234.27c-.22-4.77-4.17-6.27-7.65-6.27-2.62,0-7,.73-7,5.42,0,2.62,1.85,3.48,3.65,3.91l8.81,2c4,.95,7,3.35,7,8.25,0,7.31-6.79,9.33-12.07,9.33-5.72,0-8-1.72-9.33-3-2.62-2.36-3.14-4.94-3.14-7.82H450c0,5.59,4.55,7.22,8.51,7.22,3,0,8.08-.77,8.08-5.2,0-3.22-1.5-4.25-6.57-5.46l-6.32-1.46c-2-.47-6.57-1.89-6.57-7.26,0-4.81,3.14-9.54,10.61-9.54,10.79,0,11.86,6.45,12,9.84Z" fill="#fff"/><path d="M500.66,256.1H496.5V243.68l-11.64-18.44h4.85l8.85,14.83,8.85-14.83h4.9l-11.65,18.44Z" fill="#fff"/><path d="M546.38,234.27c-.22-4.77-4.17-6.27-7.65-6.27-2.62,0-7,.73-7,5.42,0,2.62,1.85,3.48,3.65,3.91l8.81,2c4,.95,7,3.35,7,8.25,0,7.31-6.79,9.33-12.08,9.33-5.72,0-8-1.72-9.33-3-2.62-2.36-3.14-4.94-3.14-7.82h3.91c0,5.59,4.55,7.22,8.51,7.22,3,0,8.08-.77,8.08-5.2,0-3.22-1.5-4.25-6.57-5.46l-6.32-1.46c-2-.47-6.57-1.89-6.57-7.26,0-4.81,3.14-9.54,10.61-9.54,10.79,0,11.86,6.45,12,9.84Z" fill="#fff"/><path d="M565.37,225.24h25.05v3.7H580V256.1h-4.17V228.94H565.37Z" fill="#fff"/><path d="M629.09,256.1H606.32V225.24h22.47v3.7H610.49v9.46h16.89v3.69H610.49V252.4h18.61Z" fill="#fff"/><path d="M671.54,256.1V237.88c0-.9.08-4.81.08-7.69h-.08l-8.68,25.91h-4.12l-8.68-25.87H650c0,2.84.09,6.75.09,7.65V256.1h-4V225.24h6l8.81,26.08h.09l8.77-26.08h5.93V256.1Z" fill="#fff"/><path d="M712.14,234.27c-.22-4.77-4.17-6.27-7.65-6.27-2.62,0-7,.73-7,5.42,0,2.62,1.85,3.48,3.65,3.91l8.81,2c4,.95,7,3.35,7,8.25,0,7.31-6.79,9.33-12.07,9.33-5.72,0-8-1.72-9.33-3-2.62-2.36-3.14-4.94-3.14-7.82h3.91c0,5.59,4.55,7.22,8.51,7.22,3,0,8.08-.77,8.08-5.2,0-3.22-1.5-4.25-6.57-5.46L700,241.23c-2-.47-6.57-1.89-6.57-7.26,0-4.81,3.14-9.54,10.61-9.54,10.79,0,11.86,6.45,12,9.84Z" fill="#fff"/><path d="M630.36,176.89h25.59c8.06,0,9.28-1.81,9.28-10.48V101.1c0-8.67-1.22-10.48-9.28-10.48H630.36v86.27M581.18,91.43c0-12.3-1.62-17.12-4-22.17H677.31c27.41,0,37.09,10.49,37.09,36.69v55.62c0,26.21-9.67,36.69-37.09,36.69H577.14c2.41-5,4-9.88,4-22.18Z" fill="#fff"/><path d="M481.82,120.85h27.82c6.24,0,8.05-1,8.05-7.25V97.87c0-6.25-1.81-7.26-8.05-7.26H481.82v30.23m0,21.36v33.86c0,12.3,1.62,17.14,4,22.18H428.62c2.42-5,4-9.88,4-22.18V91.43c0-12.3-1.61-17.12-5.24-22.17h106c22.58,0,33.46,6.85,33.46,28.42v23.78c0,19-9.27,20-19.75,20.76l17.53,36.29c4,8.27,6.44,14.91,10.68,19.75h-55l-23.38-56Z" fill="#fff"/><path d="M415.34,91.43c0-12.3,1.61-17.12,4-22.17H362.13c2.41,5,4,9.87,4,22.17v75.82l5.48,13.27a63.62,63.62,0,0,0,11.28,17.74h36.44c-2.42-5-4-9.88-4-22.18Z" fill="#fff"/><path d="M377.66,198.26a63.55,63.55,0,0,1-11.28-17.74l-46-111.26H262.17l5.64,7.26-38.53,80.7v14.43c0,13.37-4.53,23.24-22.59,25.89l-.56.72h36.48c-2.62-4.43-2.82-4.84-2.82-9.27a17.21,17.21,0,0,1,1.82-7.67l8.66-17.74h56.64L314,180.11a26.73,26.73,0,0,1,1.81,9.67c0,2.83-.4,3.63-2.82,8.47Zm-117.3-56,19.75-43.53,18.34,43.53Z" fill="#fff"/><path d="M138.14,176.89h28.62c6.25,0,8.06-1,8.06-7.26V149.48c0-6.25-1.81-7.26-8.06-7.26H138.14v34.67m0-56h28.62c6.25,0,8.06-1,8.06-7.25V97.87c0-6.25-1.81-7.26-8.06-7.26H138.14ZM89,91.43c0-12.3-1.61-17.12-4-22.17H190.55c27.21,0,33.45,10.88,33.45,26.6v14.71c0,16.33-10.08,19.14-28,20.56v.41c21.36,2.61,28,5,28,18.74v21.36c0,15.73-6.24,26.61-33.45,26.61H84.94c2.42-5,4-9.88,4-22.18Z" fill="#fff"/><path d="M721.8,78.83h8.26V80h-3.44V89h-1.37V80H721.8Z" fill="#fff"/><path d="M739.69,89V83c0-.3,0-1.59,0-2.53h0L736.83,89h-1.36l-2.86-8.52h0c0,.93,0,2.22,0,2.52v6h-1.33V78.83h2l2.9,8.6h0l2.89-8.6h2V89Z" fill="#fff"/></g></svg>