<svg xmlns="http://www.w3.org/2000/svg" viewBox="0 0 800 193.57"><title>logo__400-doors</title><g id="Layer_13" data-name="Layer 13"><path d="M216.31,50.91A50.92,50.92,0,0,0,165.38,0H50.81A50.82,50.82,0,0,0,0,50.91v91.8a50.81,50.81,0,0,0,50.81,50.86H70.58l2.18-11.37h36.45L107,170.79H74.93l2.2-11.38h27.73L102.68,148H79.32l2.19-11.42h19l-2.16-11.37H83.72a20.7,20.7,0,0,1-19.45-20.64V67.28a20.6,20.6,0,0,1,20.6-20.65h46.53a20.63,20.63,0,0,1,20.66,20.65v57.88H136.85l13.09,68.41h66.42Z" fill="#c6006f"/><path d="M333.14,118.28c-5.48-5.9-15.63-8.84-31.08-8.84l-50.15,0a10.82,10.82,0,0,0-10.84,10.68v73.4h60.62c15.87,0,26.46-3.4,32.21-10.48,5-6.12,7.33-16.89,7.33-33C341.22,134.54,338.6,124.1,333.14,118.28Zm-12,53.53c-2.39,4.05-8.1,6.08-17.06,6.08h-46V130.3a5.29,5.29,0,0,1,5.08-5.12h42c8.41,0,13.84,2,16.15,6,1.14,2.08,2.58,7.26,2.58,19.92C323.92,165,322.17,170.07,321.15,171.8Z" fill="#5f6062"/><path d="M684.43,162.17a14.62,14.62,0,0,0-5-6.32,14.47,14.47,0,0,0,3.78-3.72c1.95-3,2.9-7.26,2.9-13.18,0-9.42-.73-15.06-2.43-18.13-3.93-7.53-13.05-11.38-27.17-11.38l-63.75,0a10.82,10.82,0,0,0-10.82,10.68v73.4H599V162.92h60.11c3.52,0,7.93.56,9.08,3.2.14.4.87,2.58.87,13.18v3.55a10.81,10.81,0,0,0,10.69,10.72h6.36v-16C686.15,170.14,685.64,165.15,684.43,162.17Zm-17.67-16.58c-.73.57-3.16,1.89-10.13,1.89H599V130.34a5.22,5.22,0,0,1,5.19-5.18h53.26c6.74,0,8.95,1.46,9.6,2.11s2,2.78,2,9.5C669.06,141.38,668.23,144.39,666.76,145.59Z" fill="#5f6062"/><path d="M327.11,60.74V15H310V60.74H263a5.21,5.21,0,0,1-4.77-4.68V15H241.07V65.75a10.7,10.7,0,0,0,9.19,10.33H310V87.81a10.83,10.83,0,0,0,10.67,10.75h6.44V76.08h15V60.74Z" fill="#5f6062"/><path d="M455.95,47c0-11-1.81-18.55-5.55-23.13-4.86-6.17-13.83-9.15-27.3-9.15H384.22c-13.47,0-22.46,3-27.38,9.15-3.7,4.58-5.48,12.14-5.48,23.13,0,.64.09,5.58.16,9.77s-.16,9.12-.16,9.79c0,10.94,1.78,18.56,5.48,23.13,4.92,6.13,13.91,9.11,27.38,9.11H423.1c13.47,0,22.43-3,27.3-9.11,3.74-4.57,5.55-12.19,5.55-23.13,0-.67-.11-5.63-.18-9.79S455.95,47.67,455.95,47Zm-17.23,9.77h0v13c0,5.37-.65,7.57-1,8.46a6.56,6.56,0,0,1-5.1,4.17c-.94.24-5.59.71-29,.75s-28-.51-29-.75a6.61,6.61,0,0,1-5.14-4.17c-.34-.89-.93-3.09-.93-8.46v-13h0v-13c0-5.41.6-7.66.93-8.48a6.59,6.59,0,0,1,5.14-4.17c.93-.24,5.58-.69,29-.78,23.37.09,28,.53,29,.78a6.55,6.55,0,0,1,5.1,4.17c.35.82,1,3.06,1,8.48Z" fill="#5f6062"/><path d="M570.61,47c0-11-1.74-18.55-5.46-23.13-4.94-6.17-13.87-9.15-27.37-9.15H498.92c-13.47,0-22.42,3-27.37,9.15C467.84,28.49,466,36,466,47c0,.64.08,5.58.17,9.77-.09,4.16-.17,9.12-.17,9.79,0,10.94,1.81,18.56,5.52,23.13,5,6.13,13.9,9.11,27.37,9.11h38.86c13.5,0,22.43-3,27.37-9.11,3.72-4.57,5.46-12.19,5.46-23.13,0-.67,0-5.63-.17-9.79C570.57,52.62,570.61,47.67,570.61,47ZM553.4,56.81h0v13c0,5.37-.61,7.57-.95,8.46a6.7,6.7,0,0,1-5.12,4.17c-.91.24-5.65.71-29.05.75-23.25,0-27.93-.51-28.9-.75a6.61,6.61,0,0,1-5.13-4.17c-.33-.89-.95-3.09-.95-8.46v-13h0v-13c0-5.41.62-7.66.95-8.48a6.59,6.59,0,0,1,5.13-4.17c1-.24,5.65-.69,28.9-.78,23.4.09,28.14.53,29.05.78a6.68,6.68,0,0,1,5.12,4.17c.34.82.95,3.06.95,8.48Z" fill="#5f6062"/><path d="M455.95,141.71c0-10.95-1.81-18.52-5.55-23.14-4.86-6.1-13.83-9.13-27.3-9.13H384.22c-13.47,0-22.46,3-27.38,9.13-3.7,4.62-5.48,12.19-5.48,23.14,0,.65.09,5.62.16,9.77s-.16,9.15-.16,9.82c0,11,1.78,18.54,5.48,23.15,4.92,6.15,13.91,9.12,27.38,9.12H423.1c13.47,0,22.43-3,27.3-9.12,3.74-4.6,5.55-12.19,5.55-23.15,0-.67-.11-5.59-.18-9.82S455.95,142.36,455.95,141.71Zm-17.23,9.77h0v13.05c0,5.36-.65,7.56-1,8.48a6.67,6.67,0,0,1-5.1,4.16c-.94.23-5.59.72-29,.76s-28-.53-29-.76a6.72,6.72,0,0,1-5.14-4.16c-.34-.92-.93-3.12-.93-8.48V151.48h0v-13c0-5.38.6-7.61.93-8.46a6.63,6.63,0,0,1,5.14-4.15c.93-.23,5.58-.72,29-.81,23.37.1,28,.58,29,.81a6.58,6.58,0,0,1,5.1,4.15c.35.85,1,3.08,1,8.46Z" fill="#5f6062"/><path d="M570.61,141.71c0-10.95-1.74-18.52-5.46-23.14-4.94-6.1-13.87-9.13-27.37-9.13H498.92c-13.47,0-22.42,3-27.37,9.13-3.71,4.62-5.52,12.19-5.52,23.14,0,.65.08,5.62.17,9.77-.09,4.23-.17,9.15-.17,9.82,0,11,1.81,18.54,5.52,23.15,5,6.15,13.9,9.12,27.37,9.12h38.86c13.5,0,22.43-3,27.37-9.12,3.72-4.6,5.46-12.19,5.46-23.15,0-.67,0-5.59-.17-9.82C570.57,147.33,570.61,142.36,570.61,141.71Zm-17.21,9.77h0v13.05c0,5.36-.61,7.56-.95,8.48a6.81,6.81,0,0,1-5.12,4.16c-.91.23-5.65.72-29.05.76-23.25,0-27.93-.53-28.9-.76a6.72,6.72,0,0,1-5.13-4.16c-.33-.92-.95-3.12-.95-8.48V151.48h0v-13c0-5.38.62-7.61.95-8.46a6.63,6.63,0,0,1,5.13-4.15c1-.23,5.65-.72,28.9-.81,23.4.1,28.14.58,29.05.81a6.72,6.72,0,0,1,5.12,4.15c.34.85.95,3.08.95,8.46Z" fill="#5f6062"/><path d="M794.38,151.48h0a17.65,17.65,0,0,0-6.83-5c-4.76-2.09-13.24-3.12-25.84-3.12H743.59c-7.05.19-12.92.09-17.69-.2-5.32-.27-9.17-.79-10-3.18,0,0-.51-1-.51-4.63,0-4.42.61-5.57.76-5.7,1.86-3.55,8.7-4.26,14.12-4.26,2.67,0,6.8,0,12.31-.08s9.48-.15,12.2-.15c5.76,0,10.59.15,14.38.33,5.75.35,9.22,2.5,9.6,5v-.15c0,4.15,4.58,7.43,10.28,7.72h8.56v-3.69c-.13-11.73-4.45-18.14-12.91-21.77-5-2.16-13.71-3.16-27.42-3.16-2.58,0-22,.22-24,.22-11.7,0-19.9,1.1-25,3.48-8,3.74-12.1,10.93-12.1,21.35,0,7.22,1.84,12.91,5.55,17h.05a17.74,17.74,0,0,0,6.81,5.05c4.83,2.08,13.27,3.12,25.84,3.12h18.14c7.06-.16,12.93-.1,17.66.16,5.34.29,9.21.83,10,3.2,0,0,.5,1,.5,4.66,0,4.34-.61,5.46-.65,5.68-1.92,3.52-8.8,4.28-14.13,4.28-2.81,0-6.84,0-12.36.11s-11.5.09-14.22.09c-5.67,0-10.53-.09-14.33-.29-5.74-.36-9.17-2.54-9.63-5.06v.18c0-4.12-4.55-7.46-10.29-7.72h-8.55l0,3.7c.14,11.75,4.43,18.16,12.87,21.69,4.91,2.19,13.7,3.19,27.41,3.19,2.61,0,24-.19,25.87-.19,11.75,0,19.94-1.17,25.13-3.46,8-3.7,12.11-10.93,12.11-21.37C800,161.3,798.17,155.62,794.38,151.48Z" fill="#5f6062"/></g></svg>