<svg xmlns="http://www.w3.org/2000/svg" viewBox="0 0 800 336.05"><defs><style>.cls-1{fill:#933c06;}</style></defs><title>logo__petopio</title><g id="Petopio"><path class="cls-1" d="M360.61,175.45V151.27H331.09V121.74h-25V243.33c0,33.66,17.27,53.74,46.22,53.74a70.28,70.28,0,0,0,8.18-.49V273.25c-1.26.08-2.62.12-3.78.12-17.71,0-25.61-9.27-25.61-30V175.45Z"/><path class="cls-1" d="M418.81,156.94c-37.19,0-66.32,30.57-66.32,69.58,0,38.59,29.13,68.83,66.32,68.83s66.32-30.24,66.32-68.83C485.13,187.51,456,156.94,418.81,156.94Zm0,22.86c23.4,0,42.45,21,42.45,46.72,0,25.21-19.05,45.72-42.45,45.72s-42.2-20.51-42.2-45.72C376.61,200.76,395.54,179.8,418.81,179.8Z"/><path class="cls-1" d="M559.43,156.94c-37.18,0-66.32,30.45-66.32,69.33V336.05h23.11V275.64c11.24,12.4,27.24,19.71,43.46,19.71,36.91,0,65.81-30.34,65.81-69.08S596.47,156.94,559.43,156.94Zm0,22.35c23.26,0,42.19,21.07,42.19,47s-18.93,47-42.19,47S517,252.17,517,226.27,536,179.29,559.43,179.29Z"/><path class="cls-1" d="M733.69,156.94c-37.19,0-66.32,30.57-66.32,69.58,0,38.59,29.13,68.83,66.32,68.83S800,265.11,800,226.52C800,187.51,770.87,156.94,733.69,156.94Zm0,22.86c23.41,0,42.45,21,42.45,46.72,0,25.21-19,45.72-42.45,45.72s-42.2-20.51-42.2-45.72C691.49,200.76,710.42,179.8,733.69,179.8Z"/><path class="cls-1" d="M231.55,156.1c-36.79,0-66.72,31.29-66.72,69.75,0,38.83,29.86,69.24,68,69.24,30.58,0,53.39-16.16,62.61-44.34l.53-1.64H270.68l-.33.72c-7.12,15.24-20.1,23.29-37.54,23.29-19.26,0-40.19-13.89-43.59-40.46H298.51v-1.25c.12-22.21-7.44-42.11-21.28-56A64.17,64.17,0,0,0,231.55,156.1Zm0,22c18.42,0,34.79,13.45,40.31,32.89H190.71C196.86,189.36,215.71,178.07,231.55,178.07Z"/><rect class="cls-1" x="634.88" y="158.04" width="23.73" height="136.21"/><path class="cls-1" d="M97.43,102.44c-40.89,0-70.57,29.92-70.57,71.15v72.93c0,19.37-7.37,28-23.91,28-.86,0-1.95,0-2.95-.07v22.22a66.64,66.64,0,0,0,7.1.39c27.3,0,43.6-18.89,43.6-50.55v-12.6H98.6c42,0,69.11-26,69.11-66.18C167.71,131.73,136.18,102.44,97.43,102.44Zm.88,108.23H50.7V173.59c0-28.54,19.21-48.5,46.73-48.5,26.48,0,46.45,18.34,46.45,42.65C143.88,194.62,126.84,210.67,98.31,210.67Z"/><path class="cls-1" d="M684.31,122.83a17.5,17.5,0,1,1-17.48-17.49A17.5,17.5,0,0,1,684.31,122.83Z"/><path class="cls-1" d="M358.35,57.7s17.09-45.3,68.85-17c0,0,6.73,4.6,20.82.49,0,0,14.36-10.18,50.86-4.51a112.8,112.8,0,0,1,37.58-6.61,24.17,24.17,0,0,1,7.88-3.49L548.4,24c-2.24-4.46-4.73-11.34-2.27-16.74,0,0,1.07-5.62,7.64-.68a20,20,0,0,1,3.84-5C562-3,570.18,3.32,576.75,10.12a13.93,13.93,0,0,1,5.59-.39s22.6,4.94,26.1,15.4c0,0,1.25,10,2.51,13.08,0,0,11.26,7.67,11.23,9.94,0,0,3.21,2.45-1.3,5.94,0,0-2.63,8.65-18.18,3.08,0,0,7.19,5.14,6.49,8.13,0,0-3.94,8.93-13.59,2.27,0,0-12.67-5.67-17.6.25,0,0-5.83,12.22,13.24,20,0,0,8.83,3.53,13.12,7.49,0,0,7.54,2.06,20,1.08,0,0,10.22-1.78,7.85,4s-4,7.49-4,7.49-4.08,6.49-17.38,3.34c0,0-1.77-.55-8.61-2.07l-1.39-.3h0c-2.55-.59-5.71-1.34-9.59-2.33a125.36,125.36,0,0,0-16.15-2.72c-6.19-.54-4.94,2.09-2.85,4.34l3.39,3c4.24,2.78,6.26,5.27,7.23,7,.19.22.37.43.51.61,0,0,5.26,9.75,8.93,10.89a47.48,47.48,0,0,0,11.89,2.15s8.67,1,4.89,6.59c0,0-11.81,11.64-20.19,6.94,0,0-17.19-10.26-19.12-11.5,0,0-22.39-11.21-30.45-22.3,0,0-41.65,8.17-74.28-5.53,0,0-7.76,23.17-28.47,33.09,0,0,2.56,10.55,8.38,13.11l.52.2c6.19,2.14,13.46,3.34,12,9.47,0,0,.47,5.77-26.3-.55-.55-.13-1.12-.2-1.69-.31a14.23,14.23,0,0,1-1.75-1.39c-3.62-3.25-11.44-12.32-10.28-29.19a10.41,10.41,0,0,1,2-6l-4.16,2.88s-9,21.16-6.07,23.09c0,0,6.92,2.54,7.47,3.54,0,0,2.35,5.52,1.5,6.81,0,0-4.73,6.72-22.35.92,0,0-10.39-3.3-1.52-32.44,0,0-.51-12.76,4.91-16.71,0,0,3.73-11.14,8.58-18.06.95-11.15,2-19.21,8.33-30.46l.67-5.78S395.58,36.89,367.69,62c0,0-5.43,4.39-11.81,4.15C355.88,66.19,354.6,65.87,358.35,57.7Z"/></g></svg>