<svg xmlns="http://www.w3.org/2000/svg" width="705" height="240" viewBox="0 0 705 240">
  <g fill="none">
    <rect width="705" height="240" fill="#FFF"/>
    <g fill="#333" transform="translate(273.375 64.5)">
      <path d="M350.0625 24.4125L350.0625 36.4875 350.325 36.4875C352.125 32.0625 355.0875 28.6125 359.1375 26.2125 363.1875 23.775 367.8375 22.575 373.0125 22.575 377.85 22.575 382.0875 23.475 385.65 25.275 389.2125 27.075 392.2125 29.5125 394.575 32.625 396.975 35.7 398.7375 39.2625 399.8625 43.35 401.025 47.4 401.5875 51.7125 401.5875 56.2125 401.5875 60.75 401.025 65.025 399.8625 69.075 398.7 73.125 396.9375 76.725 394.575 79.8 392.175 82.875 389.2125 85.3125 385.65 87.075 382.0875 88.8375 377.85 89.7375 373.0125 89.7375 370.725 89.7375 368.4 89.4375 366.1125 88.875 363.825 88.3125 361.6875 87.45 359.7 86.2875 357.7125 85.125 355.9875 83.7 354.45 81.975 352.9125 80.25 351.75 78.225 350.925 75.9375L350.6625 75.9375 350.6625 111.4125 342.9 111.4125 342.9 24.4125C342.9 24.4125 350.0625 24.4125 350.0625 24.4125zM392.625 46.425C391.8375 43.1625 390.6 40.275 388.9125 37.725 387.225 35.175 385.0875 33.1125 382.425 31.5 379.8 29.8875 376.65 29.1 372.9375 29.1 368.6625 29.1 365.1 29.85 362.2125 31.3125 359.325 32.775 357.0375 34.7625 355.3125 37.2375 353.5875 39.7125 352.3875 42.5625 351.675 45.8625 350.9625 49.1625 350.625 52.6125 350.625 56.2125 350.625 59.5125 351 62.775 351.7875 66 352.575 69.2625 353.85 72.15 355.6125 74.7 357.375 77.25 359.6625 79.3125 362.5125 80.925 365.3625 82.5375 368.8125 83.325 372.9375 83.325 376.65 83.325 379.8 82.5375 382.425 80.925 385.05 79.3125 387.225 77.25 388.9125 74.7 390.6 72.15 391.8375 69.2625 392.625 66 393.4125 62.7375 393.7875 59.475 393.7875 56.2125 393.7875 52.95 393.4125 49.6875 392.625 46.425zM327.975.0375L327.975 12.4875 320.2125 12.4875 320.2125.0375 327.975.0375zM327.975 24.4125L327.975 88.0125 320.2125 88.0125 320.2125 24.4125 327.975 24.4125zM288.45 24.4125L288.45 39.3375 288.7125 39.3375C290.7 34.1625 293.7375 30.1875 297.9 27.375 302.0625 24.6 307.0125 23.325 312.75 23.55L312.75 31.3125C309.225 31.1625 306 31.6125 303.15 32.7375 300.2625 33.8625 297.7875 35.4375 295.6875 37.5 293.5875 39.5625 291.975 42 290.8125 44.85 289.65 47.7 289.0875 50.775 289.0875 54.15L289.0875 88.05 281.325 88.05 281.325 24.4125 288.45 24.4125zM256.275 33.1875C253.3875 30.4875 249.375 29.1375 244.2 29.1375 240.4875 29.1375 237.2625 29.925 234.45 31.4625 231.6375 33.0375 229.35 35.0625 227.475 37.6125 225.6375 40.1625 224.2125 43.05 223.275 46.3125 222.3375 49.575 221.85 52.875 221.85 56.25 221.85 59.625 222.3375 62.925 223.275 66.1875 224.2125 69.45 225.6 72.3375 227.475 74.8875 229.3125 77.4375 231.6375 79.5 234.45 81.0375 237.225 82.6125 240.4875 83.3625 244.2 83.3625 246.6 83.3625 248.85 82.9125 250.9875 82.0125 253.125 81.1125 255 79.8375 256.65 78.2625 258.3 76.65 259.65 74.7375 260.7 72.525 261.75 70.3125 262.425 67.875 262.6875 65.25L270.45 65.25C269.4 72.975 266.55 78.975 261.9375 83.2875 257.325 87.6 251.4375 89.775 244.2 89.775 239.3625 89.775 235.05 88.875 231.3375 87.1125 227.5875 85.35 224.4375 82.95 221.925 79.9125 219.375 76.875 217.4625 73.3125 216.15 69.2625 214.8375 65.2125 214.1625 60.8625 214.1625 56.25 214.1625 51.6375 214.8375 47.325 216.15 43.2375 217.4625 39.1875 219.4125 35.625 221.925 32.5875 224.475 29.55 227.625 27.1125 231.3375 25.3125 235.0875 23.5125 239.3625 22.6125 244.2 22.6125 251.025 22.6125 256.8 24.4125 261.525 28.05 266.25 31.65 269.0625 37.125 269.9625 44.4375L262.2 44.4375C261.1125 39.6375 259.1625 35.8875 256.275 33.1875zM194.6625 36.825C193.7625 35.0625 192.5625 33.6 191.025 32.4375 189.4875 31.275 187.7625 30.45 185.775 29.925 183.7875 29.4 181.725 29.1375 179.475 29.1375 177.75 29.1375 175.9875 29.325 174.225 29.7 172.4625 30.075 170.85 30.675 169.35 31.5375 167.85 32.4 166.6875 33.525 165.7875 34.9125 164.8875 36.3 164.4375 38.025 164.4375 40.0875 164.4375 41.8125 164.8875 43.275 165.75 44.475 166.6125 45.675 167.7 46.6875 169.0125 47.5125 170.325 48.3375 171.75 49.0125 173.325 49.5375 174.9 50.0625 176.325 50.5125 177.6375 50.85L187.9875 53.175C190.2 53.5125 192.4125 54.1125 194.5875 54.975 196.7625 55.8375 198.7125 56.9625 200.3625 58.35 202.05 59.7375 203.4375 61.4625 204.4875 63.525 205.5375 65.5875 206.1 67.9875 206.1 70.8 206.1 74.25 205.3125 77.175 203.775 79.6125 202.2 82.05 200.2125 84 197.8125 85.5375 195.375 87.075 192.6375 88.1625 189.6 88.8 186.5625 89.475 183.5625 89.775 180.6 89.775 173.1375 89.775 167.0625 88.0125 162.4125 84.4875 157.7625 80.9625 155.1375 75.3 154.4625 67.5L162.225 67.5C162.5625 72.75 164.475 76.725 167.9625 79.3875 171.45 82.05 175.8 83.4 180.975 83.4 182.85 83.4 184.8 83.2125 186.825 82.8 188.85 82.3875 190.725 81.675 192.45 80.7 194.175 79.725 195.6 78.45 196.6875 76.95 197.8125 75.4125 198.3375 73.575 198.3375 71.325 198.3375 69.45 197.9625 67.8375 197.175 66.5625 196.3875 65.2875 195.3375 64.2375 194.025 63.375 192.7125 62.5125 191.2125 61.8 189.525 61.2 187.8375 60.6375 186.15 60.15 184.425 59.7375L174.45 57.525C171.9 56.85 169.575 56.1 167.4375 55.2375 165.3 54.375 163.425 53.325 161.8125 52.05 160.2 50.775 158.9625 49.2 158.0625 47.3625 157.1625 45.525 156.7125 43.2375 156.7125 40.5375 156.7125 37.35 157.425 34.575 158.8875 32.2875 160.3125 30 162.1875 28.125 164.5125 26.7375 166.8 25.35 169.3875 24.3 172.2 23.6625 175.05 22.9875 177.8625 22.6875 180.6375 22.6875 183.825 22.6875 186.825 23.1 189.5625 23.925 192.3 24.75 194.7375 26.025 196.8375 27.75 198.9375 29.475 200.5875 31.6125 201.825 34.1625 203.0625 36.7125 203.7375 39.7125 203.925 43.1625L196.1625 43.1625C196.05 40.65 195.5625 38.5875 194.6625 36.825zM136.125 88.0125L136.125 75.9375 135.8625 75.9375C135.0375 78 133.8375 79.875 132.225 81.6 130.6125 83.325 128.8125 84.7875 126.75 85.9875 124.6875 87.1875 122.5125 88.0875 120.15 88.7625 117.825 89.4375 115.5 89.7375 113.175 89.7375 108.3375 89.7375 104.1 88.8375 100.5375 87.075 96.975 85.3125 93.975 82.875 91.6125 79.8 89.2125 76.725 87.45 73.1625 86.325 69.075 85.1625 65.025 84.6 60.7125 84.6 56.2125 84.6 51.7125 85.1625 47.4 86.325 43.35 87.4875 39.3 89.25 35.7 91.6125 32.625 94.0125 29.55 96.975 27.1125 100.5375 25.275 104.1 23.475 108.3375 22.575 113.175 22.575 115.575 22.575 117.8625 22.875 120.15 23.4375 122.4 24 124.5375 24.9 126.4875 26.1 128.475 27.3 130.2 28.7625 131.7375 30.4875 133.275 32.2125 134.4375 34.2375 135.2625 36.525L135.525 36.525 135.525.0375 143.2875.0375 143.2875 88.0125 136.125 88.0125zM93.5625 66.0375C94.35 69.3 95.5875 72.1875 97.275 74.7375 98.9625 77.2875 101.1 79.35 103.7625 80.9625 106.3875 82.575 109.5375 83.3625 113.25 83.3625 117.375 83.3625 120.825 82.575 123.675 80.9625 126.525 79.35 128.8125 77.2875 130.575 74.7375 132.3375 72.1875 133.6125 69.3 134.4 66.0375 135.1875 62.775 135.5625 59.5125 135.5625 56.25 135.5625 52.95 135.1875 49.6875 134.4 46.4625 133.6125 43.2 132.3375 40.3125 130.575 37.7625 128.8125 35.2125 126.525 33.15 123.675 31.5375 120.825 29.925 117.375 29.1375 113.25 29.1375 109.5375 29.1375 106.3875 29.925 103.7625 31.5375 101.1375 33.15 98.9625 35.2125 97.275 37.7625 95.5875 40.3125 94.35 43.2 93.5625 46.4625 92.775 49.725 92.4 52.9875 92.4 56.25 92.3625 59.5125 92.775 62.775 93.5625 66.0375zM72.4125.0375L72.4125 12.4875 64.65 12.4875 64.65.0375 72.4125.0375zM72.4125 24.4125L72.4125 88.0125 64.65 88.0125 64.65 24.4125 72.4125 24.4125z"/>
      <polygon points="8.963 24.413 28.913 80.25 29.175 80.25 48.9 24.413 56.925 24.413 33.15 88.013 24.9 88.013 .338 24.413"/>
    </g>
    <g transform="translate(30 17.25)">
      <path fill="#BCBDC0" d="M110.840557,37.396978 C133.121578,39.9656593 152.015283,53.6778846 161.876141,72.8296703 C158.827555,71.8475275 155.590785,71.3186813 152.203467,71.3186813 C134.739964,71.3186813 120.550867,85.5597527 120.550867,103.087225 C120.550867,120.614698 134.739964,134.855769 152.203467,134.855769 C155.590785,134.855769 158.827555,134.326923 161.876141,133.34478 C152.015283,152.496566 133.121578,166.246566 110.840557,168.777473 L110.840557,206.174451 C164.171989,202.321429 206.25,157.633929 206.25,103.087225 C206.25,48.540522 164.171989,3.8907967 110.840557,0 L110.840557,37.396978 Z"/>
      <path fill="#EB4D4D" d="M95.4094434,168.815247 C73.1284215,166.246566 54.2347172,152.534341 44.3738595,133.382555 C47.4224453,134.364698 50.6592153,134.893544 54.0465328,134.893544 C71.5100365,134.893544 85.6991332,120.652473 85.6991332,103.125 C85.6991332,85.5975275 71.5100365,71.356456 54.0465328,71.356456 C50.6592153,71.356456 47.4224453,71.8853022 44.3738595,72.8674451 C54.2347172,53.7156593 73.1284215,39.9656593 95.4094434,37.4347527 L95.4094434,0 C42.0780109,3.8907967 0,48.5782967 0,103.087225 C0,157.596154 42.0780109,202.283654 95.4094434,206.174451 L95.4094434,168.815247 Z"/>
    </g>
  </g>
</svg>
