<svg xmlns="http://www.w3.org/2000/svg" xmlns:xlink="http://www.w3.org/1999/xlink" viewBox="0 0 800 255.71"><defs><linearGradient id="linear-gradient" x1="1.16" y1="62.19" x2="104.26" y2="165.29" gradientUnits="userSpaceOnUse"><stop offset="0" stop-color="#003952"/><stop offset="0.19" stop-color="#096186"/><stop offset="0.39" stop-color="#1187b6"/><stop offset="0.55" stop-color="#169ed5"/><stop offset="0.63" stop-color="#18a7e0"/><stop offset="0.7" stop-color="#17a4dc"/><stop offset="0.76" stop-color="#169cd1"/><stop offset="0.82" stop-color="#128dbf"/><stop offset="0.87" stop-color="#0e79a5"/><stop offset="0.93" stop-color="#085f83"/><stop offset="0.98" stop-color="#01405a"/><stop offset="0.99" stop-color="#003952"/></linearGradient></defs><title>logo__conservis-h</title><g id="Conservis_-_horizontal" data-name="Conservis - horizontal"><path d="M103.23,137.17A74.71,74.71,0,0,1,34,34.25h0A60.63,60.63,0,0,0,11.31,51.52,74.66,74.66,0,0,0,114.71,154c1.73-1.4,12.15-10.19,16.71-22.25,0,0,0-.1.05-.15A74.43,74.43,0,0,1,103.23,137.17Z" fill="url(#linear-gradient)"/><path d="M105.24,1.37a75,75,0,0,0-28.59,0,76.05,76.05,0,0,0-13.85,4.1,73.74,73.74,0,0,0-13,6.85A76.45,76.45,0,0,0,38,21.92s-8.65,8.25-16.32,16.21S11.13,51.75,11.13,51.75A60.69,60.69,0,0,1,34,34.25a72.46,72.46,0,0,1,13.86-4.1,74.91,74.91,0,0,1,28.57,0c4.73.92,33.79,7.27,48.19-5.71C138.47,12,110,2.29,105.24,1.37Z" fill="#18a7e0"/><path d="M124.57,62.44a73.92,73.92,0,0,1,6.84,13,75.26,75.26,0,0,1,4.12,42.46,85.15,85.15,0,0,1-4.12,13.88c-5,13.19-17.27,22.6-17.27,22.6s5.15-1.63,17.12-13.63,13.42-14,13.42-14l.11-.15A73.61,73.61,0,0,0,160.19,103a72.94,72.94,0,0,0,4.1-13.88,74.91,74.91,0,0,0,0-28.58,73.72,73.72,0,0,0-4.1-13.88,75.49,75.49,0,0,0-6.83-13Z" fill="#18a7e0"/><path d="M253.1,186.29c-6.66-1.94-18-3-23.94-3-15.58,0-22.4,5.15-24.52,24.5,0,0-2.5,29-2.5,30.23,0,6.65,4.21,8.94,12.6,8.94s21.67-1.94,31.48-6l1.56,8.23c-9.1,4-23.06,6.48-34.27,6.48-12.6,0-21.19-5.94-21.19-17.5,0-1.58,2.86-32.15,2.86-32.15,2.53-23.06,13.14-31.52,35-31.52,6.66,0,19.75,1.58,25,3.5Z" fill="#231f20"/><path d="M266.54,231.9c0-2.46,1.46-26,1.46-26,3.31-18.75,13.13-31.35,38.33-31.35,18.91,0,28.36,9.81,28.36,24,0,2.1-1.79,26.71-1.79,26.71-3.33,18.92-13.83,30.46-38.35,30.46C274.42,255.71,266.54,245.56,266.54,231.9Zm58.18-32.83c0-10.5-6.14-15.75-20-15.75-16.09,0-24.32,7.69-26.95,22.58,0,0-1.46,23.73-1.46,25.67,0,10,5.45,15.42,19.78,15.42,15.76,0,24.34-7.37,27-21.9C323.1,225.08,324.72,201,324.72,199.06Z" fill="#231f20"/><path d="M406,192.23a16.51,16.51,0,0,0,.38-2.79c0-4.21-2.29-5.79-7.19-5.79-8.93,0-25.56,7.9-36.42,14.73L355.4,254H345.6l11.08-77,8.56-1.4-1.4,13.15c8.58-6,26.79-14.21,37.13-14.21,10.51,0,15.06,5.44,15.06,14a35.39,35.39,0,0,1-.52,5.44l-8.1,60H397.6Z" fill="#231f20"/><path d="M514.28,231.73a42.24,42.24,0,0,0-.35,4.56c0,7.17,2.8,10.83,14.71,10.83,9.8,0,15.82-3.31,26.31-8.23l2.44,7.54c-10.34,5.42-18.43,9.27-30,9.27-15.94,0-23.29-6.29-23.29-19.25,0-2.63,2.14-29.52,2.14-29.52,3.86-21.71,15.07-32.4,36.95-32.4,13.83,0,22.58,7,22.58,19.79,0,13.67-9.1,21-32.39,27.5-16.46,4.56-18.82,5.15-18.82,5.15Zm42.07-37.56c0-7.71-5.08-11.21-14-11.21-15.23,0-23.28,7.87-26.27,24.69l-1.92,10.85s3.33-.87,19.78-5.25C549.88,209,556.35,203.27,556.35,194.17Z" fill="#231f20"/><path d="M621.69,184.19c-9.25,5.42-22,11.21-31.1,17.15l-5.25,52.27h-9.81L585,177l9.11-1.4L592,190.67c6.48-4.92,21.5-12.27,29.21-16.12Z" fill="#231f20"/><path d="M650.9,254l-17.81-77,9.47-1.4,16.58,71.88,23.32-46.15a30.76,30.76,0,0,0,3.5-14A33.59,33.59,0,0,0,684.22,177l10.15-1.4A44.27,44.27,0,0,1,696,187a36.79,36.79,0,0,1-3.16,14.71l-27,52.27Z" fill="#231f20"/><path d="M719.06,177l10-1.4L717.79,254H708Z" fill="#231f20"/><path d="M741.12,251.33l2.11-8A81.25,81.25,0,0,0,765.81,247c14.36,0,17.56-2,19.79-14,1-5.56-5-7.06-19.58-14.75-16.45-8.77-21.35-9.5-19.25-23.17,2.1-13.31,8.06-20.5,29.6-20.5A86.33,86.33,0,0,1,800,178l-1.73,8.25a101.5,101.5,0,0,0-22.42-3c-14.37,0-17.1,2.15-19.26,12.6-1.37,6.52,1.38,7.92,13.46,14.56,20.15,11,27.28,10.75,25,24-2.46,14.71-7.36,21.19-29.59,21.19C757.77,255.71,747.6,254.15,741.12,251.33Z" fill="#231f20"/><path d="M430.42,251.33l2.1-8A81.24,81.24,0,0,0,455.09,247c14.36,0,17.58-2,19.8-14,1-5.56-5-7.06-19.56-14.75-16.47-8.77-21.35-9.5-19.27-23.17,2.1-13.31,8-20.5,29.59-20.5a86.29,86.29,0,0,1,23.64,3.5l-1.75,8.25a101.07,101.07,0,0,0-22.4-3c-14.37,0-17.1,2.15-19.27,12.6-1.35,6.52,1.4,7.92,13.49,14.56,20.12,11,27.26,10.75,25,24-2.47,14.71-7.35,21.19-29.6,21.19C447.05,255.71,436.9,254.15,430.42,251.33Z" fill="#231f20"/></g></svg>