<svg xmlns="http://www.w3.org/2000/svg" viewBox="0 0 800 393.51"><title>logo__parade-of-homes-text</title><g id="Parade_of_Homes" data-name="Parade of Homes"><path d="M148.71,125.86q-3.13,2.61-5.6,4.71a35.44,35.44,0,0,1-6.66,4.16,44.55,44.55,0,0,1-8,3.05,43.76,43.76,0,0,1-10.83,1q-13,0-21.54-8.71t-8.57-21.9q0-10.88,4.36-17.58A30,30,0,0,1,104.44,80a66,66,0,0,1,19.75-5.56q11.48-1.58,24.7-2.43V71.5q0-8.09-6-11.18t-17.88-3.08a49.06,49.06,0,0,0-12.62,2q-4.3,1.17-8.48,2.72a55.52,55.52,0,0,0,1.22-23.43q2.37-.46,5.18-1a117.57,117.57,0,0,1,20.35-1.77q25.22,0,36.75,8.38T179,69.76v66.46H148.71Zm0-15.13V90.38q-7.73.78-12.52,1.35a42.54,42.54,0,0,0-9.39,2.21,13.28,13.28,0,0,0-6.22,4.22,11.89,11.89,0,0,0-2.21,7.53c0,4.57,1.23,7.73,3.7,9.43s6.1,2.57,10.92,2.57a20.21,20.21,0,0,0,8.17-1.83A24.91,24.91,0,0,0,148.71,110.73Z" fill="#231f20"/><path d="M593.75,293.95q-39.77,0-61-17.51a56,56,0,0,1-10.44-11.3c-.22-63.26-.69-72.09-1.9-75.25A61.28,61.28,0,0,1,531.34,176q19.78-18.89,55.29-18.9,32.27,0,48.53,16T651.41,219v14.51H555.49a34.33,34.33,0,0,0,4.13,15,27.05,27.05,0,0,0,9.25,9.62A38.7,38.7,0,0,0,582,263.25a80.68,80.68,0,0,0,16.37,1.55,72.6,72.6,0,0,0,15-1.55,75.85,75.85,0,0,0,13.51-4.08,95.51,95.51,0,0,0,9.94-4.72c3-1.69,5.51-3.2,7.45-4.5h4.61v33.29q-5.37,2-9.81,3.63a92.55,92.55,0,0,1-12.2,3.4,137.41,137.41,0,0,1-14.7,2.71A146.9,146.9,0,0,1,593.75,293.95Zm14.51-84.78q-.38-12.76-6.44-19.47c-4-4.44-10.22-6.67-18.57-6.67q-12.75,0-20,7t-7.95,19.12Z" fill="#231f20"/><path d="M473.57,292.86V228.24q0-9.54-.39-16.12a30.3,30.3,0,0,0-2.24-10.72,11.88,11.88,0,0,0-5.82-6c-2.63-1.28-6.33-1.9-11.07-1.9a25.47,25.47,0,0,0-9.87,2,66.5,66.5,0,0,0-10.63,5.7v91.69h-44V228.24q0-9.44-.44-16.06a31.4,31.4,0,0,0-2.32-10.78,11.84,11.84,0,0,0-5.81-6c-2.63-1.28-6.27-1.9-10.95-1.9a25.33,25.33,0,0,0-10.5,2.3,76.79,76.79,0,0,0-10,5.41v91.69H305.73v-16.6s14.56-16.12,14.56-47.88-14.56-46.53-14.56-46.53V163.51H349.5v14.28a120.87,120.87,0,0,1,20.26-13.13,47.29,47.29,0,0,1,21.38-4.72,44.52,44.52,0,0,1,22.64,5.64,36.15,36.15,0,0,1,14.88,16.82,127.61,127.61,0,0,1,23.84-16.64,48.63,48.63,0,0,1,22.69-5.82,50.09,50.09,0,0,1,17.51,2.88,33.8,33.8,0,0,1,13.12,8.64,40.27,40.27,0,0,1,8.82,14.81q2.94,8.58,2.94,22.4v84.2Z" fill="#231f20"/><path d="M99.68,47.58A51.28,51.28,0,0,1,96.81,64.8a36.36,36.36,0,0,1-8.25,13.67,57.43,57.43,0,0,1-7.27,6.26,43,43,0,0,1-8.74,4.86,54.83,54.83,0,0,1-10.39,3.13,62.7,62.7,0,0,1-12.56,1.13h-17v42.37H0V6.71H50.27a80.42,80.42,0,0,1,19.36,2,46.75,46.75,0,0,1,14.74,6.46,32.7,32.7,0,0,1,11.32,13Q99.68,36.37,99.68,47.58Zm-33.4.78a16.62,16.62,0,0,0-2.61-9.43,13.57,13.57,0,0,0-6.26-5.44,26.85,26.85,0,0,0-8.82-2.3c-2.82-.21-6.63-.31-11.44-.31H32.53V69.67H34.8c3.07,0,6,0,8.69-.08a52.36,52.36,0,0,0,7.13-.6,24.74,24.74,0,0,0,5.53-1.71,14.36,14.36,0,0,0,4.48-2.83,17.13,17.13,0,0,0,4.48-6.69A30.31,30.31,0,0,0,66.28,48.37Z" fill="#231f20"/><path d="M254.91,67.32h-2.53a22.36,22.36,0,0,0-5-.91c-2.2-.19-4.65-.31-7.31-.31a39.38,39.38,0,0,0-10,1.39,99.59,99.59,0,0,0-10.22,3.31v65.41H189.32V38.54h30.44v14c1.4-1.27,3.31-2.88,5.78-4.81a54.13,54.13,0,0,1,6.75-4.66,37.29,37.29,0,0,1,7.7-3.44,26.85,26.85,0,0,1,8.31-1.44c1,0,2.08,0,3.3.08s2.31.15,3.31.27Z" fill="#231f20"/><path d="M314.8,125.86q-3.13,2.61-5.62,4.71a35.55,35.55,0,0,1-6.65,4.16,44.26,44.26,0,0,1-8,3.05,43.59,43.59,0,0,1-10.82,1q-13,0-21.54-8.71t-8.56-21.9q0-10.88,4.35-17.58A30,30,0,0,1,270.52,80a65.94,65.94,0,0,1,19.75-5.56Q301.75,72.88,315,72V71.5q0-8.09-6-11.18t-17.87-3.08a49,49,0,0,0-12.62,2,98.3,98.3,0,0,0-14.09,5h-2.61V40.62q4.52-1.31,14.62-3.1a117.69,117.69,0,0,1,20.35-1.77q25.22,0,36.76,8.38t11.51,25.62v66.46H314.8Zm0-15.13V90.38q-7.74.78-12.53,1.35a42.55,42.55,0,0,0-9.39,2.21,13.16,13.16,0,0,0-6.22,4.22,11.89,11.89,0,0,0-2.22,7.53c0,4.57,1.23,7.73,3.69,9.43s6.11,2.57,10.92,2.57a20.24,20.24,0,0,0,8.18-1.83A25.11,25.11,0,0,0,314.8,110.73Z" fill="#231f20"/><path d="M449.11,136.22H418.66V126q-3,2.45-6.74,5.22a43.4,43.4,0,0,1-6.66,4.17,36.12,36.12,0,0,1-7.21,2.61,36.76,36.76,0,0,1-8.53.87q-16.71,0-26.44-13.83t-9.74-37a66.84,66.84,0,0,1,3.3-22.18,52,52,0,0,1,9.13-16.35,38.63,38.63,0,0,1,12.88-10,35.9,35.9,0,0,1,16-3.7,41,41,0,0,1,12.56,1.6,81.46,81.46,0,0,1,11.44,5V.87h30.45Zm-30.45-27V61.33a23.71,23.71,0,0,0-5.92-1.87,32.07,32.07,0,0,0-6.26-.75q-11,0-16.49,7.66t-5.52,21.4q0,14.44,4.39,20.88c2.93,4.3,7.66,6.44,14.22,6.44a22.55,22.55,0,0,0,8.09-1.57A27.53,27.53,0,0,0,418.66,109.25Z" fill="#231f20"/><path d="M515.14,138.83q-27.66,0-42.4-13.23T458,87.95q0-23.92,13.75-38.2t38.45-14.26q22.44,0,33.75,12.1t11.3,34.62v11H488.51a27.72,27.72,0,0,0,2.88,11.35,19.85,19.85,0,0,0,6.42,7.25,25.92,25.92,0,0,0,9.14,3.87,51.44,51.44,0,0,0,11.39,1.18,46.18,46.18,0,0,0,10.43-1.18,50.62,50.62,0,0,0,9.4-3.08A63.18,63.18,0,0,0,545.1,109c2.11-1.27,3.84-2.41,5.17-3.4h3.22v25.14c-2.49,1-4.76,1.89-6.84,2.73a58.94,58.94,0,0,1-8.48,2.56,84,84,0,0,1-10.22,2A93.36,93.36,0,0,1,515.14,138.83Zm10.09-64q-.26-9.66-4.48-14.71t-12.91-5q-8.89,0-13.88,5.29t-5.52,14.45Z" fill="#231f20"/><path d="M700.82,87.41q0,24.1-13.18,38t-37.27,13.87q-23.93,0-37.2-13.87t-13.26-38q0-24.33,13.26-38.14t37.2-13.78q24,0,37.23,13.88T700.82,87.41Zm-31.23.18a61.41,61.41,0,0,0-1.44-14.47,26.62,26.62,0,0,0-4-9.26,14.77,14.77,0,0,0-6.09-5.1,19.63,19.63,0,0,0-7.73-1.43A20.52,20.52,0,0,0,643,58.59a14.21,14.21,0,0,0-6.08,4.83,26,26,0,0,0-4.19,9.3,59.59,59.59,0,0,0-1.57,14.86,58.2,58.2,0,0,0,1.48,14.5,27.88,27.88,0,0,0,3.84,8.82,14.35,14.35,0,0,0,6.09,5,20.33,20.33,0,0,0,8.09,1.56,19.34,19.34,0,0,0,7.44-1.56,13.78,13.78,0,0,0,6-4.69,27.32,27.32,0,0,0,4.09-9A60.18,60.18,0,0,0,669.59,87.59Z" fill="#231f20"/><path d="M772.15,23.84h-2.34c-1.16-.36-3-.79-5.45-1.35a32,32,0,0,0-7-.84c-6.14,0-10.33,1.14-12.56,3.39s-3.36,6.5-3.36,12.7v.79h24.19V59.76H742.48v76.46H712V59.76H699.87V38.54H712v-2.7q0-17.92,9.4-26.88t28.44-9c4.4,0,8.53.16,12.35.48s7.12.74,9.91,1.26Z" fill="#231f20"/><path d="M158,329H111.24V251H47.58V329H.8V152.95H47.58V217.4h63.66V152.95H158Z" fill="#231f20"/><path d="M707.12,294.06A133.48,133.48,0,0,1,677.79,291,117.84,117.84,0,0,1,655,283.7V249.6h3.62q3.13,2.17,7.14,4.84A65.35,65.35,0,0,0,676.84,260a90,90,0,0,0,13.83,4.54,69,69,0,0,0,16.69,1.9,46,46,0,0,0,16.32-2.66c4.71-1.75,7.07-4.56,7.07-8.4a7.8,7.8,0,0,0-3.26-6.79q-3.25-2.32-12.62-4.39c-3.34-.77-7.55-1.58-12.64-2.48a119.71,119.71,0,0,1-13.51-3q-16.5-4.71-24.82-14t-8.32-24.36A32.58,32.58,0,0,1,659.91,184a42.64,42.64,0,0,1,12.69-13.67A67.52,67.52,0,0,1,693.3,161a103.21,103.21,0,0,1,27.83-3.46,127.39,127.39,0,0,1,27.14,2.7,109.2,109.2,0,0,1,20.88,6.52v32.71h-3.5a76.54,76.54,0,0,0-7.14-4.31,95.94,95.94,0,0,0-9.5-4.66,72.48,72.48,0,0,0-12.31-3.81,64.44,64.44,0,0,0-13.95-1.5q-9.5,0-16.07,3c-4.39,2-6.57,4.65-6.57,7.95a8.25,8.25,0,0,0,3.25,6.91q3.25,2.53,14.13,5,5.62,1.27,12.94,2.48a109.13,109.13,0,0,1,14.07,3.27q15.13,4.5,23,13.2t7.8,23.1a35,35,0,0,1-4.62,17.33,40.44,40.44,0,0,1-13.13,13.88,70.9,70.9,0,0,1-21.2,9.44Q724.15,294.06,707.12,294.06Z" fill="#231f20"/><rect x="166.76" y="303.65" width="609.37" height="25.71" fill="#231f20"/><path d="M314.11,228.24q0,31.92-18.95,50.29T241.58,296.9q-34.4,0-53.46-18.37T169,228.24q0-32.24,19.07-50.51t53.46-18.26q34.51,0,53.53,18.38T314.11,228.24Zm-44.89.24a75.46,75.46,0,0,0-2.06-19.18,34.1,34.1,0,0,0-5.7-12.27,21.05,21.05,0,0,0-8.75-6.74,30.41,30.41,0,0,0-11.13-1.9A32.32,32.32,0,0,0,230.95,190a20.62,20.62,0,0,0-8.75,6.4,33.64,33.64,0,0,0-6,12.32,73.13,73.13,0,0,0-2.25,19.7q0,11.87,2.13,19.18a35,35,0,0,0,5.5,11.68,20.31,20.31,0,0,0,8.76,6.57A31,31,0,0,0,242,268a29.41,29.41,0,0,0,10.69-2.08,19.66,19.66,0,0,0,8.69-6.21,34.59,34.59,0,0,0,5.88-11.91Q269.22,240.79,269.22,228.47Z" fill="#231f20"/><path d="M321.13,379.77c-1.73,1.73-4,2.64-7.65,2.64h-2.89V392H307.2V366.34h6.42c3.07,0,5.11.46,6.7,1.59a6.93,6.93,0,0,1,3.07,6.13A8,8,0,0,1,321.13,379.77ZM318,370.25a8.06,8.06,0,0,0-4.58-1h-2.82v10.22h2.33c2.79,0,4.34-.39,5.46-1.51a5,5,0,0,0,1.45-3.81A4.32,4.32,0,0,0,318,370.25Z" fill="#6d6e70"/><path d="M350,392h-4.44l-8.11-10.19h-3.91V392h-3.38V366.34h6.59c3,0,4.72.21,6.52,1.37a6.12,6.12,0,0,1,2.93,5.57,7.64,7.64,0,0,1-5.32,7.54Zm-9-21.82a6.85,6.85,0,0,0-4.09-.88h-3.38v9.66h3c2,0,3.53-.21,4.65-1.3a5.34,5.34,0,0,0,1.45-4.05A3.82,3.82,0,0,0,341,370.14Z" fill="#6d6e70"/><path d="M355.56,392V366.34h16v3H358.94v7h11.77v3H358.94v9.52h12.62v3Z" fill="#6d6e70"/><path d="M377.59,390.45v-4.3h.21a12.16,12.16,0,0,0,8,3.35c3.77,0,5.71-1.73,5.71-4.3,0-2-1-3.31-3.17-3.91-1.59-.46-2.68-.7-4.65-1.16a8.54,8.54,0,0,1-4.23-2.29,7,7,0,0,1,.78-9.83,9.13,9.13,0,0,1,6.2-2.11,16.81,16.81,0,0,1,7.61,1.66v4.05h-.25a11.41,11.41,0,0,0-7.16-2.78c-3.14,0-5.29,1.62-5.29,4.05,0,2.15,1.13,3.42,3.35,4,.74.21,1.62.46,2.64.7l2.61.63c3.53,1.09,5.08,3.28,5.08,6.49a7.44,7.44,0,0,1-2.33,5.43,9,9,0,0,1-6.7,2.33A17.83,17.83,0,0,1,377.59,390.45Z" fill="#6d6e70"/><path d="M402,392V366.34h16v3H405.4v7h11.77v3H405.4v9.52H418v3Z" fill="#6d6e70"/><path d="M443.65,392H439.8l-11.31-22.1V392h-3.17V366.34h4.83l10.29,20.3v-20.3h3.21Z" fill="#6d6e70"/><path d="M458.34,392V369.37h-8.6v-3h20.59v3h-8.6V392Z" fill="#6d6e70"/><path d="M476.46,392V366.34h16v3H479.84v7h11.77v3H479.84v9.52h12.62v3Z" fill="#6d6e70"/><path d="M514.74,389.92a12.39,12.39,0,0,1-4,1.66,28.31,28.31,0,0,1-5.11.39h-5.89V366.34h5.82a21.87,21.87,0,0,1,5.67.56,11.92,11.92,0,0,1,3.53,1.48c3.28,2.15,5.18,5.82,5.18,10.79A12.77,12.77,0,0,1,514.74,389.92Zm-2.22-19.11c-1.83-1.13-3.67-1.55-6.77-1.55h-2.61V389h2.61c3.07,0,5.22-.42,7.09-1.69,2.4-1.66,3.56-4.23,3.56-8.21S515.09,372.36,512.52,370.81Z" fill="#6d6e70"/><path d="M556.4,389.88c-1.94,1.51-3.88,2.08-7.37,2.08H541.7V366.34h6.8a37.68,37.68,0,0,1,4.09.18,7.2,7.2,0,0,1,2.64.85,5,5,0,0,1,2.64,4.76,6,6,0,0,1-3.59,5.46v.14a6.16,6.16,0,0,1,4.79,6.38A7,7,0,0,1,556.4,389.88Zm-3.38-20c-1.09-.67-2.26-.7-4.65-.7h-3.28v7.51H549a12.67,12.67,0,0,0,2.36-.14,4.46,4.46,0,0,0,1.59-.7,3.52,3.52,0,0,0,1.41-3.28A2.72,2.72,0,0,0,553,369.93Zm.42,10.33c-1.09-.56-2.11-.67-4.48-.67h-3.88V389h2.79c3,0,4.51-.18,5.82-1.06a4,4,0,0,0,1.83-3.74C555.52,382.31,555.13,381.14,553.44,380.26Z" fill="#6d6e70"/><path d="M583.93,366.34l-8.67,14.27V392h-3.42V381l-8.64-14.63H567l6.63,11.31,6.7-11.31Z" fill="#6d6e70"/><path d="M642.34,393.39V350.31h-38s-4.82-.62-4.82,5v38.12Z" fill="#a3271c"/><path d="M721.7,393.41V358.54H708.77l-2.82-8.23h52.49v5l-6.67,3.18H732.6v34.87Z" fill="#404041"/><path d="M759.06,393.33q-9.75,0-15.5-5.63t-5.74-15.85q0-9.85,5.75-15.71t15.52-5.86a35,35,0,0,1,4.66.28,32.18,32.18,0,0,1,4,.78,29.62,29.62,0,0,1,3.24,1.14c1.17.49,2.11.91,2.83,1.25v9.88h-1.11c-.52-.45-1.19-1-2-1.6a24.89,24.89,0,0,0-2.71-1.82,18.33,18.33,0,0,0-3.33-1.52,11.68,11.68,0,0,0-3.81-.63,12.6,12.6,0,0,0-4.33.71,10.32,10.32,0,0,0-3.74,2.47,11.74,11.74,0,0,0-2.66,4.28,17.68,17.68,0,0,0-1,6.36,17.21,17.21,0,0,0,1.07,6.51,11.74,11.74,0,0,0,2.82,4.24,10.34,10.34,0,0,0,3.78,2.26,13.06,13.06,0,0,0,4.15.69,12.29,12.29,0,0,0,4.11-.68,16.38,16.38,0,0,0,3.29-1.51,22.15,22.15,0,0,0,2.57-1.76q1.11-.89,1.93-1.58h1v9.74L771,391a28.27,28.27,0,0,1-3.23,1.15A34.43,34.43,0,0,1,764,393,28.87,28.87,0,0,1,759.06,393.33Z" fill="#404041"/><path d="M702.07,376.79l-4.43-14.21-4.43,14.21Zm-25.64,16.62a14.45,14.45,0,0,0,9.16-10.18,16.7,16.7,0,0,0-1.61-9.8l7.86-23.13h11.89l14.66,43.11H707.17l-2.7-8.8H690.83l-2.71,8.8Z" fill="#404041"/><path d="M683.74,380.28a12.4,12.4,0,0,1-1.22,5.65,11.66,11.66,0,0,1-3.3,4,15.08,15.08,0,0,1-5.37,2.72,28.49,28.49,0,0,1-7.44.81H649v-43.2h15.33a54.76,54.76,0,0,1,7.24.36,14.09,14.09,0,0,1,4.61,1.53,8.31,8.31,0,0,1,3.48,3.34,9.83,9.83,0,0,1,1.15,4.81,10.16,10.16,0,0,1-1.59,5.63,9.3,9.3,0,0,1-4.38,3.63v.24a11.93,11.93,0,0,1,6.44,3.43A9.92,9.92,0,0,1,683.74,380.28Zm-14-17.75a5,5,0,0,0-.54-2.15,3.26,3.26,0,0,0-1.68-1.6,6.76,6.76,0,0,0-2.55-.51c-1,0-2.45,0-4.39,0h-.75v9.14h1.37c1.87,0,3.18,0,3.92-.06a6.26,6.26,0,0,0,2.32-.61,3.5,3.5,0,0,0,1.8-1.68A5.85,5.85,0,0,0,669.79,362.53Zm2.73,17.55a5.28,5.28,0,0,0-.82-3.14,4.91,4.91,0,0,0-2.45-1.71,8.46,8.46,0,0,0-2.72-.42c-1.16,0-2.71,0-4.66,0h-2v10.82h.59q4.25,0,5.89-.06a9.33,9.33,0,0,0,3.32-.78,4.33,4.33,0,0,0,2.16-1.88A5.58,5.58,0,0,0,672.53,380.08Z" fill="#404041"/><polyline points="606.47 368.14 617.12 358.18 627.58 367.67 625.52 367.67 625.52 380.2 615.33 380.2 615.33 370.46 613.29 370.46 624.59 360.48 635.35 370.46 632.44 370.46 632.44 385.86 616 385.86 615.89 383.02 608.97 383.02 608.97 358.17 611.87 358.17 611.87 359.33" fill="none" stroke="#fff" stroke-linecap="round" stroke-linejoin="round" stroke-width="1.84"/><path d="M787.51,168.24a12.42,12.42,0,1,1-.08,24.84,12.42,12.42,0,1,1,0-24.84Zm-.15,2.5a9.89,9.89,0,0,0,.15,19.77c5.31.07,9.36-4.38,9.36-9.82s-4-10-9.43-10ZM785.49,187h-2.84V174.66a33.41,33.41,0,0,1,4.71-.37c2.32,0,3.36.37,4.19,1a3.11,3.11,0,0,1,1.27,2.64,3.18,3.18,0,0,1-2.54,2.94V181c1.2.37,1.79,1.35,2.17,3a10.51,10.51,0,0,0,.9,3h-3a9.7,9.7,0,0,1-1-3c-.22-1.27-1-1.88-2.53-1.88h-1.35Zm.07-6.93h1.35c1.57,0,2.84-.53,2.84-1.82,0-1.13-.81-1.89-2.62-1.89a6.82,6.82,0,0,0-1.57.15Z" fill="#231f20"/></g></svg>