<svg xmlns="http://www.w3.org/2000/svg" xmlns:xlink="http://www.w3.org/1999/xlink" viewBox="0 0 800 217.6"><defs><clipPath id="clip-path"><path d="M226.09,109.65A54.91,54.91,0,1,1,281,164.56a54.86,54.86,0,0,1-54.91-54.91m-51.17,0A106.08,106.08,0,1,0,281,3.57,106,106,0,0,0,174.93,109.65" fill="none"/></clipPath></defs><title>logo__coco</title><g id="COCO"><path d="M782.28,193.89a8.34,8.34,0,0,1,8.32,8.32,8.22,8.22,0,1,1-8.32-8.32m0,14.35a6.24,6.24,0,1,0-6-6.24,6.08,6.08,0,0,0,6,6.24m1.66-1.87-2.29-3.12h-.42v3.12h-1.87v-8.53h2.08c2.91,0,4,.83,4,2.5a2.7,2.7,0,0,1-1.66,2.5l2.5,3.54Zm-2.7-7.07v2.29c1.46,0,2.29-.21,2.29-1,0-1-.62-1.25-2.29-1.25" fill="#566070"/><path d="M689.93,3.57A106.08,106.08,0,1,0,796,109.65,106,106,0,0,0,689.93,3.57m0,160.78a54.91,54.91,0,1,1,54.91-54.91,54.86,54.86,0,0,1-54.91,54.91" fill="#566070"/><path d="M677.24,35.81a4.21,4.21,0,0,0-5.2-2.7,4,4,0,0,0-2.7,5.2,4.21,4.21,0,0,0,5.2,2.7,4,4,0,0,0,2.7-5.2" fill="#f05b64"/><path d="M721.76,6.9a4.14,4.14,0,1,0-7.9,2.5,4.14,4.14,0,1,0,7.9-2.5" fill="#f05b64"/><polygon points="674.54 37.48 672.25 36.65 684.52 2.74 718.01 6.9 717.8 9.19 686.19 5.45 674.54 37.48" fill="#f05b64"/><rect x="650.46" y="43.73" width="2.5" height="23.5" transform="translate(115.09 429.44) rotate(-39.74)" fill="#f05b64"/><rect x="634" y="21.8" width="2.5" height="27.87" transform="translate(127.7 419.42) rotate(-40.31)" fill="#f05b64"/><path d="M709.69,23.54a4.14,4.14,0,1,0-5.62,1.66c2.08,1.25,4.37.42,5.62-1.66" fill="#f05b64"/><path d="M631.28,131.08a4.14,4.14,0,1,0-5.62,1.66,4.22,4.22,0,0,0,5.62-1.66" fill="#f05b64"/><path d="M730.91,48.5a4.14,4.14,0,1,0-5.62,1.66,4.1,4.1,0,0,0,5.62-1.66" fill="#f05b64"/><path d="M730.91,48.5a4.14,4.14,0,1,0-5.62,1.66,3.93,3.93,0,0,0,5.62-1.66" fill="#f05b64"/><path d="M700.75,57a4.14,4.14,0,1,0-5.62,1.66A3.93,3.93,0,0,0,700.75,57" fill="#f05b64"/><path d="M647.92,48.5a4.14,4.14,0,1,0-5.62,1.66,4.1,4.1,0,0,0,5.62-1.66" fill="#f05b64"/><path d="M662.89,66.39a4.14,4.14,0,1,0-5.62,1.66c2.29,1,4.58.42,5.62-1.66" fill="#f05b64"/><path d="M639.6,99.67a4.14,4.14,0,1,0-5.62,1.66,4.28,4.28,0,0,0,5.62-1.66" fill="#f05b64"/><path d="M612.76,95.51a4.14,4.14,0,1,0-5.62,1.66,3.93,3.93,0,0,0,5.62-1.66" fill="#f05b64"/><path d="M631.28,80.53a4.14,4.14,0,1,0-5.62,1.66,3.89,3.89,0,0,0,5.62-1.66" fill="#f05b64"/><path d="M625.87,44.55a4.14,4.14,0,1,0-5.62,1.66,4.28,4.28,0,0,0,5.62-1.66" fill="#f05b64"/><path d="M604.65,54.12A4.28,4.28,0,0,0,603,48.5a4.34,4.34,0,0,0-5.62,1.66A4.28,4.28,0,0,0,599,55.78a3.93,3.93,0,0,0,5.62-1.66" fill="#f05b64"/><path d="M593,78a4.14,4.14,0,1,0-5.62,1.66A3.93,3.93,0,0,0,593,78" fill="#f05b64"/><path d="M587.6,109a4.14,4.14,0,1,0-5.62,1.66A3.93,3.93,0,0,0,587.6,109" fill="#f05b64"/><path d="M591.76,141.68a4.28,4.28,0,0,0-1.66-5.62,4.34,4.34,0,0,0-5.62,1.66,4.14,4.14,0,1,0,7.28,4" fill="#f05b64"/><path d="M656.44,152.08a4.14,4.14,0,1,0-5.62,1.66,3.93,3.93,0,0,0,5.62-1.66" fill="#f05b64"/><path d="M639,161.86a4.14,4.14,0,1,0-5.62,1.66,3.93,3.93,0,0,0,5.62-1.66" fill="#f05b64"/><path d="M608,173.92a4.14,4.14,0,1,0-5.62,1.66,3.93,3.93,0,0,0,5.62-1.66" fill="#f05b64"/><path d="M641.68,204.5a4.14,4.14,0,1,0-5.62,1.66,4.1,4.1,0,0,0,5.62-1.66" fill="#f05b64"/><path d="M660.6,172.68a4.14,4.14,0,1,0-5.62,1.66,4.1,4.1,0,0,0,5.62-1.66" fill="#f05b64"/><path d="M684.94,175a4.14,4.14,0,1,0-5.62,1.66,4.1,4.1,0,0,0,5.62-1.66" fill="#f05b64"/><path d="M715.52,161.86a4.14,4.14,0,1,0-5.62,1.66,3.93,3.93,0,0,0,5.62-1.66" fill="#f05b64"/><path d="M704.7,203a4.14,4.14,0,1,0-5.62,1.66A3.93,3.93,0,0,0,704.7,203" fill="#f05b64"/><path d="M682.86,190.77a4.14,4.14,0,1,0-5.62,1.66,3.93,3.93,0,0,0,5.62-1.66" fill="#f05b64"/><path d="M660.6,204.5a4.14,4.14,0,1,0-5.62,1.66,4.1,4.1,0,0,0,5.62-1.66" fill="#f05b64"/><path d="M643.13,184.74a4.14,4.14,0,1,0-5.62,1.66,3.93,3.93,0,0,0,5.62-1.66" fill="#f05b64"/><path d="M732.78,194.93a4.14,4.14,0,1,0-5.62,1.66,4.28,4.28,0,0,0,5.62-1.66" fill="#f05b64"/><path d="M748.38,159.78a4.14,4.14,0,1,0-5.62,1.66,3.93,3.93,0,0,0,5.62-1.66" fill="#f05b64"/><path d="M772.09,141.68a4.14,4.14,0,1,0-5.62,1.66,4.28,4.28,0,0,0,5.62-1.66" fill="#f05b64"/><path d="M765.23,114.44a4.28,4.28,0,0,0-1.66-5.62,4.34,4.34,0,0,0-5.62,1.66,4.28,4.28,0,0,0,1.66,5.62,4.34,4.34,0,0,0,5.62-1.66" fill="#f05b64"/><path d="M747.13,97.59a4.14,4.14,0,1,0-5.62,1.66,3.93,3.93,0,0,0,5.62-1.66" fill="#f05b64"/><path d="M792.89,74.29A4.14,4.14,0,1,0,787.28,76c2.08,1.25,4.37.42,5.62-1.66" fill="#f05b64"/><path d="M799.55,115.27a4.28,4.28,0,0,0-1.66-5.62,4.34,4.34,0,0,0-5.62,1.66,4.14,4.14,0,1,0,7.28,4" fill="#f05b64"/><path d="M794.56,141.27a4.14,4.14,0,1,0-5.62,1.66,4.28,4.28,0,0,0,5.62-1.66" fill="#f05b64"/><path d="M754,199.09a4.14,4.14,0,1,0-5.62,1.66,4.22,4.22,0,0,0,5.62-1.66" fill="#f05b64"/><path d="M781.87,170.8a4.14,4.14,0,1,0-5.62,1.66,3.93,3.93,0,0,0,5.62-1.66" fill="#f05b64"/><path d="M741.52,138.36A4.14,4.14,0,1,0,735.9,140a4.1,4.1,0,0,0,5.62-1.66" fill="#f05b64"/><path d="M630,26.66a4.14,4.14,0,1,0-5.62,1.66A4.34,4.34,0,0,0,630,26.66" fill="#f05b64"/><path d="M688.89,6.07A4.28,4.28,0,0,0,687.23.45a4.28,4.28,0,0,0-5.62,1.66,4.28,4.28,0,0,0,1.66,5.62,4.22,4.22,0,0,0,5.62-1.66" fill="#f05b64"/><path d="M668.09,27.7a4.14,4.14,0,1,0-5.62,1.66,4.1,4.1,0,0,0,5.62-1.66" fill="#f05b64"/><path d="M660.6,11.27a4.28,4.28,0,0,0-1.66-5.62,4.34,4.34,0,0,0-5.62,1.66A4.28,4.28,0,0,0,655,12.93a4.1,4.1,0,0,0,5.62-1.66" fill="#f05b64"/><path d="M781.87,56.61a4.14,4.14,0,1,0-5.62,1.66,3.93,3.93,0,0,0,5.62-1.66" fill="#f05b64"/><polygon points="734.86 80.74 725.5 45.17 778.54 53.49 778.12 55.99 728.83 48.29 737.15 80.12 734.86 80.74" fill="#f05b64"/><path d="M776.46,58.28a4.1,4.1,0,1,0-2.08-5.41,4.41,4.41,0,0,0,2.08,5.41" fill="#f05b64"/><path d="M751.08,69.92A4.1,4.1,0,1,0,749,64.52a4,4,0,0,0,2.08,5.41" fill="#f05b64"/><path d="M759,35.4a4.1,4.1,0,1,0,3.33-7.49A4,4,0,0,0,756.91,30,4.41,4.41,0,0,0,759,35.4" fill="#f05b64"/><path d="M738.19,20.21a4,4,0,0,0,5.41-2.08,4.1,4.1,0,0,0-7.49-3.33,4.13,4.13,0,0,0,2.08,5.41" fill="#f05b64"/><path d="M734.24,84.07a4.1,4.1,0,1,0-2.08-5.41,4.2,4.2,0,0,0,2.08,5.41" fill="#f05b64"/><path d="M711.56,63.68A4,4,0,0,0,717,61.6a4.13,4.13,0,0,0-2.08-5.41,4,4,0,0,0-5.41,2.08,4.41,4.41,0,0,0,2.08,5.41" fill="#f05b64"/><path d="M770.84,109.65a4.1,4.1,0,1,0-2.08-5.41,4.2,4.2,0,0,0,2.08,5.41" fill="#f05b64"/><path d="M727,24.16a3.63,3.63,0,1,0,1.87,4.78A3.65,3.65,0,0,0,727,24.16" fill="#f05b64"/><rect x="720.33" y="7.51" width="2.5" height="20.8" transform="translate(42.51 262.57) rotate(-21.24)" fill="#f05b64"/><polygon points="666.22 27.08 626.28 26.45 626.28 23.96 662.48 24.58 655.82 9.81 658.11 8.77 666.22 27.08" fill="#f05b64"/><rect x="689.31" y="182.08" width="2.5" height="25.79" transform="translate(193.37 712.37) rotate(-61.91)" fill="#f05b64"/><polygon points="656.03 203.46 637.93 183.08 650.83 151.25 585.31 140.85 633.57 98.63 607.98 94.47 599.45 50.79 659.57 63.27 659.15 65.77 602.57 53.91 610.06 92.39 639.18 96.96 590.92 139.19 654.37 149.38 640.85 182.66 657.9 201.8 656.03 203.46" fill="#f05b64"/><polygon points="726.96 47.88 669.34 37.69 705.53 20.63 706.57 22.92 677.25 36.65 727.37 45.59 726.96 47.88" fill="#f05b64"/><path d="M627.12,82.61l-6-39.73,2.5-.42,5,32.45L643.76,45.8,686.4,1.7l12.48,55.12-53.66-8.74ZM646.88,45.8l48.67,7.9L684.73,6.49Z" fill="#f05b64"/><rect x="607.28" y="58.17" width="2.5" height="38.48" transform="translate(492.47 679.77) rotate(-86.34)" fill="#f05b64"/><path d="M630.65,131.91l-49.3-25,28.08-15Zm-43.89-25.17L625,126.29l-16.43-31.2Z" fill="#f05b64"/><polygon points="674.96 217.6 656.24 172.26 601.95 173.51 628.16 125.88 636.48 159.99 634.19 160.61 627.33 132.53 606.11 171.01 657.69 169.76 675.37 212.4 711.36 158.53 749.63 194.93 766.89 140.85 737.77 137.73 738.19 135.24 770.01 138.56 750.88 199.51 711.77 162.28 674.96 217.6" fill="#f05b64"/><polygon points="790.81 140.64 740.68 95.3 788.52 71.38 789.56 73.46 744.84 95.72 792.48 138.77 790.81 140.64" fill="#f05b64"/><polygon points="777.92 169.76 743.18 158.74 760.44 111.94 762.73 112.77 746.3 157.28 778.54 167.48 777.92 169.76" fill="#f05b64"/><polygon points="721.34 212.2 699.09 202.21 743.8 157.08 745.68 158.74 703.25 201.38 722.38 210.12 721.34 212.2" fill="#f05b64"/><polygon points="637.93 204.08 603.2 173.09 604.86 171.22 638.14 200.96 680.37 171.64 680.99 172.05 729.66 192.64 728.62 194.93 680.78 174.55 637.93 204.08" fill="#f05b64"/><rect x="709.72" y="148.91" width="60.53" height="2.5" transform="matrix(0.94, -0.34, 0.34, 0.94, -6.74, 262.06)" fill="#f05b64"/><polygon points="771.26 106.53 751.5 65.97 760.03 31.24 762.52 31.86 754 65.77 773.34 105.49 771.26 106.53" fill="#f05b64"/><polygon points="795.6 114.44 771.05 106.95 777.08 54.95 760.86 33.11 728 47.67 714.68 61.6 713.02 59.94 726.75 45.59 761.69 30.2 779.58 54.33 773.76 105.08 796.22 112.15 795.6 114.44" fill="#f05b64"/><rect x="745.06" y="15.76" width="2.5" height="50.96" transform="translate(13.51 188.5) rotate(-14.53)" fill="#f05b64"/><path d="M677.24,35.81a4.21,4.21,0,0,0-5.2-2.7,4,4,0,0,0-2.7,5.2,4.21,4.21,0,0,0,5.2,2.7,4,4,0,0,0,2.7-5.2" fill="#f05b64"/><path d="M721.76,6.9a4.14,4.14,0,1,0-7.9,2.5,4.14,4.14,0,1,0,7.9-2.5" fill="#f05b64"/><polygon points="674.54 37.48 672.25 36.65 684.52 2.74 718.01 6.9 717.8 9.19 686.19 5.45 674.54 37.48" fill="#f05b64"/><rect x="650.46" y="43.73" width="2.5" height="23.5" transform="translate(115.09 429.44) rotate(-39.74)" fill="#f05b64"/><rect x="634" y="21.8" width="2.5" height="27.87" transform="translate(127.7 419.42) rotate(-40.31)" fill="#f05b64"/><path d="M709.69,23.54a4.14,4.14,0,1,0-5.62,1.66c2.08,1.25,4.37.42,5.62-1.66" fill="#f05b64"/><path d="M631.28,131.08a4.14,4.14,0,1,0-5.62,1.66,4.22,4.22,0,0,0,5.62-1.66" fill="#f05b64"/><path d="M730.91,48.5a4.14,4.14,0,1,0-5.62,1.66,4.1,4.1,0,0,0,5.62-1.66" fill="#f05b64"/><path d="M730.91,48.5a4.14,4.14,0,1,0-5.62,1.66,3.93,3.93,0,0,0,5.62-1.66" fill="#f05b64"/><path d="M700.75,57a4.14,4.14,0,1,0-5.62,1.66A3.93,3.93,0,0,0,700.75,57" fill="#f05b64"/><path d="M647.92,48.5a4.14,4.14,0,1,0-5.62,1.66,4.1,4.1,0,0,0,5.62-1.66" fill="#f05b64"/><path d="M662.89,66.39a4.14,4.14,0,1,0-5.62,1.66c2.29,1,4.58.42,5.62-1.66" fill="#f05b64"/><path d="M639.6,99.67a4.14,4.14,0,1,0-5.62,1.66,4.28,4.28,0,0,0,5.62-1.66" fill="#f05b64"/><path d="M612.76,95.51a4.14,4.14,0,1,0-5.62,1.66,3.93,3.93,0,0,0,5.62-1.66" fill="#f05b64"/><path d="M631.28,80.53a4.14,4.14,0,1,0-5.62,1.66,3.89,3.89,0,0,0,5.62-1.66" fill="#f05b64"/><path d="M625.87,44.55a4.14,4.14,0,1,0-5.62,1.66,4.28,4.28,0,0,0,5.62-1.66" fill="#f05b64"/><path d="M604.65,54.12A4.28,4.28,0,0,0,603,48.5a4.34,4.34,0,0,0-5.62,1.66A4.28,4.28,0,0,0,599,55.78a3.93,3.93,0,0,0,5.62-1.66" fill="#f05b64"/><path d="M593,78a4.14,4.14,0,1,0-5.62,1.66A3.93,3.93,0,0,0,593,78" fill="#f05b64"/><path d="M587.6,109a4.14,4.14,0,1,0-5.62,1.66A3.93,3.93,0,0,0,587.6,109" fill="#f05b64"/><path d="M591.76,141.68a4.28,4.28,0,0,0-1.66-5.62,4.34,4.34,0,0,0-5.62,1.66,4.14,4.14,0,1,0,7.28,4" fill="#f05b64"/><path d="M656.44,152.08a4.14,4.14,0,1,0-5.62,1.66,3.93,3.93,0,0,0,5.62-1.66" fill="#f05b64"/><path d="M639,161.86a4.14,4.14,0,1,0-5.62,1.66,3.93,3.93,0,0,0,5.62-1.66" fill="#f05b64"/><path d="M608,173.92a4.14,4.14,0,1,0-5.62,1.66,3.93,3.93,0,0,0,5.62-1.66" fill="#f05b64"/><path d="M641.68,204.5a4.14,4.14,0,1,0-5.62,1.66,4.1,4.1,0,0,0,5.62-1.66" fill="#f05b64"/><path d="M660.6,172.68a4.14,4.14,0,1,0-5.62,1.66,4.1,4.1,0,0,0,5.62-1.66" fill="#f05b64"/><path d="M684.94,175a4.14,4.14,0,1,0-5.62,1.66,4.1,4.1,0,0,0,5.62-1.66" fill="#f05b64"/><path d="M715.52,161.86a4.14,4.14,0,1,0-5.62,1.66,3.93,3.93,0,0,0,5.62-1.66" fill="#f05b64"/><path d="M704.7,203a4.14,4.14,0,1,0-5.62,1.66A3.93,3.93,0,0,0,704.7,203" fill="#f05b64"/><path d="M682.86,190.77a4.14,4.14,0,1,0-5.62,1.66,3.93,3.93,0,0,0,5.62-1.66" fill="#f05b64"/><path d="M660.6,204.5a4.14,4.14,0,1,0-5.62,1.66,4.1,4.1,0,0,0,5.62-1.66" fill="#f05b64"/><path d="M643.13,184.74a4.14,4.14,0,1,0-5.62,1.66,3.93,3.93,0,0,0,5.62-1.66" fill="#f05b64"/><path d="M732.78,194.93a4.14,4.14,0,1,0-5.62,1.66,4.28,4.28,0,0,0,5.62-1.66" fill="#f05b64"/><path d="M748.38,159.78a4.14,4.14,0,1,0-5.62,1.66,3.93,3.93,0,0,0,5.62-1.66" fill="#f05b64"/><path d="M772.09,141.68a4.14,4.14,0,1,0-5.62,1.66,4.28,4.28,0,0,0,5.62-1.66" fill="#f05b64"/><path d="M765.23,114.44a4.28,4.28,0,0,0-1.66-5.62,4.34,4.34,0,0,0-5.62,1.66,4.28,4.28,0,0,0,1.66,5.62,4.34,4.34,0,0,0,5.62-1.66" fill="#f05b64"/><path d="M747.13,97.59a4.14,4.14,0,1,0-5.62,1.66,3.93,3.93,0,0,0,5.62-1.66" fill="#f05b64"/><path d="M792.89,74.29A4.14,4.14,0,1,0,787.28,76c2.08,1.25,4.37.42,5.62-1.66" fill="#f05b64"/><path d="M799.55,115.27a4.28,4.28,0,0,0-1.66-5.62,4.34,4.34,0,0,0-5.62,1.66,4.14,4.14,0,1,0,7.28,4" fill="#f05b64"/><path d="M794.56,141.27a4.14,4.14,0,1,0-5.62,1.66,4.28,4.28,0,0,0,5.62-1.66" fill="#f05b64"/><path d="M754,199.09a4.14,4.14,0,1,0-5.62,1.66,4.22,4.22,0,0,0,5.62-1.66" fill="#f05b64"/><path d="M781.87,170.8a4.14,4.14,0,1,0-5.62,1.66,3.93,3.93,0,0,0,5.62-1.66" fill="#f05b64"/><path d="M741.52,138.36A4.14,4.14,0,1,0,735.9,140a4.1,4.1,0,0,0,5.62-1.66" fill="#f05b64"/><path d="M630,26.66a4.14,4.14,0,1,0-5.62,1.66A4.34,4.34,0,0,0,630,26.66" fill="#f05b64"/><path d="M688.89,6.07A4.28,4.28,0,0,0,687.23.45a4.28,4.28,0,0,0-5.62,1.66,4.28,4.28,0,0,0,1.66,5.62,4.22,4.22,0,0,0,5.62-1.66" fill="#f05b64"/><path d="M668.09,27.7a4.14,4.14,0,1,0-5.62,1.66,4.1,4.1,0,0,0,5.62-1.66" fill="#f05b64"/><path d="M660.6,11.27a4.28,4.28,0,0,0-1.66-5.62,4.34,4.34,0,0,0-5.62,1.66A4.28,4.28,0,0,0,655,12.93a4.1,4.1,0,0,0,5.62-1.66" fill="#f05b64"/><path d="M781.87,56.61a4.14,4.14,0,1,0-5.62,1.66,3.93,3.93,0,0,0,5.62-1.66" fill="#f05b64"/><polygon points="734.86 80.74 725.5 45.17 778.54 53.49 778.12 55.99 728.83 48.29 737.15 80.12 734.86 80.74" fill="#f05b64"/><path d="M776.46,58.28a4.1,4.1,0,1,0-2.08-5.41,4.41,4.41,0,0,0,2.08,5.41" fill="#f05b64"/><path d="M751.08,69.92A4.1,4.1,0,1,0,749,64.52a4,4,0,0,0,2.08,5.41" fill="#f05b64"/><path d="M759,35.4a4.1,4.1,0,1,0,3.33-7.49A4,4,0,0,0,756.91,30,4.41,4.41,0,0,0,759,35.4" fill="#f05b64"/><path d="M738.19,20.21a4,4,0,0,0,5.41-2.08,4.1,4.1,0,0,0-7.49-3.33,4.13,4.13,0,0,0,2.08,5.41" fill="#f05b64"/><path d="M734.24,84.07a4.1,4.1,0,1,0-2.08-5.41,4.2,4.2,0,0,0,2.08,5.41" fill="#f05b64"/><path d="M711.56,63.68A4,4,0,0,0,717,61.6a4.13,4.13,0,0,0-2.08-5.41,4,4,0,0,0-5.41,2.08,4.41,4.41,0,0,0,2.08,5.41" fill="#f05b64"/><path d="M770.84,109.65a4.1,4.1,0,1,0-2.08-5.41,4.2,4.2,0,0,0,2.08,5.41" fill="#f05b64"/><path d="M727,24.16a3.63,3.63,0,1,0,1.87,4.78A3.65,3.65,0,0,0,727,24.16" fill="#f05b64"/><rect x="720.33" y="7.51" width="2.5" height="20.8" transform="translate(42.51 262.57) rotate(-21.24)" fill="#f05b64"/><polygon points="666.22 27.08 626.28 26.45 626.28 23.96 662.48 24.58 655.82 9.81 658.11 8.77 666.22 27.08" fill="#f05b64"/><rect x="689.31" y="182.08" width="2.5" height="25.79" transform="translate(193.37 712.37) rotate(-61.91)" fill="#f05b64"/><polygon points="656.03 203.46 637.93 183.08 650.83 151.25 585.31 140.85 633.57 98.63 607.98 94.47 599.45 50.79 659.57 63.27 659.15 65.77 602.57 53.91 610.06 92.39 639.18 96.96 590.92 139.19 654.37 149.38 640.85 182.66 657.9 201.8 656.03 203.46" fill="#f05b64"/><polygon points="726.96 47.88 669.34 37.69 705.53 20.63 706.57 22.92 677.25 36.65 727.37 45.59 726.96 47.88" fill="#f05b64"/><path d="M627.12,82.61l-6-39.73,2.5-.42,5,32.45L643.76,45.8,686.4,1.7l12.48,55.12-53.66-8.74ZM646.88,45.8l48.67,7.9L684.73,6.49Z" fill="#f05b64"/><rect x="607.28" y="58.17" width="2.5" height="38.48" transform="translate(492.47 679.77) rotate(-86.34)" fill="#f05b64"/><path d="M630.65,131.91l-49.3-25,28.08-15Zm-43.89-25.17L625,126.29l-16.43-31.2Z" fill="#f05b64"/><polygon points="674.96 217.6 656.24 172.26 601.95 173.51 628.16 125.88 636.48 159.99 634.19 160.61 627.33 132.53 606.11 171.01 657.69 169.76 675.37 212.4 711.36 158.53 749.63 194.93 766.89 140.85 737.77 137.73 738.19 135.24 770.01 138.56 750.88 199.51 711.77 162.28 674.96 217.6" fill="#f05b64"/><polygon points="790.81 140.64 740.68 95.3 788.52 71.38 789.56 73.46 744.84 95.72 792.48 138.77 790.81 140.64" fill="#f05b64"/><polygon points="777.92 169.76 743.18 158.74 760.44 111.94 762.73 112.77 746.3 157.28 778.54 167.48 777.92 169.76" fill="#f05b64"/><polygon points="721.34 212.2 699.09 202.21 743.8 157.08 745.68 158.74 703.25 201.38 722.38 210.12 721.34 212.2" fill="#f05b64"/><polygon points="637.93 204.08 603.2 173.09 604.86 171.22 638.14 200.96 680.37 171.64 680.99 172.05 729.66 192.64 728.62 194.93 680.78 174.55 637.93 204.08" fill="#f05b64"/><rect x="709.72" y="148.91" width="60.53" height="2.5" transform="matrix(0.94, -0.34, 0.34, 0.94, -6.74, 262.06)" fill="#f05b64"/><polygon points="771.26 106.53 751.5 65.97 760.03 31.24 762.52 31.86 754 65.77 773.34 105.49 771.26 106.53" fill="#f05b64"/><polygon points="795.6 114.44 771.05 106.95 777.08 54.95 760.86 33.11 728 47.67 714.68 61.6 713.02 59.94 726.75 45.59 761.69 30.2 779.58 54.33 773.76 105.08 796.22 112.15 795.6 114.44" fill="#f05b64"/><rect x="745.06" y="15.76" width="2.5" height="50.96" transform="translate(13.51 188.5) rotate(-14.53)" fill="#f05b64"/><path d="M11.23,62.23a71.42,71.42,0,0,0-4,9.15l33.28,9.78Z" fill="#ebedef"/><path d="M28.5,37.27a83.7,83.7,0,0,0-7.7,9.36l36,23.09Z" fill="#ebedef"/><path d="M7.07,147.92c1.25,3.12,2.5,6,4,9.15l29.12-18.72Z" fill="#ebedef"/><path d="M1.66,90.72C1.25,93,1,95.09.62,97.38H24.54Z" fill="#ebedef"/><path d="M.62,121.72a63.69,63.69,0,0,0,1,6.66l22.88-6.66Z" fill="#ebedef"/><path d="M52.21,18.13a119.07,119.07,0,0,0-11.86,8.11L73.42,64.31Z" fill="#ebedef"/><path d="M136.86,64.31l33.49-38.9A108.3,108.3,0,0,0,150,13.14L129,59.73a60,60,0,0,1,7.9,4.58" fill="#ebedef"/><path d="M142.69,68.88l16.64-21.42L141.65,68.05a3.65,3.65,0,0,1,1,.83" fill="#ebedef"/><path d="M121.26,57l21.22-47a101.53,101.53,0,0,0-20.8-5.2l-7.07,50.75A34.4,34.4,0,0,1,121.26,57" fill="#ebedef"/><path d="M88.19,57.86,80.7,6.69a108.08,108.08,0,0,0-15.81,5.2L86.32,58.48l1.87-.62" fill="#ebedef"/><path d="M20.59,172.47c2.29,3.12,5,6.24,7.7,9.36l28.29-32.45Z" fill="#ebedef"/><path d="M104.62,54.74l7.07-51a98.2,98.2,0,0,0-19.14.62l7.28,50.75a40.61,40.61,0,0,1,4.78-.42" fill="#ebedef"/><path d="M142.69,150.42c-.42.21-.62.62-1,.83l17.68,20.59Z" fill="#ebedef"/><path d="M40.35,192.85A91.87,91.87,0,0,0,52.21,201l21.22-46.18Z" fill="#ebedef"/><path d="M104.62,164.36a34,34,0,0,1-4.58-.42l-7.28,50.75a97.66,97.66,0,0,0,19.14.62Z" fill="#ebedef"/><path d="M142.48,209.08l-21.22-46.8a36,36,0,0,1-6.45,1.46l7.07,50.75a103.68,103.68,0,0,0,20.59-5.41" fill="#ebedef"/><path d="M86.32,160.82,64.9,207.41a108.08,108.08,0,0,0,15.81,5.2l7.49-51.17-1.87-.62" fill="#ebedef"/><path d="M170.35,193.89l-33.49-39.1a60,60,0,0,1-7.9,4.58L150,206a107.2,107.2,0,0,0,20.38-12.06" fill="#ebedef"/><path d="M174.1,190.77l-14.77-18.93-17.68-20.59c-1.46,1.25-3.12,2.5-4.78,3.74l33.49,38.9,3.74-3.12" fill="#566070"/><path d="M150,206l-21-46.59c-2.5,1-5,2.08-7.7,2.91l21.22,47c2.5-1,5-2.08,7.49-3.33" fill="#566070"/><path d="M121.89,214.48l-7.07-50.75a41.37,41.37,0,0,1-10.19.62l7.07,51a87.7,87.7,0,0,0,10.19-.83" fill="#566070"/><path d="M88.19,161.44,80.7,212.61a119.05,119.05,0,0,0,11.86,2.29L100,164.15a60.91,60.91,0,0,1-11.86-2.7" fill="#566070"/><path d="M74,154.16l-.62.62L52.21,201a103.92,103.92,0,0,0,12.69,6.45l21.42-46.59A58.6,58.6,0,0,1,74,154.16" fill="#566070"/><path d="M73.84,154a56,56,0,0,1-6.66-5.62c-1.25-1.25-2.29-2.29-3.33-3.54l-7.28,4.78L28.5,181.83c.83.83,1.66,1.87,2.5,2.7a121.13,121.13,0,0,0,9.36,8.32l33.07-38.06Z" fill="#566070"/><path d="M74,154.16a.2.2,0,0,1-.21-.21l-.42.83Z" fill="#566070"/><path d="M62.4,142.72a54.18,54.18,0,0,1-5.82-9.36l-16.22,4.78L11.23,156.87a101.32,101.32,0,0,0,9.57,15.6l36-23.09Z" fill="#566070"/><path d="M63.86,144.8a11.43,11.43,0,0,1-1.46-1.87l-5.82,6.66Z" fill="#566070"/><path d="M54.7,129a41.88,41.88,0,0,1-2.08-7.28H24.54L1.66,128.37a129.88,129.88,0,0,0,5.41,19.55l33.28-9.78Z" fill="#566070"/><path d="M56.58,133.36,54.7,129l-14.35,9.15Z" fill="#566070"/><path d="M141.65,68.05l17.68-20.59L174.1,28.53l-3.74-3.12-33.49,38.9a27.07,27.07,0,0,1,4.78,3.74" fill="#566070"/><path d="M129,59.73l21-46.59L142.48,10,121.26,57a48.15,48.15,0,0,1,7.7,2.7" fill="#566070"/><path d="M114.82,55.36l7.07-50.54c-3.33-.42-6.66-.83-10-1l-7.28,51a83.78,83.78,0,0,1,10.19.62" fill="#566070"/><path d="M100,55.16,92.77,4.41A79.43,79.43,0,0,0,80.91,6.69L88.4,57.86A45.16,45.16,0,0,1,100,55.16" fill="#566070"/><path d="M74,65.14a58.6,58.6,0,0,1,12.27-6.66L64.9,11.89a103.91,103.91,0,0,0-12.69,6.45l21.22,46Z" fill="#566070"/><path d="M63.86,74.5A26.79,26.79,0,0,1,67.18,71a56,56,0,0,1,6.66-5.62l-.42-1L40.35,26.24A112.11,112.11,0,0,0,31,34.56c-.83.83-1.66,1.87-2.5,2.7L56.78,69.72Z" fill="#566070"/><path d="M73.84,65.14a.2.2,0,0,0,.21-.21l-.62-.62Z" fill="#566070"/><path d="M56.58,85.73a54.18,54.18,0,0,1,5.82-9.36l-5.82-6.66-36-23.09A101.32,101.32,0,0,0,11,62.23L40.14,80.95Z" fill="#566070"/><path d="M62.4,76.37c.42-.62,1-1.25,1.46-1.87l-7.28-4.78Z" fill="#566070"/><path d="M52.62,97.38c.62-2.5,1.25-4.78,2.08-7.28L40.35,80.95,7.07,71.17A90.88,90.88,0,0,0,1.66,90.72l22.88,6.66Z" fill="#566070"/><path d="M54.7,90.1l1.87-4.37L40.35,80.95Z" fill="#566070"/><path d="M51.38,113.81a58.33,58.33,0,0,1,0-8.53l-26.83-7.9H.62a119,119,0,0,0,0,24.34H24.54Z" fill="#566070"/><path d="M52.62,121.72a48.22,48.22,0,0,1-1.25-7.9l-26.83,7.9Z" fill="#566070"/><path d="M51.38,105.28a52,52,0,0,1,1.25-7.9H24.54Z" fill="#566070"/><path d="M280.8,3.57A106.08,106.08,0,1,0,386.88,109.65,106,106,0,0,0,280.8,3.57m0,160.78a54.91,54.91,0,1,1,54.91-54.91,54.86,54.86,0,0,1-54.91,54.91" fill="#ebedef"/><g clip-path="url(#clip-path)"><polygon points="216.74 -23.88 284.33 274.39 308.67 269.81 241.07 -28.25 216.74 -23.88" fill="#8f98a2"/></g><g clip-path="url(#clip-path)"><polygon points="383.55 229.88 139.36 46.01 123.76 65.14 367.95 249.01 383.55 229.88" fill="#b23e44"/></g><g clip-path="url(#clip-path)"><polygon points="199.68 183.28 365.66 -73.39 345.49 -87.74 179.5 168.93 199.68 183.28" fill="#f3b449"/></g><g clip-path="url(#clip-path)"><polygon points="160.78 201.17 437.42 71.17 427.85 48.29 151.22 178.5 160.78 201.17" fill="#566070"/></g><g clip-path="url(#clip-path)"><polygon points="199.68 183.28 365.66 -73.39 345.49 -87.74 179.5 168.93 199.68 183.28" fill="#f3b449"/></g><g clip-path="url(#clip-path)"><polygon points="403.52 202.84 215.9 -38.44 195.73 -24.09 383.34 217.19 403.52 202.84" fill="#64c4b0"/></g><g clip-path="url(#clip-path)"><polygon points="337.17 273.35 366.49 -30.95 342.16 -34.28 312.62 269.81 337.17 273.35" fill="#22ad8f"/></g><g clip-path="url(#clip-path)"><polygon points="257.09 -53.42 403.73 214.69 425.98 203.67 279.13 -64.23 257.09 -53.42" fill="#f1d28e"/></g><g clip-path="url(#clip-path)"><polygon points="409.55 21.67 112.32 92.6 117.1 116.93 414.33 46.01 409.55 21.67" fill="#f05b64"/></g><path d="M550.37,69.92a.76.76,0,0,1-.62-.21L535.6,61a1.48,1.48,0,0,1-.62-1.25,1.38,1.38,0,0,1,1-.83l20.8-2.08-7.7-9.36c-.21-.42-.42-.83-.21-1a1.62,1.62,0,0,1,.83-.83l20.8-5.82-10.82-7.49a1,1,0,0,1-.42-1.25,1.38,1.38,0,0,1,1-.83l22.46-2.29a1.48,1.48,0,0,1,1.25.62c.21.42.21,1-.21,1.25l-23.5,28.7c0,.21-.21.21-.21.42l-8.74,10.82a1.87,1.87,0,0,1-1,.21M540,61l10.19,6.24,6.45-7.9Zm12.27-13.52L559.31,56l11-13.52Zm11.65-15.18,9.57,6.66,6.86-8.32Z" fill="#22ad8f"/><path d="M536.22,61.4H536l-14.77-4a1.38,1.38,0,0,1-.83-1,1.29,1.29,0,0,1,.83-1.25l25.79-10-9.78-16.64a1.33,1.33,0,0,1,0-1.25.93.93,0,0,1,1.25-.42L558.69,30l-9.57-18.93a1.28,1.28,0,0,1,.21-1.46,1.23,1.23,0,0,1,1.46-.21l17.47,7.9h0a.2.2,0,0,1,.21.21l15.6,10.82a1.19,1.19,0,1,1-1.46,1.87L568,20l-6.24,12.06v.21h0l-7.28,8.94L537.47,61a8.18,8.18,0,0,1-1.25.42M525.2,56l10.4,2.7,8.74-10.19Zm15.18-26.42,8.32,14.35,3.54-4.16,5.82-7.28Zm12.06-16.85,8.11,16,5.2-10Z" fill="#22ad8f"/><path d="M521.45,57.44h0a1.14,1.14,0,0,1-1-.62L510.22,34.56a.94.94,0,0,1,0-1c.21-.42.42-.62.83-.62l23.09-5.41-12.9-5.62c-.42-.21-.83-.62-.62-1a2.08,2.08,0,0,1,.83-1L549.53,9.19A1.38,1.38,0,0,1,551,9.6a1,1,0,0,1,0,1.46L539.34,28.53c0,.21-.21.21-.21.42L522.49,56.82a1.14,1.14,0,0,1-1,.62M513.13,35l8.53,18.72L535.6,29.78ZM525,20.84l12.69,5.62,9.15-13.73Z" fill="#22ad8f"/><path d="M521.45,57.44H508.77a1.08,1.08,0,0,1-.83-.42.91.91,0,0,1-.21-1l2.5-22c0-.21.21-.42.21-.62L520.83,20l8.74-15.18a1.48,1.48,0,0,1,1.25-.62l19.14,4.58a1.19,1.19,0,1,1-.62,2.29L531,6.69,522.7,21.46l-10.19,13.1L510,55.16h11.23a1.34,1.34,0,0,1,1.25,1.25,1,1,0,0,1-1,1" fill="#22ad8f"/><path d="M493.37,61.6a1.71,1.71,0,0,1-1.25-.83l-6-18.72v-.21h0v-1L495,24.58l.62-.62c.42,0,.62,0,.83.21l15.18,8.53a1.26,1.26,0,0,1,.62,1.25,1.38,1.38,0,0,1-.83,1l-21.84,6.86,19.55,13.1a1,1,0,0,1,.42,1.25,1.38,1.38,0,0,1-.83,1L493.37,61.4c.21.21,0,.21,0,.21m-4-16.85L494,59.11,505.85,56Zm7.28-17.68-7.07,12.48,18.72-6Z" fill="#22ad8f"/><path d="M496.29,26.66a1.59,1.59,0,0,1-1-.42,1.33,1.33,0,0,1,0-1.25L506.89,4l.21-.21h0l.21-.21h0c.21-.21.42-.21.83-.21h0l22.67,1.25a1.16,1.16,0,0,1,1,1.25h0a1,1,0,0,1-1.25,1l-20-1L522.7,20.21a1.38,1.38,0,0,1,.21,1.25,1.62,1.62,0,0,1-.83.83L496.7,27.08c-.21-.42-.42-.42-.42-.42M508.14,6.49l-9.57,17.26,21-4Z" fill="#22ad8f"/><path d="M475.07,30.82a1.08,1.08,0,0,1-.83-.42c-.21-.21-.42-.83-.21-1L479.23,10c0-.21.21-.62.42-.62a.2.2,0,0,0,.21-.21h.21l27.66-5.82a1.19,1.19,0,0,1,.62,2.29L483,11.06l14.35,13.73c.42.21.42.83.42,1.25-.21.42-.42.83-.83.83L475.9,31c-.62-.21-.62-.21-.83-.21m5.82-18.3-4.16,15.6,16.85-3.33Z" fill="#22ad8f"/><path d="M462.38,41.64H462a1.14,1.14,0,0,1-.62-1l-1-21.42a1.14,1.14,0,0,1,.62-1,1,1,0,0,1,1.25.21l13.94,10.61a1.58,1.58,0,0,1,.42.83c0,.42-.21.62-.42,1l-12.9,10.61c-.42,0-.62.21-.83.21m.21-20.18.83,16.43,9.78-8.11Z" fill="#22ad8f"/><path d="M445.53,56.4h-.42a2.08,2.08,0,0,1-.83-1l-1.87-23.3h0a1.25,1.25,0,0,1,.21-.83l.21-.21.21-.21,17.47-12.9a.2.2,0,0,0,.21-.21L479.65,9a1.39,1.39,0,0,1,1.66.62,1.39,1.39,0,0,1-.62,1.66L461.76,20,445.95,31.65l16.64,7.7c.42.21.62.42.62.83s0,.83-.42,1l-16.64,15c0,.21-.21.21-.62.21m-.42-22.67,1.46,18.93L460.09,40.6Z" fill="#22ad8f"/><path d="M479,70.76c-.21,0-.62-.21-.83-.21h0c-.21-.21-.21-.42-.42-.62h0L474,29.78a1.48,1.48,0,0,1,.62-1.25,1.28,1.28,0,0,1,1.46.21L488.17,40.8c.42.21.42.83.21,1.25L481.1,66.8l11.65-7.28A1.21,1.21,0,0,1,494,61.6l-14.35,9.15a.39.39,0,0,0-.62,0h0M476.73,32.9l2.91,30.37,6.24-21.22Z" fill="#22ad8f"/><path d="M460.93,120.68h0a1.34,1.34,0,0,1-1.25-1.25l.42-19.34v-.42l8.32-20c0-.21.21-.21.21-.42l8.74-10L461.13,41a1.21,1.21,0,1,1,2.08-1.25l16.64,29.12a1.28,1.28,0,0,1-.21,1.46l-9.15,10.4-8.11,19.55L462,119.43a1,1,0,0,1-1,1.25" fill="#22ad8f"/><path d="M479,70.76h-.42L428.27,50.16c-.42-.21-.62-.42-.62-.83a1.56,1.56,0,0,1,.21-1L443,31.24a1.18,1.18,0,1,1,1.66,1.66L430.56,48.71l45.55,18.51-15-26A1.21,1.21,0,1,1,463.21,40l16.64,29.12a1.28,1.28,0,0,1-.21,1.46,2.1,2.1,0,0,1-.62.21" fill="#22ad8f"/><path d="M461.34,101.33h-.42L431.18,89.89a2.08,2.08,0,0,1-.83-1,1.14,1.14,0,0,1,.62-1l13.31-8.74a.76.76,0,0,1,.62-.21l22,.21L445.33,56.82l-22.88,4a2.23,2.23,0,0,1-1.25-.42,1.33,1.33,0,0,1,0-1.25l6.45-10.4A1.21,1.21,0,1,1,429.73,50l-5.2,8.11,20.8-3.74c.42,0,.83,0,1,.42l23.92,25a1,1,0,0,1,.21,1.25,1.38,1.38,0,0,1-1,.83l-22.26-.21,15,18.3a1,1,0,0,1,0,1.46c-.21-.21-.62,0-.83,0m-27.25-12.9,23.5,8.94-13.1-15.81Z" fill="#22ad8f"/><path d="M444.7,81.16h0l-30.16-3.74c-.42,0-.62-.21-.83-.62a.93.93,0,0,1,0-1L421.2,58.9c.21-.42.42-.62.83-.62a1.56,1.56,0,0,1,1,.21l20.8,18.72.83-22a1.25,1.25,0,0,1,2.5,0l-.83,24.54h0v.21h0c0,.21-.21.42-.42.62l-.21.21c-.62.21-.83.42-1,.42m-28.29-6L441.17,78,422.65,61.19Z" fill="#22ad8f"/><path d="M411.21,90.1c-.42,0-.62-.21-1-.42a1.56,1.56,0,0,1-.21-1L413.5,76a1.62,1.62,0,0,1,.83-.83.91.91,0,0,1,1,.21l16.85,12.48a1,1,0,0,1,.42,1.25,1.38,1.38,0,0,1-1,.83l-20.38.21Zm4.16-11.86-2.5,9.36h15Z" fill="#22ad8f"/><path d="M408.93,111.73a1.08,1.08,0,0,1-.83-.42c-.21-.21-.42-.62-.21-.83l2.29-21.63a1.38,1.38,0,0,1,.83-1,1,1,0,0,1,1.25.42l17.06,21.63a1.38,1.38,0,0,1,.21,1.25,1.14,1.14,0,0,1-1,.62ZM412,92l-1.87,17.26h15.39Z" fill="#22ad8f"/><path d="M428.27,111.73a1.25,1.25,0,0,1-.83-.21c-.42-.21-.42-.62-.42-1l3.12-21.84c0-.62.62-1,1.46-1,.62,0,1,.62,1,1.46l-2.91,19.76L460.93,99a1.19,1.19,0,0,1,.62,2.29l-33.07,10.4h-.21" fill="#22ad8f"/><path d="M461.34,122.55h-.42l-33.07-10.82a1.19,1.19,0,0,1,.62-2.29l33.07,10.82a1.18,1.18,0,0,1,.83,1.46,1.38,1.38,0,0,1-1,.83" fill="#22ad8f"/><path d="M583,193.06h0l-22.67-2.29a1.38,1.38,0,0,1-1-.83,1,1,0,0,1,.42-1.25l10.82-7.49-20.8-5.2c-.42,0-.62-.42-.83-.83a.91.91,0,0,1,.21-1l7.7-9.36L536,162.69c-.42,0-1-.42-1-.83s0-1,.62-1.25l14.14-8.74c.42-.21,1.25-.21,1.46.21l32.45,39.1a1.59,1.59,0,0,1,.42,1c.21.21-.42.83-1,.83Zm-19.14-4.37,16.22,1.66L573.25,182Zm-11.65-14.77,18.1,4.58-10.82-13.1ZM540,160.4l16.64,1.66-6.45-7.9Z" fill="#22ad8f"/><path d="M549.74,211.78a1.08,1.08,0,0,1-.83-.42,1.23,1.23,0,0,1-.21-1.46L558.27,191l-20.18,3.12a1.26,1.26,0,0,1-1.25-.62,1.38,1.38,0,0,1,.42-1.46L551,180.79l-30.16-14.56a1.26,1.26,0,0,1-.62-1.25,1.38,1.38,0,0,1,.83-1l14.77-4c.42-.21.83,0,1.25.42l17.06,19.14h0l7.28,8.94h0v.21l6.24,12.06,14.56-10.19a1.19,1.19,0,1,1,1.46,1.87L568,203.25a.2.2,0,0,0-.21.21h0l-17.47,7.9c-.21.42-.42.42-.62.42M560.56,192l-8.11,16,13.31-6Zm-7.49-9.78-10.82,8.94,16-2.5ZM524.78,165.4l23.5,11.23-12.48-14.14Z" fill="#22ad8f"/><path d="M549.74,211.78h-.42l-28.08-10.61a1.38,1.38,0,0,1-.83-1c0-.42.21-1,.62-1l12.9-5.62-22.88-5.62c-.42,0-.62-.42-.83-.62a.94.94,0,0,1,0-1l10-21.63a1.18,1.18,0,0,1,2.08,0l16.43,27.66c.21.21.21.21.21.42l11.44,17.26a1.58,1.58,0,0,1,.42.83c.21.42-.21,1-1,1ZM525,199.92,546.83,208l-9.15-13.73ZM513.13,186l22.46,5.2-13.94-23.5Z" fill="#22ad8f"/><path d="M530.61,216.36a1.14,1.14,0,0,1-1-.62l-8.94-15.18-10.19-13.1a.76.76,0,0,1-.21-.62l-2.7-21.63a1.88,1.88,0,0,1,.21-1,1.58,1.58,0,0,1,.83-.42h12.69a1.25,1.25,0,1,1,0,2.5H510l2.5,20,10.19,12.9,8.53,14.56,18.3-4.37a1.19,1.19,0,1,1,.62,2.29L531,216.15c-.21.21-.21.21-.42.21" fill="#22ad8f"/><path d="M498.37,198.68h-.42a1.62,1.62,0,0,1-.83-.83l-5-15.81v-20.8c0-.42.21-.62.42-1a1.56,1.56,0,0,1,1-.21L509,164.15c.42.21.83.42.83.83a1.38,1.38,0,0,1-.21,1.25l-14.14,15L511.68,186c.42.21.83.42.83.83a1.53,1.53,0,0,1-.42,1.25L499,198.68c-.21-.21-.42,0-.62,0M495,183.28l3.74,12.06,10-8.11Zm-.62-20.8v15.81l12.06-12.69Z" fill="#22ad8f"/><path d="M507.93,217.6h-.42c-.21-.21-.42-.21-.62-.62l-9.57-18.93a1.33,1.33,0,0,1,0-1.25.76.76,0,0,1,1-.42l23.5,2.7a1.28,1.28,0,0,1,.83,2.08l-12.06,14.35,20-1a1.16,1.16,0,0,1,1.25,1h0a1.16,1.16,0,0,1-1,1.25l-22.88.83h0m-7.49-18.72,7.7,15.39L519.37,201Z" fill="#22ad8f"/><path d="M507.93,217.6h-.21l-27.66-5.82c-.21,0-.42-.21-.62-.42h0a.76.76,0,0,1-.21-.62v-.21l.83-27a1.14,1.14,0,0,1,.62-1,1,1,0,0,1,1.25.21L499.2,196.6a1.59,1.59,0,0,1,.42,1c0,.42-.21.62-.42,1l-15.81,11.65,25,5.2a1.18,1.18,0,0,1,.83,1.46,2.37,2.37,0,0,1-1.25.62M482.14,186l-.62,22.26,14.77-10.82Z" fill="#22ad8f"/><path d="M461.34,203a.76.76,0,0,1-.62-.21,1.48,1.48,0,0,1-.62-1.25l4-27.66c0-.42.21-.83.62-.83a.93.93,0,0,1,1,0l15.81,9.57a1.11,1.11,0,0,1,.62.83c0,.42,0,.83-.42,1L462,202.84c-.21,0-.42.21-.62.21m4.78-27-3.33,22.67,16.22-15Z" fill="#22ad8f"/><path d="M480.27,211.78c-.21,0-.42,0-.42-.21l-18.93-8.74a.2.2,0,0,1-.21-.21l-17.47-12.9-.21-.21v-.21h0c-.21-.21-.21-.42-.21-.83h0l5.2-29.54a.89.89,0,0,1,.83-.83,1.38,1.38,0,0,1,1.25.21l16.43,14.77a1.59,1.59,0,0,1,.42,1,1.08,1.08,0,0,1-.42.83L446.37,188.9l16,11.86,18.93,8.74a1.31,1.31,0,0,1,.62,1.66,4.15,4.15,0,0,1-1.66.62m-30.58-50.13-4.37,24.54,17.89-12.27Z" fill="#22ad8f"/><path d="M481.1,184.74a1.25,1.25,0,0,1-.83-.21,1.58,1.58,0,0,1-.42-.83l-2.08-31.62h0a.76.76,0,0,1,.21-.62h0l.21-.21h0a1.08,1.08,0,0,1,.83-.42h0a.76.76,0,0,1,.62.21L494,160.2a1.12,1.12,0,0,1,.42,1.66,1.3,1.3,0,0,1-1.66.42l-10.82-6.86,12.48,25.79a.93.93,0,0,1,0,1c-.21.42-.42.62-.83.62l-12.48,1.87h0m-.62-26.83L482.14,182l9.36-1.66Z" fill="#22ad8f"/><path d="M465.29,175.17a.76.76,0,0,1-.62-.21,1.12,1.12,0,0,1-.42-1.66l13.1-21.42-8.74-9.78a.73.73,0,0,1-.21-.42l-8.32-20v-.42L459.68,102a1.25,1.25,0,0,1,2.5,0l.42,19.14,8.11,19.55,9.15,10.4a1.28,1.28,0,0,1,.21,1.46l-13.73,22c-.21.62-.62.62-1,.62" fill="#22ad8f"/><path d="M443.87,190.15a1.08,1.08,0,0,1-.83-.42l-15.18-17.06a.91.91,0,0,1-.21-1c0-.42.21-.62.62-.83l20.38-12.48c.21,0,.21-.21.42-.21l30-7.49a1,1,0,0,1,1.25.42,1.33,1.33,0,0,1,0,1.25l-13.73,22a1.21,1.21,0,0,1-2.08-1.25l12.06-19.55-27,6.66-18.93,11.65,14.14,16a1.27,1.27,0,0,1,0,1.66c-.42.42-.62.62-.83.62" fill="#22ad8f"/><path d="M428.69,173.09a1.14,1.14,0,0,1-1-.62l-6.45-10.4a1.33,1.33,0,0,1,0-1.25,1.14,1.14,0,0,1,1-.62l26.42-2.08,17.89-15.81-21.84-.21h0a.76.76,0,0,1-.62-.21l-13.31-8.74a1.26,1.26,0,0,1-.62-1.25,1.38,1.38,0,0,1,.83-1l29.74-10.82a1.38,1.38,0,0,1,1.46.42c.42.42.21,1,0,1.46l-15,17.68,22.26.42c.42,0,1,.42,1,.83a1,1,0,0,1-.42,1.25l-20.59,18.1a.76.76,0,0,1-.62.21l-25,1.87,5.41,8.74a1.12,1.12,0,0,1-.42,1.66c.21.42,0,.42-.21.42m5.41-40.77,10.4,6.86,12.9-15.39Z" fill="#22ad8f"/><path d="M422,162.69h-.21c-.42,0-.62-.42-.83-.62l-7.49-16.85a.93.93,0,0,1,0-1,1.11,1.11,0,0,1,.83-.62l30.16-3.74h0a1.25,1.25,0,0,1,.83.21h0c.21.21.42.42.42.62l4.16,18.51a1.19,1.19,0,1,1-2.29.62l-3.74-16.43-21,18.93a1.08,1.08,0,0,1-.83.42m-5.62-17.06,6,13.94L441,142.72Z" fill="#22ad8f"/><path d="M414.54,145.84h-.42a1.62,1.62,0,0,1-.83-.83l-3.54-12.69a1.56,1.56,0,0,1,.21-1,1.59,1.59,0,0,1,1-.42l20.18.21c.42,0,1,.42,1,.83s0,1-.42,1.25L415,145.64c.21,0,0,.21-.42.21m-1.87-12.69,2.5,9.36,12.48-9.36Z" fill="#22ad8f"/><path d="M411.21,133.16h-.42a1.38,1.38,0,0,1-.83-1l-2.29-21.63c0-.42,0-.62.21-.83a1.58,1.58,0,0,1,.83-.42h19.34a1.14,1.14,0,0,1,1,.62,1,1,0,0,1-.21,1.25l-17.06,21.63c0,.21-.21.42-.62.42m-.83-21.63,1.87,17.26L426,111.52Z" fill="#22ad8f"/><path d="M431.39,133.36a1.32,1.32,0,0,1-1.25-1L427,110.48c0-.42,0-.83.42-1a1.38,1.38,0,0,1,1.25-.21l33.07,11a1.19,1.19,0,0,1-.62,2.29l-31.2-10.4,2.91,19.76a2.05,2.05,0,0,1-1.46,1.46h0" fill="#22ad8f"/></g></svg>