<svg xmlns="http://www.w3.org/2000/svg" xmlns:xlink="http://www.w3.org/1999/xlink" viewBox="0 0 365 295.67"><defs><style>.cls-1{isolation:isolate;}.cls-2,.cls-5,.cls-6,.cls-7{opacity:0.7;}.cls-2,.cls-3,.cls-4,.cls-5,.cls-6,.cls-7{mix-blend-mode:soft-light;}.cls-3,.cls-4{opacity:0.6;}.cls-3{fill:url(#linear-gradient);}.cls-4{fill:url(#linear-gradient-2);}.cls-5{fill:url(#linear-gradient-3);}.cls-6{fill:url(#linear-gradient-4);}.cls-7{fill:url(#linear-gradient-5);}.cls-12,.cls-8{fill:#dedede;}.cls-9{fill:#989898;}.cls-11,.cls-12,.cls-9{opacity:0.8;}.cls-10{fill:#f2f2f2;}.cls-11{fill:#b3b3b3;}</style><linearGradient id="linear-gradient" x1="-0.06" y1="94.99" x2="310.4" y2="94.99" gradientTransform="matrix(-1, 0, 0, 1, 365, 0)" gradientUnits="userSpaceOnUse"><stop offset="0" stop-color="#00334e"/><stop offset="0.8" stop-color="#ef4135"/></linearGradient><linearGradient id="linear-gradient-2" x1="-0.06" y1="200.31" x2="256.73" y2="200.31" xlink:href="#linear-gradient"/><linearGradient id="linear-gradient-3" x1="-0.06" y1="147.73" x2="311.07" y2="147.73" gradientTransform="matrix(-1, 0, 0, 1, 365, 0)" gradientUnits="userSpaceOnUse"><stop offset="0.4" stop-color="#00334e"/><stop offset="1" stop-color="#ef4135"/></linearGradient><linearGradient id="linear-gradient-4" x1="-0.06" y1="42.78" x2="365.06" y2="42.78" xlink:href="#linear-gradient-3"/><linearGradient id="linear-gradient-5" x1="-0.06" y1="252.68" x2="257.09" y2="252.68" xlink:href="#linear-gradient-3"/></defs><title>diversity</title><g class="cls-1"><g id="type"><g class="cls-2"><polygon class="cls-3" points="98.64 190.02 365.06 85.59 365.06 -0.04 54.6 104.97 98.64 190.02"/><polygon class="cls-4" points="152.03 295.7 365.06 190.54 365.06 104.92 108.27 209.84 152.03 295.7"/></g><polygon class="cls-5" points="53.92 104.92 365.06 104.92 365.06 190.54 97.97 190.54 53.92 104.92"/><polygon class="cls-6" points="-0.06 -0.04 365.06 -0.04 365.06 85.59 43.99 85.59 -0.06 -0.04"/><polygon class="cls-7" points="107.91 209.87 365.06 209.87 365.06 295.5 151.95 295.5 107.91 209.87"/><path class="cls-8" d="M119.22,168.56H106V129h13.19c8.2,0,12.6,5.29,12.6,11.89v16.28C131.82,163.81,127.42,168.56,119.22,168.56Zm4.1-27.51c0-3.15-1.48-5-4.75-5h-4v25.44h4c3.27,0,4.75-1.84,4.75-5Z"/><path class="cls-8" d="M138.31,168.56V129h8.5v39.58Z"/><path class="cls-8" d="M170.7,168.56h-8.08L152.46,129h8.73L167,155.9,172.72,129H181Z"/><path class="cls-8" d="M185.27,168.56V129h22v7.13H193.77v8.68h9.33v6.42h-9.33v9.92h13.55v7.43Z"/><path class="cls-8" d="M234.37,168.8c-3.45,0-4.76-2.38-4.76-6.06v-6.48c0-2.08-1.07-3.86-3.5-3.86h-4.58v16.16H213V129H227.3c6.41,0,10.28,3.69,10.28,9.39v4.28a6.31,6.31,0,0,1-5.11,6.6,6.66,6.66,0,0,1,5.28,6.54v6.47a5,5,0,0,0,1.67,4v2.5Zm-5-30c0-2-.84-3.21-3-3.21h-4.81v10.87H226c2.2,0,3.39-1.13,3.39-3.5Z"/><path class="cls-8" d="M255.77,169.57c-7.78,0-12.72-4.45-12.72-11.23v-2h7.79v1.31c0,3.33,1.66,5.11,4.75,5.11s4.52-1.73,4.52-4.46-2.26-4.57-6.83-6.95c-4.76-2.56-9.81-5.71-9.81-11.77S247.81,128,255.89,128c7.25,0,12.07,4.87,12.07,11.17v1.61h-7.67v-1.25c0-2.67-1.49-4.76-4.46-4.76a3.77,3.77,0,0,0-4.1,3.93c0,2.79,2.26,4.34,7.31,7,5.53,3,9.39,6.12,9.39,11.89C268.43,164,263.68,169.57,255.77,169.57Z"/><path class="cls-8" d="M274.09,168.56V129h8.49v39.58Z"/><path class="cls-8" d="M304.4,136.23v32.33h-8.5V136.23h-8.56V129H312.9v7.25Z"/><path class="cls-8" d="M334.6,152.16v16.4h-8.5v-16.4L315.88,129h8.91l6,15.63L336.5,129H345Z"/><path class="cls-8" d="M184.14,256.19h-5.83v14.68h-8.49V231.29h14.32c6.65,0,10.16,3.86,10.16,9.81v5.35C194.3,252.33,190.79,256.19,184.14,256.19Zm2-14.91c0-2.14-.83-3.33-3-3.33h-4.82v11.94h4.82c2.2,0,3-1.19,3-3.32Z"/><path class="cls-8" d="M199.9,270.87V231.29h8.49v32.27h13v7.31Z"/><path class="cls-8" d="M226.23,270.87V231.29h22.05v7.13H234.73v8.68h9.33v6.42h-9.33v9.92h13.55v7.43Z"/><path class="cls-8" d="M269.56,270.87H256.37V231.29h13.19c8.21,0,12.6,5.29,12.6,11.89v16.28C282.16,266.12,277.77,270.87,269.56,270.87Zm4.11-27.51c0-3.15-1.49-5-4.76-5h-4V263.8h4c3.27,0,4.76-1.84,4.76-5Z"/><path class="cls-8" d="M310.82,270.87l-1.07-3.62c-1.55,3-4.76,4.63-8.5,4.63-7.85,0-11.83-5.41-11.83-11.53V241.81c0-5.88,4.7-11.47,13.14-11.47s12.72,5.29,12.72,11.47v3h-8.21v-3.21c0-2.2-1.3-4.1-4.45-4.1s-4.58,2-4.58,4.22v18.78c0,2.14,1.6,4.22,4.64,4.22s4.69-2.08,4.69-4.22v-4.1h-4.63v-5.82h12.71v20.32Z"/><path class="cls-8" d="M323,270.87V231.29H345v7.13H331.45v8.68h9.33v6.42h-9.33v9.92H345v7.43Z"/><path class="cls-8" d="M102.76,61V33l-2,9L96,61H89.68L85.17,42l-1.9-9V61H75.66V21.46H87.07l4.75,20.15,1.43,7,1.48-7,4.7-20.15h11.35V61Z"/><path class="cls-8" d="M137.19,61l-8.74-15.87-3.39-6.48V61h-7.78V21.46h7.07l8.5,16.22,3.21,6.48V21.46h7.66V61Z"/><path class="cls-8" d="M179.46,28.71V61H171V28.71H162.4V21.46H188v7.25Z"/><path class="cls-8" d="M193.91,61V21.46h22v7.13H202.4v8.68h9.33v6.42H202.4v9.92H216V61Z"/><path class="cls-8" d="M235.57,62.05c-8.38,0-13.25-5.41-13.25-12.24V32.69c0-6.83,4.87-12.24,13.25-12.24S248.06,25.38,248.06,32v3.86h-7.61V32.16c0-2.74-1.61-4.52-4.76-4.52s-4.75,1.84-4.75,4.4V50.52c0,2.5,1.6,4.34,4.75,4.34s4.76-1.78,4.76-4.52V46.66h7.61v3.86C248.06,57.12,243.83,62.05,235.57,62.05Z"/><path class="cls-8" d="M273.44,61V45.17h-9.87V61h-8.49V21.46h8.49v16.4h9.87V21.46h8.5V61Z"/><polygon class="cls-9" points="335.12 63.58 326.1 47.29 305.24 63.5 335.12 63.58"/><polygon class="cls-10" points="305.24 63.5 326.1 47.29 305.1 48.65 305.24 63.5"/><polyline class="cls-11" points="326.1 47.29 301.94 19.55 305.1 48.65 326.1 47.29 305.1 48.65"/><polygon class="cls-12" points="301.94 19.55 326.1 47.29 345 24.64 301.94 19.55"/></g></g></svg>