<svg xmlns="http://www.w3.org/2000/svg" viewBox="0 0 1804.96 900"><title>foundry-pattern</title><g style="isolation:isolate"><g id="Layer_2" data-name="Layer 2"><g id="Layer_1-2" data-name="Layer 1"><rect y="1.3" width="1804.95" height="898.7" fill="#02334e"/><g opacity="0.2" style="mix-blend-mode:multiply"><path d="M9.53,37.59A28,28,0,0,1,32.65,10V.33a37.59,37.59,0,0,0,0,74.52V65.17A28,28,0,0,1,9.53,37.59Z" fill="#484f57"/><path d="M65.69,37.59A28,28,0,0,1,42.56,65.17v9.68a37.58,37.58,0,0,0,0-74.52V10A28.05,28.05,0,0,1,65.69,37.59Z" fill="#484f57"/><path d="M93,57.45A28,28,0,0,1,89.8,21.59L83,14.75a37.58,37.58,0,0,0,52.69,52.69l-6.84-6.84A28,28,0,0,1,93,57.45Z" fill="#484f57"/><path d="M132.67,17.74a28.05,28.05,0,0,1,3.16,35.86l6.84,6.84A37.58,37.58,0,0,0,90,7.75l6.84,6.84A28,28,0,0,1,132.67,17.74Z" fill="#484f57"/><path d="M140.88,112.41a28,28,0,0,0-23.11-27.59V75.15a37.58,37.58,0,0,1,0,74.52V140A28,28,0,0,0,140.88,112.41Z" fill="#484f57"/><path d="M84.72,112.41A28,28,0,0,0,107.85,140v9.67a37.58,37.58,0,0,1,0-74.52v9.67A28.06,28.06,0,0,0,84.72,112.41Z" fill="#484f57"/><path d="M57.45,132.26a28,28,0,0,0,3.16-35.85l6.84-6.84a37.58,37.58,0,0,1-52.69,52.69l6.84-6.84A28,28,0,0,0,57.45,132.26Z" fill="#484f57"/><path d="M17.75,92.55a28,28,0,0,0-3.15,35.86l-6.84,6.84A37.58,37.58,0,0,1,60.44,82.56L53.61,89.4A28,28,0,0,0,17.75,92.55Z" fill="#484f57"/><path d="M159.95,37.59A28,28,0,0,1,183.06,10V.33a37.59,37.59,0,0,0,0,74.52V65.17A28,28,0,0,1,159.95,37.59Z" fill="#484f57"/><path d="M216.1,37.59A28,28,0,0,1,193,65.17v9.68A37.59,37.59,0,0,0,193,.33V10A28,28,0,0,1,216.1,37.59Z" fill="#484f57"/><path d="M243.37,57.45a28,28,0,0,1-3.16-35.85l-6.83-6.84a37.58,37.58,0,0,0,52.69,52.69l-6.84-6.84A28,28,0,0,1,243.37,57.45Z" fill="#484f57"/><path d="M283.08,17.74a28,28,0,0,1,3.17,35.86l6.84,6.84A37.58,37.58,0,0,0,240.39,7.75l6.84,6.84A28,28,0,0,1,283.08,17.74Z" fill="#484f57"/><path d="M291.3,112.41a28,28,0,0,0-23.12-27.59V75.15a37.58,37.58,0,0,1,0,74.52V140A28,28,0,0,0,291.3,112.41Z" fill="#484f57"/><path d="M235.14,112.41A28,28,0,0,0,258.27,140v9.67a37.58,37.58,0,0,1,0-74.52v9.67A28,28,0,0,0,235.14,112.41Z" fill="#484f57"/><path d="M207.87,132.26A28.05,28.05,0,0,0,211,96.41l6.83-6.84a37.58,37.58,0,0,1-52.69,52.69l6.85-6.84A28,28,0,0,0,207.87,132.26Z" fill="#484f57"/><path d="M168.16,92.55A28,28,0,0,0,165,128.41l-6.85,6.84a37.58,37.58,0,0,1,52.69-52.69L204,89.4A28,28,0,0,0,168.16,92.55Z" fill="#484f57"/><path d="M310.36,37.59A28,28,0,0,1,333.48,10V.33a37.59,37.59,0,0,0,0,74.52V65.17A28,28,0,0,1,310.36,37.59Z" fill="#484f57"/><path d="M366.52,37.59a28,28,0,0,1-23.13,27.58v9.68a37.59,37.59,0,0,0,0-74.52V10A28.05,28.05,0,0,1,366.52,37.59Z" fill="#484f57"/><path d="M393.79,57.45a28,28,0,0,1-3.16-35.85l-6.84-6.84a37.58,37.58,0,0,0,52.69,52.69l-6.84-6.84A28,28,0,0,1,393.79,57.45Z" fill="#484f57"/><path d="M433.5,17.74a28,28,0,0,1,3.15,35.86l6.84,6.84A37.58,37.58,0,0,0,390.8,7.75l6.84,6.84A28.05,28.05,0,0,1,433.5,17.74Z" fill="#484f57"/><path d="M441.71,112.41a28,28,0,0,0-23.12-27.59V75.15a37.58,37.58,0,0,1,0,74.52V140A28,28,0,0,0,441.71,112.41Z" fill="#484f57"/><path d="M385.56,112.41A28,28,0,0,0,408.68,140v9.67a37.58,37.58,0,0,1,0-74.52v9.67A28.05,28.05,0,0,0,385.56,112.41Z" fill="#484f57"/><path d="M358.28,132.26a28,28,0,0,0,3.15-35.85l6.84-6.84a37.58,37.58,0,0,1-52.69,52.69l6.83-6.84A28,28,0,0,0,358.28,132.26Z" fill="#484f57"/><path d="M318.57,92.55a28,28,0,0,0-3.15,35.86l-6.84,6.84a37.58,37.58,0,0,1,52.69-52.69l-6.84,6.84A28,28,0,0,0,318.57,92.55Z" fill="#484f57"/><path d="M460.77,37.59A28,28,0,0,1,483.89,10V.33a37.59,37.59,0,0,0,0,74.52V65.17A28,28,0,0,1,460.77,37.59Z" fill="#484f57"/><path d="M516.92,37.59A28,28,0,0,1,493.8,65.17v9.68a37.58,37.58,0,0,0,0-74.52V10A28,28,0,0,1,516.92,37.59Z" fill="#484f57"/><path d="M544.2,57.45A28.05,28.05,0,0,1,541,21.59l-6.83-6.84A37.58,37.58,0,0,0,586.9,67.44l-6.84-6.84A28,28,0,0,1,544.2,57.45Z" fill="#484f57"/><path d="M583.91,17.74a28,28,0,0,1,3.16,35.86l6.84,6.84A37.58,37.58,0,0,0,541.22,7.75l6.84,6.84A28,28,0,0,1,583.91,17.74Z" fill="#484f57"/><path d="M592.12,112.41A28,28,0,0,0,569,84.82V75.15a37.58,37.58,0,0,1,0,74.52V140A28,28,0,0,0,592.12,112.41Z" fill="#484f57"/><path d="M536,112.41A28,28,0,0,0,559.09,140v9.67a37.58,37.58,0,0,1,0-74.52v9.67A28.05,28.05,0,0,0,536,112.41Z" fill="#484f57"/><path d="M508.69,132.26a28,28,0,0,0,3.17-35.85l6.83-6.84A37.58,37.58,0,0,1,466,142.26l6.84-6.84A28,28,0,0,0,508.69,132.26Z" fill="#484f57"/><path d="M469,92.55a28,28,0,0,0-3.16,35.86L459,135.25a37.58,37.58,0,0,1,52.69-52.69l-6.84,6.84A28,28,0,0,0,469,92.55Z" fill="#484f57"/><path d="M611.19,37.59A28,28,0,0,1,634.3,10V.33a37.59,37.59,0,0,0,0,74.52V65.17A28,28,0,0,1,611.19,37.59Z" fill="#484f57"/><path d="M667.34,37.59a28,28,0,0,1-23.12,27.58v9.68a37.59,37.59,0,0,0,0-74.52V10A28.05,28.05,0,0,1,667.34,37.59Z" fill="#484f57"/><path d="M694.62,57.45a28,28,0,0,1-3.17-35.85l-6.84-6.84a37.59,37.59,0,0,0,52.69,52.69l-6.84-6.84A28,28,0,0,1,694.62,57.45Z" fill="#484f57"/><path d="M734.32,17.74a28,28,0,0,1,3.16,35.86l6.84,6.84A37.58,37.58,0,0,0,691.63,7.75l6.84,6.84A28,28,0,0,1,734.32,17.74Z" fill="#484f57"/><path d="M742.54,112.41a28,28,0,0,0-23.12-27.59V75.15a37.58,37.58,0,0,1,0,74.52V140A28,28,0,0,0,742.54,112.41Z" fill="#484f57"/><path d="M686.39,112.41A28,28,0,0,0,709.51,140v9.67a37.58,37.58,0,0,1,0-74.52v9.67A28,28,0,0,0,686.39,112.41Z" fill="#484f57"/><path d="M659.11,132.26a28,28,0,0,0,3.15-35.85l6.84-6.84a37.58,37.58,0,0,1-52.69,52.69l6.84-6.84A28,28,0,0,0,659.11,132.26Z" fill="#484f57"/><path d="M619.4,92.55a28.06,28.06,0,0,0-3.16,35.86l-6.84,6.84a37.58,37.58,0,0,1,52.69-52.69l-6.83,6.84A28.05,28.05,0,0,0,619.4,92.55Z" fill="#484f57"/><path d="M761.6,37.59A28,28,0,0,1,784.72,10V.33a37.59,37.59,0,0,0,0,74.52V65.17A28,28,0,0,1,761.6,37.59Z" fill="#484f57"/><path d="M817.75,37.59a28,28,0,0,1-23.13,27.58v9.68a37.59,37.59,0,0,0,0-74.52V10A28,28,0,0,1,817.75,37.59Z" fill="#484f57"/><path d="M845,57.45a28,28,0,0,1-3.16-35.85L835,14.75a37.58,37.58,0,0,0,52.69,52.69l-6.83-6.84A28,28,0,0,1,845,57.45Z" fill="#484f57"/><path d="M884.74,17.74a28,28,0,0,1,3.15,35.86l6.84,6.84A37.58,37.58,0,0,0,842,7.75l6.84,6.84A28,28,0,0,1,884.74,17.74Z" fill="#484f57"/><path d="M893,112.41a28,28,0,0,0-23.12-27.59V75.15a37.58,37.58,0,0,1,0,74.52V140A28,28,0,0,0,893,112.41Z" fill="#484f57"/><path d="M836.79,112.41A28,28,0,0,0,859.92,140v9.67a37.58,37.58,0,0,1,0-74.52v9.67A28.06,28.06,0,0,0,836.79,112.41Z" fill="#484f57"/><path d="M809.52,132.26a28,28,0,0,0,3.16-35.85l6.84-6.84a37.58,37.58,0,0,1-52.69,52.69l6.83-6.84A28,28,0,0,0,809.52,132.26Z" fill="#484f57"/><path d="M769.82,92.55a28,28,0,0,0-3.16,35.86l-6.84,6.84a37.58,37.58,0,0,1,52.69-52.69l-6.84,6.84A28,28,0,0,0,769.82,92.55Z" fill="#484f57"/><path d="M912,37.59A28,28,0,0,1,935.12,10V.33a37.59,37.59,0,0,0,0,74.52V65.17A28,28,0,0,1,912,37.59Z" fill="#484f57"/><path d="M968.17,37.59A28,28,0,0,1,945,65.17v9.68A37.59,37.59,0,0,0,945,.33V10A28,28,0,0,1,968.17,37.59Z" fill="#484f57"/><path d="M995.44,57.45a28,28,0,0,1-3.15-35.85l-6.84-6.84a37.58,37.58,0,0,0,52.69,52.69l-6.84-6.84A28,28,0,0,1,995.44,57.45Z" fill="#484f57"/><path d="M1035.15,17.74a28,28,0,0,1,3.15,35.86l6.84,6.84A37.58,37.58,0,0,0,992.46,7.75l6.83,6.84A28,28,0,0,1,1035.15,17.74Z" fill="#484f57"/><path d="M1043.37,112.41a28,28,0,0,0-23.12-27.59V75.15a37.58,37.58,0,0,1,0,74.52V140A28,28,0,0,0,1043.37,112.41Z" fill="#484f57"/><path d="M987.21,112.41A28,28,0,0,0,1010.33,140v9.67a37.58,37.58,0,0,1,0-74.52v9.67A28.05,28.05,0,0,0,987.21,112.41Z" fill="#484f57"/><path d="M959.94,132.26a28,28,0,0,0,3.16-35.85l6.84-6.84a37.58,37.58,0,0,1-52.69,52.69l6.84-6.84A28,28,0,0,0,959.94,132.26Z" fill="#484f57"/><path d="M920.23,92.55a28,28,0,0,0-3.16,35.86l-6.84,6.84a37.58,37.58,0,0,1,52.69-52.69l-6.83,6.84A28,28,0,0,0,920.23,92.55Z" fill="#484f57"/><path d="M1062.43,37.59A28,28,0,0,1,1085.55,10V.33a37.59,37.59,0,0,0,0,74.52V65.17A28,28,0,0,1,1062.43,37.59Z" fill="#484f57"/><path d="M1118.59,37.59a28,28,0,0,1-23.13,27.58v9.68a37.59,37.59,0,0,0,0-74.52V10A28.06,28.06,0,0,1,1118.59,37.59Z" fill="#484f57"/><path d="M1145.86,57.45a28,28,0,0,1-3.17-35.85l-6.84-6.84a37.58,37.58,0,0,0,52.69,52.69l-6.84-6.84A28,28,0,0,1,1145.86,57.45Z" fill="#484f57"/><path d="M1185.56,17.74a28,28,0,0,1,3.16,35.86l6.84,6.84a37.58,37.58,0,0,0-52.69-52.69l6.83,6.84A28,28,0,0,1,1185.56,17.74Z" fill="#484f57"/><path d="M1193.79,112.41a28,28,0,0,0-23.12-27.59V75.15a37.58,37.58,0,0,1,0,74.52V140A28,28,0,0,0,1193.79,112.41Z" fill="#484f57"/><path d="M1137.62,112.41A28,28,0,0,0,1160.75,140v9.67a37.58,37.58,0,0,1,0-74.52v9.67A28.05,28.05,0,0,0,1137.62,112.41Z" fill="#484f57"/><path d="M1110.35,132.26a28,28,0,0,0,3.16-35.85l6.84-6.84a37.58,37.58,0,0,1-52.69,52.69l6.85-6.84A28,28,0,0,0,1110.35,132.26Z" fill="#484f57"/><path d="M1070.64,92.55a28.05,28.05,0,0,0-3.16,35.86l-6.83,6.84a37.58,37.58,0,0,1,52.69-52.69l-6.84,6.84A28.05,28.05,0,0,0,1070.64,92.55Z" fill="#484f57"/><path d="M1212.84,37.59A28,28,0,0,1,1236,10V.33a37.59,37.59,0,0,0,0,74.52V65.17A28,28,0,0,1,1212.84,37.59Z" fill="#484f57"/><path d="M1269,37.59a28,28,0,0,1-23.13,27.58v9.68a37.59,37.59,0,0,0,0-74.52V10A28,28,0,0,1,1269,37.59Z" fill="#484f57"/><path d="M1296.27,57.45a28,28,0,0,1-3.16-35.85l-6.83-6.84A37.58,37.58,0,0,0,1339,67.44l-6.84-6.84A28,28,0,0,1,1296.27,57.45Z" fill="#484f57"/><path d="M1336,17.74a28,28,0,0,1,3.15,35.86l6.84,6.84a37.58,37.58,0,0,0-52.69-52.69l6.84,6.84A28,28,0,0,1,1336,17.74Z" fill="#484f57"/><path d="M1344.19,112.41a28,28,0,0,0-23.11-27.59V75.15a37.58,37.58,0,0,1,0,74.52V140A28,28,0,0,0,1344.19,112.41Z" fill="#484f57"/><path d="M1288,112.41A28,28,0,0,0,1311.16,140v9.67a37.58,37.58,0,0,1,0-74.52v9.67A28.05,28.05,0,0,0,1288,112.41Z" fill="#484f57"/><path d="M1260.76,132.26a28.05,28.05,0,0,0,3.16-35.85l6.84-6.84a37.58,37.58,0,0,1-52.69,52.69l6.84-6.84A28,28,0,0,0,1260.76,132.26Z" fill="#484f57"/><path d="M1221.06,92.55a28,28,0,0,0-3.15,35.86l-6.84,6.84a37.58,37.58,0,0,1,52.69-52.69l-6.84,6.84A28,28,0,0,0,1221.06,92.55Z" fill="#484f57"/><path d="M1363.25,37.59A28,28,0,0,1,1386.37,10V.33a37.59,37.59,0,0,0,0,74.52V65.17A28,28,0,0,1,1363.25,37.59Z" fill="#484f57"/><path d="M1419.41,37.59a28,28,0,0,1-23.13,27.58v9.68a37.59,37.59,0,0,0,0-74.52V10A28,28,0,0,1,1419.41,37.59Z" fill="#484f57"/><path d="M1446.68,57.45a28.06,28.06,0,0,1-3.15-35.85l-6.84-6.84a37.58,37.58,0,0,0,52.69,52.69l-6.84-6.84A28,28,0,0,1,1446.68,57.45Z" fill="#484f57"/><path d="M1486.39,17.74a28,28,0,0,1,3.15,35.86l6.84,6.84A37.58,37.58,0,0,0,1443.7,7.75l6.84,6.84A28.05,28.05,0,0,1,1486.39,17.74Z" fill="#484f57"/><path d="M1494.61,112.41a28,28,0,0,0-23.12-27.59V75.15a37.58,37.58,0,0,1,0,74.52V140A28,28,0,0,0,1494.61,112.41Z" fill="#484f57"/><path d="M1438.45,112.41A28,28,0,0,0,1461.58,140v9.67a37.58,37.58,0,0,1,0-74.52v9.67A28,28,0,0,0,1438.45,112.41Z" fill="#484f57"/><path d="M1411.18,132.26a28,28,0,0,0,3.16-35.85l6.84-6.84a37.58,37.58,0,0,1-52.69,52.69l6.85-6.84A28,28,0,0,0,1411.18,132.26Z" fill="#484f57"/><path d="M1371.47,92.55a28,28,0,0,0-3.16,35.86l-6.84,6.84a37.58,37.58,0,0,1,52.69-52.69l-6.84,6.84A28,28,0,0,0,1371.47,92.55Z" fill="#484f57"/><path d="M1513.67,37.59A28,28,0,0,1,1536.79,10V.33a37.58,37.58,0,0,0,0,74.52V65.17A28,28,0,0,1,1513.67,37.59Z" fill="#484f57"/><path d="M1569.83,37.59a28,28,0,0,1-23.13,27.58v9.68a37.59,37.59,0,0,0,0-74.52V10A28.06,28.06,0,0,1,1569.83,37.59Z" fill="#484f57"/><path d="M1597.1,57.45a28,28,0,0,1-3.16-35.85l-6.84-6.84a37.58,37.58,0,0,0,52.69,52.69L1633,60.61A28,28,0,0,1,1597.1,57.45Z" fill="#484f57"/><path d="M1636.81,17.74A28,28,0,0,1,1640,53.6l6.84,6.84a37.58,37.58,0,0,0-52.69-52.69l6.83,6.84A28.06,28.06,0,0,1,1636.81,17.74Z" fill="#484f57"/><path d="M1645,112.41a28,28,0,0,0-23.12-27.59V75.15a37.58,37.58,0,0,1,0,74.52V140A28,28,0,0,0,1645,112.41Z" fill="#484f57"/><path d="M1588.86,112.41A28,28,0,0,0,1612,140v9.67a37.58,37.58,0,0,1,0-74.52v9.67A28.06,28.06,0,0,0,1588.86,112.41Z" fill="#484f57"/><path d="M1561.59,132.26a28,28,0,0,0,3.16-35.85l6.84-6.84a37.58,37.58,0,0,1-52.69,52.69l6.84-6.84A28,28,0,0,0,1561.59,132.26Z" fill="#484f57"/><path d="M1521.88,92.55a28,28,0,0,0-3.16,35.86l-6.84,6.84a37.58,37.58,0,0,1,52.69-52.69l-6.84,6.84A28,28,0,0,0,1521.88,92.55Z" fill="#484f57"/><path d="M1664.08,37.59A28,28,0,0,1,1687.2,10V.33a37.59,37.59,0,0,0,0,74.52V65.17A28,28,0,0,1,1664.08,37.59Z" fill="#484f57"/><path d="M1720.23,37.59a28,28,0,0,1-23.13,27.58v9.68a37.58,37.58,0,0,0,0-74.52V10A28,28,0,0,1,1720.23,37.59Z" fill="#484f57"/><path d="M1747.51,57.45a28,28,0,0,1-3.16-35.85l-6.83-6.84a37.58,37.58,0,0,0,52.69,52.69l-6.85-6.84A28,28,0,0,1,1747.51,57.45Z" fill="#484f57"/><path d="M1787.22,17.74a28,28,0,0,1,3.16,35.86l6.84,6.84a37.58,37.58,0,0,0-52.69-52.69l6.84,6.84A28,28,0,0,1,1787.22,17.74Z" fill="#484f57"/><path d="M1795.43,112.41a28,28,0,0,0-23.12-27.59V75.15a37.58,37.58,0,0,1,0,74.52V140A28,28,0,0,0,1795.43,112.41Z" fill="#484f57"/><path d="M1739.28,112.41A28,28,0,0,0,1762.4,140v9.67a37.58,37.58,0,0,1,0-74.52v9.67A28,28,0,0,0,1739.28,112.41Z" fill="#484f57"/><path d="M1712,132.26a28.05,28.05,0,0,0,3.17-35.85l6.84-6.84a37.59,37.59,0,0,1-52.7,52.69l6.85-6.84A28,28,0,0,0,1712,132.26Z" fill="#484f57"/><path d="M1672.3,92.55a28,28,0,0,0-3.15,35.86l-6.84,6.84A37.58,37.58,0,0,1,1715,82.56l-6.84,6.84A28,28,0,0,0,1672.3,92.55Z" fill="#484f57"/><path d="M9.53,187.59A28,28,0,0,1,32.65,160v-9.67a37.59,37.59,0,0,0,0,74.52v-9.68A28,28,0,0,1,9.53,187.59Z" fill="#484f57"/><path d="M65.69,187.59a28,28,0,0,1-23.13,27.58v9.68a37.59,37.59,0,0,0,0-74.52V160A28.06,28.06,0,0,1,65.69,187.59Z" fill="#484f57"/><path d="M93,207.44a28,28,0,0,1-3.16-35.85L83,164.75a37.58,37.58,0,0,0,52.69,52.69l-6.84-6.84A28,28,0,0,1,93,207.44Z" fill="#484f57"/><path d="M132.67,167.73a28.05,28.05,0,0,1,3.16,35.86l6.84,6.84A37.58,37.58,0,0,0,90,157.74l6.84,6.84A28.06,28.06,0,0,1,132.67,167.73Z" fill="#484f57"/><path d="M140.88,262.41a28,28,0,0,0-23.11-27.59v-9.67a37.58,37.58,0,0,1,0,74.51V290A28,28,0,0,0,140.88,262.41Z" fill="#484f57"/><path d="M84.72,262.41A28,28,0,0,0,107.85,290v9.67a37.58,37.58,0,0,1,0-74.51v9.67A28.06,28.06,0,0,0,84.72,262.41Z" fill="#484f57"/><path d="M57.45,282.26a28,28,0,0,0,3.16-35.85l6.84-6.84a37.58,37.58,0,0,1-52.69,52.69l6.84-6.84A28,28,0,0,0,57.45,282.26Z" fill="#484f57"/><path d="M17.75,242.55a28,28,0,0,0-3.15,35.86l-6.84,6.84a37.58,37.58,0,0,1,52.69-52.69l-6.83,6.84A28,28,0,0,0,17.75,242.55Z" fill="#484f57"/><path d="M159.95,187.59A28,28,0,0,1,183.06,160v-9.67a37.59,37.59,0,0,0,0,74.52v-9.68A28,28,0,0,1,159.95,187.59Z" fill="#484f57"/><path d="M216.1,187.59A28,28,0,0,1,193,215.18v9.68a37.59,37.59,0,0,0,0-74.52V160A28.05,28.05,0,0,1,216.1,187.59Z" fill="#484f57"/><path d="M243.37,207.44a28,28,0,0,1-3.16-35.85l-6.83-6.84a37.58,37.58,0,0,0,52.69,52.69l-6.84-6.84A28,28,0,0,1,243.37,207.44Z" fill="#484f57"/><path d="M283.08,167.73a28,28,0,0,1,3.17,35.86l6.84,6.84a37.58,37.58,0,0,0-52.69-52.69l6.84,6.84A28,28,0,0,1,283.08,167.73Z" fill="#484f57"/><path d="M291.3,262.41a28,28,0,0,0-23.12-27.59v-9.67a37.58,37.58,0,0,1,0,74.51V290A28,28,0,0,0,291.3,262.41Z" fill="#484f57"/><path d="M235.14,262.41A28,28,0,0,0,258.27,290v9.67a37.58,37.58,0,0,1,0-74.51v9.67A28,28,0,0,0,235.14,262.41Z" fill="#484f57"/><path d="M207.87,282.26A28.05,28.05,0,0,0,211,246.41l6.83-6.84a37.58,37.58,0,0,1-52.69,52.69l6.85-6.84A28,28,0,0,0,207.87,282.26Z" fill="#484f57"/><path d="M168.16,242.55A28,28,0,0,0,165,278.41l-6.85,6.84a37.59,37.59,0,0,1,52.69-52.69L204,239.4A28,28,0,0,0,168.16,242.55Z" fill="#484f57"/><path d="M310.36,187.59A28,28,0,0,1,333.48,160v-9.67a37.59,37.59,0,0,0,0,74.52v-9.68A28,28,0,0,1,310.36,187.59Z" fill="#484f57"/><path d="M366.52,187.59a28,28,0,0,1-23.13,27.58v9.68a37.59,37.59,0,0,0,0-74.52V160A28.06,28.06,0,0,1,366.52,187.59Z" fill="#484f57"/><path d="M393.79,207.44a28,28,0,0,1-3.16-35.85l-6.84-6.84a37.58,37.58,0,0,0,52.69,52.69l-6.84-6.84A28,28,0,0,1,393.79,207.44Z" fill="#484f57"/><path d="M433.5,167.73a28,28,0,0,1,3.15,35.86l6.84,6.84a37.58,37.58,0,0,0-52.69-52.69l6.84,6.84A28.06,28.06,0,0,1,433.5,167.73Z" fill="#484f57"/><path d="M441.71,262.41a28,28,0,0,0-23.12-27.59v-9.67a37.58,37.58,0,0,1,0,74.51V290A28,28,0,0,0,441.71,262.41Z" fill="#484f57"/><path d="M385.56,262.41A28,28,0,0,0,408.68,290v9.67a37.58,37.58,0,0,1,0-74.51v9.67A28.05,28.05,0,0,0,385.56,262.41Z" fill="#484f57"/><path d="M358.28,282.26a28,28,0,0,0,3.15-35.85l6.84-6.84a37.58,37.58,0,0,1-52.69,52.69l6.83-6.84A28,28,0,0,0,358.28,282.26Z" fill="#484f57"/><path d="M318.57,242.55a28,28,0,0,0-3.15,35.86l-6.84,6.84a37.58,37.58,0,0,1,52.69-52.69l-6.84,6.84A28,28,0,0,0,318.57,242.55Z" fill="#484f57"/><path d="M460.77,187.59A28,28,0,0,1,483.89,160v-9.67a37.59,37.59,0,0,0,0,74.52v-9.68A28,28,0,0,1,460.77,187.59Z" fill="#484f57"/><path d="M516.92,187.59a28,28,0,0,1-23.12,27.58v9.68a37.59,37.59,0,0,0,0-74.52V160A28,28,0,0,1,516.92,187.59Z" fill="#484f57"/><path d="M544.2,207.44A28.05,28.05,0,0,1,541,171.59l-6.83-6.84a37.58,37.58,0,0,0,52.69,52.69l-6.84-6.84A28,28,0,0,1,544.2,207.44Z" fill="#484f57"/><path d="M583.91,167.73a28,28,0,0,1,3.16,35.86l6.84,6.84a37.58,37.58,0,0,0-52.69-52.69l6.84,6.84A28.05,28.05,0,0,1,583.91,167.73Z" fill="#484f57"/><path d="M592.12,262.41A28,28,0,0,0,569,234.82v-9.67a37.58,37.58,0,0,1,0,74.51V290A28,28,0,0,0,592.12,262.41Z" fill="#484f57"/><path d="M536,262.41A28,28,0,0,0,559.09,290v9.67a37.58,37.58,0,0,1,0-74.51v9.67A28.05,28.05,0,0,0,536,262.41Z" fill="#484f57"/><path d="M508.69,282.26a28,28,0,0,0,3.17-35.85l6.83-6.84A37.58,37.58,0,0,1,466,292.26l6.84-6.84A28,28,0,0,0,508.69,282.26Z" fill="#484f57"/><path d="M469,242.55a28,28,0,0,0-3.16,35.86L459,285.25a37.58,37.58,0,0,1,52.69-52.69l-6.84,6.84A28,28,0,0,0,469,242.55Z" fill="#484f57"/><path d="M611.19,187.59A28,28,0,0,1,634.3,160v-9.67a37.59,37.59,0,0,0,0,74.52v-9.68A28,28,0,0,1,611.19,187.59Z" fill="#484f57"/><path d="M667.34,187.59a28,28,0,0,1-23.12,27.58v9.68a37.59,37.59,0,0,0,0-74.52V160A28.06,28.06,0,0,1,667.34,187.59Z" fill="#484f57"/><path d="M694.62,207.44a28,28,0,0,1-3.17-35.85l-6.84-6.84a37.59,37.59,0,0,0,52.69,52.69l-6.84-6.84A28,28,0,0,1,694.62,207.44Z" fill="#484f57"/><path d="M734.32,167.73a28,28,0,0,1,3.16,35.86l6.84,6.84a37.58,37.58,0,0,0-52.69-52.69l6.84,6.84A28,28,0,0,1,734.32,167.73Z" fill="#484f57"/><path d="M742.54,262.41a28,28,0,0,0-23.12-27.59v-9.67a37.58,37.58,0,0,1,0,74.51V290A28,28,0,0,0,742.54,262.41Z" fill="#484f57"/><path d="M686.39,262.41A28,28,0,0,0,709.51,290v9.67a37.58,37.58,0,0,1,0-74.51v9.67A28,28,0,0,0,686.39,262.41Z" fill="#484f57"/><path d="M659.11,282.26a28,28,0,0,0,3.15-35.85l6.84-6.84a37.58,37.58,0,0,1-52.69,52.69l6.84-6.84A28,28,0,0,0,659.11,282.26Z" fill="#484f57"/><path d="M619.4,242.55a28.06,28.06,0,0,0-3.16,35.86l-6.84,6.84a37.58,37.58,0,0,1,52.69-52.69l-6.83,6.84A28.05,28.05,0,0,0,619.4,242.55Z" fill="#484f57"/><path d="M761.6,187.59A28,28,0,0,1,784.72,160v-9.67a37.59,37.59,0,0,0,0,74.52v-9.68A28,28,0,0,1,761.6,187.59Z" fill="#484f57"/><path d="M817.75,187.59a28,28,0,0,1-23.13,27.58v9.68a37.59,37.59,0,0,0,0-74.52V160A28.05,28.05,0,0,1,817.75,187.59Z" fill="#484f57"/><path d="M845,207.44a28,28,0,0,1-3.16-35.85L835,164.75a37.58,37.58,0,0,0,52.69,52.69l-6.83-6.84A28,28,0,0,1,845,207.44Z" fill="#484f57"/><path d="M884.74,167.73a28,28,0,0,1,3.15,35.86l6.84,6.84A37.58,37.58,0,0,0,842,157.74l6.84,6.84A28.06,28.06,0,0,1,884.74,167.73Z" fill="#484f57"/><path d="M893,262.41a28,28,0,0,0-23.12-27.59v-9.67a37.58,37.58,0,0,1,0,74.51V290A28,28,0,0,0,893,262.41Z" fill="#484f57"/><path d="M836.79,262.41A28,28,0,0,0,859.92,290v9.67a37.58,37.58,0,0,1,0-74.51v9.67A28.06,28.06,0,0,0,836.79,262.41Z" fill="#484f57"/><path d="M809.52,282.26a28,28,0,0,0,3.16-35.85l6.84-6.84a37.58,37.58,0,0,1-52.69,52.69l6.83-6.84A28,28,0,0,0,809.52,282.26Z" fill="#484f57"/><path d="M769.82,242.55a28,28,0,0,0-3.16,35.86l-6.84,6.84a37.58,37.58,0,0,1,52.69-52.69l-6.84,6.84A28,28,0,0,0,769.82,242.55Z" fill="#484f57"/><path d="M912,187.59A28,28,0,0,1,935.12,160v-9.67a37.59,37.59,0,0,0,0,74.52v-9.68A28,28,0,0,1,912,187.59Z" fill="#484f57"/><path d="M968.17,187.59A28,28,0,0,1,945,215.18v9.68a37.59,37.59,0,0,0,0-74.52V160A28,28,0,0,1,968.17,187.59Z" fill="#484f57"/><path d="M995.44,207.44a28,28,0,0,1-3.15-35.85l-6.84-6.84a37.58,37.58,0,0,0,52.69,52.69l-6.84-6.84A28,28,0,0,1,995.44,207.44Z" fill="#484f57"/><path d="M1035.15,167.73a28.05,28.05,0,0,1,3.15,35.86l6.84,6.84a37.58,37.58,0,0,0-52.69-52.69l6.83,6.84A28.06,28.06,0,0,1,1035.15,167.73Z" fill="#484f57"/><path d="M1043.37,262.41a28,28,0,0,0-23.12-27.59v-9.67a37.58,37.58,0,0,1,0,74.51V290A28,28,0,0,0,1043.37,262.41Z" fill="#484f57"/><path d="M987.21,262.41A28,28,0,0,0,1010.33,290v9.67a37.58,37.58,0,0,1,0-74.51v9.67A28.05,28.05,0,0,0,987.21,262.41Z" fill="#484f57"/><path d="M959.94,282.26a28,28,0,0,0,3.16-35.85l6.84-6.84a37.58,37.58,0,0,1-52.69,52.69l6.84-6.84A28,28,0,0,0,959.94,282.26Z" fill="#484f57"/><path d="M920.23,242.55a28,28,0,0,0-3.16,35.86l-6.84,6.84a37.58,37.58,0,0,1,52.69-52.69l-6.83,6.84A28,28,0,0,0,920.23,242.55Z" fill="#484f57"/><path d="M1062.43,187.59A28,28,0,0,1,1085.55,160v-9.67a37.59,37.59,0,0,0,0,74.52v-9.68A28,28,0,0,1,1062.43,187.59Z" fill="#484f57"/><path d="M1118.59,187.59a28,28,0,0,1-23.13,27.58v9.68a37.59,37.59,0,0,0,0-74.52V160A28.06,28.06,0,0,1,1118.59,187.59Z" fill="#484f57"/><path d="M1145.86,207.44a28,28,0,0,1-3.17-35.85l-6.84-6.84a37.59,37.59,0,0,0,52.69,52.69l-6.84-6.84A28,28,0,0,1,1145.86,207.44Z" fill="#484f57"/><path d="M1185.56,167.73a28,28,0,0,1,3.16,35.86l6.84,6.84a37.58,37.58,0,0,0-52.69-52.69l6.83,6.84A28.05,28.05,0,0,1,1185.56,167.73Z" fill="#484f57"/><path d="M1193.79,262.41a28,28,0,0,0-23.12-27.59v-9.67a37.58,37.58,0,0,1,0,74.51V290A28,28,0,0,0,1193.79,262.41Z" fill="#484f57"/><path d="M1137.62,262.41A28,28,0,0,0,1160.75,290v9.67a37.58,37.58,0,0,1,0-74.51v9.67A28.05,28.05,0,0,0,1137.62,262.41Z" fill="#484f57"/><path d="M1110.35,282.26a28,28,0,0,0,3.16-35.85l6.84-6.84a37.58,37.58,0,0,1-52.69,52.69l6.85-6.84A28,28,0,0,0,1110.35,282.26Z" fill="#484f57"/><path d="M1070.64,242.55a28.05,28.05,0,0,0-3.16,35.86l-6.83,6.84a37.58,37.58,0,0,1,52.69-52.69l-6.84,6.84A28.05,28.05,0,0,0,1070.64,242.55Z" fill="#484f57"/><path d="M1212.84,187.59A28,28,0,0,1,1236,160v-9.67a37.59,37.59,0,0,0,0,74.52v-9.68A28,28,0,0,1,1212.84,187.59Z" fill="#484f57"/><path d="M1269,187.59a28,28,0,0,1-23.13,27.58v9.68a37.59,37.59,0,0,0,0-74.52V160A28.05,28.05,0,0,1,1269,187.59Z" fill="#484f57"/><path d="M1296.27,207.44a28,28,0,0,1-3.16-35.85l-6.83-6.84A37.58,37.58,0,0,0,1339,217.44l-6.84-6.84A28,28,0,0,1,1296.27,207.44Z" fill="#484f57"/><path d="M1336,167.73a28,28,0,0,1,3.15,35.86l6.84,6.84a37.58,37.58,0,0,0-52.69-52.69l6.84,6.84A28.06,28.06,0,0,1,1336,167.73Z" fill="#484f57"/><path d="M1344.19,262.41a28,28,0,0,0-23.11-27.59v-9.67a37.58,37.58,0,0,1,0,74.51V290A28,28,0,0,0,1344.19,262.41Z" fill="#484f57"/><path d="M1288,262.41A28,28,0,0,0,1311.16,290v9.67a37.58,37.58,0,0,1,0-74.51v9.67A28.05,28.05,0,0,0,1288,262.41Z" fill="#484f57"/><path d="M1260.76,282.26a28.05,28.05,0,0,0,3.16-35.85l6.84-6.84a37.58,37.58,0,0,1-52.69,52.69l6.84-6.84A28,28,0,0,0,1260.76,282.26Z" fill="#484f57"/><path d="M1221.06,242.55a28,28,0,0,0-3.15,35.86l-6.84,6.84a37.58,37.58,0,0,1,52.69-52.69l-6.84,6.84A28,28,0,0,0,1221.06,242.55Z" fill="#484f57"/><path d="M1363.25,187.59A28,28,0,0,1,1386.37,160v-9.67a37.59,37.59,0,0,0,0,74.52v-9.68A28,28,0,0,1,1363.25,187.59Z" fill="#484f57"/><path d="M1419.41,187.59a28,28,0,0,1-23.13,27.58v9.68a37.59,37.59,0,0,0,0-74.52V160A28.05,28.05,0,0,1,1419.41,187.59Z" fill="#484f57"/><path d="M1446.68,207.44a28.06,28.06,0,0,1-3.15-35.85l-6.84-6.84a37.58,37.58,0,0,0,52.69,52.69l-6.84-6.84A28,28,0,0,1,1446.68,207.44Z" fill="#484f57"/><path d="M1486.39,167.73a28.05,28.05,0,0,1,3.15,35.86l6.84,6.84a37.58,37.58,0,0,0-52.69-52.69l6.84,6.84A28.06,28.06,0,0,1,1486.39,167.73Z" fill="#484f57"/><path d="M1494.61,262.41a28,28,0,0,0-23.12-27.59v-9.67a37.58,37.58,0,0,1,0,74.51V290A28,28,0,0,0,1494.61,262.41Z" fill="#484f57"/><path d="M1438.45,262.41A28,28,0,0,0,1461.58,290v9.67a37.58,37.58,0,0,1,0-74.51v9.67A28.05,28.05,0,0,0,1438.45,262.41Z" fill="#484f57"/><path d="M1411.18,282.26a28,28,0,0,0,3.16-35.85l6.84-6.84a37.58,37.58,0,0,1-52.69,52.69l6.85-6.84A28,28,0,0,0,1411.18,282.26Z" fill="#484f57"/><path d="M1371.47,242.55a28,28,0,0,0-3.16,35.86l-6.84,6.84a37.58,37.58,0,0,1,52.69-52.69l-6.84,6.84A28,28,0,0,0,1371.47,242.55Z" fill="#484f57"/><path d="M1513.67,187.59A28,28,0,0,1,1536.79,160v-9.67a37.59,37.59,0,0,0,0,74.52v-9.68A28,28,0,0,1,1513.67,187.59Z" fill="#484f57"/><path d="M1569.83,187.59a28,28,0,0,1-23.13,27.58v9.68a37.59,37.59,0,0,0,0-74.52V160A28.06,28.06,0,0,1,1569.83,187.59Z" fill="#484f57"/><path d="M1597.1,207.44a28,28,0,0,1-3.16-35.85l-6.84-6.84a37.58,37.58,0,0,0,52.69,52.69L1633,210.6A28,28,0,0,1,1597.1,207.44Z" fill="#484f57"/><path d="M1636.81,167.73A28,28,0,0,1,1640,203.6l6.84,6.84a37.58,37.58,0,0,0-52.69-52.69l6.83,6.84A28.07,28.07,0,0,1,1636.81,167.73Z" fill="#484f57"/><path d="M1645,262.41a28,28,0,0,0-23.12-27.59v-9.67a37.58,37.58,0,0,1,0,74.51V290A28,28,0,0,0,1645,262.41Z" fill="#484f57"/><path d="M1588.86,262.41A28,28,0,0,0,1612,290v9.67a37.58,37.58,0,0,1,0-74.51v9.67A28.06,28.06,0,0,0,1588.86,262.41Z" fill="#484f57"/><path d="M1561.59,282.26a28,28,0,0,0,3.16-35.85l6.84-6.84a37.58,37.58,0,0,1-52.69,52.69l6.84-6.84A28,28,0,0,0,1561.59,282.26Z" fill="#484f57"/><path d="M1521.88,242.55a28,28,0,0,0-3.16,35.86l-6.84,6.84a37.58,37.58,0,0,1,52.69-52.69l-6.84,6.84A28,28,0,0,0,1521.88,242.55Z" fill="#484f57"/><path d="M1664.08,187.59A28,28,0,0,1,1687.2,160v-9.67a37.59,37.59,0,0,0,0,74.52v-9.68A28,28,0,0,1,1664.08,187.59Z" fill="#484f57"/><path d="M1720.23,187.59a28,28,0,0,1-23.13,27.58v9.68a37.59,37.59,0,0,0,0-74.52V160A28,28,0,0,1,1720.23,187.59Z" fill="#484f57"/><path d="M1747.51,207.44a28,28,0,0,1-3.16-35.85l-6.83-6.84a37.58,37.58,0,0,0,52.69,52.69l-6.85-6.84A28,28,0,0,1,1747.51,207.44Z" fill="#484f57"/><path d="M1787.22,167.73a28,28,0,0,1,3.16,35.86l6.84,6.84a37.58,37.58,0,0,0-52.69-52.69l6.84,6.84A28.06,28.06,0,0,1,1787.22,167.73Z" fill="#484f57"/><path d="M1795.43,262.41a28,28,0,0,0-23.12-27.59v-9.67a37.58,37.58,0,0,1,0,74.51V290A28,28,0,0,0,1795.43,262.41Z" fill="#484f57"/><path d="M1739.28,262.41A28,28,0,0,0,1762.4,290v9.67a37.58,37.58,0,0,1,0-74.51v9.67A28.05,28.05,0,0,0,1739.28,262.41Z" fill="#484f57"/><path d="M1712,282.26a28,28,0,0,0,3.17-35.85l6.84-6.84a37.59,37.59,0,0,1-52.7,52.69l6.85-6.84A28,28,0,0,0,1712,282.26Z" fill="#484f57"/><path d="M1672.3,242.55a28,28,0,0,0-3.15,35.86l-6.84,6.84A37.58,37.58,0,0,1,1715,232.56l-6.84,6.84A28,28,0,0,0,1672.3,242.55Z" fill="#484f57"/><path d="M9.53,337.59A28.05,28.05,0,0,1,32.65,310v-9.66a37.58,37.58,0,0,0,0,74.52v-9.67A28,28,0,0,1,9.53,337.59Z" fill="#484f57"/><path d="M65.69,337.59a28,28,0,0,1-23.13,27.59v9.67a37.58,37.58,0,0,0,0-74.52V310A28.07,28.07,0,0,1,65.69,337.59Z" fill="#484f57"/><path d="M93,357.44a28,28,0,0,1-3.16-35.85L83,314.75a37.58,37.58,0,0,0,52.69,52.69l-6.84-6.84A28,28,0,0,1,93,357.44Z" fill="#484f57"/><path d="M132.67,317.74a28,28,0,0,1,3.16,35.85l6.84,6.84A37.58,37.58,0,0,0,90,307.75l6.84,6.83A28.05,28.05,0,0,1,132.67,317.74Z" fill="#484f57"/><path d="M140.88,412.41a28,28,0,0,0-23.11-27.59v-9.67a37.58,37.58,0,0,1,0,74.52V440A28,28,0,0,0,140.88,412.41Z" fill="#484f57"/><path d="M84.72,412.41A28.06,28.06,0,0,0,107.85,440v9.67a37.58,37.58,0,0,1,0-74.52v9.67A28.07,28.07,0,0,0,84.72,412.41Z" fill="#484f57"/><path d="M57.45,432.26a28,28,0,0,0,3.16-35.85l6.84-6.84a37.58,37.58,0,0,1-52.69,52.69l6.84-6.84A28,28,0,0,0,57.45,432.26Z" fill="#484f57"/><path d="M17.75,392.55a28,28,0,0,0-3.15,35.86l-6.84,6.84a37.59,37.59,0,0,1,52.69-52.69l-6.83,6.84A28,28,0,0,0,17.75,392.55Z" fill="#484f57"/><path d="M159.95,337.59A28.05,28.05,0,0,1,183.06,310v-9.66a37.58,37.58,0,0,0,0,74.52v-9.67A28,28,0,0,1,159.95,337.59Z" fill="#484f57"/><path d="M216.1,337.59A28,28,0,0,1,193,365.18v9.67a37.58,37.58,0,0,0,0-74.52V310A28.06,28.06,0,0,1,216.1,337.59Z" fill="#484f57"/><path d="M243.37,357.44a28,28,0,0,1-3.16-35.85l-6.83-6.84a37.58,37.58,0,0,0,52.69,52.69l-6.84-6.84A28,28,0,0,1,243.37,357.44Z" fill="#484f57"/><path d="M283.08,317.74a28,28,0,0,1,3.17,35.85l6.84,6.84a37.58,37.58,0,0,0-52.69-52.69l6.84,6.83A28,28,0,0,1,283.08,317.74Z" fill="#484f57"/><path d="M291.3,412.41a28.05,28.05,0,0,0-23.12-27.59v-9.67a37.58,37.58,0,0,1,0,74.52V440A28,28,0,0,0,291.3,412.41Z" fill="#484f57"/><path d="M235.14,412.41A28,28,0,0,0,258.27,440v9.67a37.58,37.58,0,0,1,0-74.52v9.67A28.06,28.06,0,0,0,235.14,412.41Z" fill="#484f57"/><path d="M207.87,432.26A28,28,0,0,0,211,396.41l6.83-6.84a37.58,37.58,0,0,1-52.69,52.69l6.85-6.84A28,28,0,0,0,207.87,432.26Z" fill="#484f57"/><path d="M168.16,392.55A28,28,0,0,0,165,428.41l-6.85,6.84a37.59,37.59,0,0,1,52.69-52.69L204,389.4A28.05,28.05,0,0,0,168.16,392.55Z" fill="#484f57"/><path d="M310.36,337.59A28.05,28.05,0,0,1,333.48,310v-9.66a37.58,37.58,0,0,0,0,74.52v-9.67A28,28,0,0,1,310.36,337.59Z" fill="#484f57"/><path d="M366.52,337.59a28,28,0,0,1-23.13,27.59v9.67a37.58,37.58,0,0,0,0-74.52V310A28.07,28.07,0,0,1,366.52,337.59Z" fill="#484f57"/><path d="M393.79,357.44a28,28,0,0,1-3.16-35.85l-6.84-6.84a37.58,37.58,0,0,0,52.69,52.69l-6.84-6.84A28,28,0,0,1,393.79,357.44Z" fill="#484f57"/><path d="M433.5,317.74a28,28,0,0,1,3.15,35.85l6.84,6.84a37.58,37.58,0,0,0-52.69-52.69l6.84,6.83A28.06,28.06,0,0,1,433.5,317.74Z" fill="#484f57"/><path d="M441.71,412.41a28,28,0,0,0-23.12-27.59v-9.67a37.58,37.58,0,0,1,0,74.52V440A28,28,0,0,0,441.71,412.41Z" fill="#484f57"/><path d="M385.56,412.41A28,28,0,0,0,408.68,440v9.67a37.58,37.58,0,0,1,0-74.52v9.67A28.06,28.06,0,0,0,385.56,412.41Z" fill="#484f57"/><path d="M358.28,432.26a28,28,0,0,0,3.15-35.85l6.84-6.84a37.58,37.58,0,0,1-52.69,52.69l6.83-6.84A28,28,0,0,0,358.28,432.26Z" fill="#484f57"/><path d="M318.57,392.55a28,28,0,0,0-3.15,35.86l-6.84,6.84a37.58,37.58,0,0,1,52.69-52.69l-6.84,6.84A28.05,28.05,0,0,0,318.57,392.55Z" fill="#484f57"/><path d="M460.77,337.59A28.05,28.05,0,0,1,483.89,310v-9.66a37.58,37.58,0,0,0,0,74.52v-9.67A28,28,0,0,1,460.77,337.59Z" fill="#484f57"/><path d="M516.92,337.59a28,28,0,0,1-23.12,27.59v9.67a37.58,37.58,0,0,0,0-74.52V310A28.06,28.06,0,0,1,516.92,337.59Z" fill="#484f57"/><path d="M544.2,357.44A28,28,0,0,1,541,321.59l-6.83-6.84a37.58,37.58,0,0,0,52.69,52.69l-6.84-6.84A28,28,0,0,1,544.2,357.44Z" fill="#484f57"/><path d="M583.91,317.74a28,28,0,0,1,3.16,35.85l6.84,6.84a37.58,37.58,0,0,0-52.69-52.69l6.84,6.83A28,28,0,0,1,583.91,317.74Z" fill="#484f57"/><path d="M592.12,412.41A28,28,0,0,0,569,384.82v-9.67a37.58,37.58,0,0,1,0,74.52V440A28,28,0,0,0,592.12,412.41Z" fill="#484f57"/><path d="M536,412.41A28.05,28.05,0,0,0,559.09,440v9.67a37.58,37.58,0,0,1,0-74.52v9.67A28.06,28.06,0,0,0,536,412.41Z" fill="#484f57"/><path d="M508.69,432.26a28,28,0,0,0,3.17-35.85l6.83-6.84A37.58,37.58,0,0,1,466,442.26l6.84-6.84A28,28,0,0,0,508.69,432.26Z" fill="#484f57"/><path d="M469,392.55a28,28,0,0,0-3.16,35.86L459,435.25a37.59,37.59,0,0,1,52.69-52.69l-6.84,6.84A28,28,0,0,0,469,392.55Z" fill="#484f57"/><path d="M611.19,337.59A28,28,0,0,1,634.3,310v-9.66a37.58,37.58,0,0,0,0,74.52v-9.67A28,28,0,0,1,611.19,337.59Z" fill="#484f57"/><path d="M667.34,337.59a28,28,0,0,1-23.12,27.59v9.67a37.58,37.58,0,0,0,0-74.52V310A28.07,28.07,0,0,1,667.34,337.59Z" fill="#484f57"/><path d="M694.62,357.44a28,28,0,0,1-3.17-35.85l-6.84-6.84a37.59,37.59,0,0,0,52.69,52.69l-6.84-6.84A28,28,0,0,1,694.62,357.44Z" fill="#484f57"/><path d="M734.32,317.74a28,28,0,0,1,3.16,35.85l6.84,6.84a37.58,37.58,0,0,0-52.69-52.69l6.84,6.83A28,28,0,0,1,734.32,317.74Z" fill="#484f57"/><path d="M742.54,412.41a28,28,0,0,0-23.12-27.59v-9.67a37.58,37.58,0,0,1,0,74.52V440A28,28,0,0,0,742.54,412.41Z" fill="#484f57"/><path d="M686.39,412.41A28,28,0,0,0,709.51,440v9.67a37.58,37.58,0,0,1,0-74.52v9.67A28.06,28.06,0,0,0,686.39,412.41Z" fill="#484f57"/><path d="M659.11,432.26a28,28,0,0,0,3.15-35.85l6.84-6.84a37.58,37.58,0,0,1-52.69,52.69l6.84-6.84A28,28,0,0,0,659.11,432.26Z" fill="#484f57"/><path d="M619.4,392.55a28.06,28.06,0,0,0-3.16,35.86l-6.84,6.84a37.58,37.58,0,0,1,52.69-52.69l-6.83,6.84A28.05,28.05,0,0,0,619.4,392.55Z" fill="#484f57"/><path d="M761.6,337.59A28,28,0,0,1,784.72,310v-9.66a37.58,37.58,0,0,0,0,74.52v-9.67A28,28,0,0,1,761.6,337.59Z" fill="#484f57"/><path d="M817.75,337.59a28,28,0,0,1-23.13,27.59v9.67a37.58,37.58,0,0,0,0-74.52V310A28.06,28.06,0,0,1,817.75,337.59Z" fill="#484f57"/><path d="M845,357.44a28,28,0,0,1-3.16-35.85L835,314.75a37.58,37.58,0,0,0,52.69,52.69l-6.83-6.84A28,28,0,0,1,845,357.44Z" fill="#484f57"/><path d="M884.74,317.74a28,28,0,0,1,3.15,35.85l6.84,6.84A37.58,37.58,0,0,0,842,307.75l6.84,6.83A28.05,28.05,0,0,1,884.74,317.74Z" fill="#484f57"/><path d="M893,412.41a28,28,0,0,0-23.12-27.59v-9.67a37.58,37.58,0,0,1,0,74.52V440A28,28,0,0,0,893,412.41Z" fill="#484f57"/><path d="M836.79,412.41A28.05,28.05,0,0,0,859.92,440v9.67a37.58,37.58,0,0,1,0-74.52v9.67A28.07,28.07,0,0,0,836.79,412.41Z" fill="#484f57"/><path d="M809.52,432.26a28,28,0,0,0,3.16-35.85l6.84-6.84a37.58,37.58,0,0,1-52.69,52.69l6.83-6.84A28,28,0,0,0,809.52,432.26Z" fill="#484f57"/><path d="M769.82,392.55a28,28,0,0,0-3.16,35.86l-6.84,6.84a37.59,37.59,0,0,1,52.69-52.69l-6.84,6.84A28,28,0,0,0,769.82,392.55Z" fill="#484f57"/><path d="M912,337.59A28.05,28.05,0,0,1,935.12,310v-9.66a37.58,37.58,0,0,0,0,74.52v-9.67A28,28,0,0,1,912,337.59Z" fill="#484f57"/><path d="M968.17,337.59A28,28,0,0,1,945,365.18v9.67a37.58,37.58,0,0,0,0-74.52V310A28.06,28.06,0,0,1,968.17,337.59Z" fill="#484f57"/><path d="M995.44,357.44a28,28,0,0,1-3.15-35.85l-6.84-6.84a37.58,37.58,0,0,0,52.69,52.69l-6.84-6.84A28,28,0,0,1,995.44,357.44Z" fill="#484f57"/><path d="M1035.15,317.74a28,28,0,0,1,3.15,35.85l6.84,6.84a37.58,37.58,0,0,0-52.69-52.69l6.83,6.83A28.05,28.05,0,0,1,1035.15,317.74Z" fill="#484f57"/><path d="M1043.37,412.41a28,28,0,0,0-23.12-27.59v-9.67a37.58,37.58,0,0,1,0,74.52V440A28,28,0,0,0,1043.37,412.41Z" fill="#484f57"/><path d="M987.21,412.41A28.05,28.05,0,0,0,1010.33,440v9.67a37.58,37.58,0,0,1,0-74.52v9.67A28.06,28.06,0,0,0,987.21,412.41Z" fill="#484f57"/><path d="M959.94,432.26a28,28,0,0,0,3.16-35.85l6.84-6.84a37.58,37.58,0,0,1-52.69,52.69l6.84-6.84A28,28,0,0,0,959.94,432.26Z" fill="#484f57"/><path d="M920.23,392.55a28,28,0,0,0-3.16,35.86l-6.84,6.84a37.58,37.58,0,0,1,52.69-52.69l-6.83,6.84A28,28,0,0,0,920.23,392.55Z" fill="#484f57"/><path d="M1062.43,337.59A28,28,0,0,1,1085.55,310v-9.66a37.58,37.58,0,0,0,0,74.52v-9.67A28,28,0,0,1,1062.43,337.59Z" fill="#484f57"/><path d="M1118.59,337.59a28.05,28.05,0,0,1-23.13,27.59v9.67a37.58,37.58,0,0,0,0-74.52V310A28.07,28.07,0,0,1,1118.59,337.59Z" fill="#484f57"/><path d="M1145.86,357.44a28,28,0,0,1-3.17-35.85l-6.84-6.84a37.59,37.59,0,0,0,52.69,52.69l-6.84-6.84A28,28,0,0,1,1145.86,357.44Z" fill="#484f57"/><path d="M1185.56,317.74a28,28,0,0,1,3.16,35.85l6.84,6.84a37.58,37.58,0,0,0-52.69-52.69l6.83,6.83A28,28,0,0,1,1185.56,317.74Z" fill="#484f57"/><path d="M1193.79,412.41a28,28,0,0,0-23.12-27.59v-9.67a37.58,37.58,0,0,1,0,74.52V440A28,28,0,0,0,1193.79,412.41Z" fill="#484f57"/><path d="M1137.62,412.41A28,28,0,0,0,1160.75,440v9.67a37.58,37.58,0,0,1,0-74.52v9.67A28.06,28.06,0,0,0,1137.62,412.41Z" fill="#484f57"/><path d="M1110.35,432.26a28,28,0,0,0,3.16-35.85l6.84-6.84a37.58,37.58,0,0,1-52.69,52.69l6.85-6.84A28,28,0,0,0,1110.35,432.26Z" fill="#484f57"/><path d="M1070.64,392.55a28.05,28.05,0,0,0-3.16,35.86l-6.83,6.84a37.58,37.58,0,0,1,52.69-52.69l-6.84,6.84A28.05,28.05,0,0,0,1070.64,392.55Z" fill="#484f57"/><path d="M1212.84,337.59A28.05,28.05,0,0,1,1236,310v-9.66a37.58,37.58,0,0,0,0,74.52v-9.67A28,28,0,0,1,1212.84,337.59Z" fill="#484f57"/><path d="M1269,337.59a28,28,0,0,1-23.13,27.59v9.67a37.58,37.58,0,0,0,0-74.52V310A28.06,28.06,0,0,1,1269,337.59Z" fill="#484f57"/><path d="M1296.27,357.44a28,28,0,0,1-3.16-35.85l-6.83-6.84A37.58,37.58,0,0,0,1339,367.44l-6.84-6.84A28,28,0,0,1,1296.27,357.44Z" fill="#484f57"/><path d="M1336,317.74a28,28,0,0,1,3.15,35.85l6.84,6.84a37.58,37.58,0,0,0-52.69-52.69l6.84,6.83A28.05,28.05,0,0,1,1336,317.74Z" fill="#484f57"/><path d="M1344.19,412.41a28,28,0,0,0-23.11-27.59v-9.67a37.58,37.58,0,0,1,0,74.52V440A28,28,0,0,0,1344.19,412.41Z" fill="#484f57"/><path d="M1288,412.41A28.05,28.05,0,0,0,1311.16,440v9.67a37.58,37.58,0,0,1,0-74.52v9.67A28.06,28.06,0,0,0,1288,412.41Z" fill="#484f57"/><path d="M1260.76,432.26a28,28,0,0,0,3.16-35.85l6.84-6.84a37.58,37.58,0,0,1-52.69,52.69l6.84-6.84A28,28,0,0,0,1260.76,432.26Z" fill="#484f57"/><path d="M1221.06,392.55a28,28,0,0,0-3.15,35.86l-6.84,6.84a37.58,37.58,0,0,1,52.69-52.69l-6.84,6.84A28,28,0,0,0,1221.06,392.55Z" fill="#484f57"/><path d="M1363.25,337.59A28.05,28.05,0,0,1,1386.37,310v-9.66a37.58,37.58,0,0,0,0,74.52v-9.67A28,28,0,0,1,1363.25,337.59Z" fill="#484f57"/><path d="M1419.41,337.59a28,28,0,0,1-23.13,27.59v9.67a37.58,37.58,0,0,0,0-74.52V310A28.06,28.06,0,0,1,1419.41,337.59Z" fill="#484f57"/><path d="M1446.68,357.44a28.05,28.05,0,0,1-3.15-35.85l-6.84-6.84a37.58,37.58,0,0,0,52.69,52.69l-6.84-6.84A28,28,0,0,1,1446.68,357.44Z" fill="#484f57"/><path d="M1486.39,317.74a28,28,0,0,1,3.15,35.85l6.84,6.84a37.58,37.58,0,0,0-52.69-52.69l6.84,6.83A28.06,28.06,0,0,1,1486.39,317.74Z" fill="#484f57"/><path d="M1494.61,412.41a28,28,0,0,0-23.12-27.59v-9.67a37.58,37.58,0,0,1,0,74.52V440A28,28,0,0,0,1494.61,412.41Z" fill="#484f57"/><path d="M1438.45,412.41A28,28,0,0,0,1461.58,440v9.67a37.58,37.58,0,0,1,0-74.52v9.67A28.06,28.06,0,0,0,1438.45,412.41Z" fill="#484f57"/><path d="M1411.18,432.26a28,28,0,0,0,3.16-35.85l6.84-6.84a37.58,37.58,0,0,1-52.69,52.69l6.85-6.84A28,28,0,0,0,1411.18,432.26Z" fill="#484f57"/><path d="M1371.47,392.55a28,28,0,0,0-3.16,35.86l-6.84,6.84a37.58,37.58,0,0,1,52.69-52.69l-6.84,6.84A28,28,0,0,0,1371.47,392.55Z" fill="#484f57"/><path d="M1513.67,337.59A28,28,0,0,1,1536.79,310v-9.66a37.58,37.58,0,0,0,0,74.52v-9.67A28,28,0,0,1,1513.67,337.59Z" fill="#484f57"/><path d="M1569.83,337.59a28.05,28.05,0,0,1-23.13,27.59v9.67a37.58,37.58,0,0,0,0-74.52V310A28.07,28.07,0,0,1,1569.83,337.59Z" fill="#484f57"/><path d="M1597.1,357.44a28,28,0,0,1-3.16-35.85l-6.84-6.84a37.58,37.58,0,0,0,52.69,52.69L1633,360.6A28,28,0,0,1,1597.1,357.44Z" fill="#484f57"/><path d="M1636.81,317.74a28,28,0,0,1,3.15,35.85l6.84,6.84a37.58,37.58,0,0,0-52.69-52.69l6.83,6.83A28.06,28.06,0,0,1,1636.81,317.74Z" fill="#484f57"/><path d="M1645,412.41a28,28,0,0,0-23.12-27.59v-9.67a37.58,37.58,0,0,1,0,74.52V440A28,28,0,0,0,1645,412.41Z" fill="#484f57"/><path d="M1588.86,412.41A28.05,28.05,0,0,0,1612,440v9.67a37.58,37.58,0,0,1,0-74.52v9.67A28.07,28.07,0,0,0,1588.86,412.41Z" fill="#484f57"/><path d="M1561.59,432.26a28,28,0,0,0,3.16-35.85l6.84-6.84a37.58,37.58,0,0,1-52.69,52.69l6.84-6.84A28,28,0,0,0,1561.59,432.26Z" fill="#484f57"/><path d="M1521.88,392.55a28,28,0,0,0-3.16,35.86l-6.84,6.84a37.58,37.58,0,0,1,52.69-52.69l-6.84,6.84A28,28,0,0,0,1521.88,392.55Z" fill="#484f57"/><path d="M1664.08,337.59A28,28,0,0,1,1687.2,310v-9.66a37.58,37.58,0,0,0,0,74.52v-9.67A28,28,0,0,1,1664.08,337.59Z" fill="#484f57"/><path d="M1720.23,337.59a28,28,0,0,1-23.13,27.59v9.67a37.58,37.58,0,0,0,0-74.52V310A28.06,28.06,0,0,1,1720.23,337.59Z" fill="#484f57"/><path d="M1747.51,357.44a28,28,0,0,1-3.16-35.85l-6.83-6.84a37.58,37.58,0,0,0,52.69,52.69l-6.85-6.84A28,28,0,0,1,1747.51,357.44Z" fill="#484f57"/><path d="M1787.22,317.74a28,28,0,0,1,3.16,35.85l6.84,6.84a37.58,37.58,0,0,0-52.69-52.69l6.84,6.83A28.05,28.05,0,0,1,1787.22,317.74Z" fill="#484f57"/><path d="M1795.43,412.41a28,28,0,0,0-23.12-27.59v-9.67a37.58,37.58,0,0,1,0,74.52V440A28,28,0,0,0,1795.43,412.41Z" fill="#484f57"/><path d="M1739.28,412.41A28,28,0,0,0,1762.4,440v9.67a37.58,37.58,0,0,1,0-74.52v9.67A28.06,28.06,0,0,0,1739.28,412.41Z" fill="#484f57"/><path d="M1712,432.26a28,28,0,0,0,3.17-35.85l6.84-6.84a37.59,37.59,0,0,1-52.7,52.69l6.85-6.84A28,28,0,0,0,1712,432.26Z" fill="#484f57"/><path d="M1672.3,392.55a28,28,0,0,0-3.15,35.86l-6.84,6.84A37.58,37.58,0,0,1,1715,382.56l-6.84,6.84A28.05,28.05,0,0,0,1672.3,392.55Z" fill="#484f57"/><path d="M9.53,487.59A28,28,0,0,1,32.65,460v-9.67a37.58,37.58,0,0,0,0,74.51v-9.67A28,28,0,0,1,9.53,487.59Z" fill="#484f57"/><path d="M65.69,487.59a28,28,0,0,1-23.13,27.59v9.67a37.58,37.58,0,0,0,0-74.51V460A28.06,28.06,0,0,1,65.69,487.59Z" fill="#484f57"/><path d="M93,507.45a28,28,0,0,1-3.16-35.85L83,464.76a37.58,37.58,0,0,0,52.69,52.69l-6.84-6.84A28,28,0,0,1,93,507.45Z" fill="#484f57"/><path d="M132.67,467.73a28.05,28.05,0,0,1,3.16,35.86l6.84,6.84A37.58,37.58,0,0,0,90,457.74l6.84,6.84A28.06,28.06,0,0,1,132.67,467.73Z" fill="#484f57"/><path d="M140.88,562.41a28,28,0,0,0-23.11-27.59v-9.67a37.58,37.58,0,0,1,0,74.51V590A28,28,0,0,0,140.88,562.41Z" fill="#484f57"/><path d="M84.72,562.41A28,28,0,0,0,107.85,590v9.67a37.58,37.58,0,0,1,0-74.51v9.67A28.07,28.07,0,0,0,84.72,562.41Z" fill="#484f57"/><path d="M57.45,582.26a28,28,0,0,0,3.16-35.85l6.84-6.84a37.58,37.58,0,0,1-52.69,52.69l6.84-6.85A28,28,0,0,0,57.45,582.26Z" fill="#484f57"/><path d="M17.75,542.55a28,28,0,0,0-3.15,35.86l-6.84,6.84a37.58,37.58,0,0,1,52.69-52.69l-6.83,6.84A28.06,28.06,0,0,0,17.75,542.55Z" fill="#484f57"/><path d="M159.95,487.59A28,28,0,0,1,183.06,460v-9.67a37.58,37.58,0,0,0,0,74.51v-9.67A28,28,0,0,1,159.95,487.59Z" fill="#484f57"/><path d="M216.1,487.59A28,28,0,0,1,193,515.18v9.67a37.58,37.58,0,0,0,0-74.51V460A28.06,28.06,0,0,1,216.1,487.59Z" fill="#484f57"/><path d="M243.37,507.45a28,28,0,0,1-3.16-35.85l-6.83-6.84a37.58,37.58,0,0,0,52.69,52.69l-6.84-6.84A28,28,0,0,1,243.37,507.45Z" fill="#484f57"/><path d="M283.08,467.73a28,28,0,0,1,3.17,35.86l6.84,6.84a37.58,37.58,0,0,0-52.69-52.69l6.84,6.84A28,28,0,0,1,283.08,467.73Z" fill="#484f57"/><path d="M291.3,562.41a28,28,0,0,0-23.12-27.59v-9.67a37.58,37.58,0,0,1,0,74.51V590A28,28,0,0,0,291.3,562.41Z" fill="#484f57"/><path d="M235.14,562.41A28,28,0,0,0,258.27,590v9.67a37.58,37.58,0,0,1,0-74.51v9.67A28.05,28.05,0,0,0,235.14,562.41Z" fill="#484f57"/><path d="M207.87,582.26A28,28,0,0,0,211,546.41l6.83-6.84a37.59,37.59,0,0,1-52.69,52.69l6.85-6.85A28,28,0,0,0,207.87,582.26Z" fill="#484f57"/><path d="M168.16,542.55A28,28,0,0,0,165,578.41l-6.85,6.84a37.59,37.59,0,0,1,52.69-52.69L204,539.39A28.06,28.06,0,0,0,168.16,542.55Z" fill="#484f57"/><path d="M310.36,487.59A28,28,0,0,1,333.48,460v-9.67a37.58,37.58,0,0,0,0,74.51v-9.67A28,28,0,0,1,310.36,487.59Z" fill="#484f57"/><path d="M366.52,487.59a28,28,0,0,1-23.13,27.59v9.67a37.58,37.58,0,0,0,0-74.51V460A28.06,28.06,0,0,1,366.52,487.59Z" fill="#484f57"/><path d="M393.79,507.45a28,28,0,0,1-3.16-35.85l-6.84-6.84a37.58,37.58,0,0,0,52.69,52.69l-6.84-6.84A28,28,0,0,1,393.79,507.45Z" fill="#484f57"/><path d="M433.5,467.73a28,28,0,0,1,3.15,35.86l6.84,6.84a37.58,37.58,0,0,0-52.69-52.69l6.84,6.84A28.06,28.06,0,0,1,433.5,467.73Z" fill="#484f57"/><path d="M441.71,562.41a28,28,0,0,0-23.12-27.59v-9.67a37.58,37.58,0,0,1,0,74.51V590A28,28,0,0,0,441.71,562.41Z" fill="#484f57"/><path d="M385.56,562.41A28,28,0,0,0,408.68,590v9.67a37.58,37.58,0,0,1,0-74.51v9.67A28.06,28.06,0,0,0,385.56,562.41Z" fill="#484f57"/><path d="M358.28,582.26a28,28,0,0,0,3.15-35.85l6.84-6.84a37.58,37.58,0,0,1-52.69,52.69l6.83-6.85A28,28,0,0,0,358.28,582.26Z" fill="#484f57"/><path d="M318.57,542.55a28,28,0,0,0-3.15,35.86l-6.84,6.84a37.58,37.58,0,0,1,52.69-52.69l-6.84,6.84A28.06,28.06,0,0,0,318.57,542.55Z" fill="#484f57"/><path d="M460.77,487.59A28,28,0,0,1,483.89,460v-9.67a37.58,37.58,0,0,0,0,74.51v-9.67A28,28,0,0,1,460.77,487.59Z" fill="#484f57"/><path d="M516.92,487.59a28,28,0,0,1-23.12,27.59v9.67a37.58,37.58,0,0,0,0-74.51V460A28.05,28.05,0,0,1,516.92,487.59Z" fill="#484f57"/><path d="M544.2,507.45A28.05,28.05,0,0,1,541,471.59l-6.83-6.84a37.58,37.58,0,0,0,52.69,52.69l-6.84-6.84A28,28,0,0,1,544.2,507.45Z" fill="#484f57"/><path d="M583.91,467.73a28,28,0,0,1,3.16,35.86l6.84,6.84a37.58,37.58,0,0,0-52.69-52.69l6.84,6.84A28.05,28.05,0,0,1,583.91,467.73Z" fill="#484f57"/><path d="M592.12,562.41A28,28,0,0,0,569,534.82v-9.67a37.58,37.58,0,0,1,0,74.51V590A28,28,0,0,0,592.12,562.41Z" fill="#484f57"/><path d="M536,562.41A28,28,0,0,0,559.09,590v9.67a37.58,37.58,0,0,1,0-74.51v9.67A28.06,28.06,0,0,0,536,562.41Z" fill="#484f57"/><path d="M508.69,582.26a28,28,0,0,0,3.17-35.85l6.83-6.84A37.58,37.58,0,0,1,466,592.26l6.84-6.85A28,28,0,0,0,508.69,582.26Z" fill="#484f57"/><path d="M469,542.55a28,28,0,0,0-3.16,35.86L459,585.25a37.58,37.58,0,0,1,52.69-52.69l-6.84,6.84A28.06,28.06,0,0,0,469,542.55Z" fill="#484f57"/><path d="M611.19,487.59A28,28,0,0,1,634.3,460v-9.67a37.58,37.58,0,0,0,0,74.51v-9.67A28,28,0,0,1,611.19,487.59Z" fill="#484f57"/><path d="M667.34,487.59a28,28,0,0,1-23.12,27.59v9.67a37.58,37.58,0,0,0,0-74.51V460A28.06,28.06,0,0,1,667.34,487.59Z" fill="#484f57"/><path d="M694.62,507.45a28,28,0,0,1-3.17-35.85l-6.84-6.84a37.58,37.58,0,0,0,52.69,52.69l-6.84-6.84A28,28,0,0,1,694.62,507.45Z" fill="#484f57"/><path d="M734.32,467.73a28,28,0,0,1,3.16,35.86l6.84,6.84a37.58,37.58,0,0,0-52.69-52.69l6.84,6.84A28,28,0,0,1,734.32,467.73Z" fill="#484f57"/><path d="M742.54,562.41a28,28,0,0,0-23.12-27.59v-9.67a37.58,37.58,0,0,1,0,74.51V590A28,28,0,0,0,742.54,562.41Z" fill="#484f57"/><path d="M686.39,562.41A28,28,0,0,0,709.51,590v9.67a37.58,37.58,0,0,1,0-74.51v9.67A28.05,28.05,0,0,0,686.39,562.41Z" fill="#484f57"/><path d="M659.11,582.26a28,28,0,0,0,3.15-35.85l6.84-6.84a37.58,37.58,0,0,1-52.69,52.69l6.84-6.85A28,28,0,0,0,659.11,582.26Z" fill="#484f57"/><path d="M619.4,542.55a28.06,28.06,0,0,0-3.16,35.86l-6.84,6.84a37.58,37.58,0,0,1,52.69-52.69l-6.83,6.84A28.07,28.07,0,0,0,619.4,542.55Z" fill="#484f57"/><path d="M761.6,487.59A28,28,0,0,1,784.72,460v-9.67a37.58,37.58,0,0,0,0,74.51v-9.67A28,28,0,0,1,761.6,487.59Z" fill="#484f57"/><path d="M817.75,487.59a28,28,0,0,1-23.13,27.59v9.67a37.58,37.58,0,0,0,0-74.51V460A28.06,28.06,0,0,1,817.75,487.59Z" fill="#484f57"/><path d="M845,507.45a28,28,0,0,1-3.16-35.85L835,464.76a37.58,37.58,0,0,0,52.69,52.69l-6.83-6.84A28,28,0,0,1,845,507.45Z" fill="#484f57"/><path d="M884.74,467.73a28,28,0,0,1,3.15,35.86l6.84,6.84A37.58,37.58,0,0,0,842,457.74l6.84,6.84A28.06,28.06,0,0,1,884.74,467.73Z" fill="#484f57"/><path d="M893,562.41a28,28,0,0,0-23.12-27.59v-9.67a37.58,37.58,0,0,1,0,74.51V590A28,28,0,0,0,893,562.41Z" fill="#484f57"/><path d="M836.79,562.41A28,28,0,0,0,859.92,590v9.67a37.58,37.58,0,0,1,0-74.51v9.67A28.06,28.06,0,0,0,836.79,562.41Z" fill="#484f57"/><path d="M809.52,582.26a28,28,0,0,0,3.16-35.85l6.84-6.84a37.58,37.58,0,0,1-52.69,52.69l6.83-6.85A28,28,0,0,0,809.52,582.26Z" fill="#484f57"/><path d="M769.82,542.55a28,28,0,0,0-3.16,35.86l-6.84,6.84a37.58,37.58,0,0,1,52.69-52.69l-6.84,6.84A28.06,28.06,0,0,0,769.82,542.55Z" fill="#484f57"/><path d="M912,487.59A28,28,0,0,1,935.12,460v-9.67a37.58,37.58,0,0,0,0,74.51v-9.67A28,28,0,0,1,912,487.59Z" fill="#484f57"/><path d="M968.17,487.59A28,28,0,0,1,945,515.18v9.67a37.58,37.58,0,0,0,0-74.51V460A28.05,28.05,0,0,1,968.17,487.59Z" fill="#484f57"/><path d="M995.44,507.45a28,28,0,0,1-3.15-35.85l-6.84-6.84a37.58,37.58,0,0,0,52.69,52.69l-6.84-6.84A28,28,0,0,1,995.44,507.45Z" fill="#484f57"/><path d="M1035.15,467.73a28.05,28.05,0,0,1,3.15,35.86l6.84,6.84a37.58,37.58,0,0,0-52.69-52.69l6.83,6.84A28.06,28.06,0,0,1,1035.15,467.73Z" fill="#484f57"/><path d="M1043.37,562.41a28,28,0,0,0-23.12-27.59v-9.67a37.58,37.58,0,0,1,0,74.51V590A28,28,0,0,0,1043.37,562.41Z" fill="#484f57"/><path d="M987.21,562.41A28,28,0,0,0,1010.33,590v9.67a37.58,37.58,0,0,1,0-74.51v9.67A28.06,28.06,0,0,0,987.21,562.41Z" fill="#484f57"/><path d="M959.94,582.26a28,28,0,0,0,3.16-35.85l6.84-6.84a37.58,37.58,0,0,1-52.69,52.69l6.84-6.85A28,28,0,0,0,959.94,582.26Z" fill="#484f57"/><path d="M920.23,542.55a28,28,0,0,0-3.16,35.86l-6.84,6.84a37.58,37.58,0,0,1,52.69-52.69l-6.83,6.84A28.06,28.06,0,0,0,920.23,542.55Z" fill="#484f57"/><path d="M1062.43,487.59A28,28,0,0,1,1085.55,460v-9.67a37.58,37.58,0,0,0,0,74.51v-9.67A28,28,0,0,1,1062.43,487.59Z" fill="#484f57"/><path d="M1118.59,487.59a28,28,0,0,1-23.13,27.59v9.67a37.58,37.58,0,0,0,0-74.51V460A28.06,28.06,0,0,1,1118.59,487.59Z" fill="#484f57"/><path d="M1145.86,507.45a28,28,0,0,1-3.17-35.85l-6.84-6.84a37.58,37.58,0,0,0,52.69,52.69l-6.84-6.84A28,28,0,0,1,1145.86,507.45Z" fill="#484f57"/><path d="M1185.56,467.73a28,28,0,0,1,3.16,35.86l6.84,6.84a37.58,37.58,0,0,0-52.69-52.69l6.83,6.84A28.05,28.05,0,0,1,1185.56,467.73Z" fill="#484f57"/><path d="M1193.79,562.41a28,28,0,0,0-23.12-27.59v-9.67a37.58,37.58,0,0,1,0,74.51V590A28,28,0,0,0,1193.79,562.41Z" fill="#484f57"/><path d="M1137.62,562.41A28,28,0,0,0,1160.75,590v9.67a37.58,37.58,0,0,1,0-74.51v9.67A28.06,28.06,0,0,0,1137.62,562.41Z" fill="#484f57"/><path d="M1110.35,582.26a28,28,0,0,0,3.16-35.85l6.84-6.84a37.59,37.59,0,0,1-52.69,52.69l6.85-6.85A28,28,0,0,0,1110.35,582.26Z" fill="#484f57"/><path d="M1070.64,542.55a28.06,28.06,0,0,0-3.16,35.86l-6.83,6.84a37.58,37.58,0,0,1,52.69-52.69l-6.84,6.84A28.07,28.07,0,0,0,1070.64,542.55Z" fill="#484f57"/><path d="M1212.84,487.59A28,28,0,0,1,1236,460v-9.67a37.58,37.58,0,0,0,0,74.51v-9.67A28,28,0,0,1,1212.84,487.59Z" fill="#484f57"/><path d="M1269,487.59a28,28,0,0,1-23.13,27.59v9.67a37.58,37.58,0,0,0,0-74.51V460A28.06,28.06,0,0,1,1269,487.59Z" fill="#484f57"/><path d="M1296.27,507.45a28,28,0,0,1-3.16-35.85l-6.83-6.84A37.58,37.58,0,0,0,1339,517.44l-6.84-6.84A28,28,0,0,1,1296.27,507.45Z" fill="#484f57"/><path d="M1336,467.73a28,28,0,0,1,3.15,35.86l6.84,6.84a37.58,37.58,0,0,0-52.69-52.69l6.84,6.84A28.06,28.06,0,0,1,1336,467.73Z" fill="#484f57"/><path d="M1344.19,562.41a28,28,0,0,0-23.11-27.59v-9.67a37.58,37.58,0,0,1,0,74.51V590A28,28,0,0,0,1344.19,562.41Z" fill="#484f57"/><path d="M1288,562.41A28,28,0,0,0,1311.16,590v9.67a37.58,37.58,0,0,1,0-74.51v9.67A28.06,28.06,0,0,0,1288,562.41Z" fill="#484f57"/><path d="M1260.76,582.26a28.05,28.05,0,0,0,3.16-35.85l6.84-6.84a37.58,37.58,0,0,1-52.69,52.69l6.84-6.85A28,28,0,0,0,1260.76,582.26Z" fill="#484f57"/><path d="M1221.06,542.55a28,28,0,0,0-3.15,35.86l-6.84,6.84a37.58,37.58,0,0,1,52.69-52.69l-6.84,6.84A28.06,28.06,0,0,0,1221.06,542.55Z" fill="#484f57"/><path d="M1363.25,487.59A28,28,0,0,1,1386.37,460v-9.67a37.58,37.58,0,0,0,0,74.51v-9.67A28,28,0,0,1,1363.25,487.59Z" fill="#484f57"/><path d="M1419.41,487.59a28,28,0,0,1-23.13,27.59v9.67a37.58,37.58,0,0,0,0-74.51V460A28.06,28.06,0,0,1,1419.41,487.59Z" fill="#484f57"/><path d="M1446.68,507.45a28.06,28.06,0,0,1-3.15-35.85l-6.84-6.84a37.58,37.58,0,0,0,52.69,52.69l-6.84-6.84A28,28,0,0,1,1446.68,507.45Z" fill="#484f57"/><path d="M1486.39,467.73a28.05,28.05,0,0,1,3.15,35.86l6.84,6.84a37.58,37.58,0,0,0-52.69-52.69l6.84,6.84A28.06,28.06,0,0,1,1486.39,467.73Z" fill="#484f57"/><path d="M1494.61,562.41a28,28,0,0,0-23.12-27.59v-9.67a37.58,37.58,0,0,1,0,74.51V590A28,28,0,0,0,1494.61,562.41Z" fill="#484f57"/><path d="M1438.45,562.41A28,28,0,0,0,1461.58,590v9.67a37.58,37.58,0,0,1,0-74.51v9.67A28.06,28.06,0,0,0,1438.45,562.41Z" fill="#484f57"/><path d="M1411.18,582.26a28,28,0,0,0,3.16-35.85l6.84-6.84a37.59,37.59,0,0,1-52.69,52.69l6.85-6.85A28,28,0,0,0,1411.18,582.26Z" fill="#484f57"/><path d="M1371.47,542.55a28.05,28.05,0,0,0-3.16,35.86l-6.84,6.84a37.58,37.58,0,0,1,52.69-52.69l-6.84,6.84A28.05,28.05,0,0,0,1371.47,542.55Z" fill="#484f57"/><path d="M1513.67,487.59A28,28,0,0,1,1536.79,460v-9.67a37.58,37.58,0,0,0,0,74.51v-9.67A28,28,0,0,1,1513.67,487.59Z" fill="#484f57"/><path d="M1569.83,487.59a28,28,0,0,1-23.13,27.59v9.67a37.58,37.58,0,0,0,0-74.51V460A28.06,28.06,0,0,1,1569.83,487.59Z" fill="#484f57"/><path d="M1597.1,507.45a28,28,0,0,1-3.16-35.85l-6.84-6.84a37.58,37.58,0,0,0,52.69,52.69L1633,510.6A28,28,0,0,1,1597.1,507.45Z" fill="#484f57"/><path d="M1636.81,467.73A28,28,0,0,1,1640,503.6l6.84,6.84a37.58,37.58,0,0,0-52.69-52.69l6.83,6.84A28.07,28.07,0,0,1,1636.81,467.73Z" fill="#484f57"/><path d="M1645,562.41a28,28,0,0,0-23.12-27.59v-9.67a37.58,37.58,0,0,1,0,74.51V590A28,28,0,0,0,1645,562.41Z" fill="#484f57"/><path d="M1588.86,562.41A28,28,0,0,0,1612,590v9.67a37.58,37.58,0,0,1,0-74.51v9.67A28.06,28.06,0,0,0,1588.86,562.41Z" fill="#484f57"/><path d="M1561.59,582.26a28,28,0,0,0,3.16-35.85l6.84-6.84a37.59,37.59,0,0,1-52.69,52.69l6.84-6.85A28,28,0,0,0,1561.59,582.26Z" fill="#484f57"/><path d="M1521.88,542.55a28.05,28.05,0,0,0-3.16,35.86l-6.84,6.84a37.58,37.58,0,0,1,52.69-52.69l-6.84,6.84A28.06,28.06,0,0,0,1521.88,542.55Z" fill="#484f57"/><path d="M1664.08,487.59A28,28,0,0,1,1687.2,460v-9.67a37.58,37.58,0,0,0,0,74.51v-9.67A28,28,0,0,1,1664.08,487.59Z" fill="#484f57"/><path d="M1720.23,487.59a28,28,0,0,1-23.13,27.59v9.67a37.58,37.58,0,0,0,0-74.51V460A28.05,28.05,0,0,1,1720.23,487.59Z" fill="#484f57"/><path d="M1747.51,507.45a28,28,0,0,1-3.16-35.85l-6.83-6.84a37.58,37.58,0,0,0,52.69,52.69l-6.85-6.84A28,28,0,0,1,1747.51,507.45Z" fill="#484f57"/><path d="M1787.22,467.73a28,28,0,0,1,3.16,35.86l6.84,6.84a37.58,37.58,0,0,0-52.69-52.69l6.84,6.84A28.06,28.06,0,0,1,1787.22,467.73Z" fill="#484f57"/><path d="M1795.43,562.41a28,28,0,0,0-23.12-27.59v-9.67a37.58,37.58,0,0,1,0,74.51V590A28,28,0,0,0,1795.43,562.41Z" fill="#484f57"/><path d="M1739.28,562.41A28,28,0,0,0,1762.4,590v9.67a37.58,37.58,0,0,1,0-74.51v9.67A28.06,28.06,0,0,0,1739.28,562.41Z" fill="#484f57"/><path d="M1712,582.26a28,28,0,0,0,3.17-35.85l6.84-6.84a37.59,37.59,0,0,1-52.7,52.69l6.85-6.85A28,28,0,0,0,1712,582.26Z" fill="#484f57"/><path d="M1672.3,542.55a28,28,0,0,0-3.15,35.86l-6.84,6.84A37.58,37.58,0,0,1,1715,532.56l-6.84,6.84A28.06,28.06,0,0,0,1672.3,542.55Z" fill="#484f57"/><path d="M9.53,637.59A28,28,0,0,1,32.65,610v-9.67a37.58,37.58,0,0,0,0,74.51v-9.67A28,28,0,0,1,9.53,637.59Z" fill="#484f57"/><path d="M65.69,637.59a28,28,0,0,1-23.13,27.58v9.67a37.58,37.58,0,0,0,0-74.51V610A28.05,28.05,0,0,1,65.69,637.59Z" fill="#484f57"/><path d="M93,657.45a28,28,0,0,1-3.16-35.86L83,614.76a37.58,37.58,0,0,0,52.69,52.68l-6.84-6.83A28,28,0,0,1,93,657.45Z" fill="#484f57"/><path d="M132.67,617.74a28,28,0,0,1,3.16,35.86l6.84,6.84A37.59,37.59,0,0,0,90,607.74l6.84,6.84A28.05,28.05,0,0,1,132.67,617.74Z" fill="#484f57"/><path d="M140.88,712.41a28,28,0,0,0-23.11-27.59v-9.67a37.58,37.58,0,0,1,0,74.51V740A28,28,0,0,0,140.88,712.41Z" fill="#484f57"/><path d="M84.72,712.41A28.05,28.05,0,0,0,107.85,740v9.67a37.58,37.58,0,0,1,0-74.51v9.67A28.06,28.06,0,0,0,84.72,712.41Z" fill="#484f57"/><path d="M57.45,732.26a28,28,0,0,0,3.16-35.86l6.84-6.84a37.58,37.58,0,0,1-52.69,52.69l6.84-6.84A28,28,0,0,0,57.45,732.26Z" fill="#484f57"/><path d="M17.75,692.55a28,28,0,0,0-3.15,35.86l-6.84,6.84a37.58,37.58,0,0,1,52.69-52.69l-6.83,6.84A28.05,28.05,0,0,0,17.75,692.55Z" fill="#484f57"/><path d="M159.95,637.59A28,28,0,0,1,183.06,610v-9.67a37.58,37.58,0,0,0,0,74.51v-9.67A28,28,0,0,1,159.95,637.59Z" fill="#484f57"/><path d="M216.1,637.59A28,28,0,0,1,193,665.18v9.67a37.58,37.58,0,0,0,0-74.51V610A28,28,0,0,1,216.1,637.59Z" fill="#484f57"/><path d="M243.37,657.45a28,28,0,0,1-3.16-35.86l-6.83-6.83a37.58,37.58,0,0,0,52.69,52.68l-6.84-6.83A28,28,0,0,1,243.37,657.45Z" fill="#484f57"/><path d="M283.08,617.74a28,28,0,0,1,3.17,35.86l6.84,6.84a37.59,37.59,0,0,0-52.69-52.7l6.84,6.84A28,28,0,0,1,283.08,617.74Z" fill="#484f57"/><path d="M291.3,712.41a28,28,0,0,0-23.12-27.59v-9.67a37.58,37.58,0,0,1,0,74.51V740A28,28,0,0,0,291.3,712.41Z" fill="#484f57"/><path d="M235.14,712.41A28,28,0,0,0,258.27,740v9.67a37.58,37.58,0,0,1,0-74.51v9.67A28,28,0,0,0,235.14,712.41Z" fill="#484f57"/><path d="M207.87,732.26A28.05,28.05,0,0,0,211,696.41l6.83-6.84a37.58,37.58,0,0,1-52.69,52.69l6.85-6.84A28,28,0,0,0,207.87,732.26Z" fill="#484f57"/><path d="M168.16,692.55A28,28,0,0,0,165,728.41l-6.85,6.84a37.58,37.58,0,0,1,52.69-52.69L204,689.4A28.05,28.05,0,0,0,168.16,692.55Z" fill="#484f57"/><path d="M310.36,637.59A28,28,0,0,1,333.48,610v-9.67a37.58,37.58,0,0,0,0,74.51v-9.67A28,28,0,0,1,310.36,637.59Z" fill="#484f57"/><path d="M366.52,637.59a28,28,0,0,1-23.13,27.58v9.67a37.58,37.58,0,0,0,0-74.51V610A28.05,28.05,0,0,1,366.52,637.59Z" fill="#484f57"/><path d="M393.79,657.45a28,28,0,0,1-3.16-35.86l-6.84-6.83a37.58,37.58,0,0,0,52.69,52.68l-6.84-6.83A28,28,0,0,1,393.79,657.45Z" fill="#484f57"/><path d="M433.5,617.74a28,28,0,0,1,3.15,35.86l6.84,6.84a37.59,37.59,0,0,0-52.69-52.7l6.84,6.84A28.06,28.06,0,0,1,433.5,617.74Z" fill="#484f57"/><path d="M441.71,712.41a28,28,0,0,0-23.12-27.59v-9.67a37.58,37.58,0,0,1,0,74.51V740A28,28,0,0,0,441.71,712.41Z" fill="#484f57"/><path d="M385.56,712.41A28,28,0,0,0,408.68,740v9.67a37.58,37.58,0,0,1,0-74.51v9.67A28.05,28.05,0,0,0,385.56,712.41Z" fill="#484f57"/><path d="M358.28,732.26a28,28,0,0,0,3.15-35.86l6.84-6.84a37.58,37.58,0,0,1-52.69,52.69l6.83-6.84A28,28,0,0,0,358.28,732.26Z" fill="#484f57"/><path d="M318.57,692.55a28,28,0,0,0-3.15,35.86l-6.84,6.84a37.58,37.58,0,0,1,52.69-52.69l-6.84,6.84A28.05,28.05,0,0,0,318.57,692.55Z" fill="#484f57"/><path d="M460.77,637.59A28,28,0,0,1,483.89,610v-9.67a37.58,37.58,0,0,0,0,74.51v-9.67A28,28,0,0,1,460.77,637.59Z" fill="#484f57"/><path d="M516.92,637.59a28,28,0,0,1-23.12,27.58v9.67a37.58,37.58,0,0,0,0-74.51V610A28,28,0,0,1,516.92,637.59Z" fill="#484f57"/><path d="M544.2,657.45A28.06,28.06,0,0,1,541,621.59l-6.83-6.83a37.58,37.58,0,0,0,52.69,52.68l-6.84-6.83A28,28,0,0,1,544.2,657.45Z" fill="#484f57"/><path d="M583.91,617.74a28,28,0,0,1,3.16,35.86l6.84,6.84a37.58,37.58,0,0,0-52.69-52.7l6.84,6.84A28,28,0,0,1,583.91,617.74Z" fill="#484f57"/><path d="M592.12,712.41A28,28,0,0,0,569,684.82v-9.67a37.58,37.58,0,0,1,0,74.51V740A28,28,0,0,0,592.12,712.41Z" fill="#484f57"/><path d="M536,712.41A28,28,0,0,0,559.09,740v9.67a37.58,37.58,0,0,1,0-74.51v9.67A28.05,28.05,0,0,0,536,712.41Z" fill="#484f57"/><path d="M508.69,732.26a28,28,0,0,0,3.17-35.86l6.83-6.84A37.58,37.58,0,0,1,466,742.26l6.84-6.84A28,28,0,0,0,508.69,732.26Z" fill="#484f57"/><path d="M469,692.55a28,28,0,0,0-3.16,35.86L459,735.25a37.58,37.58,0,0,1,52.69-52.69l-6.84,6.84A28,28,0,0,0,469,692.55Z" fill="#484f57"/><path d="M611.19,637.59A28,28,0,0,1,634.3,610v-9.67a37.58,37.58,0,0,0,0,74.51v-9.67A28,28,0,0,1,611.19,637.59Z" fill="#484f57"/><path d="M667.34,637.59a28,28,0,0,1-23.12,27.58v9.67a37.58,37.58,0,0,0,0-74.51V610A28.05,28.05,0,0,1,667.34,637.59Z" fill="#484f57"/><path d="M694.62,657.45a28,28,0,0,1-3.17-35.86l-6.84-6.83a37.58,37.58,0,0,0,52.69,52.68l-6.84-6.83A28,28,0,0,1,694.62,657.45Z" fill="#484f57"/><path d="M734.32,617.74a28,28,0,0,1,3.16,35.86l6.84,6.84a37.59,37.59,0,0,0-52.69-52.7l6.84,6.84A28,28,0,0,1,734.32,617.74Z" fill="#484f57"/><path d="M742.54,712.41a28,28,0,0,0-23.12-27.59v-9.67a37.58,37.58,0,0,1,0,74.51V740A28,28,0,0,0,742.54,712.41Z" fill="#484f57"/><path d="M686.39,712.41A28,28,0,0,0,709.51,740v9.67a37.58,37.58,0,0,1,0-74.51v9.67A28,28,0,0,0,686.39,712.41Z" fill="#484f57"/><path d="M659.11,732.26a28,28,0,0,0,3.15-35.86l6.84-6.84a37.58,37.58,0,0,1-52.69,52.69l6.84-6.84A28,28,0,0,0,659.11,732.26Z" fill="#484f57"/><path d="M619.4,692.55a28.06,28.06,0,0,0-3.16,35.86l-6.84,6.84a37.58,37.58,0,0,1,52.69-52.69l-6.83,6.84A28.06,28.06,0,0,0,619.4,692.55Z" fill="#484f57"/><path d="M761.6,637.59A28,28,0,0,1,784.72,610v-9.67a37.58,37.58,0,0,0,0,74.51v-9.67A28,28,0,0,1,761.6,637.59Z" fill="#484f57"/><path d="M817.75,637.59a28,28,0,0,1-23.13,27.58v9.67a37.58,37.58,0,0,0,0-74.51V610A28,28,0,0,1,817.75,637.59Z" fill="#484f57"/><path d="M845,657.45a28,28,0,0,1-3.16-35.86L835,614.76a37.58,37.58,0,0,0,52.69,52.68l-6.83-6.83A28,28,0,0,1,845,657.45Z" fill="#484f57"/><path d="M884.74,617.74a28,28,0,0,1,3.15,35.86l6.84,6.84A37.58,37.58,0,0,0,842,607.74l6.84,6.84A28.05,28.05,0,0,1,884.74,617.74Z" fill="#484f57"/><path d="M893,712.41a28,28,0,0,0-23.12-27.59v-9.67a37.58,37.58,0,0,1,0,74.51V740A28,28,0,0,0,893,712.41Z" fill="#484f57"/><path d="M836.79,712.41A28,28,0,0,0,859.92,740v9.67a37.58,37.58,0,0,1,0-74.51v9.67A28.06,28.06,0,0,0,836.79,712.41Z" fill="#484f57"/><path d="M809.52,732.26a28,28,0,0,0,3.16-35.86l6.84-6.84a37.58,37.58,0,0,1-52.69,52.69l6.83-6.84A28,28,0,0,0,809.52,732.26Z" fill="#484f57"/><path d="M769.82,692.55a28,28,0,0,0-3.16,35.86l-6.84,6.84a37.58,37.58,0,0,1,52.69-52.69l-6.84,6.84A28.05,28.05,0,0,0,769.82,692.55Z" fill="#484f57"/><path d="M912,637.59A28,28,0,0,1,935.12,610v-9.67a37.58,37.58,0,0,0,0,74.51v-9.67A28,28,0,0,1,912,637.59Z" fill="#484f57"/><path d="M968.17,637.59A28,28,0,0,1,945,665.18v9.67a37.58,37.58,0,0,0,0-74.51V610A28,28,0,0,1,968.17,637.59Z" fill="#484f57"/><path d="M995.44,657.45a28.05,28.05,0,0,1-3.15-35.86l-6.84-6.83a37.58,37.58,0,0,0,52.69,52.68l-6.84-6.83A28,28,0,0,1,995.44,657.45Z" fill="#484f57"/><path d="M1035.15,617.74a28,28,0,0,1,3.15,35.86l6.84,6.84a37.58,37.58,0,0,0-52.69-52.7l6.83,6.84A28.05,28.05,0,0,1,1035.15,617.74Z" fill="#484f57"/><path d="M1043.37,712.41a28,28,0,0,0-23.12-27.59v-9.67a37.58,37.58,0,0,1,0,74.51V740A28,28,0,0,0,1043.37,712.41Z" fill="#484f57"/><path d="M987.21,712.41A28,28,0,0,0,1010.33,740v9.67a37.58,37.58,0,0,1,0-74.51v9.67A28.05,28.05,0,0,0,987.21,712.41Z" fill="#484f57"/><path d="M959.94,732.26a28,28,0,0,0,3.16-35.86l6.84-6.84a37.58,37.58,0,0,1-52.69,52.69l6.84-6.84A28,28,0,0,0,959.94,732.26Z" fill="#484f57"/><path d="M920.23,692.55a28,28,0,0,0-3.16,35.86l-6.84,6.84a37.58,37.58,0,0,1,52.69-52.69l-6.83,6.84A28,28,0,0,0,920.23,692.55Z" fill="#484f57"/><path d="M1062.43,637.59A28,28,0,0,1,1085.55,610v-9.67a37.58,37.58,0,0,0,0,74.51v-9.67A28,28,0,0,1,1062.43,637.59Z" fill="#484f57"/><path d="M1118.59,637.59a28,28,0,0,1-23.13,27.58v9.67a37.58,37.58,0,0,0,0-74.51V610A28.05,28.05,0,0,1,1118.59,637.59Z" fill="#484f57"/><path d="M1145.86,657.45a28,28,0,0,1-3.17-35.86l-6.84-6.83a37.58,37.58,0,0,0,52.69,52.68l-6.84-6.83A28,28,0,0,1,1145.86,657.45Z" fill="#484f57"/><path d="M1185.56,617.74a28,28,0,0,1,3.16,35.86l6.84,6.84a37.58,37.58,0,0,0-52.69-52.7l6.83,6.84A28,28,0,0,1,1185.56,617.74Z" fill="#484f57"/><path d="M1193.79,712.41a28,28,0,0,0-23.12-27.59v-9.67a37.58,37.58,0,0,1,0,74.51V740A28,28,0,0,0,1193.79,712.41Z" fill="#484f57"/><path d="M1137.62,712.41A28,28,0,0,0,1160.75,740v9.67a37.58,37.58,0,0,1,0-74.51v9.67A28.05,28.05,0,0,0,1137.62,712.41Z" fill="#484f57"/><path d="M1110.35,732.26a28,28,0,0,0,3.16-35.86l6.84-6.84a37.58,37.58,0,0,1-52.69,52.69l6.85-6.84A28,28,0,0,0,1110.35,732.26Z" fill="#484f57"/><path d="M1070.64,692.55a28.06,28.06,0,0,0-3.16,35.86l-6.83,6.84a37.58,37.58,0,0,1,52.69-52.69l-6.84,6.84A28.06,28.06,0,0,0,1070.64,692.55Z" fill="#484f57"/><path d="M1212.84,637.59A28,28,0,0,1,1236,610v-9.67a37.58,37.58,0,0,0,0,74.51v-9.67A28,28,0,0,1,1212.84,637.59Z" fill="#484f57"/><path d="M1269,637.59a28,28,0,0,1-23.13,27.58v9.67a37.58,37.58,0,0,0,0-74.51V610A28,28,0,0,1,1269,637.59Z" fill="#484f57"/><path d="M1296.27,657.45a28,28,0,0,1-3.16-35.86l-6.83-6.83A37.58,37.58,0,0,0,1339,667.44l-6.84-6.83A28,28,0,0,1,1296.27,657.45Z" fill="#484f57"/><path d="M1336,617.74a28,28,0,0,1,3.15,35.86l6.84,6.84a37.58,37.58,0,0,0-52.69-52.7l6.84,6.84A28.05,28.05,0,0,1,1336,617.74Z" fill="#484f57"/><path d="M1344.19,712.41a28,28,0,0,0-23.11-27.59v-9.67a37.58,37.58,0,0,1,0,74.51V740A28,28,0,0,0,1344.19,712.41Z" fill="#484f57"/><path d="M1288,712.41A28,28,0,0,0,1311.16,740v9.67a37.58,37.58,0,0,1,0-74.51v9.67A28.05,28.05,0,0,0,1288,712.41Z" fill="#484f57"/><path d="M1260.76,732.26a28.06,28.06,0,0,0,3.16-35.86l6.84-6.84a37.58,37.58,0,0,1-52.69,52.69l6.84-6.84A28,28,0,0,0,1260.76,732.26Z" fill="#484f57"/><path d="M1221.06,692.55a28,28,0,0,0-3.15,35.86l-6.84,6.84a37.58,37.58,0,0,1,52.69-52.69l-6.84,6.84A28,28,0,0,0,1221.06,692.55Z" fill="#484f57"/><path d="M1363.25,637.59A28,28,0,0,1,1386.37,610v-9.67a37.58,37.58,0,0,0,0,74.51v-9.67A28,28,0,0,1,1363.25,637.59Z" fill="#484f57"/><path d="M1419.41,637.59a28,28,0,0,1-23.13,27.58v9.67a37.58,37.58,0,0,0,0-74.51V610A28,28,0,0,1,1419.41,637.59Z" fill="#484f57"/><path d="M1446.68,657.45a28.06,28.06,0,0,1-3.15-35.86l-6.84-6.83a37.58,37.58,0,0,0,52.69,52.68l-6.84-6.83A28,28,0,0,1,1446.68,657.45Z" fill="#484f57"/><path d="M1486.39,617.74a28,28,0,0,1,3.15,35.86l6.84,6.84a37.59,37.59,0,0,0-52.69-52.7l6.84,6.84A28.05,28.05,0,0,1,1486.39,617.74Z" fill="#484f57"/><path d="M1494.61,712.41a28,28,0,0,0-23.12-27.59v-9.67a37.58,37.58,0,0,1,0,74.51V740A28,28,0,0,0,1494.61,712.41Z" fill="#484f57"/><path d="M1438.45,712.41A28,28,0,0,0,1461.58,740v9.67a37.58,37.58,0,0,1,0-74.51v9.67A28,28,0,0,0,1438.45,712.41Z" fill="#484f57"/><path d="M1411.18,732.26a28,28,0,0,0,3.16-35.86l6.84-6.84a37.58,37.58,0,0,1-52.69,52.69l6.85-6.84A28,28,0,0,0,1411.18,732.26Z" fill="#484f57"/><path d="M1371.47,692.55a28.05,28.05,0,0,0-3.16,35.86l-6.84,6.84a37.58,37.58,0,0,1,52.69-52.69l-6.84,6.84A28,28,0,0,0,1371.47,692.55Z" fill="#484f57"/><path d="M1513.67,637.59A28,28,0,0,1,1536.79,610v-9.67a37.58,37.58,0,0,0,0,74.51v-9.67A28,28,0,0,1,1513.67,637.59Z" fill="#484f57"/><path d="M1569.83,637.59a28,28,0,0,1-23.13,27.58v9.67a37.58,37.58,0,0,0,0-74.51V610A28.05,28.05,0,0,1,1569.83,637.59Z" fill="#484f57"/><path d="M1597.1,657.45a28,28,0,0,1-3.16-35.86l-6.84-6.83a37.58,37.58,0,0,0,52.69,52.68l-6.84-6.83A28,28,0,0,1,1597.1,657.45Z" fill="#484f57"/><path d="M1636.81,617.74A28,28,0,0,1,1640,653.6l6.84,6.84a37.59,37.59,0,0,0-52.69-52.7l6.83,6.84A28.06,28.06,0,0,1,1636.81,617.74Z" fill="#484f57"/><path d="M1645,712.41a28,28,0,0,0-23.12-27.59v-9.67a37.58,37.58,0,0,1,0,74.51V740A28,28,0,0,0,1645,712.41Z" fill="#484f57"/><path d="M1588.86,712.41A28,28,0,0,0,1612,740v9.67a37.58,37.58,0,0,1,0-74.51v9.67A28.06,28.06,0,0,0,1588.86,712.41Z" fill="#484f57"/><path d="M1561.59,732.26a28,28,0,0,0,3.16-35.86l6.84-6.84a37.58,37.58,0,0,1-52.69,52.69l6.84-6.84A28,28,0,0,0,1561.59,732.26Z" fill="#484f57"/><path d="M1521.88,692.55a28.05,28.05,0,0,0-3.16,35.86l-6.84,6.84a37.58,37.58,0,0,1,52.69-52.69l-6.84,6.84A28.05,28.05,0,0,0,1521.88,692.55Z" fill="#484f57"/><path d="M1664.08,637.59A28,28,0,0,1,1687.2,610v-9.67a37.58,37.58,0,0,0,0,74.51v-9.67A28,28,0,0,1,1664.08,637.59Z" fill="#484f57"/><path d="M1720.23,637.59a28,28,0,0,1-23.13,27.58v9.67a37.58,37.58,0,0,0,0-74.51V610A28,28,0,0,1,1720.23,637.59Z" fill="#484f57"/><path d="M1747.51,657.45a28,28,0,0,1-3.16-35.86l-6.83-6.83a37.58,37.58,0,0,0,52.69,52.68l-6.85-6.83A28,28,0,0,1,1747.51,657.45Z" fill="#484f57"/><path d="M1787.22,617.74a28,28,0,0,1,3.16,35.86l6.84,6.84a37.59,37.59,0,0,0-52.69-52.7l6.84,6.84A28.05,28.05,0,0,1,1787.22,617.74Z" fill="#484f57"/><path d="M1795.43,712.41a28,28,0,0,0-23.12-27.59v-9.67a37.58,37.58,0,0,1,0,74.51V740A28,28,0,0,0,1795.43,712.41Z" fill="#484f57"/><path d="M1739.28,712.41A28,28,0,0,0,1762.4,740v9.67a37.58,37.58,0,0,1,0-74.51v9.67A28,28,0,0,0,1739.28,712.41Z" fill="#484f57"/><path d="M1712,732.26a28.05,28.05,0,0,0,3.17-35.86l6.84-6.84a37.59,37.59,0,0,1-52.7,52.69l6.85-6.84A28,28,0,0,0,1712,732.26Z" fill="#484f57"/><path d="M1672.3,692.55a28,28,0,0,0-3.15,35.86l-6.84,6.84A37.58,37.58,0,0,1,1715,682.56l-6.84,6.84A28.05,28.05,0,0,0,1672.3,692.55Z" fill="#484f57"/><path d="M9.53,787.59A28,28,0,0,1,32.65,760v-9.67a37.58,37.58,0,0,0,0,74.51v-9.68A28,28,0,0,1,9.53,787.59Z" fill="#484f57"/><path d="M65.69,787.59a28,28,0,0,1-23.13,27.59v9.68a37.58,37.58,0,0,0,0-74.51V760A28.06,28.06,0,0,1,65.69,787.59Z" fill="#484f57"/><path d="M93,807.45a28,28,0,0,1-3.16-35.85L83,764.76a37.58,37.58,0,0,0,52.69,52.69l-6.84-6.84A28,28,0,0,1,93,807.45Z" fill="#484f57"/><path d="M132.67,767.74a28,28,0,0,1,3.16,35.86l6.84,6.84A37.58,37.58,0,0,0,90,757.74l6.84,6.84A28,28,0,0,1,132.67,767.74Z" fill="#484f57"/><path d="M140.88,862.41a28,28,0,0,0-23.11-27.59v-9.67a37.58,37.58,0,0,1,0,74.51V890A28,28,0,0,0,140.88,862.41Z" fill="#484f57"/><path d="M84.72,862.41A28,28,0,0,0,107.85,890v9.67a37.58,37.58,0,0,1,0-74.51v9.67A28.06,28.06,0,0,0,84.72,862.41Z" fill="#484f57"/><path d="M57.45,882.26a28,28,0,0,0,3.16-35.85l6.84-6.84a37.58,37.58,0,0,1-52.69,52.69l6.84-6.84A28,28,0,0,0,57.45,882.26Z" fill="#484f57"/><path d="M17.75,842.55a28,28,0,0,0-3.15,35.86l-6.84,6.84a37.58,37.58,0,0,1,52.69-52.69l-6.83,6.84A28.06,28.06,0,0,0,17.75,842.55Z" fill="#484f57"/><path d="M159.95,787.59A28,28,0,0,1,183.06,760v-9.67a37.58,37.58,0,0,0,0,74.51v-9.68A28,28,0,0,1,159.95,787.59Z" fill="#484f57"/><path d="M216.1,787.59A28,28,0,0,1,193,815.17v9.68a37.58,37.58,0,0,0,0-74.51V760A28.05,28.05,0,0,1,216.1,787.59Z" fill="#484f57"/><path d="M243.37,807.45a28,28,0,0,1-3.16-35.85l-6.83-6.83a37.58,37.58,0,0,0,52.69,52.69l-6.84-6.84A28,28,0,0,1,243.37,807.45Z" fill="#484f57"/><path d="M283.08,767.74a28,28,0,0,1,3.17,35.86l6.84,6.84a37.58,37.58,0,0,0-52.69-52.69l6.84,6.84A28,28,0,0,1,283.08,767.74Z" fill="#484f57"/><path d="M291.3,862.41a28,28,0,0,0-23.12-27.59v-9.67a37.58,37.58,0,0,1,0,74.51V890A28,28,0,0,0,291.3,862.41Z" fill="#484f57"/><path d="M235.14,862.41A28,28,0,0,0,258.27,890v9.67a37.58,37.58,0,0,1,0-74.51v9.67A28,28,0,0,0,235.14,862.41Z" fill="#484f57"/><path d="M207.87,882.26A28,28,0,0,0,211,846.41l6.83-6.84a37.59,37.59,0,0,1-52.69,52.69l6.85-6.84A28,28,0,0,0,207.87,882.26Z" fill="#484f57"/><path d="M168.16,842.55A28,28,0,0,0,165,878.41l-6.85,6.84a37.59,37.59,0,0,1,52.69-52.69L204,839.39A28.06,28.06,0,0,0,168.16,842.55Z" fill="#484f57"/><path d="M310.36,787.59A28,28,0,0,1,333.48,760v-9.67a37.58,37.58,0,0,0,0,74.51v-9.68A28,28,0,0,1,310.36,787.59Z" fill="#484f57"/><path d="M366.52,787.59a28,28,0,0,1-23.13,27.59v9.68a37.58,37.58,0,0,0,0-74.51V760A28.06,28.06,0,0,1,366.52,787.59Z" fill="#484f57"/><path d="M393.79,807.45a28,28,0,0,1-3.16-35.85l-6.84-6.83a37.58,37.58,0,0,0,52.69,52.69l-6.84-6.84A28,28,0,0,1,393.79,807.45Z" fill="#484f57"/><path d="M433.5,767.74a28,28,0,0,1,3.15,35.86l6.84,6.84a37.58,37.58,0,0,0-52.69-52.69l6.84,6.84A28.05,28.05,0,0,1,433.5,767.74Z" fill="#484f57"/><path d="M441.71,862.41a28,28,0,0,0-23.12-27.59v-9.67a37.58,37.58,0,0,1,0,74.51V890A28,28,0,0,0,441.71,862.41Z" fill="#484f57"/><path d="M385.56,862.41A28,28,0,0,0,408.68,890v9.67a37.58,37.58,0,0,1,0-74.51v9.67A28.06,28.06,0,0,0,385.56,862.41Z" fill="#484f57"/><path d="M358.28,882.26a28,28,0,0,0,3.15-35.85l6.84-6.84a37.58,37.58,0,0,1-52.69,52.69l6.83-6.84A28,28,0,0,0,358.28,882.26Z" fill="#484f57"/><path d="M318.57,842.55a28,28,0,0,0-3.15,35.86l-6.84,6.84a37.58,37.58,0,0,1,52.69-52.69l-6.84,6.84A28.06,28.06,0,0,0,318.57,842.55Z" fill="#484f57"/><path d="M460.77,787.59A28,28,0,0,1,483.89,760v-9.67a37.58,37.58,0,0,0,0,74.51v-9.68A28,28,0,0,1,460.77,787.59Z" fill="#484f57"/><path d="M516.92,787.59a28,28,0,0,1-23.12,27.59v9.68a37.58,37.58,0,0,0,0-74.51V760A28,28,0,0,1,516.92,787.59Z" fill="#484f57"/><path d="M544.2,807.45A28.05,28.05,0,0,1,541,771.59l-6.83-6.83a37.58,37.58,0,0,0,52.69,52.69l-6.84-6.84A28,28,0,0,1,544.2,807.45Z" fill="#484f57"/><path d="M583.91,767.74a28,28,0,0,1,3.16,35.86l6.84,6.84a37.58,37.58,0,0,0-52.69-52.69l6.84,6.84A28,28,0,0,1,583.91,767.74Z" fill="#484f57"/><path d="M592.12,862.41A28,28,0,0,0,569,834.82v-9.67a37.58,37.58,0,0,1,0,74.51V890A28,28,0,0,0,592.12,862.41Z" fill="#484f57"/><path d="M536,862.41A28,28,0,0,0,559.09,890v9.67a37.58,37.58,0,0,1,0-74.51v9.67A28.06,28.06,0,0,0,536,862.41Z" fill="#484f57"/><path d="M508.69,882.26a28,28,0,0,0,3.17-35.85l6.83-6.84A37.58,37.58,0,0,1,466,892.26l6.84-6.84A28,28,0,0,0,508.69,882.26Z" fill="#484f57"/><path d="M469,842.55a28.05,28.05,0,0,0-3.16,35.86L459,885.25a37.58,37.58,0,0,1,52.69-52.69l-6.84,6.84A28.06,28.06,0,0,0,469,842.55Z" fill="#484f57"/><path d="M611.19,787.59A28,28,0,0,1,634.3,760v-9.67a37.58,37.58,0,0,0,0,74.51v-9.68A28,28,0,0,1,611.19,787.59Z" fill="#484f57"/><path d="M667.34,787.59a28,28,0,0,1-23.12,27.59v9.68a37.58,37.58,0,0,0,0-74.51V760A28.06,28.06,0,0,1,667.34,787.59Z" fill="#484f57"/><path d="M694.62,807.45a28,28,0,0,1-3.17-35.85l-6.84-6.83a37.58,37.58,0,0,0,52.69,52.69l-6.84-6.84A28,28,0,0,1,694.62,807.45Z" fill="#484f57"/><path d="M734.32,767.74a28,28,0,0,1,3.16,35.86l6.84,6.84a37.58,37.58,0,0,0-52.69-52.69l6.84,6.84A28,28,0,0,1,734.32,767.74Z" fill="#484f57"/><path d="M742.54,862.41a28,28,0,0,0-23.12-27.59v-9.67a37.58,37.58,0,0,1,0,74.51V890A28,28,0,0,0,742.54,862.41Z" fill="#484f57"/><path d="M686.39,862.41A28,28,0,0,0,709.51,890v9.67a37.58,37.58,0,0,1,0-74.51v9.67A28,28,0,0,0,686.39,862.41Z" fill="#484f57"/><path d="M659.11,882.26a28,28,0,0,0,3.15-35.85l6.84-6.84a37.58,37.58,0,0,1-52.69,52.69l6.84-6.84A28,28,0,0,0,659.11,882.26Z" fill="#484f57"/><path d="M619.4,842.55a28.06,28.06,0,0,0-3.16,35.86l-6.84,6.84a37.58,37.58,0,0,1,52.69-52.69l-6.83,6.84A28.07,28.07,0,0,0,619.4,842.55Z" fill="#484f57"/><path d="M761.6,787.59A28,28,0,0,1,784.72,760v-9.67a37.58,37.58,0,0,0,0,74.51v-9.68A28,28,0,0,1,761.6,787.59Z" fill="#484f57"/><path d="M817.75,787.59a28,28,0,0,1-23.13,27.59v9.68a37.58,37.58,0,0,0,0-74.51V760A28.05,28.05,0,0,1,817.75,787.59Z" fill="#484f57"/><path d="M845,807.45a28,28,0,0,1-3.16-35.85L835,764.76a37.58,37.58,0,0,0,52.69,52.69l-6.83-6.84A28,28,0,0,1,845,807.45Z" fill="#484f57"/><path d="M884.74,767.74a28,28,0,0,1,3.15,35.86l6.84,6.84A37.58,37.58,0,0,0,842,757.74l6.84,6.84A28,28,0,0,1,884.74,767.74Z" fill="#484f57"/><path d="M893,862.41a28,28,0,0,0-23.12-27.59v-9.67a37.58,37.58,0,0,1,0,74.51V890A28,28,0,0,0,893,862.41Z" fill="#484f57"/><path d="M836.79,862.41A28,28,0,0,0,859.92,890v9.67a37.58,37.58,0,0,1,0-74.51v9.67A28.06,28.06,0,0,0,836.79,862.41Z" fill="#484f57"/><path d="M809.52,882.26a28,28,0,0,0,3.16-35.85l6.84-6.84a37.58,37.58,0,0,1-52.69,52.69l6.83-6.84A28,28,0,0,0,809.52,882.26Z" fill="#484f57"/><path d="M769.82,842.55a28,28,0,0,0-3.16,35.86l-6.84,6.84a37.58,37.58,0,0,1,52.69-52.69l-6.84,6.84A28.06,28.06,0,0,0,769.82,842.55Z" fill="#484f57"/><path d="M912,787.59A28,28,0,0,1,935.12,760v-9.67a37.58,37.58,0,0,0,0,74.51v-9.68A28,28,0,0,1,912,787.59Z" fill="#484f57"/><path d="M968.17,787.59A28,28,0,0,1,945,815.17v9.68a37.58,37.58,0,0,0,0-74.51V760A28,28,0,0,1,968.17,787.59Z" fill="#484f57"/><path d="M995.44,807.45a28,28,0,0,1-3.15-35.85l-6.84-6.83a37.58,37.58,0,0,0,52.69,52.69l-6.84-6.84A28,28,0,0,1,995.44,807.45Z" fill="#484f57"/><path d="M1035.15,767.74a28,28,0,0,1,3.15,35.86l6.84,6.84a37.58,37.58,0,0,0-52.69-52.69l6.83,6.84A28,28,0,0,1,1035.15,767.74Z" fill="#484f57"/><path d="M1043.37,862.41a28,28,0,0,0-23.12-27.59v-9.67a37.58,37.58,0,0,1,0,74.51V890A28,28,0,0,0,1043.37,862.41Z" fill="#484f57"/><path d="M987.21,862.41A28,28,0,0,0,1010.33,890v9.67a37.58,37.58,0,0,1,0-74.51v9.67A28.06,28.06,0,0,0,987.21,862.41Z" fill="#484f57"/><path d="M959.94,882.26a28,28,0,0,0,3.16-35.85l6.84-6.84a37.58,37.58,0,0,1-52.69,52.69l6.84-6.84A28,28,0,0,0,959.94,882.26Z" fill="#484f57"/><path d="M920.23,842.55a28.05,28.05,0,0,0-3.16,35.86l-6.84,6.84a37.58,37.58,0,0,1,52.69-52.69l-6.83,6.84A28.06,28.06,0,0,0,920.23,842.55Z" fill="#484f57"/><path d="M1062.43,787.59A28,28,0,0,1,1085.55,760v-9.67a37.58,37.58,0,0,0,0,74.51v-9.68A28,28,0,0,1,1062.43,787.59Z" fill="#484f57"/><path d="M1118.59,787.59a28,28,0,0,1-23.13,27.59v9.68a37.58,37.58,0,0,0,0-74.51V760A28.06,28.06,0,0,1,1118.59,787.59Z" fill="#484f57"/><path d="M1145.86,807.45a28,28,0,0,1-3.17-35.85l-6.84-6.83a37.58,37.58,0,0,0,52.69,52.69l-6.84-6.84A28,28,0,0,1,1145.86,807.45Z" fill="#484f57"/><path d="M1185.56,767.74a28,28,0,0,1,3.16,35.86l6.84,6.84a37.58,37.58,0,0,0-52.69-52.69l6.83,6.84A28,28,0,0,1,1185.56,767.74Z" fill="#484f57"/><path d="M1193.79,862.41a28,28,0,0,0-23.12-27.59v-9.67a37.58,37.58,0,0,1,0,74.51V890A28,28,0,0,0,1193.79,862.41Z" fill="#484f57"/><path d="M1137.62,862.41A28,28,0,0,0,1160.75,890v9.67a37.58,37.58,0,0,1,0-74.51v9.67A28.06,28.06,0,0,0,1137.62,862.41Z" fill="#484f57"/><path d="M1110.35,882.26a28,28,0,0,0,3.16-35.85l6.84-6.84a37.59,37.59,0,0,1-52.69,52.69l6.85-6.84A28,28,0,0,0,1110.35,882.26Z" fill="#484f57"/><path d="M1070.64,842.55a28.06,28.06,0,0,0-3.16,35.86l-6.83,6.84a37.58,37.58,0,0,1,52.69-52.69l-6.84,6.84A28.07,28.07,0,0,0,1070.64,842.55Z" fill="#484f57"/><path d="M1212.84,787.59A28,28,0,0,1,1236,760v-9.67a37.58,37.58,0,0,0,0,74.51v-9.68A28,28,0,0,1,1212.84,787.59Z" fill="#484f57"/><path d="M1269,787.59a28,28,0,0,1-23.13,27.59v9.68a37.58,37.58,0,0,0,0-74.51V760A28.05,28.05,0,0,1,1269,787.59Z" fill="#484f57"/><path d="M1296.27,807.45a28,28,0,0,1-3.16-35.85l-6.83-6.83A37.58,37.58,0,0,0,1339,817.45l-6.84-6.84A28,28,0,0,1,1296.27,807.45Z" fill="#484f57"/><path d="M1336,767.74a28,28,0,0,1,3.15,35.86l6.84,6.84a37.58,37.58,0,0,0-52.69-52.69l6.84,6.84A28,28,0,0,1,1336,767.74Z" fill="#484f57"/><path d="M1344.19,862.41a28,28,0,0,0-23.11-27.59v-9.67a37.58,37.58,0,0,1,0,74.51V890A28,28,0,0,0,1344.19,862.41Z" fill="#484f57"/><path d="M1288,862.41A28,28,0,0,0,1311.16,890v9.67a37.58,37.58,0,0,1,0-74.51v9.67A28.06,28.06,0,0,0,1288,862.41Z" fill="#484f57"/><path d="M1260.76,882.26a28,28,0,0,0,3.16-35.85l6.84-6.84a37.58,37.58,0,0,1-52.69,52.69l6.84-6.84A28,28,0,0,0,1260.76,882.26Z" fill="#484f57"/><path d="M1221.06,842.55a28,28,0,0,0-3.15,35.86l-6.84,6.84a37.58,37.58,0,0,1,52.69-52.69l-6.84,6.84A28.06,28.06,0,0,0,1221.06,842.55Z" fill="#484f57"/><path d="M1363.25,787.59A28,28,0,0,1,1386.37,760v-9.67a37.58,37.58,0,0,0,0,74.51v-9.68A28,28,0,0,1,1363.25,787.59Z" fill="#484f57"/><path d="M1419.41,787.59a28,28,0,0,1-23.13,27.59v9.68a37.58,37.58,0,0,0,0-74.51V760A28.05,28.05,0,0,1,1419.41,787.59Z" fill="#484f57"/><path d="M1446.68,807.45a28.06,28.06,0,0,1-3.15-35.85l-6.84-6.83a37.58,37.58,0,0,0,52.69,52.69l-6.84-6.84A28,28,0,0,1,1446.68,807.45Z" fill="#484f57"/><path d="M1486.39,767.74a28,28,0,0,1,3.15,35.86l6.84,6.84a37.58,37.58,0,0,0-52.69-52.69l6.84,6.84A28,28,0,0,1,1486.39,767.74Z" fill="#484f57"/><path d="M1494.61,862.41a28,28,0,0,0-23.12-27.59v-9.67a37.58,37.58,0,0,1,0,74.51V890A28,28,0,0,0,1494.61,862.41Z" fill="#484f57"/><path d="M1438.45,862.41A28,28,0,0,0,1461.58,890v9.67a37.58,37.58,0,0,1,0-74.51v9.67A28.05,28.05,0,0,0,1438.45,862.41Z" fill="#484f57"/><path d="M1411.18,882.26a28,28,0,0,0,3.16-35.85l6.84-6.84a37.59,37.59,0,0,1-52.69,52.69l6.85-6.84A28,28,0,0,0,1411.18,882.26Z" fill="#484f57"/><path d="M1371.47,842.55a28.05,28.05,0,0,0-3.16,35.86l-6.84,6.84a37.58,37.58,0,0,1,52.69-52.69l-6.84,6.84A28.05,28.05,0,0,0,1371.47,842.55Z" fill="#484f57"/><path d="M1513.67,787.59A28,28,0,0,1,1536.79,760v-9.67a37.58,37.58,0,0,0,0,74.51v-9.68A28,28,0,0,1,1513.67,787.59Z" fill="#484f57"/><path d="M1569.83,787.59a28,28,0,0,1-23.13,27.59v9.68a37.58,37.58,0,0,0,0-74.51V760A28.06,28.06,0,0,1,1569.83,787.59Z" fill="#484f57"/><path d="M1597.1,807.45a28,28,0,0,1-3.16-35.85l-6.84-6.83a37.58,37.58,0,0,0,52.69,52.69L1633,810.6A28,28,0,0,1,1597.1,807.45Z" fill="#484f57"/><path d="M1636.81,767.74a28,28,0,0,1,3.15,35.86l6.84,6.84a37.58,37.58,0,0,0-52.69-52.69l6.83,6.84A28.06,28.06,0,0,1,1636.81,767.74Z" fill="#484f57"/><path d="M1645,862.41a28,28,0,0,0-23.12-27.59v-9.67a37.58,37.58,0,0,1,0,74.51V890A28,28,0,0,0,1645,862.41Z" fill="#484f57"/><path d="M1588.86,862.41A28,28,0,0,0,1612,890v9.67a37.58,37.58,0,0,1,0-74.51v9.67A28.06,28.06,0,0,0,1588.86,862.41Z" fill="#484f57"/><path d="M1561.59,882.26a28,28,0,0,0,3.16-35.85l6.84-6.84a37.59,37.59,0,0,1-52.69,52.69l6.84-6.84A28,28,0,0,0,1561.59,882.26Z" fill="#484f57"/><path d="M1521.88,842.55a28.05,28.05,0,0,0-3.16,35.86l-6.84,6.84a37.58,37.58,0,0,1,52.69-52.69l-6.84,6.84A28.06,28.06,0,0,0,1521.88,842.55Z" fill="#484f57"/><path d="M1664.08,787.59A28,28,0,0,1,1687.2,760v-9.67a37.58,37.58,0,0,0,0,74.51v-9.68A28,28,0,0,1,1664.08,787.59Z" fill="#484f57"/><path d="M1720.23,787.59a28,28,0,0,1-23.13,27.59v9.68a37.58,37.58,0,0,0,0-74.51V760A28,28,0,0,1,1720.23,787.59Z" fill="#484f57"/><path d="M1747.51,807.45a28,28,0,0,1-3.16-35.85l-6.83-6.83a37.58,37.58,0,0,0,52.69,52.69l-6.85-6.84A28,28,0,0,1,1747.51,807.45Z" fill="#484f57"/><path d="M1787.22,767.74a28,28,0,0,1,3.16,35.86l6.84,6.84a37.59,37.59,0,0,0-52.69-52.69l6.84,6.84A28,28,0,0,1,1787.22,767.74Z" fill="#484f57"/><path d="M1795.43,862.41a28,28,0,0,0-23.12-27.59v-9.67a37.58,37.58,0,0,1,0,74.51V890A28,28,0,0,0,1795.43,862.41Z" fill="#484f57"/><path d="M1739.28,862.41A28,28,0,0,0,1762.4,890v9.67a37.58,37.58,0,0,1,0-74.51v9.67A28.05,28.05,0,0,0,1739.28,862.41Z" fill="#484f57"/><path d="M1712,882.26a28,28,0,0,0,3.17-35.85l6.84-6.84a37.59,37.59,0,0,1-52.7,52.69l6.85-6.84A28,28,0,0,0,1712,882.26Z" fill="#484f57"/><path d="M1672.3,842.55a28,28,0,0,0-3.15,35.86l-6.84,6.84A37.58,37.58,0,0,1,1715,832.56l-6.84,6.84A28.06,28.06,0,0,0,1672.3,842.55Z" fill="#484f57"/></g></g></g></g></svg>